<?xml version="1.0" encoding="UTF-8" standalone="no"?>
<svg
   xmlns:dc="http://purl.org/dc/elements/1.1/"
   xmlns:cc="http://creativecommons.org/ns#"
   xmlns:rdf="http://www.w3.org/1999/02/22-rdf-syntax-ns#"
   xmlns:svg="http://www.w3.org/2000/svg"
   xmlns="http://www.w3.org/2000/svg"
   xmlns:sodipodi="http://sodipodi.sourceforge.net/DTD/sodipodi-0.dtd"
   xmlns:inkscape="http://www.inkscape.org/namespaces/inkscape"
   width="500"
   height="540.00006"
   viewBox="0 0 132.29166 142.87502"
   version="1.1"
   id="svg847"
   sodipodi:docname="lieksa.svg"
   inkscape:version="1.0.2 (e86c870879, 2021-01-15, custom)">
  <defs
     id="defs841" />
  <sodipodi:namedview
     id="base"
     pagecolor="#ffffff"
     bordercolor="#666666"
     borderopacity="1.0"
     inkscape:pageopacity="0.0"
     inkscape:pageshadow="2"
     inkscape:zoom="0.98994949"
     inkscape:cx="345.63559"
     inkscape:cy="302.03861"
     inkscape:document-units="px"
     inkscape:current-layer="layer1"
     inkscape:document-rotation="0"
     showgrid="false"
     inkscape:snap-smooth-nodes="true"
     inkscape:showpageshadow="false"
     borderlayer="true"
     units="px"
     inkscape:window-width="1920"
     inkscape:window-height="1017"
     inkscape:window-x="-8"
     inkscape:window-y="-4"
     inkscape:window-maximized="1"
     inkscape:object-paths="false"
     inkscape:snap-global="false" />
  <metadata
     id="metadata844">
    <rdf:RDF>
      <cc:Work
         rdf:about="">
        <dc:format>image/svg+xml</dc:format>
        <dc:type
           rdf:resource="http://purl.org/dc/dcmitype/StillImage" />
        <dc:title></dc:title>
      </cc:Work>
    </rdf:RDF>
  </metadata>
  <g
     inkscape:label="Layer 1"
     inkscape:groupmode="layer"
     id="layer1"
     transform="translate(-47.010788,-55.087167)">
    <g
       id="g1600"
       transform="matrix(0.94086016,0,0,0.94086016,2.7802107,3.2608099)"
       style="stroke-width:1.06286">
      <path
         style="font-variation-settings:normal;opacity:1;vector-effect:none;fill:#d50606;fill-opacity:1;stroke:none;stroke-width:0.281214;stroke-linecap:butt;stroke-linejoin:miter;stroke-miterlimit:4;stroke-dasharray:none;stroke-dashoffset:0;stroke-opacity:1;stop-color:#000000;stop-opacity:1"
         d="m 47.010788,55.084017 4.104507,89.624203 c 1.502977,32.61239 28.872954,62.23153 66.199065,62.23153 37.32612,0 64.6961,-29.61914 66.19907,-62.23153 1.50298,-32.61239 4.10451,-89.624203 4.10451,-89.624203 z"
         id="path844"
         sodipodi:nodetypes="czzzcc" />
      <path
         id="path1416"
         style="font-variation-settings:normal;opacity:1;vector-effect:none;fill:#666666;fill-opacity:1;stroke:none;stroke-width:0.53143;stroke-linecap:butt;stroke-linejoin:miter;stroke-miterlimit:4;stroke-dasharray:none;stroke-dashoffset:0;stroke-opacity:1;stop-color:#000000;stop-opacity:1"
         d="m 368.39844,641.00391 -6.87696,9.16797 c 6.45012,8.62176 8.71936,17.03459 9.3125,21.98242 l -8.22265,5.4375 -6.16016,1.07226 c 5.5976,5.2368 10.40087,8.07076 18.01367,10.75782 3.2143,-3.21427 7.96568,-18.46455 2.67774,-33.48243 -1.98713,-5.64343 -4.77966,-10.45088 -8.74414,-14.93554 z"
         transform="scale(0.26458333)" />
      <path
         id="path1561"
         style="font-variation-settings:normal;opacity:1;vector-effect:none;fill:#666666;fill-opacity:1;stroke:none;stroke-width:0.53143;stroke-linecap:butt;stroke-linejoin:miter;stroke-miterlimit:4;stroke-dasharray:none;stroke-dashoffset:0;stroke-opacity:1;stop-color:#000000;stop-opacity:1"
         d="m 288.39258,480.30664 v 32.33008 c 0,0 -18.75055,9.64229 -21.96485,38.03516 -3.21428,28.39282 36.17997,63.70294 71.78711,80.89257 l 1.72657,-10.99804 c -0.9874,-0.54913 -1.67361,-1.0291 -2.70899,-1.5918 -23.64286,-12.84937 -44.46484,-26.78489 -51.96484,-57.05273 -7.5,-30.26786 15.69531,-40.44727 15.69531,-40.44727 v -35.42383 z"
         transform="scale(0.26458333)" />
      <path
         id="path1563"
         style="font-variation-settings:normal;opacity:1;vector-effect:none;fill:#ffffff;fill-opacity:1;stroke:none;stroke-width:0.53143;stroke-linecap:butt;stroke-linejoin:miter;stroke-miterlimit:4;stroke-dasharray:none;stroke-dashoffset:0;stroke-opacity:1;stop-color:#000000;stop-opacity:1"
         d="m 361.52148,650.17188 6.87696,-9.16797 c -6.12346,-6.92693 -15.37012,-13.15936 -28.45703,-20.4375 -2.39832,-1.05258 -4.79977,-2.09891 -7.44488,-2.65791 2.3548,1.31931 4.39742,2.53108 6.00277,4.72883 -2.171,-1.47434 -4.40057,-2.39415 -6.8179,-3.12951 2.23383,1.59653 4.50606,3.17385 6.25094,5.01485 z"
         transform="scale(0.26458333)"
         sodipodi:nodetypes="cccccccc" />
      <path
         id="path1435"
         style="font-variation-settings:normal;opacity:1;vector-effect:none;fill:#ffffff;fill-opacity:1;stroke:none;stroke-width:0.53143;stroke-linecap:butt;stroke-linejoin:miter;stroke-miterlimit:4;stroke-dasharray:none;stroke-dashoffset:0;stroke-opacity:1;stop-color:#000000;stop-opacity:1"
         d="m 361.68359,651.0918 -4.10547,5.92382 c 5.05143,9.20479 0.98867,19.10969 -1.12695,21.64844 1.46919,0.2981 4.40515,0.19651 6.16016,-1.07226 l 8.22265,-5.4375 c -1.28959,-5.9942 -3.92327,-13.60073 -9.15039,-21.0625 z"
         transform="scale(0.26458333)" />
      <path
         id="path1558"
         style="font-variation-settings:normal;opacity:1;vector-effect:none;fill:#666666;fill-opacity:1;stroke:none;stroke-width:0.53143;stroke-linecap:butt;stroke-linejoin:miter;stroke-miterlimit:4;stroke-dasharray:none;stroke-dashoffset:0;stroke-opacity:1;stop-color:#000000;stop-opacity:1"
         d="m 304.57422,610.24414 -4.28711,10.17969 c 22.41702,13.54426 38.74912,19.98861 51.23047,29.5332 2.87106,2.19552 4.71639,4.60926 6.06054,7.05859 l 4.10547,-5.92382 c -5.01917,-7.16495 -12.42665,-14.19668 -23.46875,-19.52735 -11.37298,-5.4904 -23.00671,-12.94854 -33.64062,-21.32031 z"
         transform="scale(0.26458333)" />
      <path
         id="path1556"
         style="font-variation-settings:normal;opacity:1;vector-effect:none;fill:#ffffff;fill-opacity:1;stroke:none;stroke-width:0.53143;stroke-linecap:butt;stroke-linejoin:miter;stroke-miterlimit:4;stroke-dasharray:none;stroke-dashoffset:0;stroke-opacity:1;stop-color:#000000;stop-opacity:1"
         d="m 288.39258,480.30664 -13.18946,3.84961 v 24.37305 c 0,0 -22.41259,8.5837 -24.30664,37.37304 -1.89403,28.78935 17.29518,54.36147 43.1836,70.83594 2.23501,1.42228 4.08884,2.40575 6.20703,3.68555 2.18198,0.96987 4.83747,2.03176 7.30355,2.56547 -1.85565,-1.20268 -3.66321,-2.21743 -4.91298,-3.77954 1.75747,0.84236 4.01194,1.78058 6.22664,2.14566 -1.78803,-1.27683 -3.36808,-2.43229 -4.85346,-4.19936 l 0.52336,-6.91192 c -22.65928,-17.839 -40.33412,-40.24816 -38.14649,-59.57226 3.2143,-28.39287 21.96485,-38.03516 21.96485,-38.03516 z"
         transform="scale(0.26458333)"
         sodipodi:nodetypes="cccssccccccscc" />
      <path
         style="font-variation-settings:normal;opacity:1;vector-effect:none;fill:#cccccc;fill-opacity:1;stroke:none;stroke-width:0.140608;stroke-linecap:butt;stroke-linejoin:miter;stroke-miterlimit:4;stroke-dasharray:none;stroke-dashoffset:0;stroke-opacity:1;stop-color:#000000;stop-opacity:1"
         d="m 73.877143,127.53288 v 7.86567 c 0,0 -5.473727,2.65713 -5.922635,9.48056 -0.44891,6.82343 3.872183,12.9486 10.721827,17.30747 6.849642,4.35886 10.714961,5.74199 14.329357,8.50594 3.614399,2.76395 3.714797,6.17748 2.935221,8.58707 0.792716,0.74162 1.664793,1.25495 2.509925,1.62213 0.419256,-2.28923 0.802452,-4.5746 -0.185521,-7.38043 -1.293473,-3.67346 -3.20903,-5.2168 -9.464537,-8.61653 -6.255506,-3.39973 -12.627504,-7.7573 -14.568644,-15.35823 -1.941137,-7.60095 1.979629,-11.39421 4.339294,-12.10211 V 127.4204 Z"
         id="path1420"
         sodipodi:nodetypes="ccsssccsssccc" />
      <path
         id="path899"
         style="font-variation-settings:normal;opacity:1;vector-effect:none;fill:#666666;fill-opacity:1;stroke:none;stroke-width:0.53143;stroke-linecap:butt;stroke-linejoin:miter;stroke-miterlimit:4;stroke-dasharray:none;stroke-dashoffset:0;stroke-opacity:1;stop-color:#000000;stop-opacity:1"
         d="m 374.46484,220.89258 c -1.79712,1.89958 -2.32164,3.79963 -2.36718,5.69922 0,0 1.72434,34.96854 -33.88282,52.1582 -35.60714,17.18966 -75.00139,52.49972 -71.78711,80.89258 3.21429,28.39284 21.96485,38.03515 21.96485,38.03515 v 32.3312 l 13.9096,-2.6649 -1.33933,-10.65653 4e-5,-27.84766 c 0,0 -23.19531,-10.17942 -15.69531,-40.44726 7.5,-30.26786 28.32198,-44.20336 51.96484,-57.05274 23.64286,-12.84938 34.62218,-21.94698 39.91016,-36.96484 5.28799,-15.01786 0.53655,-30.26814 -2.67774,-33.48242 z"
         transform="scale(0.26458333)"
         sodipodi:nodetypes="ccsscccccsssc" />
      <path
         id="path1399"
         style="font-variation-settings:normal;opacity:1;vector-effect:none;fill:#ffffff;fill-opacity:1;stroke:none;stroke-width:0.53143;stroke-linecap:butt;stroke-linejoin:miter;stroke-miterlimit:4;stroke-dasharray:none;stroke-dashoffset:0;stroke-opacity:1;stop-color:#000000;stop-opacity:1"
         d="m 374.46484,220.89258 c -7.6128,2.68709 -12.41607,5.52099 -18.01367,10.75781 2.67857,3.21428 8.72713,18.2606 -4.93359,28.70703 -13.66071,10.44643 -31.54908,16.7443 -57.4375,33.21875 -25.88842,16.47445 -45.07763,42.04659 -43.1836,70.83594 1.89404,28.78934 24.30664,37.37305 24.30664,37.37305 l -4e-5,12.4414 -1.33925,12.1995 14.52875,3.58287 v -32.3312 c 0,0 -18.75056,-9.64231 -21.96485,-38.03515 -3.21428,-28.39286 36.17997,-63.70292 71.78711,-80.89258 35.60716,-17.18966 33.88282,-52.1582 33.88282,-52.1582 0.0455,-1.89959 0.57006,-3.79964 2.36718,-5.69922 z"
         transform="scale(0.26458333)"
         sodipodi:nodetypes="ccssscccccsscc" />
      <path
         style="font-variation-settings:normal;opacity:1;vector-effect:none;fill:#cccccc;fill-opacity:1;stroke:none;stroke-width:0.53143;stroke-linecap:butt;stroke-linejoin:miter;stroke-miterlimit:4;stroke-dasharray:none;stroke-dashoffset:0;stroke-opacity:1;stop-color:#000000;stop-opacity:1"
         d="m 279.2207,428.30078 v -29.72851 c 0,0 -20.6881,-10.0427 -22.38476,-35.83204 -1.69667,-25.78934 14.63502,-48.93961 40.52344,-65.41406 25.88841,-16.47445 40.49749,-21.702 54.1582,-32.14844 13.66072,-10.44642 14.04018,-23.34794 11.09375,-32.45507 2.99609,-2.80298 6.29213,-4.74312 9.48633,-6.13086 1.58459,8.65219 3.03289,17.28981 -0.70118,27.89453 -4.88872,13.88395 -12.12862,19.71702 -35.77148,32.5664 -23.64286,12.84939 -47.726,29.31891 -55.06259,58.04688 -7.33659,28.72797 7.48206,43.06471 16.40048,45.74023 v 37.88608 z"
         transform="scale(0.26458333)"
         id="path1331"
         sodipodi:nodetypes="ccsssccsssccc" />
      <path
         id="path1454"
         style="font-variation-settings:normal;vector-effect:none;fill:#666666;fill-opacity:1;stroke:none;stroke-width:0.140608;stroke-linecap:butt;stroke-linejoin:miter;stroke-miterlimit:4;stroke-dasharray:none;stroke-dashoffset:0;stroke-opacity:1;stop-color:#000000"
         d="m 94.208202,64.108231 0.213939,1.030428 0.07441,1.277959 32.518949,43.109512 1.11466,-0.49971 -0.14159,-0.53175 c 0,0 -32.501138,-43.109964 -33.057419,-43.849004 -0.239181,-0.317762 -0.472665,-0.502576 -0.722953,-0.537435 z" />
      <path
         id="path903"
         style="font-variation-settings:normal;vector-effect:none;fill:#ffffff;fill-opacity:1;stroke:none;stroke-width:0.140608;stroke-linecap:butt;stroke-linejoin:miter;stroke-miterlimit:4;stroke-dasharray:none;stroke-dashoffset:0;stroke-opacity:1;stop-color:#000000"
         d="m 94.208202,64.108231 c -0.331825,-0.04622 -0.693354,0.170916 -1.136364,0.690915 -0.777164,0.912217 -0.971759,1.776568 -0.415478,2.515608 0.556278,0.739039 32.52566,43.034066 32.52566,43.034066 l 1.83348,-0.82269 -32.518945,-43.109512 -0.07441,-1.277959 c 0.131982,-0.343477 0.0595,-0.737066 -0.213939,-1.030428 z"
         sodipodi:nodetypes="cssccccc" />
      <path
         style="font-variation-settings:normal;vector-effect:none;fill:#cccccc;fill-opacity:1;stroke:none;stroke-width:0.140608;stroke-linecap:butt;stroke-linejoin:miter;stroke-miterlimit:4;stroke-dasharray:none;stroke-dashoffset:0;stroke-opacity:1;stop-color:#000000"
         d="m 125.97599,109.8244 c 0,0 -32.220839,-42.042386 -32.593517,-42.537505 -0.372678,-0.495119 -0.242173,-1.07416 0.278485,-1.685298 0.296794,-0.348371 0.538841,-0.493902 0.761147,-0.462936 0.16768,0.02335 0.324128,0.147129 0.484367,0.360013 0.372679,0.495118 32.544988,43.464236 32.544988,43.464236 z"
         id="path1450"
         sodipodi:nodetypes="czssscc" />
      <path
         id="path1462"
         style="font-variation-settings:normal;vector-effect:none;fill:#666666;fill-opacity:1;stroke:none;stroke-width:0.140608;stroke-linecap:butt;stroke-linejoin:miter;stroke-miterlimit:4;stroke-dasharray:none;stroke-dashoffset:0;stroke-opacity:1;stop-color:#000000"
         d="m 94.208123,176.74557 0.21394,-1.03043 0.07441,-1.27796 32.518947,-43.10951 1.11466,0.49971 -0.14159,0.53175 c 0,0 -32.501137,43.10996 -33.057418,43.849 -0.239181,0.31777 -0.472665,0.50258 -0.722953,0.53744 z" />
      <path
         id="path1464"
         style="font-variation-settings:normal;vector-effect:none;fill:#ffffff;fill-opacity:1;stroke:none;stroke-width:0.140608;stroke-linecap:butt;stroke-linejoin:miter;stroke-miterlimit:4;stroke-dasharray:none;stroke-dashoffset:0;stroke-opacity:1;stop-color:#000000"
         d="m 94.208123,176.74557 c -0.331824,0.0462 -0.693354,-0.17092 -1.136364,-0.69092 -0.777163,-0.91221 -0.971759,-1.77656 -0.415478,-2.5156 0.556279,-0.73904 32.525659,-43.03407 32.525659,-43.03407 l 1.83348,0.82269 -32.518943,43.10951 -0.07441,1.27796 c 0.131982,0.34348 0.0595,0.73707 -0.21394,1.03043 z"
         sodipodi:nodetypes="cssccccc" />
      <path
         style="font-variation-settings:normal;vector-effect:none;fill:#cccccc;fill-opacity:1;stroke:none;stroke-width:0.140608;stroke-linecap:butt;stroke-linejoin:miter;stroke-miterlimit:4;stroke-dasharray:none;stroke-dashoffset:0;stroke-opacity:1;stop-color:#000000"
         d="m 125.97591,131.0294 c 0,0 -32.220838,42.04239 -32.593516,42.53751 -0.372678,0.49511 -0.242173,1.07416 0.278485,1.68529 0.296794,0.34837 0.538841,0.49391 0.761147,0.46294 0.16768,-0.0233 0.324128,-0.14713 0.484367,-0.36001 0.372679,-0.49512 32.544987,-43.46424 32.544987,-43.46424 z"
         id="path1466"
         sodipodi:nodetypes="czssscc" />
      <path
         id="path1533"
         style="font-variation-settings:normal;opacity:1;vector-effect:none;fill:#666666;fill-opacity:1;stroke:none;stroke-width:1.06286;stroke-linecap:butt;stroke-linejoin:miter;stroke-miterlimit:4;stroke-dasharray:none;stroke-dashoffset:0;stroke-opacity:1;stop-color:#000000;stop-opacity:1"
         d="m 249.82227,420.53516 -3.70313,5.05468 -27.19141,20.83789 6.69336,-2.83593 8.93164,-2.56446 c 7.03961,-4.07588 15.04477,-9.5907 15.26954,-20.49218 z m -30.89454,25.89257 6.69336,4.08789 8.93164,2.56446 h 26.38477 v -6.65235 z m 0,0 -17.47265,0.625 H 196.25 c 4.21704,5.48213 14.12146,7.04808 26.25,12.58985 12.12854,5.54177 21.32322,9.43038 27.32227,13.92969 l -3.70313,-5.05469 z"
         transform="scale(0.26458333)" />
      <path
         id="path1535"
         style="font-variation-settings:normal;opacity:1;vector-effect:none;fill:#ffffff;fill-opacity:1;stroke:none;stroke-width:1.06286;stroke-linecap:butt;stroke-linejoin:miter;stroke-miterlimit:4;stroke-dasharray:none;stroke-dashoffset:0;stroke-opacity:1;stop-color:#000000;stop-opacity:1"
         transform="scale(0.26458333)"
         d="m 249.82227,420.53516 c -5.99905,4.4993 -15.19373,8.38791 -27.32227,13.92968 -12.12854,5.54177 -22.03296,7.10577 -26.25,12.58789 0.99633,0.35989 3.52477,0.51349 5.20508,0 l 17.47265,-0.625 27.19141,-20.83789 c 1.72346,-1.52186 3.00462,-3.28587 3.70313,-5.05468 z m -30.89454,25.89257 h 42.00977 v -5.40039 h -26.38477 c -3.31136,0.3536 -6.11116,1.47455 -8.93164,2.56446 z m 0,0 27.19141,22.08985 c 0.5358,1.6849 2.46222,3.36979 3.70313,5.05469 -0.22477,-10.90148 -8.22993,-16.41631 -15.26954,-20.49219 -2.59218,-1.11151 -5.58189,-1.958 -8.93164,-2.56446 z"
         sodipodi:nodetypes="csccccccccccccccccc" />
      <path
         id="path1502"
         style="font-variation-settings:normal;opacity:1;vector-effect:none;fill:#cccccc;fill-opacity:1;stroke:none;stroke-width:0.281214;stroke-linecap:butt;stroke-linejoin:miter;stroke-miterlimit:4;stroke-dasharray:none;stroke-dashoffset:0;stroke-opacity:1;stop-color:#000000;stop-opacity:1"
         d="m 68.557154,117.36714 h -8.861687 c 2.002313,-1.26352 4.777767,-2.23591 5.423777,-4.76305 -3.148373,1.91949 -4.92915,2.55837 -6.938154,3.3624 -2.009004,0.80404 -3.676641,1.50502 -4.87923,2.31643 1.202589,0.81141 2.870226,1.51239 4.87923,2.31643 2.009004,0.80403 3.789781,1.44291 6.938154,3.3624 -0.64601,-2.52714 -3.421464,-3.49953 -5.423777,-4.76305 h 8.861687 z"
         sodipodi:nodetypes="ccczczcccc" />
      <path
         id="path852"
         style="font-variation-settings:normal;opacity:1;vector-effect:none;fill:#cccccc;fill-opacity:1;stroke:none;stroke-width:0.53143;stroke-linecap:butt;stroke-linejoin:miter;stroke-miterlimit:4;stroke-dasharray:none;stroke-dashoffset:0;stroke-opacity:1;stop-color:#000000;stop-opacity:1"
         d="m 321.03893,434.30239 c -6.30761,-4.16976 -8.32665,-9.9746 -20.07608,-17.61489 v 7.57617 c -6.85338,6.48243 -19.30066,5.36294 -25.75977,1.89453 V 416.31 c -3.97747,0.18939 -7.38736,-1.89442 -11.26953,-1.04242 -0.31529,6.23873 4.82974,11.64819 4.82974,11.64819 0,0 -7.76608,0.5679 -9.84951,6.25 -2.08344,5.6821 2.08378,9.84965 2.08378,9.84965 0,0 -4.35545,1.70331 -4.16606,9.27945 0.1894,7.57614 5.49228,9.66026 5.49228,9.66026 0,0 -1.32622,3.03048 -0.75801,7.38676 0.56821,4.35629 6.0607,7.19723 6.0607,7.19723 0,0 -2.08188,3.97726 -1.13487,7.19711 0.94702,3.21986 0.94564,6.62921 7.57477,7.38682 6.62912,0.75764 14.39535,-0.56833 24.05493,-1.51533 9.65958,-0.94704 19.17524,-6.19877 19.17524,-6.19877 0,4.82143 0.10389,10.19994 2.71103,11.5035 2.60715,1.30356 17.03241,3.25426 22.32487,4.17593 5.28209,0.91986 7.91631,-0.79375 8.80619,-3.46338 0,0 11.00361,1.3623 30.64649,7.76758 19.64284,6.40528 26.51786,6.42798 46.875,2.41015 20.35714,-4.01786 33.75,-7.23046 33.75,-7.23046 4.06938,14.30739 2.3527,45.73855 -1.12945,62.61358 -3.48212,16.87498 -0.84005,30.76433 -0.84005,30.76433 l -19.01097,-14.49955 c 0,0 -10.17567,21.68663 -21.84432,36.24187 -11.66865,14.55525 -29.20642,22.16102 -29.20642,22.16102 11.43792,22.02535 38.2688,38.55522 45.10952,42.48921 6.84071,3.93399 9.30101,3.78084 10.04673,3.53227 0,0 -5.75865,-21.76784 -3.48247,-38.83929 2.27619,-17.07145 10.25787,-28.21089 10.25787,-28.21089 l 15.27357,13.86957 0.179,20.2015 -9.70596,9.418 -19.12502,118.17503 1.90379,2.65952 c 68.78919,0 131.10561,-27.29022 174.77539,-69.54492 -0.6383,-6.89697 -1.43605,-17.01364 -1.6836,-27.90625 -0.42206,-18.57143 0.94642,-44.40148 -16.875,-60.53711 -2.67925,-5.25654 -1.26183,-9.85255 0.53711,-15.71289 0,0 8.03515,-2.41157 11.78516,-14.19727 3.75001,-11.78574 5.89341,-31.60714 5.08984,-46.875 5.22573,0.87095 10.45013,1.59821 23.25782,6.97852 12.80772,5.38027 13.25761,3.78897 19.88672,3.41015 6.62914,-0.37878 13.82602,-2.65132 20.83398,-6.25 7.00792,-3.59864 7.57617,-7.0082 7.57617,-15.91015 0,-8.90196 -3.59778,-21.21322 -3.97656,-29.92579 -0.37882,-8.71256 -1.12018,-13.11767 -2.27344,-14.96289 -1.15326,-1.84522 -2.14136,-2.70797 -2.14136,-2.70797 l -14.71567,-9.03651 -4.67152,-10.92163 c 0,0 -8.37022,-3.90601 -15.5311,-14.01553 -6.90591,-9.74955 -8.2598,-20.21273 -20.26558,-34.66036 -12.00582,-14.44766 -23.86636,-16.6684 -33.33654,-17.23661 l -2.08188,-22.34967 -17.65172,-2.47211 c -0.35792,-7.38129 0.62664,-25.02901 0.62664,-25.02901 l 5.89187,4.95563 0.80372,-11.92048 8.57129,8.7726 c 0,0 -0.53545,-4.75363 -0.40165,-12.1197 0.13391,-7.36607 1.47266,-13.97404 1.47266,-13.97404 6.02676,0.13392 13.51924,0.0249 21.83175,-3.21374 8.3125,-3.23864 14.06221,-6.96456 17.81222,-11.51813 3.7499,-4.55358 2.54493,-6.02595 2.54493,-6.02595 0,0 -5.49222,3.21428 -12.72434,5.89285 -7.23217,2.67859 -16.33873,1.74107 -16.33873,1.74107 17.4107,-5.625 23.97239,-11.65178 26.78489,-16.33928 2.81249,-4.6875 2.67996,-8.70675 2.67996,-8.70675 0,0 -5.2249,4.68889 -11.11775,7.23353 -5.89285,2.54465 -15.26729,2.0081 -15.26729,2.0081 12.1875,-4.15179 20.08929,-10.84738 21.69642,-16.60631 1.60717,-5.75892 0.93694,-7.23354 0.93694,-7.23354 0,0 -2.0078,4.55497 -10.8471,8.03711 -8.83929,3.48216 -16.86774,1.86971 -16.86774,1.86971 17.2357,-6.25032 22.98771,-16.96705 23.93471,-21.13393 0.94704,-4.16688 0.27038,-5.81678 -2.76005,-2.97573 -3.03046,2.84106 -11.05406,9.30462 -22.6077,11.19866 -11.5536,1.89402 -23.4043,1.69615 -23.4043,1.69615 0,0 -4.27071,-7.10452 -15.26339,-11.25223 -10.91743,-4.11932 -14.14396,-3.97083 -17.30943,-6.18666 0,-10e-6 3.21898,-1.7033 4.16602,-9.84766 0.947,-8.14435 -7.57573,-13.82611 -13.44727,-13.63672 -5.87149,0.1894 -13.65645,1.68066 -14.41406,10.77204 -0.7576,9.09137 6.21931,11.78991 6.21931,11.78991 -5.8715,-0.37881 -18.39608,3.75559 -26.351,8.11188 -7.95496,4.35628 -9.44783,8.08705 -9.44783,8.08705 -10.03839,-1.70463 -21.03655,-5.012 -21.03655,-5.012 -5.49267,8.52317 -7.49786,21.07545 -7.68722,27.89398 -0.18943,6.81853 1.63282,9.91909 1.63282,9.91909 4.01786,1.20535 14.86718,5.49246 14.86718,5.49246 -0.66962,2.27678 -2.01033,7.09653 -2.01033,7.09653 l -11.44239,3.57421 c 0.81684,0.82493 1.94757,1.60024 3.67593,2.45258 3.45242,1.70255 3.94566,1.15401 6.83008,3.75 -10e-6,2.54464 -0.80471,4.6889 -1.47433,8.70675 -0.66965,4.01786 -6.762,8.23662 -6.762,8.23662 0,0 0.87315,5.57929 4.21875,5.15624 3.3185,-0.41961 4.13638,0.30304 5.73047,1.52735 2.16576,2.96547 -0.41848,9.45425 -0.41848,9.45425 l 2.65733,1.59736 c -0.54307,1.91551 -2.53718,3.25061 -1.48104,5.80581 1.20116,0.0751 1.88433,0.40502 2.27739,0.97656 0.59861,0.87042 0.44562,2.1944 -0.19531,3.19141 -1.06177,1.65164 -0.81118,7.22073 0.25024,8.57701 1.06143,1.35627 4.66914,3.51772 11.3044,2.03822 6.48975,-1.44707 11.32114,-1.99068 15.89063,-1.48297 l -0.53571,8.87304 c 0,0 -8.92435,3.22024 -13.09124,8.90235 -4.1669,5.6821 -5.70648,16.57979 -5.70648,16.57979 0,0 -7.36256,2.99872 -17.40095,10.95368 -10.03838,7.95496 -17.76779,11.42872 -29.32143,11.99693 -11.5536,0.56822 -17.50831,1.67156 -20.53878,5.83846 -3.03042,4.16685 -8.13476,6.65178 -8.13476,6.65178 0,0 -4.72569,-4.67934 -8.89258,-6.57338 -4.16689,-1.89403 -9.4693,-2.46254 -26.51563,-1.13672 -17.04632,1.32586 -21.74476,-3.41185 -21.74476,-3.41185 0.56821,-6.43971 -1.51686,-7.95535 -6.44136,-8.90239 -4.92449,-0.947 -9.65823,-1.70524 -19.22325,-1.61028 -4.07231,3.50425 -5.01957,8.42864 -5.01957,8.42864 z"
         transform="scale(0.26458333)"
         sodipodi:nodetypes="cccccccscscscssscsscsscscczczcscccccccsccscssssszcccsscccccccscsscscscscscscssscscssscsccsccccscscsccccssssccscssscsscscc" />
      <path
         id="path1130"
         style="font-variation-settings:normal;opacity:1;vector-effect:none;fill:#ffffff;fill-opacity:1;stroke:none;stroke-width:0.53143;stroke-linecap:butt;stroke-linejoin:miter;stroke-miterlimit:4;stroke-dasharray:none;stroke-dashoffset:0;stroke-opacity:1;stop-color:#000000;stop-opacity:1"
         d="m 528.08203,230.31055 c -0.4677,0.0202 -0.92848,0.0664 -1.38086,0.13672 -7.23808,1.12568 -11.69525,4.44451 -12.21875,10.72656 -0.75761,9.09137 5.6836,10.98633 5.6836,10.98633 -5.8715,-0.37881 -17.9943,3.21988 -25.94922,7.57617 -7.95496,4.35628 -9.84961,7.95312 -9.84961,7.95312 -10.03839,-1.70463 -19.69727,-5.68164 -19.69727,-5.68164 -5.49267,8.52317 -7.76572,23.48616 -7.95508,30.30469 -0.18943,6.81853 1.63282,10.72266 1.63282,10.72266 l 3.75,-0.75782 c 0,0 -0.12353,-0.88701 -0.20508,-2.49218 6.02314,0.53671 10.99482,3.52753 18.07422,1.59961 -6.29835,-3.48744 -12.52795,-2.99339 -18.08594,-7.22852 6.89138,0.17757 11.10147,3.41766 20.67383,0.53125 -6.88191,-2.70612 -13.80426,-1.92954 -20.0293,-7.625 6.96061,-0.85541 11.32166,1.78291 18.20508,0.78125 -5.5945,-4.97366 -11.95207,-4.35792 -16.7832,-8.25391 5.9136,0.0571 10.50374,2.43127 17.76562,0.12891 -6.14126,-5.61981 -10.58462,-4.44973 -15.87695,-6.67383 0.37618,-1.11713 0.78556,-2.24913 1.23242,-3.39648 0,0 13.82716,1.38731 32.57812,3.66015 18.75096,2.27285 51.86852,2.03729 76.89844,0.37891 24.2243,-1.60501 33.26011,-5.38146 39.10352,-9.82617 5.90513,-4.49166 4.96484,-8.34571 4.96484,-8.34571 -0.85523,0.0847 -1.82622,0.54789 -2.7793,1.44141 -3.03045,2.84107 -9.8487,8.90284 -21.40234,10.79688 -11.5536,1.89402 -21.5293,1.83007 -21.5293,1.83007 0,0 -4.54582,-6.81749 -15.53125,-10.98437 -10.98538,-4.16688 -19.31836,-5.11523 -19.31836,-5.11523 0,0 -1.92693,3.56891 8.51954,4.9082 10.44642,1.33928 20.625,11.51758 20.625,11.51758 -9.25802,-2.70042 -15.36174,-9.28692 -27.77539,-8.10157 6.63636,2.90722 12.206,4.03778 20.18554,9.1836 -1.72381,0.20631 -3.70458,0.42234 -5.9082,0.625 l -48.75,-0.47852 c -7.89371,-0.74381 -13.28906,-1.49609 -13.28906,-1.49609 0,0 14.73244,-7.76702 37.23242,-6.42774 0,0 -14.46485,-6.42997 -35.08985,1.33789 0,0 10.7154,-9.37389 30.80469,-10.44531 0,0 -9.56225,-3.82115 -7.76758,-13.39258 1.79463,-9.57143 19.68694,-9.6914 25.37891,2.92188 -0.68748,-8.37108 -9.12125,-13.62925 -16.13672,-13.32617 z m 97.0957,39.24218 c -1.54465,0.97557 -1.60602,5.49245 -10.44531,8.97461 -5.51726,2.17348 -11.10991,3.1826 -15.39453,3.20899 -2.24547,0.0138 -3.47461,0.28515 -3.47461,0.28515 0,0 1.57169,2.13672 6.36719,2.14454 4.7955,0.008 13.38591,-1.76068 18.73437,-5.75586 5.34846,-3.99518 4.21289,-8.85743 4.21289,-8.85743 z m 4.01954,15.9375 c -2.65391,-0.18786 -3.75169,3.61747 -9.64454,6.16211 -5.89285,2.54465 -13.66015,3.61524 -13.66015,3.61524 -4.35287,0.82487 -6.2854,-0.16551 -13.0586,2.47461 0,0 3.02636,1.13784 9.04102,1.11133 6.01466,-0.0265 16.34863,-1.88768 21.97656,-5.55664 5.62793,-3.66896 5.34571,-7.80665 5.34571,-7.80665 z m 0,16.47461 c -3.2143,0.66965 -4.82257,3.88393 -12.05469,6.5625 -7.23217,2.67859 -13.66016,2.8125 -13.66016,2.8125 -3.8295,0.38627 -7.92226,-0.807 -11.29492,2.32032 7.96338,1.06152 17.64611,1.50481 27.79492,-2.71875 10.1488,-4.22355 9.21485,-8.97657 9.21485,-8.97657 z m -155.98243,5.35743 c -0.66962,2.27678 -1.47461,5.35546 -1.47461,5.35546 0,0 -2.27539,0.40263 -5.08789,2.00977 -2.81249,1.60714 -5.49218,-0.40234 -5.49218,-0.40234 l -2.00977,1.07226 c 0.23674,0.82679 0.78779,1.81147 1.95117,2.36719 1.16338,0.55572 3.36328,1.11383 8.98828,-0.35938 5.625,-1.47322 8.03516,0.1345 13.66016,2.27735 5.625,2.14286 9.24135,1.60798 11.91992,-0.80274 0,0 -6.16154,0.66853 -10.44726,-2.67968 -4.28571,-3.34821 -8.30302,-3.34681 -10.84766,-3.21289 0,0 1.33928,-3.61607 1.875,-5.625 z m -1.60742,16.60546 c -1.20537,2.00893 -2.01007,4.01926 -2.67969,8.03711 -0.66965,4.01786 -2.60603,4.06576 -4.82031,5.35743 -2.21431,1.29166 -2.27622,5.08872 -1.47265,7.09765 0.80356,2.00893 1.60947,2.03047 4.95507,1.60742 -4e-5,0 -4.33035,-3.08064 -0.3125,-6.29492 4.01786,-3.21429 4.41965,-4.01841 5.625,-8.83984 1.20536,-4.82143 0.62499,-5.62641 -1.29492,-6.96485 z m 6.86328,15.16211 c -0.97651,0.0176 -1.71283,0.63534 -2.2207,1.3125 0,0 2.14314,0.26758 3.48242,2.14258 1.33929,1.875 -0.26758,3.34766 -0.26758,3.34766 0,0 2.23992,-0.25894 2.67774,-1.74024 0.53572,-1.8125 -0.33592,-3.40051 -1.65235,-4.33007 -0.76105,-0.53741 -1.43362,-0.74297 -2.01953,-0.73243 z m -5.15039,8.46485 c 0.0229,1.49225 -0.137,3.29894 -0.56836,4.73633 -0.43135,1.43738 -2.08388,1.70368 -1.89453,3.7871 l 2.04492,0.93165 c 0,0 2.40932,-1.07171 3.21289,-4.41993 0.80357,-3.34821 -1.17105,-5.11439 -2.79492,-5.03515 z m 5.94141,11.23633 c -1.73229,-0.0204 -3.51228,0.34611 -4.23828,0.88671 -3.03047,0.37881 -3.97577,4.54498 -0.94532,4.73438 0,0 0.29633,-1.77845 4.58204,-1.64453 4.28572,0.13393 5.62611,-0.53599 4.55468,-2.54492 -0.53571,-1.00447 -2.22084,-1.41124 -3.95312,-1.43164 z m -3.10156,9.78906 c -1.06177,1.65164 -4.51924,5.35468 -1.89258,8.71094 1.21095,1.54732 2.75399,2.5857 4.71484,3.11132 0,0 4.05385,0.44671 4.85742,-0.89257 0.80358,-1.33929 -0.53571,-3.21457 -3.75,-3.48243 -3.21428,-0.26785 -3.34849,-2.27818 -2.54492,-4.28711 0.80357,-2.00893 0.0432,-3.24079 -1.38476,-3.16015 z m 94.95507,4.79687 c -0.86561,0.007 -1.73946,0.0179 -2.63476,0.0352 -5.05626,0.098 -10.79115,0.42217 -19.52539,1.66992 -10.28078,1.46868 -15.34252,4.35577 -25.57031,5.49219 -10.2278,1.13642 -18.56055,3.97851 -18.56055,3.97851 v -6.06054 l -3.09375,0.69336 v 6.06054 c 0,0 -8.52256,3.22024 -12.68945,8.90235 -4.1669,5.6821 -5.30469,15.91015 -5.30469,15.91015 0,0 -7.76435,2.46301 -17.80274,10.41797 -10.03838,7.95496 -19.50886,12.50015 -31.0625,13.06836 -11.5536,0.56822 -14.96367,1.13584 -17.99414,5.30274 -3.03042,4.16685 -7.19726,6.25 -7.19726,6.25 0,0 -3.78819,-4.54542 -7.95508,-6.43946 -4.16689,-1.89403 -9.4693,-2.46254 -26.51563,-1.13672 -17.04632,1.32586 -21.59179,-2.27148 -21.59179,-2.27148 l -1.06641,-6.60547 c -1.01846,-1.34961 -2.7233,-2.01281 -5.18555,-2.48633 -4.92448,-0.94704 -11.17346,-1.70524 -17.23437,-2.46289 -6.06092,-0.7576 -7.95523,-0.3782 -8.52344,2.27344 -0.56821,2.65164 -0.94726,7.00781 -0.94726,7.00781 -6.30761,-4.16976 -3.97036,-11.48982 -19.69727,-16.28906 1.8946,3.15629 4.95441,4.83424 10.03711,10.66992 5.0827,5.83568 6.25195,10.03906 6.25195,10.03906 l -2.08398,46.78321 0.99219,2.07031 c 0,2.83862 0.16822,5.34582 0.83789,7.19336 l 4.79883,1.08984 c 0.18939,-4.16688 -0.75772,-14.58529 -0.37891,-27.08593 0.37881,-12.50064 2.46315,-27.08342 3.41015,-32.38672 0.94702,-5.3033 0.37718,-6.44101 8.71094,-4.92578 8.33376,1.51523 12.8798,0.94781 16.28906,3.03125 3.40926,2.08344 2.27344,4.86132 2.27344,4.86132 1.32583,2.46224 3.40841,6.62851 19.12891,5.11328 15.7205,-1.51522 26.13845,0.191 32.76758,6.0625 6.62913,5.87151 17.0469,14.01525 24.62304,5.11329 7.57614,-8.90197 15.88868,-3.42383 15.88868,-3.42383 -1.60715,-3.61608 -4.82227,-5.22266 -4.82227,-5.22266 0.40178,-1.07143 0.17773,-2.41015 0.17773,-2.41015 -3.0538,2.03365 -4.74146,2.39138 -6.88085,2.60742 -6.23692,0.62982 -11.75,6.87109 -11.75,6.87109 -5.87151,-1.89403 -9.0918,-5.36719 -9.0918,-5.36719 8.90197,-3.59867 7.06077,-6.50054 14.39453,-8.33398 7.33376,-1.83344 23.4895,-0.0159 38.07031,-10.03711 15.0998,-10.3779 27.27443,-19.13111 46.02539,-20.07812 18.75096,-0.94701 19.12891,-4.16602 19.12891,-4.16602 0,0 -6.43956,2.08354 -21.78125,0.37891 -15.34169,-1.70463 -20.45508,3.59765 -20.45508,3.59765 1.51523,-7.57614 2.46201,-13.4468 14.01563,-19.1289 11.55362,-5.68211 23.10673,-4.35647 35.41796,-8.14454 12.31124,-3.78807 20.64466,-4.54657 30.93164,-3.9707 10.28699,0.57587 18.31446,2.07617 18.31446,2.07617 l 2.71484,-4.86133 c -5.73585,-1.26616 -12.05046,-1.37247 -17.80469,-1.32617 z m 19.31836,23.86524 c -0.31367,1.35263 -0.36959,2.61991 0.81641,3.47265 16.34693,2.52478 27.65809,12.12282 34.66602,26.13868 7.00794,14.01587 10.03883,22.91639 16.66796,31.81836 6.62913,8.90195 13.06836,7.76562 13.06836,7.76562 0,0 2.46143,7.57645 4.35547,16.09961 1.89404,8.52316 7.00781,10.41797 7.00781,10.41797 -2.08342,-3.21986 -3.4082,-8.90235 -3.4082,-8.90235 2.08344,3.97748 4.92383,5.49219 4.92383,5.49219 -2.08344,-3.78808 -2.08398,-7.57617 -2.08398,-7.57617 0,0 8.33438,4.5467 9.84961,11.36523 1.51521,6.81853 3.85156,8.39649 3.85156,8.39649 -0.92985,-8.53467 1.46642,-13.02717 -2.51953,-16.72266 -3.98595,-3.6955 -6.69734,-6.07354 -13.20118,-10.36328 0,0 -1.45166,-7.13354 -3.3457,-9.97461 -1.89403,-2.84103 -7.80201,-3.5272 -14.96289,-13.63672 -6.90591,-9.74955 -8.07039,-20.97034 -20.07617,-35.41797 -12.00582,-14.44766 -26.1392,-17.80483 -35.60938,-18.37304 z m -326.35156,14.99219 c -1.65608,-0.0329 -2.46587,2.59814 -1.56836,5.58984 1.10463,3.68209 4.92383,8.14453 4.92383,8.14453 0,0 -7.38727,0.5679 -9.4707,6.25 -2.08344,5.6821 1.32617,10.03906 1.32617,10.03906 0,0 -4.54486,2.27152 -4.35547,9.84766 0.1894,7.57614 5.87109,10.03906 5.87109,10.03906 0,0 -2.08383,3.21989 -1.51562,7.57617 0.56821,4.35629 6.62891,7.00782 6.62891,7.00782 -10e-6,0 -2.46069,3.40905 -1.51368,6.6289 0.94702,3.21986 3.02908,7.00802 9.65821,7.76563 0,0 -4.63448,-3.67072 -5.11329,-7.70117 -0.4788,-4.03046 1.51563,-6.25196 1.51563,-6.25196 0,0 -6.85998,-2.97579 -6.62891,-8.52148 0.23108,-5.54568 3.59766,-6.0625 3.59766,-6.0625 0,0 -7.71888,-2.801 -8.14453,-10.03711 -0.4385,-7.4546 4.35742,-9.0918 4.35742,-9.0918 0,0 -3.51532,-2.59859 -3.03125,-7.19726 0.48407,-4.59867 4.3574,-8.14429 11.74414,-7.19727 7.38675,0.94702 14.39471,5.11444 22.53906,2.08398 8.14436,-3.03046 6.06055,-6.88281 6.06055,-6.88281 -8.93682,4.58839 -18.14166,3.95538 -25.75977,1.89453 -3.73381,-1.01007 -4.16756,-0.3164 -6.15624,-0.3164 0,0 -2.17799,-3.03004 -3.125,-5.8711 -0.94702,-2.84106 -0.32509,-3.32658 2.84179,-2.46289 3.16688,0.86369 7.37695,0.56836 7.37695,0.56836 l -0.9375,-3.84961 c -3.97746,0.18939 -7.38736,0.18902 -9.8496,-1.51562 -0.46168,-0.31962 -0.88932,-0.46898 -1.27149,-0.47656 z m 198.3418,85.08789 -0.0137,1.25 c 1.60713,13.92858 0.26911,46.87497 -3.21289,63.75 -3.48212,16.87498 -1.59766,25.83984 -1.59766,25.83984 l -13.61328,-13.09961 -5.11328,0.60938 c -8.94142,20.49382 -23.53678,40.83715 -32.35547,48.74804 -9.10711,8.16964 -16.13867,11.4336 -16.13867,11.4336 1.17364,0.0327 1.7468,0.10425 3.78906,-0.54493 l 3.60547,-1.05078 c 0.55494,-0.2392 1.06759,-0.43607 1.74023,-0.79297 12.43631,-5.66165 23.98917,-19.98421 29.59375,-28.82226 6.96427,-10.98218 11.78516,-23.66016 11.78516,-23.66016 l 4.12109,-0.10351 c 0,0 30.45346,29.30669 32.875,31.63671 2.42155,2.33005 3.07422,3.99415 3.07422,3.99415 l 9.56055,9.29492 c -3.32827,0.62194 -6.35994,1.10292 -8.86914,1.37304 -6.18649,0.66601 -10.19618,-0.50194 -15.89453,1.16993 -1.60712,0.53571 -2.41211,1.07226 -2.41211,1.07226 2.41069,7.49998 2.33203,17.20313 2.33203,17.20313 -15.5311,7.57617 -13.53768,30.16238 -20.50196,69.26953 -6.69436,37.59146 -11.37651,61.23719 -11.73828,63.05859 2.45567,0.0949 4.91871,0.16687 7.39649,0.19727 5.1287,-25.8214 9.64712,-49.10136 14.5625,-76.70313 4.91538,-27.60178 2.92901,-39.27694 8.22265,-45.51367 0,0 2.1822,8.42522 1.64649,27.71094 -0.53572,19.28571 -3.75056,39.91099 -3.21485,54.10742 0,0 2.1437,-10.98187 4.82227,-22.76758 2.67857,-11.78572 4.89005,-32.92912 5.08984,-40.71484 0.1998,-7.78572 0.87211,-11.33274 1.91602,-14.25391 1.04392,-2.92117 1.78561,-8.55397 -1.1582,-12.12305 4.30615,-4.23664 9.25082,-1.46986 15.41406,-5.54882 -6.11329,-1.7093 -11.75591,1.24864 -17.53906,-0.32618 4.94677,-3.42179 9.36203,-0.17119 12.88086,-4.35351 -4.6984,-2.33932 -9.43633,0.6177 -13.47852,-0.75586 4.55131,-3.13254 9.56692,-1.0327 12.90234,-4.15039 -5.88344,-2.15409 -10.26966,1.24521 -13.39453,-1.92578 0,0 2.29656,-0.67378 8.54688,-0.48438 6.25032,0.18941 20.83375,-3.21959 34.84961,-6.43945 14.01587,-3.21986 26.51687,-7.76667 46.21484,-11.74414 19.69798,-3.97748 25.3808,-4.54462 32.57813,-3.4082 l 2.65234,-4.16797 -15.04492,-2.30078 -16.2461,4.58203 c -13.79574,2.54417 -31.68752,7.33797 -44.09179,10.97656 -8.07339,2.36819 -16.18312,4.41535 -23.30469,5.92969 l -28.69336,-29.18946 c 0.55329,-1.99215 1.70481,-6.45556 3.20898,-13.97656 2.14285,-10.71428 2.4113,-21.96403 5.08985,-39.64258 2.67859,-17.67859 2.9467,-30.80327 1.60742,-37.76757 0,0 -2.41156,0.5357 -2.94727,9.375 -0.53571,8.83929 -1.60601,18.74945 -4.82031,30.53515 -3.21426,11.78574 -6.42969,30 -6.42969,30 0,0 2e-5,-6.69726 1.875,-16.07226 1.87503,-9.37501 5.35769,-42.8569 1.33985,-60.26758 z m 51.72656,146.7832 -4.46875,0.31836 85.25195,82.98047 c 1.10578,-0.84799 2.21038,-1.69751 3.29883,-2.5625 z m -27.00391,12.17773 c 0,0 -3.97866,2.65276 -4.54687,11.74414 -0.56821,9.09137 -1.32442,21.0231 -2.08203,34.66016 -0.75762,13.63706 0.56836,17.04687 0.56836,17.04688 0,0 0.37809,-6.8201 4.73437,-28.41211 4.35628,-21.59201 5.49208,-22.72805 5.11328,-28.41016 -0.37881,-5.68211 -3.78711,-6.62891 -3.78711,-6.62891 z"
         transform="scale(0.26458333)"
         sodipodi:nodetypes="ssscsccsccccccccccccssscsscscscccccccccscscssccsccsccssccsccscccsccssscsccccsssssscscscssscsccscsccssscscssscscssccccscssscssccsssccscccccsssscssscccsccssscscsssccsccsscsccccscscssscsscscscscscscscscssscscssccssccscccsccccsccsccscccsccscscssscccccccsssccccsccsscsscsccccccccsscssc" />
      <path
         id="path1101"
         style="font-variation-settings:normal;opacity:1;vector-effect:none;fill:#666666;fill-opacity:1;stroke:none;stroke-width:0.53143;stroke-linecap:butt;stroke-linejoin:miter;stroke-miterlimit:4;stroke-dasharray:none;stroke-dashoffset:0;stroke-opacity:1;stop-color:#000000;stop-opacity:1"
         d="m 537.7793,237.95312 c 0,0 4.53145,7.892 -1.51368,12.3125 -5.83631,4.26784 -12.74087,-0.10088 -16.0996,1.89454 0,0 2.51556,2.1875 8.71289,2.83984 6.19734,0.65236 9.93726,-0.48264 11.17382,-1.51562 1.23656,-1.033 3.18834,-3.6243 2.83985,-8.14258 -0.3485,-4.51828 -3.35772,-6.52715 -5.11328,-7.38868 z m 82.83398,17.5625 c 0,0 1.00954,7.37699 -7.32422,14.95313 -8.33376,7.57614 -13.63772,8.33287 -17.42578,11.55273 l 3.47461,-0.28515 c 17.2357,-6.25032 22.85374,-17.77063 23.80078,-21.9375 0.64919,-2.85638 -0.66131,-4.46773 -2.52539,-4.28321 z m -100.66406,13.40821 c -5.45968,0.0864 -10.42862,0.62191 -13,2.21484 7.73933,0.72926 17.88052,1.45117 27.69336,1.45117 8.08286,0 15.32022,-0.44508 21.05664,-0.97265 -2.0541,-2.98668 -11.13352,-1.83684 -19.80664,-2.21875 -4.53209,-0.19957 -10.48368,-0.56099 -15.94336,-0.47461 z m 105.79492,0.41797 c -0.18303,0.0188 -0.37332,0.089 -0.56641,0.21093 0,0 1.74832,3.94547 -4.6914,11.90039 -6.43972,7.95495 -14.20481,11.55494 -20.64453,12.50196 -6.43972,0.94701 -7.00782,3.78711 -7.00782,3.78711 3.94942,-1.69261 5.09424,-0.36561 13.0586,-2.47461 12.1875,-4.15179 19.01787,-12.85631 20.625,-18.61524 1.40627,-5.03905 0.50781,-7.44201 -0.77344,-7.31054 z m 3.45313,16.14843 c 0,0 -0.0935,6.54947 -7.48243,12.58594 -7.1475,5.8392 -14.73242,9.37463 -22.29492,10.76367 -7.5625,1.38902 -7.63421,2.54354 -7.23242,4.82032 3.41611,-1.70805 5.50321,-0.78539 11.29492,-2.32032 17.4107,-5.625 22.36524,-13.125 25.17774,-17.8125 2.81249,-4.6875 3.15318,-7.85191 0.53711,-8.03711 z m 1.10742,16.29883 c -0.33494,0.002 -0.70564,0.0586 -1.10742,0.17578 0,0 0.0893,4.46458 -8.75,10.35743 -8.83929,5.89286 -15.53739,11.51674 -34.01954,10.44531 -18.48214,-1.07143 -64.55217,-7.76702 -83.83789,-12.05274 -19.28571,-4.28571 -34.7626,-7.73262 -38.17187,-8.49023 -3.40926,-0.75761 -4.94301,-0.27335 -6.07031,0.81055 4.01788,1.20535 14.86718,4.28711 14.86718,4.28711 0,0 21.93824,6.11243 38.74219,9.67578 6.37249,1.35131 12.48964,2.5213 18.56641,3.57812 0.70768,3.02975 3.47256,12.6376 12.27734,20.49024 -0.48186,3.37304 -2.37468,4.36198 -1.81836,5.71875 0.57424,1.40047 2.57843,1.26407 3.61524,-2.27539 0.92441,-3.15573 0.48049,-4.70559 -1.22461,-3.90039 -0.73802,-4.02451 -0.45648,-7.01804 0.24414,-9.86329 1.04689,2.48235 3.07424,7.35129 5.85547,12.16407 -0.41615,0.84734 -0.9981,2.49993 -1.52735,5.78125 -0.94702,5.87151 -6.81915,7.5772 -9.84961,4.16797 -3.03045,-3.40927 -1.13672,-10.79688 -1.13672,-10.79688 -4.54568,3.97748 -3.78795,8.52376 -7.00781,17.23633 -3.24852,8.79011 -5.26312,14.80776 -17.04883,16.54883 -11.78572,1.74107 -13.25892,-0.40123 -20.625,1.33984 -7.36607,1.74107 -13.29492,3.21484 -13.29492,3.21484 2.29241,0.61449 5.15618,0.52788 8.73242,-0.26953 6.48975,-1.44706 9.44614,-1.45497 14.01563,-0.94726 0,0 10.98469,1.32703 19.69726,-2.83985 8.71256,-4.16688 12.31089,-15.5314 13.63672,-23.48632 0,0 2.00013,4.63903 7.95508,4.35546 5.80833,-0.27658 6.78053,-5.77478 8.75781,-10.61523 0.4854,0.70762 0.98343,1.40196 1.50196,2.06836 0,0 0.87256,-6.90601 1.99414,-12.79883 0.78648,5.77081 4.63017,16.22811 9.06836,19.12695 0,0 -0.0971,-10.35111 1.4375,-15.02148 0.53247,2.20897 1.52378,5.50939 2.94726,8.04687 -0.30455,1.71253 -0.82241,5.21211 -1.08398,10.83594 -0.37881,8.14435 0.83789,14.55469 0.83789,14.55469 l 2.63476,-0.0352 c -0.35792,-7.38129 -0.043,-21.54687 -0.043,-21.54687 0,0 1.87472,3.21373 4.95507,4.28515 3.08036,1.07143 5.08789,0.26954 5.08789,0.26954 -3.88403,-4.6875 -3.61523,-11.51954 -3.61523,-11.51954 0,0 1.60715,4.82143 4.6875,6.5625 3.08035,1.74108 5.89258,0.40235 5.89258,0.40235 0,0 -2.27638,-3.48159 -2.14258,-10.84766 0.13391,-7.36607 1.47266,-13.57226 1.47266,-13.57226 6.02676,0.13392 14.74413,-0.29847 23.05664,-3.53711 8.3125,-3.23864 15.6757,-10.70499 19.40039,-15.2793 3.33975,-4.10157 2.78208,-6.81767 0.4375,-6.80469 z m -153.87305,17.91992 c -1.92313,0.0521 -2.9043,0.51368 -2.9043,0.51368 2.27679,0.66964 3.48243,1.47461 3.48243,1.47461 0,0 0.40095,2.67773 1.74023,3.61523 1.33929,0.9375 4.55441,2.41016 10.44727,1.47266 5.89285,-0.9375 6.5625,-4.01758 6.5625,-4.01758 0,0 -2.90455,1.25984 -6.42969,0.26758 -3.52514,-0.99225 -4.68777,-2.00782 -9.10742,-2.94532 -1.10491,-0.23437 -2.0752,-0.34361 -2.91016,-0.375 -0.31311,-0.0118 -0.60613,-0.0132 -0.88086,-0.006 z m 57.06055,1.36914 c 8.94689,1.50554 17.8874,2.79403 27.52148,4.06446 17.23573,2.27284 23.29688,2.27344 23.29688,2.27344 -3.59867,12.31123 0.3789,22.16015 0.3789,22.16015 -6.62913,-6.06091 -8.52343,-16.85742 -8.52343,-16.85742 -3.21986,8.14435 -0.75782,19.50977 -0.75782,19.50977 -7.20657,-8.09122 -9.06054,-19.13282 -9.06054,-19.13282 -4.10374,4.68996 -4.18065,11.41936 -4.04493,15.30469 -2.95063,-6.49717 -4.56583,-12.08429 -5.82812,-19.77734 -2.82002,2.36261 -4.98403,9.22232 -5.0332,13.07812 -3.2713,-6.94757 -8.97657,-17.55273 -8.97657,-17.55273 -1.60244,3.57822 -1.79245,7.42169 -1.71875,9.63086 -4.00149,-5.32079 -6.2194,-10.11926 -7.2539,-12.70118 z m -52.48047,18.72852 c -0.3118,-0.0188 -0.52149,0.0156 -0.52149,0.0156 3.21429,4.41965 -0.45092,6.93532 -4.41796,4.95507 -3.94658,-1.97004 -7.60343,0.078 -8.48243,1.25 3.48214,-0.40178 5.66909,-0.44614 9.28516,1.29493 3.61607,1.74108 6.69615,0.80246 6.83008,-3.61719 0.10044,-3.31473 -1.75795,-3.84194 -2.69336,-3.89844 z m -8.60156,16.14453 c -0.95195,-0.0206 -1.55274,0.12696 -1.55274,0.12695 0.18939,2.08344 4.16602,3.59961 4.16602,3.59961 7.3895,-0.23299 6.53851,2.24247 9.88672,1.97461 3.34822,-0.26785 1.20619,-4.82143 -1.74024,-4.6875 -2.94643,0.13393 -4.28515,1.20453 -7.09765,-0.13476 -1.40625,-0.66964 -2.71017,-0.85826 -3.66211,-0.87891 z m 5.41015,9.02149 c -0.69683,-0.10097 -1.46484,0.41601 -1.46484,0.41601 0.6704,0.87299 0.46576,2.16308 -0.19531,3.19141 0,0 3.15755,-0.50721 2.6582,-2.51172 -0.18726,-0.75169 -0.57995,-1.03512 -0.99805,-1.0957 z m 111.09961,9.73046 c -3.21885,0.37846 -3.41015,3.59961 -3.41015,3.59961 -5.24045,0.30826 -9.80637,-0.51724 -17.61915,-0.81445 -7.81275,-0.29721 -10.29689,1.44691 -11.73828,3.46484 0,0 3.59803,-1.32611 12.5,-1.13671 8.90197,0.18941 16.09961,2.84179 16.09961,2.84179 0,0 -3.03016,1.32588 -13.82617,0.18946 -10.796,-1.13642 -15.7207,3.78906 -15.7207,3.78906 0,0 5.87166,-1.13662 15.53125,-0.75781 9.65958,0.37881 14.01562,3.97656 14.01562,3.97656 0,0 -6.06043,-0.18901 -13.06836,1.51562 -7.00794,1.70464 -14.58398,1.70508 -14.58398,1.70508 2.16296,1.08148 5.1933,2.31289 14.96289,1.32617 10.20391,-1.03058 13.63672,3.0293 13.63672,3.0293 0,0 -4.73597,1.70483 -10.79688,0.75781 -6.06092,-0.94701 -10.28094,-0.64161 -20.44726,0.86914 -9.29232,1.38088 -18.85886,2.09841 -24.25196,3.29688 7.46143,1.06592 15.85467,0.54366 27.75977,-0.86719 13.4396,-1.59271 20.96512,-0.10407 26.32227,1.36914 5.35714,1.47321 7.2327,-0.93722 6.96484,-2.14258 -0.26786,-1.20535 -0.81641,-3.47265 -0.81641,-3.47265 0,0 -2.27131,-9.65961 -1.51367,-22.53907 z m -313.7168,43.37305 c 0,0 -2.74749,1.4336 -4.2207,4.2461 -1.47322,2.8125 -1.93554,3.51953 -1.93554,3.51953 3.55672,-0.229 6.15624,0.3164 6.15624,0.3164 z m 77.34766,10.56836 c -3.96974,3.24385 -4.36333,4.71126 -4.55273,13.42383 -0.18941,8.71256 -1.51582,14.96279 -2.27344,29.54687 -0.75761,14.58408 1.89427,17.99305 0.94727,21.21289 -0.94702,3.21986 -7.95561,4.35678 -17.42579,1.89454 -9.47018,-2.46225 -12.24804,-1.2793 -12.24804,-1.2793 0.46778,1.29053 1.17976,2.25883 2.25195,2.79492 2.60715,1.30356 19.49465,3.82247 24.78711,4.74414 5.28209,0.91986 6.21168,-2.68779 7.10156,-5.35742 l 0.83399,-3.41016 c 5.46782,-0.43187 10.52293,2.52197 20.82031,4.82227 10.29738,2.3003 12.57089,3.39428 18.31641,4.36523 5.74549,0.97095 9.75532,-0.36127 12.69335,1.83985 2.93803,2.20111 6.1681,3.07468 13.12305,2.38476 6.95495,-0.68993 14.02643,-3.99293 25.60742,-5.84765 11.581,-1.85472 17.92868,-2.13112 23.35938,-2.01172 5.4307,0.1194 8.865,0.95742 11.74804,2.92578 2.74017,1.87081 5.8441,5.07835 7.16993,13.41211 1.32582,8.33376 2.46143,11.93214 4.35547,13.82617 0,0 -0.75792,-4.92556 -1.13672,-11.55469 -0.37881,-6.62912 -2.65079,-10.79537 -4.16602,-12.5 0,0 6.81926,-1.13649 10.22852,7.19727 3.40927,8.33376 7.00781,10.03906 7.00781,10.03906 0,0 -0.75791,-3.78904 -1.13672,-11.17578 -0.3788,-7.38674 -6.06055,-10.03906 -6.06055,-10.03906 0,0 5.87063,-0.37752 11.55274,4.92578 5.68211,5.3033 6.43945,14.01562 6.43945,14.01562 0,0 2.6518,-2.27366 0.56836,-10.60742 -2.08344,-8.33376 -8.71289,-11.36328 -8.71289,-11.36328 0,0 8.71398,-3.59808 12.88086,2.27344 4.16688,5.87151 7.95401,7.19691 11.36328,5.87109 0,0 -4.92497,-1.3261 -9.28125,-8.52344 -4.35628,-7.19733 -15.71957,-9.28059 -26.32617,-6.81835 -10.6066,2.46223 -17.61461,-0.37846 -30.11524,1.32617 -12.50064,1.70463 -28.97918,6.06109 -39.01757,8.14453 -10.03839,2.08343 -11.36492,-0.94771 -17.61524,-2.65235 -6.25032,-1.70464 -14.39364,-0.75845 -25.94726,-3.2207 -11.55362,-2.46224 -17.01526,-4.15488 -20.07618,-5.30273 -3.06091,-1.14784 -4.5459,-2.6524 -8.33398,-2.8418 -1.02676,-11.60968 -0.13023,-20.08477 0.31445,-28.97852 0.45439,-9.08792 2.02149,-20.89648 2.02149,-20.89648 0.2841,-3.21986 -0.048,-5.25587 -1.06641,-6.60547 z m -42.02344,1.11133 c 2.61644,4.99171 3.27784,10.68245 3.45899,17.875 0.18115,7.19256 0.0494,26.71596 -1.98633,32.14453 -2.03571,5.42858 -5.03874,7.5548 -15.13867,8.61719 -10.09994,1.06239 -17.31733,0.35118 -19.91602,-0.0137 -2.59869,-0.36478 -3.16189,1.1791 -2.8789,2.74414 6.62912,0.75764 15.34237,0.56809 25.00195,-0.37891 9.65958,-0.94704 17.0918,-4.49414 17.0918,-4.49414 0,0 5.5e-4,-13.661 1.33984,-29.73242 1.33928,-16.07143 2.14258,-20.89258 2.14258,-20.89258 -4.59836,-1.20563 -4.88762,-6.14679 -9.11524,-5.86914 z m -48.58007,11.84766 c -1.95972,-0.0186 -2.6543,0.65429 -2.6543,0.65429 1.56975,1.72209 2.84933,2.56307 8.74219,2.96485 5.89286,0.40179 7.90234,3.34961 7.90234,3.34961 2.14285,-2.41072 1.47266,-6.02735 1.47266,-6.02735 0,0 -4.55246,2.27567 -10.44532,0.13281 -2.20982,-0.80357 -3.84174,-1.06303 -5.01757,-1.07421 z m 170.58593,0.86718 c -0.35215,0.0137 -0.72042,0.0522 -1.10547,0.11914 -6.16072,1.07143 -9.90903,5.89315 -16.60546,5.35743 0,0 4.01646,4.01729 10.71289,0.53515 6.69643,-3.48214 9.64397,-3.2154 13.92968,-0.80469 0,0 -1.64937,-5.41301 -6.93164,-5.20703 z m 186.40039,9.125 c -0.45057,0.0181 -2.31422,0.59807 -3.30859,8.71875 -1.13642,9.28077 0.37856,23.8643 -0.94727,35.22852 -1.32582,11.36421 -0.18864,15.15215 -4.54492,29.35742 -4.35628,14.20527 -1.1144,32.33147 -3.79297,47.86719 -2.67857,15.53571 -9.21418,27.57857 -14.13867,29.2832 -4.92449,1.70463 -10.60677,9.2e-4 -8.14453,-3.97656 2.46225,-3.97747 4.92623,-8.52347 6.63086,-16.09961 1.70463,-7.57615 0.56836,-13.44727 0.56836,-13.44727 0,0 -1.70577,10.03685 -4.35742,16.47657 -2.65165,6.43973 -2.84095,11.17632 -7.00782,13.25976 -4.16685,2.08344 -6.06054,4.16602 -6.06054,4.16602 0,0 -0.75868,-4.35686 3.4082,-9.66016 0,0 -3.40895,0.38035 -6.25,5.87305 -2.84106,5.49271 -6.60386,5.05773 -7.92969,9.22461 2.00302,-0.3694 7.92021,-1.71167 15.26172,-2.19531 7.3415,-0.48366 13.56641,0.29296 13.56641,0.29296 l -0.18945,3.78907 c -5.76649,0.36194 -8.43895,2.70939 -14.52149,3.2832 5.56368,2.78184 10.1571,-1.28168 14.96289,2.08203 -6.36164,-0.0666 -10.83255,1.95094 -16.85742,2.08398 7.48365,2.78236 12.33191,-1.2954 18.37305,2.27344 -3.06872,1.53436 -20.26794,1.32666 -38.63868,7.95508 -18.37218,6.62896 -25.66083,10.61721 -42.06835,14.48828 -16.08865,3.79585 -31.05926,5.6652 -38.16993,6.0586 -7.19207,0.39791 -9.09765,-1.35547 -9.09765,-1.35547 0,0 -0.63167,3.59965 3.72461,3.78906 1.96807,0.0856 4.94594,0.0711 8.94922,-0.1582 0,0 -3.77154,3.88393 -3.96094,15.62695 -0.18941,11.74303 -1e-4,16.85618 -0.37891,27.08398 0,0 2.84194,-3.97787 3.41016,-16.47851 0.56821,-12.50063 1.5547,-15.01482 3.59765,-18.3711 2.04296,-3.35629 2.96842,-5.88289 1.48438,-8.15039 2.53115,-0.20554 5.40484,-0.49655 8.54687,-0.86914 l 87.81446,89.63477 c 1.33518,-0.86295 2.65593,-1.74263 3.9707,-2.62891 l -87.52148,-87.54687 c 0,0 1.42101,-0.18492 2.17187,-0.29102 14.42513,-2.03834 24.48443,-4.4665 39.63672,-10.71679 9.54505,-3.93733 22.80156,-7.68446 33.39258,-10.16797 0,0 1.35537,2.89218 0.97656,16.33984 -0.3788,13.44766 4.73438,17.61523 4.73438,17.61523 0,0 -1.89388,-10.22708 0.56836,-19.69726 2.46222,-9.47018 -1.30274,-15.375 -1.30274,-15.375 1.4193,-0.30332 2.75616,-0.57442 3.99024,-0.81055 0,0 0.15393,4.63212 6.21484,16.94336 6.06092,12.31123 5.49219,21.78125 5.49219,21.78125 0,0 3.21971,-6.81963 -0.56836,-19.13086 -3.78808,-12.31124 -4.92398,-14.7092 -5.49219,-20.51758 2.9805,-0.3567 5.24294,-0.66828 6.95898,-1 0,0 4.91099,6.49131 8.13086,18.04493 3.21986,11.55362 2.97579,31.89572 2.27149,46.40429 -0.7043,14.50857 -0.31122,23.08279 2.61719,31.23047 2.00189,-1.72913 3.97319,-3.48734 5.91601,-5.27539 -1.17401,-20.02197 1.00367,-31.68009 0.75977,-42.41211 -0.2439,-10.73202 1.07142,-32.63781 -16.75,-48.77344 1.08586,-0.42412 1.68791,-0.9266 2.01757,-1.58593 -1.73257,-6.95804 1.10869,-8.09809 0.53711,-15.71289 l -0.01,-1.27539 c 1.97132,-1.43416 7.57158,-4.95321 10.46875,-14.0586 3.68504,-11.58157 4.4468,-32.09821 4.82422,-47.04492 5.68029,0.66211 11.38955,1.28217 22.19726,5.82226 10.8077,4.54013 16.76726,4.77317 22.21289,4.0586 5.44564,-0.71457 12.30928,-2.39734 18.45508,-6.21875 6.14582,-3.82141 6.11524,-9.87735 6.11524,-16.7793 0,-5.44768 -3.20433,-18.45799 -3.41211,-24.69922 -0.20778,-6.24123 -2.97553,-9.11349 -5.51758,-11.13867 0,0 3.87866,7.30091 2.93164,15.25586 -0.94702,7.95495 3.09278,22.67552 -0.18945,30.11524 -3.28224,7.4397 -18.75047,11.7434 -28.03125,8.90234 -9.28077,-2.84105 -19.13069,-4.73492 -25.94922,-6.81836 -6.81853,-2.08344 -6.25,-7.00781 -6.25,-7.00781 0,0 4.92496,-0.37983 9.28125,3.59765 4.35628,3.97747 13.06783,2.08473 18.56054,4.92578 0,0 2.84162,-3.97885 -5.30273,-5.30468 -8.14436,-1.32582 -8.33337,-4.16632 -13.44727,-5.30274 -5.1139,-1.13642 -5.49414,-6.6289 -5.49414,-6.6289 0,0 1.51682,3.4085 6.0625,4.54492 4.54569,1.13642 5.49219,3.41015 5.49219,3.41015 0,0 0.37937,-4.1668 -5.30273,-7.19726 0,0 3.03028,-0.38002 6.81836,2.83984 3.78807,3.21986 8.14453,2.46289 8.14453,2.46289 0,0 -2.84111,-1.32526 -7.57617,-5.30273 -4.73509,-3.97748 -11.55343,-2.27302 -14.20508,-8.14453 -2.65165,-5.87151 -1.70489,-8.145 -0.94727,-17.42578 0.75761,-9.28078 0.94707,-18.751 0.18945,-29.92578 -0.75761,-11.17481 1.32422,-19.50782 1.32422,-19.50782 0,0 -0.0352,-0.008 -0.0996,-0.006 z m -355.65234,6.43555 c -2.95639,0.089 -3.85034,1.65907 -2.47266,4.11328 0,0 0.67394,-1.48079 6.62891,0.44141 5.95497,1.9222 7.42773,1.52148 7.42773,1.52148 0,0 1.60798,-1.74051 1.07227,-5.22265 0,0 -0.40094,2.00893 -7.36523,0 -2.17634,-0.62779 -3.94721,-0.89397 -5.29102,-0.85352 z m 16.40625,15.85352 c 0,0 -3.21456,2.00725 -9.10742,0.66796 -5.89286,-1.33929 -4.6582,2.17579 -4.6582,2.17579 -10e-6,0 0.90888,0.3688 4.54687,0.4414 3.63799,0.0726 6.27148,0.86524 6.27148,0.86524 3.08035,-1.47321 2.94727,-4.15039 2.94727,-4.15039 z m 177.91211,114.27734 9.00781,8.66797 c 6.22515,5.99021 13.56936,13.05856 14.62891,14.07812 1.88447,1.81304 1.86914,3.32422 1.86914,3.32422 l 11.24414,10.82031 c 5.30084,-1.09606 11.2167,-2.5188 17.29492,-4.1582 0.89679,-2.922 -0.30469,-4.73437 -0.30469,-4.73437 -3.21426,4.01782 -11.25,5.08984 -11.25,5.08984 0,0 -0.1515,-4.26908 3.17774,-7.16016 3.32923,-2.89111 3.65502,-6.93172 1.64258,-9.44726 -1.07142,4.28572 -4.61082,9.85957 -8.30274,10.71484 -4.22158,0.97795 -8.93129,-0.96414 -13.66015,-6.37109 -4.72884,-5.40692 -20.85976,-18.13965 -22.49415,-19.44336 -1.63438,-1.30364 -2.85351,-1.38086 -2.85351,-1.38086 z M 451.25,611.07227 c 0,0 -6.42829,5.08789 -9.64258,23.83789 -3.21429,18.75 -1.24414,33.68359 -1.24414,33.68359 0,0 -14.01634,-7.00644 -24.24414,-16.66602 -10.22779,-9.65958 -16.60547,-18.46289 -16.60547,-18.46289 -0.45991,0.24269 -1.15195,0.58327 -1.74023,0.79297 4.24415,7.27751 17.06318,25.43309 43.29297,37.92383 l 0.95703,4.41406 c -28.19569,-13.42691 -43.25372,-34.10598 -47.85547,-41.28711 -0.9369,0.29193 -1.43991,0.44287 -2.27735,0.50586 13.25824,25.38007 45.08478,41.90738 48.07813,43.4043 2.99335,1.49696 4.39651,2.24551 5.56641,2.65625 -1.07146,-5.89285 -3.88361,-20.42855 -1.60743,-37.5 2.27619,-17.07145 8.57227,-27.27734 8.57227,-27.27734 0,0 5.35659,5.62496 8.97266,8.4375 3.61606,2.81249 4.28711,2.8125 4.28711,2.8125 1.06195,-0.31157 2.06549,-0.52537 3.03515,-0.66993 l -1.41015,-1.0039 c 0,0 1.7049,-2.27334 8.52343,-1.89453 6.81853,0.37881 4.73438,-5.8711 4.73438,-5.8711 -2.65165,2.46225 -2.65177,4.73413 -7.95508,3.78711 -5.3033,-0.94702 -6.05948,2.8412 -9.46875,0.56836 C 459.80949,620.99083 451.25,611.07227 451.25,611.07227 Z M 495,658.30273 c 0,0 -3.21401,6.16211 -2.14258,19.28711 1.07143,13.125 1.33985,24.64258 1.33985,24.64258 0,0 2.25677,-11.73418 2.94531,-23.30469 0.54482,-9.15538 0.26813,-16.07143 -2.14258,-20.625 z"
         transform="scale(0.26458333)" />
    </g>
  </g>
</svg>
