<?xml version="1.0" encoding="UTF-8"?>
<!DOCTYPE svg PUBLIC "-//W3C//DTD SVG 1.1//EN" "http://www.w3.org/Graphics/SVG/1.1/DTD/svg11.dtd">
<!-- Creator: CorelDRAW -->
<svg xmlns="http://www.w3.org/2000/svg" xml:space="preserve" width="500px" height="569px" shape-rendering="geometricPrecision" text-rendering="geometricPrecision" image-rendering="optimizeQuality" fill-rule="evenodd" clip-rule="evenodd"
viewBox="0 0 500 569"
 xmlns:xlink="http://www.w3.org/1999/xlink"
 xmlns:svg="http://www.w3.org/2000/svg"
 version="1.0">
 <defs>
   <linearGradient id="id0" gradientUnits="userSpaceOnUse" x1="236.195" y1="110.209" x2="227.425" y2="99.5321">
    <stop offset="0" stop-color="#4F2900"/>
    <stop offset="1" stop-color="#BF9F4F"/>
   </linearGradient>
 </defs>
 <g id="Layer_x0020_1">
  <metadata id="CorelCorpID_0Corel-Layer"/>
  <path id="path1937" fill="#F00000" stroke="black" stroke-width="1.41732" d="M0.810709 1.12819l498.015 -0.040252 -11.2535 324.248c-11.8687,321.86 -460.353,324.934 -475.837,0.37474l-10.925 -324.583z"/>
  <path fill="#BF9F4F" d="M58.9232 310.784c-13.4651,-11.969 -25.2204,-18.8085 -35.2658,-20.5183 11.0137,-26.161 21.4906,-52.8631 28.2127,-93.6148 -11.4347,0.213732 -17.4192,2.99225 -27.2509,4.48838l-0.40989 -3.00444 10.9896 -35.4674c33.7694,6.41226 78.4395,5.34388 101.309,-1.92359l2.24419 2.24419c2.13732,13.8926 5.55704,23.2968 11.221,36.8688l-26.2891 -4.48838c7.85452,33.4763 17.1516,64.842 27.5715,94.8972 -13.3608,5.18202 -24.0469,11.7014 -33.9835,18.5947l-1.92359 -1.92359 -7.69437 -58.9901c-6.83944,14.1063 -12.3965,28.6401 -16.6711,43.6014l-4.80898 1.28239 -18.2741 -46.8074 -8.97676 64.7609z"/>
  <path fill="#FFE6C8" d="M107.654 247.947l7.69437 58.9901 1.92359 1.92359c0.931465,-0.646016 1.86973,-1.2892 2.81594,-1.92784 -4.03795,-24.5778 -7.11383,-52.3616 -12.1133,-73.7334l-0.320599 14.7475zm-39.7542 -1.92359l18.2741 46.8074 4.80898 -1.28239c-4.80898,-5.23644 -15.3887,-37.4032 -23.0831,-56.1048l0 10.5798zm-16.0299 -49.3722c-6.72208,40.7517 -17.1989,67.4538 -28.2127,93.6148 0.94167,0.160158 1.89836,0.365953 2.87036,0.616252 12.7616,-29.2734 18.6126,-43.4829 29.8307,-98.7194l-4.48838 4.48838zm86.8822 -33.6629l-2.24419 -2.24419c-22.8696,7.26747 -67.5397,8.33585 -101.309,1.92359l-10.9896 35.4674 0.40989 3.00444c1.22882,-0.186803 2.39783,-0.394016 3.52488,-0.613418l8.33726 -34.0112c34.6913,6.4389 84.3574,5.42353 102.271,-3.52658z"/>
  <path fill="#4F2900" d="M138.752 162.988c2.13732,13.8926 5.55704,23.2968 11.221,36.8688l-26.2891 -4.48838c7.85452,33.4763 17.1516,64.842 27.5715,94.8972 -12.1082,4.69616 -22.0195,10.491 -31.1675,16.6669l-0.25115 -4.16353c8.17512,-5.87792 16.6176,-11.221 25.6479,-15.3887l0 -1.92359c-9.68542,-20.0438 -18.7424,-54.5366 -27.5715,-94.256 8.33556,0.961796 16.3505,1.92359 25.3273,3.52658 -3.12605,-7.48035 -5.74413,-16.9914 -8.01496,-27.8921l3.52658 -3.84718zm-31.0981 84.9586c-6.83944,14.1063 -12.3965,28.6401 -16.6711,43.6014l-3.20599 -5.12958c5.7172,-17.2055 12.4495,-34.4106 19.8771,-51.6164l0 13.1445zm-80.6392 43.0642c9.2795,2.52227 19.9159,9.11339 31.9082,19.7731l8.97676 -64.7609 -0.320599 -10.5798 -0.961796 0.641197c-4.03512,21.9339 -7.40126,44.5363 -10.5798,67.3257 -6.14438,-5.61062 -15.2277,-10.633 -25.6479,-15.3887l-3.37493 2.98942zm24.855 -94.36c-10.0052,0.186803 -15.8377,2.33773 -23.726,3.87496l0.963497 -2.91317c7.48063,-3.41972 16.6711,-5.12958 27.5715,-5.12958l-4.80898 4.16778z"/>
  <polygon fill="#F00000" points="70.1442,190.56 70.1442,194.086 86.1741,231.596 87.7771,229.993 101.883,190.56 "/>
  <polygon fill="#4F2900" points="70.1442,190.56 70.1442,194.086 86.1741,231.596 87.7771,229.993 88.0456,229.242 86.6577,222.563 76.5922,198.676 76.6506,194.616 100.554,194.275 101.883,190.56 "/>
  <polygon fill="#FFE6C8" points="87.1359,223.581 87.7771,229.993 100.656,193.991 98.0363,194.086 "/>
  <path fill="#BF9F4F" d="M244.229 163.629l-3.84718 23.7243c-114.004,-29.7102 -83.7652,-174.386 13.0139,-174.543 78.9727,-0.128976 128.272,104.946 59.762,153.384l-16.0299 -16.0299c48.1601,-48.8713 14.8337,-114.188 -41.1469,-113.271 -76.0408,1.24441 -92.1521,111.528 -11.7519,126.737z"/>
  <path fill="#4F2900" d="M240.948 183.867l-0.565512 3.4869c-25.829,-6.73115 -44.2539,-19.3638 -56.1785,-34.8795 17.6326,17.3038 36.5474,27.7676 56.744,31.3926zm86.7368 -131.902c25.2505,34.9254 26.9073,84.9354 -14.5264,114.23l-3.52658 -3.52658c26.5025,-23.8975 34.6244,-53.5796 26.9303,-86.8822 -1.56983,-8.47446 -6.02504,-15.6668 -8.87726,-23.821zm-10.8547 26.0731c-8.45093,-23.9567 -31.5465,-41.624 -60.8485,-41.1446 -53.466,0.874489 -77.3039,55.6574 -58.7974,93.3943l6.65008 15.7093c-18.216,-20.4163 -33.34,-69.5574 15.5628,-103.568 35.97,-25.0166 97.3361,-0.839906 97.4331,35.6091z"/>
  <path fill="#FFE6C8" d="M327.105 51.1716c-16.5399,-22.409 -42.8607,-38.4115 -73.7093,-38.3613 -74.096,0.120756 -109.188,84.9552 -70.403,138.049 4.80983,5.21887 10.5815,9.58281 15.3907,13.091 -43.8854,-37.9307 -37.3541,-115.188 19.0253,-140.081 31.9845,-14.1225 91.7249,-15.5092 119.153,51.9168 -1.44227,-8.63207 -4.5944,-16.8367 -9.45638,-24.6138zm-10.1923 27.1035c7.57843,21.7698 3.08296,48.6836 -19.785,71.8892l2.24419 2.24419c29.348,-30.7296 37.4525,-84.6791 -8.97676,-111.889 16.8097,11.2785 27.0842,28.7527 26.5176,37.7555zm-73.1903 88.4781l0.506551 -3.12378c-23.2404,-4.39597 -38.4171,-16.7366 -46.4128,-32.091 3.13115,14.5202 12.8163,27.5428 45.9063,35.2148z"/>
  <path fill="#BF9F4F" d="M386.523 310.784c-13.4651,-11.969 -25.2204,-18.8085 -35.2658,-20.5183 11.0137,-26.161 21.4906,-52.8631 28.2127,-93.6148 -11.4347,0.213732 -17.4192,2.99225 -27.2509,4.48838l-0.40989 -3.00444 10.9896 -35.4674c33.7694,6.41226 78.4395,5.34388 101.309,-1.92359l2.24419 2.24419c2.13732,13.8926 5.55704,23.2968 11.221,36.8688l-26.2891 -4.48838c7.85452,33.4763 17.1516,64.842 27.5715,94.8972 -13.3608,5.18202 -24.0469,11.7014 -33.9835,18.5947l-1.92359 -1.92359 -7.69437 -58.9901c-6.83944,14.1063 -12.3965,28.6401 -16.6711,43.6014l-4.80898 1.28239 -18.2741 -46.8074 -8.97676 64.7609z"/>
  <path fill="#FFE6C8" d="M435.254 247.947l7.69437 58.9901 1.92359 1.92359c0.931465,-0.646016 1.86973,-1.2892 2.81594,-1.92784 -4.03795,-24.5778 -7.11383,-52.3616 -12.1133,-73.7334l-0.320599 14.7475zm-39.7542 -1.92359l18.2741 46.8074 4.80898 -1.28239c-4.80898,-5.23644 -15.3887,-37.4032 -23.0831,-56.1048l0 10.5798zm-16.0299 -49.3722c-6.72208,40.7517 -17.1989,67.4538 -28.2127,93.6148 0.94167,0.160158 1.89836,0.365953 2.87036,0.616252 12.7616,-29.2734 18.6126,-43.4829 29.8307,-98.7194l-4.48838 4.48838zm86.8822 -33.6629l-2.24419 -2.24419c-22.8696,7.26747 -67.5397,8.33585 -101.309,1.92359l-10.9896 35.4674 0.40989 3.00444c1.22882,-0.186803 2.39783,-0.394016 3.52488,-0.613418l8.33726 -34.0112c34.6913,6.4389 84.3574,5.42353 102.271,-3.52658z"/>
  <path fill="#4F2900" d="M466.352 162.988c2.13732,13.8926 5.55704,23.2968 11.221,36.8688l-26.2891 -4.48838c7.85452,33.4763 17.1516,64.842 27.5715,94.8972 -12.1082,4.69616 -22.0195,10.491 -31.1675,16.6669l-0.25115 -4.16353c8.17512,-5.87792 16.6176,-11.221 25.6479,-15.3887l0 -1.92359c-9.68542,-20.0438 -18.7424,-54.5366 -27.5715,-94.256 8.33556,0.961796 16.3505,1.92359 25.3273,3.52658 -3.12605,-7.48035 -5.74413,-16.9914 -8.01496,-27.8921l3.52658 -3.84718zm-31.0981 84.9586c-6.83944,14.1063 -12.3965,28.6401 -16.6711,43.6014l-3.20599 -5.12958c5.7172,-17.2055 12.4495,-34.4106 19.8771,-51.6164l0 13.1445zm-80.6392 43.0642c9.2795,2.52227 19.9159,9.11339 31.9082,19.7731l8.97676 -64.7609 -0.320599 -10.5798 -0.961796 0.641197c-4.03512,21.9339 -7.40126,44.5363 -10.5798,67.3257 -6.14438,-5.61062 -15.2277,-10.633 -25.6479,-15.3887l-3.37493 2.98942zm24.855 -94.36c-10.0052,0.186803 -15.8377,2.33773 -23.726,3.87496l0.963497 -2.91317c7.48063,-3.41972 16.6711,-5.12958 27.5715,-5.12958l-4.80898 4.16778z"/>
  <polygon fill="#F00000" points="397.744,190.56 397.744,194.086 413.774,231.596 415.377,229.993 429.484,190.56 "/>
  <polygon fill="#4F2900" points="397.744,190.56 397.744,194.086 413.774,231.596 415.377,229.993 415.646,229.242 414.258,222.563 404.192,198.676 404.251,194.616 428.154,194.275 429.484,190.56 "/>
  <polygon fill="#FFE6C8" points="414.736,223.581 415.377,229.993 428.256,193.991 425.636,194.086 "/>
  <path fill="#BF9F4F" d="M205.116 234.482l7.05317 4.80898 -0.320599 -7.37377c13.1445,-10.7935 13.7857,-29.9225 24.0449,-41.9984 0.641197,-3.52658 1.28239,-10.2592 2.24419,-10.5798l2.24419 0c-3.08041,-8.81604 0.167528,-21.8271 -8.37298,-25.0971 -7.57163,-2.89928 -14.1177,-2.18211 -16.5923,-4.96687 -1.4845,-1.67046 -3.10706,-6.84624 0.599811,-10.3314 -1.38954,-1.92359 -1.92387,-4.70211 -1.60299,-8.33556 -0.85493,-2.35106 -0.961796,-4.70211 -0.961796,-7.05317 -2.24249,-1.2274 -7.11667,-4.14255 -6.65774,-7.34996 0.468284,-3.2709 4.30696,-6.76318 7.99257,-11.4741 5.05928,-5.94879 0.393449,-11.2873 7.64193,-22.5332l-0.641197 -1.28239 0.320599 -37.1894c2.99225,-4.38151 9.19049,-2.03046 9.61796,5.12958 15.3887,-2.77852 12.8239,7.2669 12.8239,11.8621 -6.5194,-7.09427 -16.2439,1.23477 -5.45018,6.73257l12.5033 3.84718c4.06092,-0.320599 8.12183,-5.77077 4.48838,-9.61796 -3.41036,-0.792284 -6.39326,-1.15767 -8.94813,-1.09587 0.417827,-7.54243 5.11002,-10.0624 14.0777,-8.20148 1.54942,-9.13692 5.75547,-12.2905 10.9803,-13.4249 2.98063,2.39216 6.70592,6.37172 2.80545,18.5545 9.08334,-1.60271 11.8619,3.20627 8.97676,14.4269 -9.61796,-9.01786 -18.2744,0.272977 -8.33556,5.77077l13.1445 3.20599c4.70211,-0.427465 6.19824,-9.51109 -2.24419,-9.29736 -0.85493,-5.34331 8.2287,-12.9308 12.8239,-5.12958 3.09884,-5.12958 9.72454,-5.23644 14.4269,0 -7.10674,11.3814 -11.702,22.0683 -16.3505,35.5864 6.75922,14.8844 -0.587622,23.0372 1.68293,29.9061 2.15773,6.52819 1.74302,16.4971 5.95248,17.0453 5.9417,0.773575 10.4718,7.42451 13.1369,14.8527 2.07298,5.77701 1.87115,11.5104 4.87559,15.7808 0.748063,-1.81673 2.28954,-2.50016 3.80693,-2.92536 5.19648,-1.45616 0.0935434,-3.43332 1.64324,-6.0514 6.94602,-1.17524 14.8541,8.22898 13.1445,19.5565l1.92359 -2.24419c3.15468,16.8871 1.55197,26.0785 -15.7093,21.8007 -2.56479,1.70986 -5.12958,2.56479 -7.69437,2.56479 8.69273,24.4797 11.6793,82.7793 11.3156,115.938 -0.43767,39.8937 20.7615,65.2258 -6.18605,95.0162 7.53251,-0.48926 13.3552,0.731055 17.4685,3.66208 19.1112,-1.83458 14.5358,18.5763 29.829,36.762 8.09774,9.6293 27.2325,21.6425 26.7608,47.7406 -9.40479,-0.353197 -20.412,-6.20929 -29.8157,-11.8621 -22.0144,47.9829 -36.9757,22.5488 -65.0815,20.8389 -45.4632,47.2059 -35.7055,16.3953 -91.7088,3.97446 -36.0437,-7.99427 -74.2794,4.01584 -90.3941,-29.7839 -13.2554,-27.8025 -1.99446,-41.2226 38.1541,-90.8884 1.06866,-9.93884 5.98451,-16.0302 14.7475,-18.2741 -3.09912,-14.1063 9.64545,-19.0227 32.1001,-25.7281 15.5016,-4.62926 10.2722,-15.9497 13.7455,-22.3617 -10.9004,-2.99225 -31.0981,3.95405 -48.0898,-0.320599 -2.56564,-19.6092 -0.642331,-51.0279 5.77077,-66.6845 -3.41972,-9.19049 -12.9308,-41.1435 -11.221,-46.8074 -16.5643,-20.9455 -18.381,-28.7467 -17.9535,-65.7227 1.17553,-2.77852 3.63345,-3.74032 6.41197,-1.92359 -0.320315,-5.98451 1.49641,-8.12183 5.45018,-6.41197 -0.213449,-6.51855 4.7024,-7.37348 6.09137,-1.60299 2.67194,-3.09884 4.91613,-1.92331 6.73257,3.52658 2.35106,3.31285 3.09912,11.7553 6.09137,16.6711 1.71014,-7.15975 6.62599,-8.22841 7.69437,-2.24419 0.0583937,5.72712 4.34807,18.4331 4.85859,28.2325 0.422929,8.119 -2.95314,13.4589 -2.2938,20.4985l3.84718 2.24419 8.01496 21.4801 2.56479 -3.84718z"/>
  <path fill="#FFE6C8" d="M222.429 82.1974c-7.24848,11.2459 -2.58265,16.5844 -7.64193,22.5332 -3.68561,4.7109 -7.52429,8.20319 -7.99257,11.4741l2.3658 0.924662c2.63452,-7.01887 7.19944,-6.9463 7.24734,-8.84608 0.0578268,-2.29295 1.71723,-0.177449 2.83691,-2.96731 2.15291,-5.364 1.764,-11.0925 3.52914,-12.0501 1.97518,-1.06753 -0.694205,-3.25644 2.08205,-5.12504 0.800788,1.62142 -0.572882,2.2989 -0.676063,3.55238 -0.132945,1.61036 0.195591,3.11443 0.195591,3.65471 1.33455,-0.907371 1.22769,-3.57676 4.96488,-4.48441 -0.960945,-1.65487 -2.56252,0.694205 -2.40236,-6.88678 -1.50293,-0.593008 -2.8457,-1.82665 -4.50879,-1.77931zm22.1213 -21.4801c0,-4.37981 2.3298,-13.7103 -10.7762,-12.17 1.90999,1.81417 11.4276,4.10882 10.7762,12.17zm-1.11628 21.9782l-2.40236 0.960945c-6.40885,-1.60101 -11.5364,-4.96375 -19.2263,-4.80331l0.303024 -35.1275c2.99225,-4.38151 9.19049,-2.03046 9.61796,5.12958 -1.80992,-1.63928 -2.3383,-5.3606 -5.4292,-4.91783l0.160158 1.76173 3.20315 3.04299 -3.20315 -0.480473 -0.320315 2.40236 2.08205 -0.960945 -1.76173 5.76567 1.74586 -1.01764c0.16441,-4.15134 3.49795,-3.58895 5.94114,-4.09663 -1.67131,1.23732 -5.4669,2.08658 -4.40447,4.23468 2.96306,0.293386 5.23219,1.01367 5.20583,2.16085 -3.15468,-0.643465 -5.93377,-1.01934 -6.08599,0.480473l4.96488 1.76173 -0.160158 2.08205 -4.48441 -1.92189 -0.160158 2.08205 3.04299 1.76173 -1.76173 2.40236 1.44142 2.08205 -5.12504 0.480473 4.64457 1.44142c1.92189,1.54828 8.96882,3.41688 13.4532,5.60551l0 1.60158c-7.58126,-3.41603 -13.2401,-4.48413 -16.9767,-3.20315l16.3361 5.44536 0.480473 1.60158c-6.40007,-2.49562 -13.6735,-4.81805 -17.7775,-4.64457 5.55194,2.29578 9.8229,4.75144 16.6564,6.88678m13.299 -14.8847c-1.06838,1.88334 -3.09912,3.32617 -5.12958,3.48633l-12.5033 -3.84718c-1.34901,-0.687118 -2.37799,-1.41846 -3.13229,-2.15858l-2.14328 -0.0530079 0.160158 3.20315 17.7775 7.52741 2.56252 -1.92189 0.800788 -3.68362 0.800788 3.52347 3.36331 -3.04299 0.64063 -3.52347c-0.0538583,-2.26885 -0.694489,-3.65669 -1.60158,-4.64457 1.01424,1.97547 1.17411,3.7372 0.480473,5.2852l-2.0761 -0.150236zm15.4687 -28.8539c-5.22482,1.13443 -9.43087,4.28797 -10.9803,13.4249 -8.96769,-1.86095 -13.6599,0.659055 -14.0777,8.20148 0.798237,-0.0192756 1.63843,0.00340158 2.52057,0.0674646 1.32605,-7.07896 7.12347,-8.03226 13.9496,-3.09997l1.92189 -0.480473 -2.24221 -5.2852c0.64063,-5.44536 2.40236,-3.68362 3.84378,-7.20709l1.76173 0c1.33455,-1.28126 1.70816,-3.20315 4.00394,-3.84378l-0.701292 -1.77732zm2.80545 18.5545c0.12189,-0.380693 0.23641,-0.753166 0.343559,-1.11827l-2.92819 1.47798 -0.320315 2.56252 1.28126 -1.44142 0.960945 1.44142 0.66274 -2.92224zm8.97648 2.40491c-1.2858,-2.10388 -3.71707,-2.98063 -7.34712,-2.63027l0.270425 2.50696c1.70816,1.22797 4.5377,-0.26674 5.12504,3.68362l1.76173 -0.320315 0.189921 -3.24zm8.61619 16.1099c0.0932599,2.29748 -1.45587,4.67518 -3.80693,4.88892l-13.1445 -3.20599c-1.8635,-1.03068 -3.07361,-2.19487 -3.7457,-3.34687l-0.761386 0.80589 0.64063 4.00394 13.4532 5.2852 5.60551 -0.480473 0 -2.40236 1.44142 2.08205 0 -4.32425 0.800788 0.64063 0.960945 -1.76173 1.1211 2.24221 0.800788 -5.76567 -1.60158 2.56252 0.800788 -4.80473 -2.56507 3.58073zm6.77282 -9.53802c-4.02066,-6.82583 -11.4783,-1.87002 -12.7069,3.05518l3.53424 1.30054c1.4675,-4.2446 3.86929,-6.21978 8.32819,-3.20315l0.844441 -1.15257zm9.62108 -3.35339c-3.2315,-1.15965 -6.54322,-0.422362 -8.74772,2.14243l0.364252 1.88306 2.72268 1.44142c0.314646,-1.65657 0.310394,-3.95292 5.2852,-3.52347l0.375591 -1.94343zm-7.2326 81.4213c0.666142,2.46983 1.61376,4.24744 3.32334,4.46996 4.2704,0.555591 7.81172,4.14851 10.4556,8.88322l-5.00003 -2.50214c1.76145,2.29578 3.30973,5.65909 4.64457,10.0899 -3.84378,-6.88678 -6.72662,-8.64851 -6.72662,-11.0509 -3.25673,-4.00394 -7.31396,1.44142 -8.32819,-8.16804m22.9672 33.3814c-0.375307,-0.533764 -0.701292,-1.09021 -0.987308,-1.66706l-0.839056 2.71956 -3.52347 -3.36331 0.960945 5.2852 -3.84378 -4.1641 1.92189 5.12504 -2.08205 -0.160158 -0.960945 -2.56252 -1.76173 0 -1.44142 1.44142 1.44142 1.60158 1.28126 1.92189 5.92583 0.160158 2.56252 -2.24221 2.24221 -0.480473 -0.896315 -3.61503zm8.7361 -8.78571c-1.09162,-0.299906 -2.20082,-0.374457 -3.28592,-0.191055 -1.5497,2.61808 3.55323,4.59553 -1.64324,6.0514 -0.56863,0.159307 -1.14151,0.355181 -1.67414,0.633544l0.52526 3.50447 1.92189 0 1.28126 2.88284 0.160158 -2.72268 1.92189 -0.320315 0.800788 1.76173 0.960945 -2.24221 0.800788 1.1211 1.60158 0 0.960945 -4.96488c-0.803622,-2.1583 -2.56791,-3.99629 -4.33219,-5.51396zm0.144567 252.49c1.58769,0.145701 3.07162,0.395433 4.45153,0.748063l-0.424063 2.76265 -3.52347 0.320315 -0.320315 2.56252 -1.44142 2.08205 -0.960945 -1.44142 -1.1211 2.56252 -0.960945 -2.88284 -1.76173 2.40236 -1.44142 0.480473 -1.44142 4.48441 0 -5.12504 -1.28126 1.76173 -0.800788 -1.44142 -1.76173 4.64457 0 -4.64457 -1.60158 1.60158 -2.08205 -0.800788 -2.72268 4.00394 0 -3.36331 -4.48441 0.960945 4.64457 -3.20315c6.34507,-2.82529 19.2566,-3.72869 19.0352,-8.47559zm1.93295 18.7112c2.84684,-6.75043 5.55988,-11.4987 7.98038,-11.8406l0.200126 -2.39896 2.72268 3.36331 0.0788032 -4.33616c9.92325,-0.0997796 12.6578,6.75553 16.3233,16.0047l-7.27314 -9.74665 3.68362 8.96882 -4.48441 -2.24221 -1.76173 -5.92583 -1.92189 4.48441 -4.00394 -6.4063 -0.64063 1.76173 1.28126 3.04299 -4.48441 -3.20315c-1.40032,-1.3748 -4.16466,2.16 -7.70004,8.47389m-123.011 -79.5087l4.02662 1.04598 -0.960945 -2.72268 2.72268 -0.480473 0.480473 -2.08205 2.24221 1.44142 -0.320315 1.92189 3.68362 0.64063 -0.160158 -1.92189 -1.44142 -1.1211 1.44142 -8.00788 1.76173 -1.1211 -0.64063 -4.1641 1.60158 -0.64063 -0.160158 -9.60945c-1.55679,0.336189 -2.90013,0.885827 -4.02945,1.64948 -3.47329,6.41197 1.75606,17.7327 -13.7455,22.3617 -16.1388,4.81947 -27.2625,8.71456 -31.0915,15.7623l0.178583 4.26983c3.79049,-2.24221 4.21767,-7.36725 9.92977,-9.12898l0.160158 -1.1211 4.00394 1.1211 2.56252 -2.72268c3.36331,-0.800788 5.12504,1.28126 7.68756,1.92189l-1.44142 -2.72268 4.32425 0.64063 -1.28126 -2.72268 6.24614 0 0.160158 -1.28126 2.08063 0.897733 -0.0212599 -2.10388m-32.0088 -38.9934l-1.1211 8.16804c2.82954,-6.45988 3.41688,-12.439 8.48835,-19.2189l2.40236 -0.320315c1.65515,-1.97547 2.88312,-4.37783 3.68362,-7.20709 0.960945,0.160158 1.92189,0.320315 2.88284,0.480473 4.8223,-21.7466 12.5416,-42.0438 19.3791,-62.7818l-5.148 -5.25118 -4.34098 -2.95994 -2.56479 3.84718 -0.992977 -1.53411 -0.726804 0.452693c2.89984,14.6942 -3.96652,36.9828 -9.28914,54.2934l-0.480473 -8.16804 -1.60158 1.1211 1.92189 -7.36725 -3.04299 5.2852 4.96488 -12.8126 -4.96488 6.56646 1.60158 -5.76567 -3.04299 2.72268 2.72268 -7.68756 -4.32425 4.96488 3.04299 -8.48835 -2.40236 2.88284 -0.160158 0 -1.76173 -0.320315 -0.320315 -2.56252 3.20315 -8.32819 -4.48441 6.4063 -0.960945 -8.00788c2.89021,-2.41569 4.95893,-7.56766 6.56646,-14.254 -2.90891,7.00668 -5.47144,11.4109 -7.52741,12.0118l2.08205 -8.64851 -2.88284 3.20315 1.76173 -6.08599 -2.88284 2.72268 0.64063 -4.96488 -1.44142 0.960945 -0.480473 -3.52347 -2.40236 -8.16804c5.33849,-3.79021 11.1044,-6.0857 17.297,-6.88678l0.0654803 -2.83465 -1.55934 -0.909638c-5.69481,0.874489 -11.3893,2.33632 -17.0844,4.0646 -8.41125,-12.3508 -16.1963,-29.7882 -15.9406,-38.4662 0.25937,-8.79704 -1.30649,-17.3344 -1.59959,-24.268 -2.77852,-1.81673 -5.23644,-0.85493 -6.41197,1.92359 -0.427465,36.976 1.38926,44.7772 17.9535,65.7227 -1.70986,5.66391 7.80123,37.6169 11.221,46.8074 -6.41311,15.6566 -8.33641,47.0753 -5.77077,66.6845 0.530929,0.133512 1.06498,0.256252 1.60214,0.368504l0.708095 -8.58416 0.800788 2.72268c0.480473,-3.3103 1.38841,-5.97969 2.72268,-8.00788m-18.7577 -174.51c-2.05682,-0.449858 -3.34063,0.492095 -3.85087,2.82671 1.14888,6.59736 2.29096,7.80633 2.56677,9.53717 0.735024,4.61452 -0.0136063,11.4891 3.0651,17.2035 -4.85065,-20.2193 -0.176315,-21.1847 -1.78101,-29.5674zm5.90627 -4.2429c-1.95874,-1.88844 -4.68369,-0.185386 -4.52381,4.70353 1.24781,4.13036 2.26573,7.38114 3.26495,8.05267 0.654237,0.439654 2.52,16.2261 5.14148,19.7728 -5.1378,-18.2101 -2.58832,-21.6859 -3.88262,-32.529zm8.30013 6.62712c-0.45411,-1.36233 -0.934867,-2.45821 -1.44227,-3.28592 -1.332,-2.17389 -2.8491,-2.50668 -4.54989,-0.999497 0.377575,3.62126 -0.0334488,5.87225 1.81446,8.79534 1.48819,2.35389 1.7932,15.4494 5.04539,20.431 -5.7121,-20.9806 -1.49471,-18.8986 -2.24221,-28.3479m12.1394 13.949c-1.05732,0.000850394 -2.20422,0.781512 -3.15666,2.3023 -0.61767,3.00189 1.07547,7.94155 1.908,9.85437 2.09877,-2.12939 2.14101,-6.60898 1.24866,-12.1567zm50.7901 27.9298c-10.2592,12.0759 -10.9004,31.2049 -24.0449,41.9984l0.260221 5.98224 6.01966 7.03588 -2.72268 -7.20709 0 -2.56252 1.44142 1.76173 0.64063 -2.72268 1.76173 0 0.160158 -3.52347 2.40236 -0.160158 -0.480473 -4.00394 3.04299 1.44142 -0.800788 -5.92583 1.1211 -2.24221 1.1211 3.52347 5.60551 -17.297 1.44142 -0.160158 0 -4.32425 2.08205 -0.64063 -0.800788 -2.56252 1.92189 -0.480473 0.800788 -4.1641 2.56252 -1.60158 -2.40236 -2.88284 -1.13358 0.7183zm12.3446 -5.52303c1.12082,-4.61424 -1.73962,-3.96 -1.93862,-8.22303 -0.100063,-2.14186 -1.6183,-3.54189 -2.22548,-5.55052l2.08205 0.64063c-0.800788,-2.98942 0.320315,-8.22133 -2.40236,-8.96882 -2.82954,-2.34879 1.06753,-2.93613 -3.20315,-4.64457 0.907371,-0.213449 1.38784,-0.854079 1.44142,-1.92189 -4.05751,-1.49471 -3.31002,-3.46989 -6.08599,-3.68362 0.411591,2.21301 2.10444,4.26558 0.914457,6.95878 2.40265,5.4961 1.34759,14 3.56145,20.3363l-2.24419 0c-0.480756,0.160158 -0.881859,1.92359 -1.24243,4.08784l2.0537 1.60951 0 -3.36331 1.92189 0.160158 5.44536 3.36331 1.92189 -0.800788m-28.8754 -37.012c-0.240095,1.07943 -3.65244,-0.519591 -5.00003,0.0626457 -0.908788,-2.32384 -1.12621,-5.88898 1.65373,-8.50281 2.31024,0.885544 0.312662,2.85789 0.916441,4.71714 0.60378,1.85925 2.84769,1.84536 2.42986,3.72303m-4.94929 -16.7757c-0.120189,1.36233 -0.120473,2.60504 -0.000283465,3.72699 2.66032,-1.20643 2.42674,-0.570048 0.000283465,-3.72699zm0.0314646 -5.63074l1.28126 -0.160158 -0.960945 -4.1641 1.44142 1.28126 0.160158 4.96488 -2.80035 -0.25852c-0.0943937,-1.02841 -0.114803,-2.05739 -0.114803,-3.0858l0.99326 1.42243zm-53.892 278.781c-37.9528,46.9497 -50.091,61.5096 -40.108,86.4477l2.87036 1.05194 -0.800788 -7.36725 4.1641 4.32425 -3.36331 -10.2501 3.68362 -6.24614 2.56252 7.68756 -1.60158 -8.96882 1.44142 -2.24221 3.52347 4.96488 -2.88284 -7.52741 2.40236 4.00394 -0.800788 -7.36725 1.44142 -1.1211 2.40236 8.48835 -1.76173 -9.60945 1.60158 -1.76173 3.68362 10.2501 -2.56252 -11.0509 3.36331 -5.44536 1.92189 6.56646 -0.960945 -7.84772 2.08205 -1.92189 2.24221 6.72662 -1.44142 -8.16804 2.08205 -1.60158 2.56252 7.84772 -0.960945 -9.12898 1.76173 -2.08205 4.96488 5.76567 -3.04299 -7.52741 2.08205 -2.72268 4.00394 7.36725 -3.04299 -8.64851 3.04299 -1.60158 2.88284 6.4063 -2.08205 -8.96882 2.08205 -0.480473 2.56252 5.60551 -1.92189 -7.52741 1.76173 -1.92189 3.36331 7.52741 -2.24221 -8.80867 1.44142 -1.1211 3.84378 7.52741 -2.72268 -9.4493 1.60158 -1.60158 4.00394 6.08599 -2.40236 -7.52741 2.56252 -1.76173 2.56252 6.56646 -1.1211 -8.32819 1.44142 -1.1211 4.96488 6.4063 -3.52347 -8.16804 2.56252 -1.76173 1.92189 2.72268 0.320315 -5.92583 5.12504 5.2852 -2.72268 -5.44536 3.52347 -4.00394 -3.52347 0.320315 0.960945 -4.32425c-15.3037,7.75021 -51.5534,44.7664 -65.024,78.6374l-0.160158 -4.96488 1.60158 -1.60158 -1.92189 -0.64063 3.20315 -5.92583 -3.04299 1.1211 1.1211 -2.24221 3.52347 -2.56252 -2.56252 -0.320315 1.44142 -2.08205 4.00394 -1.76173 -2.72268 -1.92189 5.92583 -1.76173 -3.04299 -2.88284 6.88678 -2.56252 -2.88284 -2.88284 5.76567 -0.64063 -2.72268 -2.40236 1.28126 -2.88284 2.56252 -0.320315 3.84378 -1.76173 -4.1641 -1.76173 6.56646 -0.960945 -2.24221 -1.44142 2.08205 -3.84378 5.92583 -1.28126 -4.32425 -0.800788 1.44142 -1.92189 6.88678 -2.24221 -4.96488 -0.320315 3.68362 -4.1641 4.96488 -0.320315 -4.1641 -1.28126 3.36331 -4.00394 1.44142 0.64063 0.160158 0 0.160158 -3.04299 2.72268 -0.480473 4.80473 -2.08205 -3.84378 0.160158 2.88284 -4.64457 4.96488 0.800788 -3.04299 -1.60158 0.960945 -1.92189c-0.373606,-3.09657 1.60186,-5.12561 5.92583,-6.08599 -3.52318,-0.160441 -6.61918,2.02847 -9.28914,6.56646l-0.64063 -3.04299 -0.800788 0.160158 -2.32129 3.79021zm173.85 -208.151l-4.80473 -0.64063 0 4.00394c11.7167,0.10715 12.4308,-3.24114 14.5494,-7.89988 -0.157323,-0.994111 -0.335906,-2.01969 -0.532914,-3.07503l-1.92359 2.24419c0.880441,2.64331 -2.0829,4.64599 -5.04596,4.56662l-0.960945 -1.92189 -0.480473 2.08205 -5.92583 -4.1641 5.12504 4.80473"/>
  <path fill="#BF9F4F" d="M180.652 271.361l-1.28126 13.1329c-3.83301,6.25096 -4.65959,20.8545 -4.64457,37.7972 4.97877,-7.64674 9.86315,-15.5747 14.4142,-24.5041 -2.9897,-4.48441 -4.8583,-18.8986 -8.48835,-26.426z"/>
  <path fill="#BF9F4F" d="M179.691 263.994l-10.8907 -39.7191c3.28819,15.6943 6.63761,30.2845 10.8907,39.7191z"/>
  <path fill="#BF9F4F" d="M167.999 219.63c-12.3727,-16.9906 -14.7484,-34.7412 -16.1759,-57.3364 -0.687969,21.5442 1.89723,41.7782 16.1759,57.3364z"/>
  <path fill="#4F2900" d="M297.449 102.075c6.75922,14.8844 -0.587622,23.0372 1.68293,29.9061 1.21351,3.672 1.61348,8.43308 2.48003,11.9934l-1.59817 2.34312 0 3.20599 -2.56479 -1.60299 0.641197 -2.56479c-1.1554,-8.96996 -4.88863,-12.3684 -4.92095,-18.9712 -0.0476221,-9.64999 4.12271,-15.45 0.753166,-23.6685l-21.1595 -6.41197 0 1.28239 -14.7475 -6.73257 -0.641197 1.60299 -25.6479 -10.2592 23.4037 5.77077 0.320599 0.961796 8.97676 1.60299 0.961796 0.961796 8.97676 0.961796 5.45018 3.20599 9.93856 1.28239 7.69437 5.12958zm25.6479 77.5849c-3.00444,-4.2704 -2.8029,-10.0038 -4.87559,-15.7808 -0.666142,-1.85669 -1.44936,-3.66548 -2.3417,-5.34558l-2.72126 -0.0331654c5.18287,10.4737 3.57931,16.9934 9.93856,21.1595zm18.5947 10.5798c1.38898,-9.20353 -3.57109,-17.1377 -9.2058,-19.1588 10.0219,10.3782 10.1534,17.4592 3.51921,22.284l3.04299 0.160158c1.30791,-0.240662 2.18891,-1.3354 2.64359,-3.28536zm19.6183 253.451l-0.0941103 -0.823748c2.50668,6.32438 5.44904,13.7682 11.4228,20.8715 8.09745,9.6293 27.2325,21.6425 26.7608,47.7406 -9.40479,-0.353197 -20.412,-6.20929 -29.8157,-11.8621 -22.0144,47.9829 -36.9757,22.5488 -65.0815,20.8389 -45.4632,47.2059 -35.7055,16.3953 -91.7088,3.97446 -36.0437,-7.99427 -74.2794,4.01584 -90.3941,-29.7839 -0.724819,-1.52022 -1.37622,-2.99792 -1.95392,-4.44076 4.42715,4.60007 9.86174,5.82123 12.0008,10.1166 2.57301,5.16728 4.68284,6.75922 8.16662,9.19333l2.24221 -0.64063 -0.160158 2.40236 4.48441 0 2.72268 2.88284 5.12504 -1.76173 -1.1211 2.88284 8.80867 -2.08205 -1.60158 3.52347 7.20709 -2.88284 -1.1211 3.20315 5.76567 -2.40236 0.160158 2.72268 6.08599 -2.56252 0 2.40236 5.92583 -1.44142 -0.160158 2.24221 5.44536 -1.44142 1.1211 1.92189 4.96488 -3.20315 -1.1211 3.68362 6.56646 -2.24221 -0.480473 2.88284 4.64457 -2.72268 -0.320315 3.84378 5.76567 -2.56252 0 3.52347 5.12504 -2.72268 0 3.04299 4.32425 -1.60158 0 2.56252 2.24221 0.480473 3.84378 -2.88284 -0.320315 3.84378 1.92189 0.480473 4.48441 -3.04299 -1.92189 4.48441 5.76567 -1.76173 -0.480473 3.20315 4.80473 -2.08205 -0.960945 4.1641 4.64457 -2.56252 -0.320315 4.96488 5.12504 -2.88284 -1.60158 4.00394 4.96488 -3.36331 -1.28126 4.96488 4.48441 -3.52347 -1.92189 5.2852 4.80473 -4.48441 -3.04299 5.76567 5.60551 -4.64457 -2.40236 5.2852 0.960945 1.44142 4.64457 -6.24614 -1.92189 7.04693c8.80867,-18.4181 16.1759,-16.1759 23.0627,-24.0236 -13.5601,-0.320315 -28.8819,-8.00788 -43.5629,-6.72662l2.08205 -3.68362 4.00394 -0.800788 0.64063 2.08205 3.20315 -2.24221 0.64063 2.08205 2.08205 -1.44142 0.160158 2.08205 2.88284 -1.76173 0.160158 2.40236 3.52347 -2.40236 0.64063 3.04299 2.08205 -2.40236 0.800788 3.68362 3.36331 -3.68362 0.800788 3.52347 2.56252 -2.24221 0 3.36331 3.20315 -4.1641 0.800788 3.04299 2.24221 -2.72268 1.28126 0.64063c4.80473,-12.439 12.172,-12.706 18.258,-19.0587 -11.7451,2.88284 -39.1853,-2.56252 -53.4926,0.960945l0.960945 -2.88284 4.00394 -1.28126 1.60158 0.800788 3.52347 -2.08205 2.08205 1.92189 4.48441 -2.40236 1.44142 1.60158 2.56252 -1.92189 1.44142 2.08205 2.40236 -1.76173 0.320315 2.72268 4.00394 -3.04299 0.320315 3.20315 2.72268 -2.24221 0.64063 2.56252 3.52347 -4.64457 0 4.1641 2.72268 -3.52347 0.64063 3.20315 1.28126 -1.28126c1.60158,-11.4248 10.5704,-18.6851 13.9337,-27.5471 -14.0939,1.1211 -31.0706,0.160158 -42.7621,4.32425l0.480473 -3.52347 5.12504 -1.92189 0.800788 0.960945 2.88284 -1.1211 0.800788 1.28126 3.36331 -2.56252 1.1211 1.92189 2.40236 -1.92189 1.76173 0.800788 1.60158 -0.960945 4.00394 0.160158 1.1211 -0.960945 0.960945 2.24221 2.24221 -2.56252 0.800788 1.44142 2.08205 -2.24221 1.28126 0.480473 1.1211 -2.24221 0.800788 2.40236c2.01487,-7.04381 6.70479,-17.932 15.6954,-24.0236 -15.9092,-1.76173 -46.2322,5.12504 -58.7778,8.16804 -11.211,1.548 -47.2465,13.3464 -31.2307,-8.32819l1.1211 1.44142 3.36331 -1.92189 0.64063 1.92189 3.04299 -1.44142 2.08205 1.44142 3.68362 -1.60158 1.1211 2.08205 2.88284 -2.08205 0.960945 2.88284 3.68362 -2.40236 1.76173 2.88284 4.00394 -1.44142 0.320315 2.08205 6.24614 -2.08205 0 1.76173 3.68362 -2.08205 0.320315 1.76173 4.1641 -2.88284 -0.160158 2.40236 5.76567 -2.72268 -0.320315 1.92189 5.92583 -2.88284 0 1.92189 6.72662 -3.84378 -0.960945 3.20315 6.72662 -4.80473 -0.800788 4.1641 8.96882 -8.32819 -2.24221 5.76567 0.800788 0.480473 7.04693 -6.4063 -1.92189 5.76567 2.40236 -0.480473 6.56646 -6.88678 -2.08205 6.88678 7.52741 -7.36725 -1.76173 6.56646 8.48835 -8.00788 -4.64457 8.00788 1.76173 -0.160158c7.02085,-8.40728 13.5873,-17.2698 18.8986,-27.3869 -3.52177,9.44958 -9.39459,18.3115 -16.3361,26.9065l1.28126 0.320315 12.9728 -15.5353 -8.00788 14.254 0.865701 0.284882c26.7849,-24.4905 10.5055,-52.9416 7.60139,-94.3592 -1.56076,-22.2591 1.72091,-84.6652 -12.4104,-118.198 2.36353,13.3753 0.221386,20.7422 -2.56479,27.2509 2.5115,-10.5798 2.08403,-18.8085 0.320599,-25.9685l0 9.93856c-0.909355,-5.82237 -2.40576,-12.1788 -5.29002,-13.1434 1.86888,4.06035 2.6708,7.47978 2.40463,10.258 -2.45792,-4.70211 -4.43537,-10.6855 -7.37377,-14.1063l-3.04554 2.40406 -2.72523 -1.92331 3.52658 -2.08375c-1.38898,-0.267307 -2.77795,-0.695055 -3.68646,-1.76343 3.01805,0.227055 5.68942,-0.0671811 7.85424,-1.12195l-4.32794 -1.60299c6.46186,-0.216284 9.29396,-3.42227 8.49572,-9.61796 2.41228,3.5212 3.91323,10.4978 -0.961796,12.1827l1.92359 2.24419 -1.28239 1.92359c7.15862,5.28577 11.1141,1.28239 16.6711,1.92359 11.1844,0.597544 16.3851,-5.21688 15.601,-17.4433 7.87295,20.986 -4.77922,23.6957 -21.6924,20.9699 11.2575,24.8003 12.6405,82.7802 12.2774,115.938 -0.436819,39.8931 20.1203,69.073 -2.98006,94.6956 -12.8367,11.0631 -27.5953,2.5869 -37.5492,30.7871l5.76567 -10.5704 -3.84378 11.0509 4.00394 -6.56646 -0.960945 6.56646 3.04299 -4.80473 -0.800788 5.76567 2.88284 -4.00394 0.160158 3.52347 2.24221 -3.04299 0.480473 3.04299 2.40236 -2.56252 0.480473 2.56252 2.72268 -2.08205 0.320315 2.72268 2.72268 -2.08205 0.160158 3.20315 2.56252 -3.20315 0 3.52347 2.72268 -4.32425 0.480473 5.44536c1.37877,-1.42639 1.11742,-5.68177 3.14107,-7.74511 2.25581,-2.30003 6.87147,-17.9303 15.5974,-23.4856l3.46451 1.02217 -1.93153 0.442772 -0.251717 2.21868c-6.62003,4.59099 -6.83348,11.7448 -12.172,18.5783l-0.960945 3.68362 -3.04299 6.72662 1.71524 -0.92863 3.73011 -7.88004 2.40236 1.76173 -5.12504 7.68756 2.75953 -1.73736 2.0452 -3.54784c3.52347,0.907371 14.8947,-3.31002 2.40236,19.0587l2.40236 1.1211 2.04236 2.42674 0.36 -10.4346 2.05399 9.69137 1.14917 -6.64838 2.56252 10.4102c1.81502,-4.11081 -4.21767,-23.2764 -7.68756,-32.1917 8.15783,12.327 7.23204,19.3125 12.1195,29.4911 3.13314,6.52507 7.28703,0.122173 8.70095,11.5092 14.5208,4.21739 24.3972,16.4427 34.9143,16.9767 5.76567,-17.4039 -27.3869,-37.05 -36.9964,-67.106l4.1641 4.96488zm-140.163 -106.297c-10.5596,-2.89871 -29.8449,3.52942 -46.4876,0.0479055l0.227622 -2.0177c21.1825,-1.68066 39.7154,-5.19591 58.7007,-1.63758 7.56057,1.41704 14.9718,4.80331 23.2999,5.16104l6.08599 -3.20315 -3.04299 4.00394 5.76567 -3.84378 -2.24221 3.84378 4.64457 -4.64457 -2.40236 4.64457 3.84378 -3.84378 -1.28126 4.1641 6.56646 -8.00788 0.160158 -2.56252 2.24221 -0.480473 1.60158 -10.0899 1.28126 4.00394 2.08205 -7.68756 0.800788 1.44142 2.72268 -10.7306 1.28126 3.52347 1.92189 -10.5704 1.28126 2.56252 1.60158 -9.28914 1.1211 0.320315 0.64063 -9.60945 2.56252 4.80473 1.44142 -11.8517 0.960945 4.48441 1.28126 -12.8126 2.08205 2.08205 0.64063 -11.211 2.08205 3.68362 0 -13.6134 2.40236 2.88284 0.160158 -11.6915 1.28126 2.08205 0.320315 -9.92977 2.08205 3.68362 -1.92189 -15.3751 3.84378 5.60551c-1.22797,-6.03241 -3.41688,-9.50259 -5.12504,-14.254 2.93613,3.79049 5.55194,8.54193 8.32819,12.8126l-1.76173 3.36331 0.64063 10.8907 -2.40236 6.88678 -1.92189 1.1211 0 2.88284 2.40236 -0.800788 -2.24221 6.08599 -0.64063 0.800788 -1.92189 6.24614 0.320315 5.12504c-1.76173,6.72662 -3.95093,12.172 -6.56646,16.3361l-0.320315 5.92583c-3.61956,5.27783 -13.4096,27.1899 -18.1894,36.4244 -8.52038,16.4622 -9.39317,20.5696 -40.108,15.3065 0.179717,12.5255 -1.2481,24.0968 -5.76567,25.6252 2.02819,-8.2749 2.77569,-16.977 2.24221,-26.1057 -6.38844,-2.30684 -12.6434,-3.67909 -18.6038,-2.99509zm-64.9208 -185.226c-0.186803,1.01537 -0.240662,2.27084 -0.160724,3.76696 1.62936,8.15216 2.77824,17.1051 4.88778,24.4565l-4.72706 -28.2234zm5.28945 -2.64501c-0.370488,-0.160158 -0.722552,-0.286583 -1.05562,-0.379276 6.14381,14.4198 4.75994,22.4334 8.82142,30.7673 -2.5886,-10.1293 -3.73578,-19.1376 -7.7658,-30.388zm6.09137 -1.60299c-0.260221,-1.0817 -0.644882,-1.93096 -1.09616,-2.55345 0.76337,5.16189 1.84706,8.72221 2.77058,13.0833l-1.67443 -10.5299zm6.73257 3.52658c2.35106,3.31285 3.09912,11.7553 6.09137,16.6711 1.06214,7.82844 3.64507,13.6281 7.2686,18.0394 -6.21496,-10.9295 -7.46504,-26.824 -13.36,-34.7105zm29.6119 84.7837l-1.39918 2.09849 -8.01496 -21.4801 -3.84718 -2.24419c-0.659339,-7.03956 2.71673,-12.3795 2.2938,-20.4985 -0.51052,-9.79938 -4.80019,-22.5054 -4.85859,-28.2325 2.28444,2.79921 7.8412,21.7644 8.14054,31.5065 0.213449,6.94574 -4.34551,10.6699 -2.80063,18.7265l3.52347 3.04299 6.96274 17.0807zm11.4661 -86.9556c8.04586,1.43348 17.1176,-1.27502 26.223,-6.9857 -3.36841,3.56032 -10.3082,5.83087 -11.5929,8.29956 5.41134,2.63877 6.40772,5.5097 6.77367,8.4138 -0.939969,-2.15093 -2.41002,-3.84123 -4.81153,-4.76079 -7.57163,-2.89899 -14.1177,-2.18211 -16.5923,-4.96687zm0.599811 -10.3314c-0.607748,-0.841323 -1.0525,-1.84677 -1.33285,-3.0155 2.37997,0.877607 5.55364,0.961512 7.13991,2.63282l-2.3811 0.198425 -0.297638 2.28189c-0.860032,-0.915874 -2.00268,-1.4485 -3.12832,-2.09764zm-1.60299 -8.33556c-0.200126,-0.550772 -0.359717,-1.10183 -0.486142,-1.65288 2.49307,-1.77562 10.4837,2.65521 13.9708,3.54955 -2.09055,0.292536 -4.01669,0.587622 -5.76567,-0.442205l-0.160158 0.76252c-2.7601,-0.257953 -5.22652,-1.10381 -7.55887,-2.21698zm0.663591 -6.92901l-1.62539 -0.124158c-1.1211,-0.613701 -2.90041,-1.64948 -4.34183,-2.93244 2.58548,-0.932315 5.69792,0.152787 5.96722,3.0566zm6.72123 -44.0487l0.630142 2.56734 -0.641197 -1.28239 0.0110551 -1.28495zm17.3013 -12.1802c-6.7527,-8.47106 -0.0371339,-8.81037 3.71651,-7.79641 1.03635,-1.00148 1.75663,-2.65436 1.73367,-5.44139 0.360567,2.2921 0,4.78205 0,6.50523 -6.5194,-7.09427 -16.2439,1.23477 -5.45018,6.73257zm35.907 -9.93856c1.33342,-6.86523 0.131244,-12.9699 -2.80545,-18.5545 2.98063,2.39216 6.70592,6.37172 2.80545,18.5545zm8.97676 14.4269c0.246614,-3.85087 0.439654,-7.70117 0.257669,-11.5526 1.20246,2.44177 1.09446,6.29292 -0.257669,11.5526zm-8.33556 5.77077c-3.21222,-4.45663 -3.75449,-7.97896 1.57776,-9.44646 -6.02618,-0.933449 -9.03175,5.32318 -1.57776,9.44646zm36.3081 -12.9345c0.637229,0.488126 1.25547,1.05902 1.84309,1.71354 -5.99613,9.60293 -10.2047,18.7115 -14.1659,29.4438l-0.261071 -3.47528 -2.56479 6.09137c-4.53033,-1.95364 -9.98703,-4.10627 -15.3887,-6.09137 5.02385,0.638646 9.94026,1.49244 14.1063,3.84718l0.961796 -2.24419c-5.23644,-2.29748 -10.4732,-4.00706 -15.7093,-5.45018 5.34331,0.694489 10.6863,1.65657 16.0299,3.20599l0.641197 -1.28239c-2.77654,-2.03216 -6.30397,-3.3137 -9.93856,-4.48838 3.74032,0.532914 7.48007,1.17354 11.221,2.56479 4.08756,-7.62435 5.61062,-14.9281 13.225,-23.8348z"/>
  <path fill="#FFE6C8" d="M240.711 56.5898l-7.36725 -3.36331c2.77597,-0.800788 6.19257,0 7.36725,3.36331z"/>
  <path fill="#4F2900" d="M299.372 320.402l-2.56479 0.320599 -8.97676 51.937 -0.961796 -8.01496 -0.641197 16.6711 -0.961796 4.16778 -1.1228 -5.12929 -2.25354 9.01191 -0.914741 -6.92731 -1.66054 7.76552 -1.38189 -5.33424 -1.55254 7.87578 -1.44936 1.8618 -0.566646 -5.32942 -2.304 7.0166 -0.0133228 -15.7005 -1.57068 13.0904 -2.1909 5.92101 0.132095 -7.31027 -2.39216 8.58756 -0.639496 -8.35087 -1.93096 10.4777 0.413858 -15.5543 -2.48599 14.6001 -0.623055 -9.3464 -2.26375 12.8106 -0.801071 3.68788c-1.74189,3.50703 -5.35295,3.48775 -8.10851,2.67251 -8.75226,-2.58917 -20.145,-37.7141 -35.3866,-39.2698 -5.22029,-0.532914 -9.15336,-0.0396851 -9.88895,5.66533 -1.21776,9.44334 8.97279,10.3703 12.5371,15.4454 6.4063,-1.1211 -4.1641,-5.44536 -5.92583,-7.68756l-0.480473 -4.00394 -1.44142 2.24221 -1.44142 -0.160158 -0.160158 -1.92189 1.60158 -1.44142 -1.60158 -1.60158 1.1211 -2.56252c0.977103,2.59058 2.95087,4.84895 5.37676,6.95736l-4.89912 -8.02744 1.46523 -1.0749 2.24221 5.14602 0.619654 -5.08309 2.72268 2.81991 0.800788 7.91065 1.60158 -8.16804c1.22797,0.26674 2.45622,0.960662 3.68362,2.08205l-2.24221 2.08205 1.60158 1.44142 3.20315 -1.60158c6.08599,7.04693 3.20315,7.36725 4.80473,11.0509l-3.04299 -4.96488 0.320315 6.88678 -2.08205 -6.08599 -0.863717 8.04983 -1.53865 -4.84668 -0.960945 3.84378 -2.08205 2.08205 -1.60158 -3.04299c-1.72715,0.12189 -1.64381,3.22384 -3.36331,4.00394l0.320315 3.36331 1.44142 -2.40236 2.56252 0.960945c11.9821,-2.68299 10.2804,-6.01966 13.6134,-7.04693 1.01537,3.28536 10.3822,17.2789 12.9742,19.7938 3.61559,3.50759 10.5058,3.20258 12.0974,0.730489 3.90501,-6.06558 33.5665,-22.1372 33.0353,-32.0213 -0.766489,-14.2642 7.57673,-52.693 9.04281,-61.0214z"/>
  <path fill="#4F2900" d="M209.925 400.231c-8.12183,0.427465 -17.5261,0.213732 -26.2891,3.20599 2.29748,-5.18287 19.0755,-4.32794 28.5333,-5.45018l-2.24419 2.24419z"/>
  <path fill="#4F2900" d="M164.4 402.155c7.37377,-19.2359 24.3655,-13.1445 31.7393,-16.3505 1.49613,-0.213732 2.99225,-2.35106 4.48838,-3.52658 -3.9189,12.625 -25.4132,1.07773 -36.2276,19.8771z"/>
  <path fill="#4F2900" d="M178.827 379.072c4.75484,-3.25984 12.4492,-3.25956 21.4801,-2.24419l0 -2.56479c-17.7429,-0.695055 -22.5508,1.22854 -21.4801,4.80898z"/>
  <path fill="#4F2900" d="M269.877 323.929l-1.28239 -17.3123 1.92359 0c1.92359,16.8849 9.29736,2.67165 4.80898,-5.12958l0.641197 -12.5033 0.641197 10.2592c3.41972,3.95405 2.67165,26.8234 -6.09137,15.7093l-0.641197 8.97676z"/>
  <path fill="#4F2900" d="M259.939 322.646l0.320599 3.52658c14.6407,-22.5488 -15.9231,-33.2354 -13.7857,-67.6463l-4.16778 -9.61796 0.641197 6.09137 -3.20599 -2.24419 -0.320599 1.92359 -3.52658 -2.88539 3.52658 6.73257c-4.06092,-3.5263 -8.12183,-8.33528 -12.1827,-14.4269l3.84718 9.93856c-3.12491,-3.79418 -5.74328,-8.60287 -8.01496,-14.1063 1.28239,4.27465 3.04526,8.86961 4.32766,13.1443 -3.15184,-3.10139 -5.02243,-11.3278 -7.53364,-17.312 2.40718,8.12211 0.601229,16.7247 14.1058,24.846 2.90721,29.2405 4.02832,54.9488 14.7481,59.7921 -8.65616,-10.366 -10.9004,-40.2886 -11.8621,-55.7842 0.962079,-3.74003 3.95433,-3.95377 8.33556,0 0.106866,23.8312 22.9762,41.8915 14.7475,58.0283z"/>
  <path fill="#BF9F4F" d="M301.25 457.304c21.4107,1.23959 17.1658,6.51884 23.6815,6.13163 5.4377,-0.32315 9.89377,-6.9378 12.89,-4.10712 2.91855,2.75726 -9.1304,16.0702 -11.7471,28.5656l-0.960945 -6.72662 -1.28126 6.72662 -0.480473 -6.24614 -3.04299 5.76567 -0.64063 -4.96488 -2.88284 4.64457 0 -0.160158 -0.64063 -3.84378 -1.92189 3.52347 -0.64063 -4.96488 -2.08205 4.64457 -0.800788 -4.96488 -2.40236 4.48441 -0.960945 0.480473 -0.320315 -4.1641 -2.72268 4.64457 0.160158 -5.60551 -3.04299 4.64457 -0.320315 -4.48441 -3.52347 4.00394 0.960945 -6.56646 -3.84378 7.68756c-0.079937,-3.41717 0.720851,-6.83377 1.92189,-10.2501l-4.64457 10.0899c-0.65367,-3.00303 0.974835,-7.78139 4.1641,-13.7736 -2.66939,3.41632 -4.91131,8.11418 -6.72662,14.0939 -3.79021,-5.92583 9.396,-18.258 11.8517,-29.3088z"/>
  <path fill="#4F2900" d="M214.445 242.052l0.160158 2.40236c8.56574,8.18193 7.69125,17.8747 4.67717,32.4241 -2.72325,13.1445 -0.895748,29.7128 6.3737,36.9241l2.24221 -3.52347 -0.320315 -5.76567 -1.60158 6.24614c-8.46312,-9.22394 -4.93427,-26.2347 -2.79326,-41.2396 1.77222,-12.4203 0.761103,-17.053 -8.73808,-27.468z"/>
  <path fill="#4F2900" d="M196.781 433.573c-6.47207,3.20599 -9.6344,17.8158 0.452693,19.9553 9.18737,1.94854 29.1161,1.71865 34.4926,3.44835l0.320599 -2.56479 -3.52658 -1.92359c-52.1266,3.13852 -31.4048,-15.5154 -31.7393,-18.9153z"/>
  <path fill="#4F2900" d="M179.789 439.985c-4.8138,7.94467 -7.25981,16.7859 2.91997,23.1375 9.17547,5.72514 22.7495,6.23396 41.3226,8.92234l2.24419 -2.88539c-26.4552,-2.84825 -55.0721,-3.52829 -46.4868,-29.1745z"/>
  <path fill="#FFE6C8" d="M230.123 446.718c6.13134,-10.1653 56.492,-15.1611 71.1729,-16.9917l-4.48838 5.45018 -1.92359 -0.961796 -1.60299 7.37377 -0.320599 -7.37377 -4.48838 5.12958 1.60299 -5.45018 -5.45018 6.41197 1.28239 -4.80898 -2.88539 0 -0.961796 2.24419 -1.60299 -2.56479 -3.52658 1.28239 -3.20599 5.77077 0.641197 -6.09137 -1.28239 1.28239 -0.641197 -0.641197 -2.88539 7.05317 1.28239 -7.69437 -0.320599 0.320599 -2.56479 0.641197 -0.972 3.05717 -0.994111 -2.67704 -2.84287 -0.0595276 -1.28239 2.88539 -0.641197 -2.24419 -2.24419 0 -0.641197 0.961796 -5.45018 0.961796 -0.641197 -1.28239 -3.84718 4.48838 -0.320599 -2.88539 -1.92359 1.28239 -1.60299 2.56479 -0.641197 -2.24419 -2.24419 2.56479 -0.961796 -1.60299 -3.20599 0.320599 -0.961796 1.60299c-1.70986,-0.641197 -3.84718,0 -6.41197,1.92359z"/>
  <polygon fill="#FFE6C8" points="295.525,458.901 287.831,471.083 285.586,469.801 292.319,458.26 "/>
  <polygon fill="#FFE6C8" points="289.754,459.542 284.625,467.877 278.854,471.725 284.304,459.542 "/>
  <polygon fill="#FFE6C8" points="282.701,459.542 280.136,467.557 278.854,466.595 277.251,472.366 275.007,471.404 274.686,473.648 271.801,473.648 272.121,470.122 277.571,460.183 "/>
  <polygon fill="#FFE6C8" points="272.442,460.183 275.648,460.183 275.968,462.748 268.595,473.648 265.709,473.328 268.274,466.595 "/>
  <polygon fill="#FFE6C8" points="266.992,461.786 264.427,461.145 259.939,469.16 258.977,473.648 261.221,471.725 "/>
  <polygon fill="#FFE6C8" points="271.16,460.824 266.992,467.877 264.106,472.045 262.503,470.763 268.595,460.504 "/>
  <polygon fill="#FFE6C8" points="255.771,463.71 255.45,467.236 259.939,467.236 261.542,463.389 "/>
  <polygon fill="#FFE6C8" points="307.387,463.389 311.234,463.389 309.631,467.877 307.067,466.595 "/>
  <polygon fill="#FFE6C8" points="329.188,463.389 332.394,463.71 328.226,472.045 324.699,472.686 "/>
  <polygon fill="#FFE6C8" points="313.799,462.748 316.685,462.748 313.479,470.763 310.273,473.007 309.311,472.366 "/>
  <polygon fill="#FFE6C8" points="319.249,462.748 321.493,463.71 316.364,472.686 314.761,472.686 315.082,470.442 "/>
  <polygon fill="#FFE6C8" points="327.905,464.03 324.379,471.404 321.173,475.251 320.211,473.648 325.661,464.351 "/>
  <polygon fill="#FFE6C8" points="324.058,465.313 318.608,474.931 316.364,473.648 321.814,464.672 "/>
  <polygon fill="#FFE6C8" points="288.151,490.961 287.51,493.205 284.985,493.598 282.118,496.165 276.93,502.182 275.327,501.22 279.816,495.128 275.968,498.655 273.083,498.976 279.816,491.922 282.701,490.961 "/>
  <path fill="#BF9F4F" d="M281.871 512.398c-1.33484,-10.8907 14.7878,-15.5353 20.5002,-24.0236 14.3053,1.75748 22.3214,6.5194 34.3973,1.99446 3.69695,-1.38529 7.29383,-4.28173 12.5289,-7.1195 5.01789,-1.1211 7.84715,1.70873 6.08599,9.4493 -5.76567,9.92977 -13.2931,15.3751 -17.297,29.7893l0.800788 -8.00788 -2.88284 8.64851c-0.907654,-2.88284 -0.37389,-5.92583 -0.320315,-8.64851l-4.1641 9.12898c-0.748063,-2.93641 -0.320882,-6.46016 0.64063,-10.2501l-4.1641 9.28914 0.480473 -8.00788 -3.52347 5.92583 -0.64063 -6.24614 -3.68362 5.76567c-1.06781,-1.76173 -1.06781,-3.95093 0,-6.56646l-4.00394 5.44536 0.160158 -4.96488 -0.160158 0.160158 -3.20315 4.64457 -1.76173 -1.44142 1.1211 -3.52347 -4.32425 3.36331 0.160158 -4.48441 -2.88284 3.52347 -1.44142 0 0.960945 -4.64457 -3.52347 3.68362 -1.60158 -0.480473 0 -4.64457 -2.56252 4.64457 -1.44142 -0.480473 0.160158 -3.68362 -2.88284 4.32425 0.320315 -4.1641 -4.00394 3.52347 1.92189 -6.08599 -4.48441 4.64457c1.28069,-3.38967 3.09572,-6.91314 6.08599,-10.7306 -3.21676,2.66939 -6.17981,6.35329 -8.96882,10.7306 0.159874,-3.40299 3.36303,-8.07421 8.64851,-13.6134 -4.59128,3.01691 -8.1686,7.55433 -11.0509,13.1329z"/>
  <polygon fill="#FFE6C8" points="276.289,490.319 279.816,490.319 273.083,497.052 271.48,496.09 "/>
  <polygon fill="#FFE6C8" points="248.397,490.319 243.909,494.167 246.153,494.487 251.282,489.678 "/>
  <polygon fill="#FFE6C8" points="275.007,490.961 271.801,490.64 267.633,496.411 268.274,498.334 270.839,496.411 "/>
  <polygon fill="#FFE6C8" points="256.733,490.64 252.244,495.449 249.359,495.128 253.206,490.319 "/>
  <polygon fill="#FFE6C8" points="268.274,492.243 269.557,490.64 261.862,497.373 259.618,496.731 266.03,490.64 "/>
  <polygon fill="#FFE6C8" points="314.44,491.602 312.517,490.64 307.067,495.128 308.99,495.128 308.028,499.296 "/>
  <polygon fill="#FFE6C8" points="264.427,490.319 258.015,495.449 257.694,492.884 261.221,489.678 "/>
  <polygon fill="#FFE6C8" points="317.005,493.525 313.799,498.014 309.311,501.861 310.914,498.014 315.459,493.281 "/>
  <polygon fill="#FFE6C8" points="317.967,493.205 313.799,499.296 313.479,501.22 319.89,495.128 321.173,495.128 316.685,501.22 318.929,501.54 326.302,493.205 "/>
  <polygon fill="#FFE6C8" points="330.791,494.167 326.944,499.937 321.814,501.861 326.623,494.487 "/>
  <polygon fill="#FFE6C8" points="328.547,503.464 326.302,503.143 327.998,499.138 334.317,491.602 336.562,493.846 "/>
  <polygon fill="#FFE6C8" points="340.409,491.281 332.073,500.899 334.638,501.22 337.203,499.296 333.676,504.746 335.92,504.426 344.577,497.373 341.691,501.861 343.294,503.785 346.821,501.54 352.271,491.602 349.386,491.281 347.141,494.167 347.462,490.961 "/>
  <polygon fill="#FFE6C8" points="279.495,517.891 270.198,524.303 267.954,524.303 276.289,516.288 "/>
  <polygon fill="#FFE6C8" points="260.58,513.402 255.13,518.853 252.565,518.853 257.694,513.082 "/>
  <polygon fill="#FFE6C8" points="274.045,515.967 263.786,525.585 263.145,523.662 266.03,521.417 266.351,519.173 271.16,514.685 "/>
  <polygon fill="#FFE6C8" points="253.206,511.158 256.733,510.838 251.282,517.57 251.282,515.647 "/>
  <polygon fill="#FFE6C8" points="269.557,513.723 262.824,520.456 258.015,521.738 258.656,519.494 264.106,514.364 "/>
  <path fill="#FFE6C8" d="M265.389 187.354l-9.29736 -0.961796c-20.1424,-21.1657 1.19622,-29.6578 -6.58687,-39.132 1.90176,-1.92869 4.37414,3.81147 5.70444,3.86929 -2.58321,-10.6923 -13.1394,-8.94303 -15.698,-20.7893 -0.860315,-3.98381 0.579118,-12.9801 5.59871,-18.667 4.62019,-5.23474 7.20624,-9.49068 10.9817,-12.8044l0.961796 3.84718 -2.24419 1.92359 -0.641197 3.20599 -2.24419 5.45018 0.961796 -5.45018 -1.92359 7.05317 -1.92359 1.28239 0.961796 -4.80898 -1.28239 1.28239 -0.641197 5.12958 -2.24419 4.48838 -1.28239 -2.24419 0.320599 3.52658c-3.09912,14.3983 12.6352,15.7618 13.6457,25.4869 1.57635,15.171 -16.8466,23.5347 6.8726,38.3122z"/>
  <path fill="#4F2900" d="M254.809 150.805c-2.45792,-8.86989 -11.0072,-9.08363 -15.0681,-17.9535 1.81673,12.7171 10.6866,11.6484 15.0681,17.9535z"/>
  <path fill="#4F2900" d="M249.679 136.699l-3.84718 -11.221c-1.28239,5.02271 1.60299,7.80123 3.84718,11.221z"/>
  <path fill="#4F2900" d="M253.527 136.379l-3.84718 -11.221c-1.28239,5.02271 1.60299,7.80123 3.84718,11.221z"/>
  <path fill="#4F2900" d="M256.743 134.455l-2.96788 -8.65616c-0.989292,3.87468 1.23647,6.01796 2.96788,8.65616z"/>
  <path fill="#4F2900" d="M259.629 132.531l-2.96788 -8.65616c-0.989292,3.87468 1.23647,6.01796 2.96788,8.65616z"/>
  <path fill="#4F2900" d="M264.117 132.211l-2.96788 -11.8621c-0.989292,5.30986 1.23647,8.24712 2.96788,11.8621z"/>
  <path fill="#4F2900" d="M266.156 128.91l-1.27984 -9.06095c-1.70334,3.61814 0.0776693,6.14325 1.27984,9.06095z"/>
  <path fill="#4F2900" d="M274.813 162.347l-1.27984 -11.4001c-1.70334,4.55216 0.0776693,7.72952 1.27984,11.4001z"/>
  <path fill="#4F2900" d="M279.621 161.385c-1.70901,-5.08309 -2.56309,-10.1656 -2.56224,-15.2476 -2.55799,5.40737 0.505134,12.4311 2.56224,15.2476z"/>
  <path fill="#4F2900" d="M286.995 151.126c-1.70901,-5.08281 -2.24249,-9.84501 -2.24164,-14.927 -2.07723,7.43755 0.557859,14.3541 2.24164,14.927z"/>
  <path fill="#4F2900" d="M283.469 157.538c-1.70901,-5.08281 -2.56309,-11.4477 -2.56224,-16.5297 -2.93216,6.15544 0.023811,14.6747 2.56224,16.5297z"/>
  <path fill="#4F2900" d="M270.784 162.668l-0.955843 -8.515c-1.27219,3.40016 0.0581103,5.77333 0.955843,8.515z"/>
  <path fill="#4F2900" d="M267.258 161.706l-0.955843 -7.2326c-1.27219,2.88822 0.0581103,4.90366 0.955843,7.2326z"/>
  <path fill="#4F2900" d="M263.731 168.118l-0.47537 -7.55292c-1.27219,2.88822 -0.422362,5.22397 0.47537,7.55292z"/>
  <path fill="#4F2900" d="M305.55 176.492l-2.64359 -6.79975c-0.551055,3.10734 1.21918,4.75002 2.64359,6.79975z"/>
  <path fill="#4F2900" d="M308.756 175.53l-2.64359 -6.79975c-0.551055,3.10734 1.21918,4.75002 2.64359,6.79975z"/>
  <path fill="#4F2900" d="M312.196 175.773l-3.48577 -8.96599c-0.72652,4.0972 1.60781,6.26344 3.48577,8.96599z"/>
  <path fill="#4F2900" d="M301.616 177.736l-1.32576 -4.83761c-0.276378,2.21074 0.611433,3.37947 1.32576,4.83761z"/>
  <path fill="#FFE6C8" d="M260.259 154.973c0.645166,-10.0457 -3.41717,-11.1144 -2.88539,-15.0681 4.27465,1.17553 6.9463,9.93856 2.88539,15.0681z"/>
  <path fill="#FFE6C8" d="M282.689 182.006c-0.825449,-4.20577 -2.66627,-4.18706 -2.8732,-5.87367 1.94258,0.00113386 4.03512,3.30492 2.8732,5.87367z"/>
  <path fill="#FFE6C8" d="M268.624 146.317c0.299339,-6.41226 -1.58457,-7.09427 -1.33795,-9.61796 1.98227,0.750331 3.22129,6.34366 1.33795,9.61796z"/>
  <path fill="#FFE6C8" d="M275.377 140.867c0.292819,-6.41226 -1.55169,-7.09427 -1.31017,-9.61796 1.94088,0.750331 3.15383,6.34366 1.31017,9.61796z"/>
  <path fill="#FFE6C8" d="M271.53 143.752c0.292819,-6.41226 -1.55169,-7.09427 -1.31017,-9.61796 1.94088,0.750331 3.15383,6.34366 1.31017,9.61796z"/>
  <path fill="url(#id0)" d="M237.817 106.883c-1.38926,-3.95405 -5.02271,-4.06092 -8.01496,-7.05317 -0.400536,0.801355 -2.35446,1.60328 -2.77285,2.08375 -1.19225,1.37027 -1.68888,2.99254 -2.35673,4.32822 1.88929,3.66803 14.2741,1.05789 13.1445,0.641197z"/>
  <path fill="#FFE6C8" d="M222.749 114.257c1.38954,-4.48838 1.49613,-8.97676 0.320599,-13.4651 2.45792,1.60299 2.35106,9.93856 -0.320599,13.4651z"/>
  <path fill="#FFE6C8" d="M225.955 108.486l3.20599 1.28239c-0.748347,4.27465 -2.35134,6.83944 -4.80898,7.69437 0.85663,-2.99254 1.60526,-5.98479 1.60299,-8.97676z"/>
  <path fill="#FFE6C8" d="M223.711 96.9449c0.961512,2.24391 1.49584,4.06063 1.60299,5.45018l1.28239 -0.961796c-1.06866,-1.92359 -1.81673,-3.41972 -2.88539,-4.48838z"/>
  <polygon fill="#FFE6C8" points="225.635,96.3037 227.879,100.151 231.085,99.5097 229.488,95.2784 229.161,97.5861 227.237,94.7007 "/>
  <path fill="#4F2900" d="M229.482 89.8918c9.40423,4.38151 22.335,-2.77852 28.2127,10.2592 -4.91584,-11.4347 -22.0144,1.49613 -28.2127,-10.2592z"/>
  <path fill="#4F2900" d="M236.855 97.9067l-8.33556 -4.16778c4.48838,0.533764 7.2669,1.92302 8.33556,4.16778z"/>
  <path fill="#FFE6C8" d="M249.679 120.028l7.69437 -14.4269c-1.81644,5.93122 -4.16721,11.0608 -7.69437,14.4269z"/>
  <path fill="#FFE6C8" d="M252.885 117.583l6.41197 -12.9441c-1.58939,5.18967 -3.32561,9.99893 -6.41197,12.9441z"/>
  <path fill="#FFE6C8" d="M256.733 115.019l5.44989 -11.6617c-1.26737,5.83342 -1.82693,9.78917 -5.44989,11.6617z"/>
  <path fill="#FFE6C8" d="M272.125 105.293l-0.965764 -5.38668c1.33795,2.4446 2.11351,3.95575 0.965764,5.38668z"/>
  <path fill="#FFE6C8" d="M267.792 109.659l0.985323 -7.58467c0.751465,3.82167 1.14718,6.16196 -0.985323,7.58467z"/>
  <path fill="#FFE6C8" d="M263.304 111.903l1.30592 -8.54646c0.751465,3.82167 0.826583,7.12375 -1.30592,8.54646z"/>
  <polygon fill="#4F2900" points="238.458,187.995 238.458,190.56 247.435,194.407 249.679,186.071 249.038,184.148 245.191,186.071 244.362,189.743 "/>
  <path fill="#FFE6C8" d="M272.762 180.301c1.92359,3.84718 7.05317,5.77077 10.5798,8.65616l2.88539 0 -8.33556 -11.221 -0.621071 2.77937 -4.50851 -0.214583z"/>
  <path fill="#FFE6C8" d="M264.386 149.203c0.42463,-6.41226 -2.24958,-7.09427 -1.8995,-9.61796 2.81424,0.750331 4.57285,6.34366 1.8995,9.61796z"/>
  <path fill="#FFE6C8" d="M284.951 178.159c-0.780378,-3.97616 -2.52085,-3.95858 -2.71644,-5.55307 1.83657,0.00113386 3.81487,3.12463 2.71644,5.55307z"/>
  <path fill="#FFE6C8" d="M289.098 173.584c-2.40747,-4.0972 -4.32624,-3.40186 -5.16218,-5.09046 2.03301,-0.71178 5.43487,1.9766 5.16218,5.09046z"/>
  <path fill="#FFE6C8" d="M291.984 170.058c-2.40747,-4.0972 -4.32624,-3.40186 -5.16218,-5.09046 2.03301,-0.71178 5.43487,1.9766 5.16218,5.09046z"/>
  <path fill="#FFE6C8" d="M296.151 166.852c-2.40747,-4.0972 -4.32624,-3.40186 -5.16218,-5.09046 2.03301,-0.71178 5.43487,1.9766 5.16218,5.09046z"/>
  <path fill="#FFE6C8" d="M300.18 162.617c-3.68221,-3.00444 -5.23956,-1.68491 -6.6104,-2.9778 1.65855,-1.37424 5.78296,-0.0368504 6.6104,2.9778z"/>
  <path fill="#FFE6C8" d="M304.989 159.732c-3.68221,-3.00444 -5.23956,-1.68491 -6.6104,-2.9778 1.65855,-1.37424 5.78296,-0.0368504 6.6104,2.9778z"/>
  <path fill="#FFE6C8" d="M307.554 158.129c-3.68221,-3.00444 -11.0103,-3.9291 -13.0224,-11.9546 3.90246,5.99981 12.8364,6.696 13.0224,11.9546z"/>
  <path fill="#4F2900" d="M298.731 202.742c-18.3787,-16.9024 -27.0148,-14.8306 -36.2276,-18.2741 14.2129,-1.17553 26.6094,5.55676 36.2276,18.2741z"/>
  <path fill="#4F2900" d="M249.038 179.339c7.17336,17.6729 22.7186,10.2685 33.8562,18.1743 7.07018,5.01874 11.1078,9.23698 15.1954,9.71774 2.67789,2.33093 4.8189,6.37824 3.20599,22.4419 1.06129,-8.15018 3.71849,-16.7567 -1.60299,-23.0831 -8.76615,-6.41197 -12.9623,-12.2343 -18.2843,-14.8717 -15.3216,-7.5926 -18.5888,2.08942 -32.3703,-12.3792z"/>
  <polygon fill="#FFE6C8" points="230.443,228.07 230.764,231.276 227.879,230.955 228.199,234.802 224.429,234.263 221.787,239.611 219.864,234.482 230.764,223.581 233.008,225.826 232.688,228.07 "/>
  <path fill="#FFE6C8" d="M223.39 252.435l7.37377 6.41197c-0.106866,7.5875 -8.2287,11.6484 -2.24419,37.1894l0.961796 12.1827c-12.6102,-35.5864 -3.09912,-37.8306 -6.09137,-55.7842z"/>
  <path fill="#FFE6C8" d="M240.382 262.374l-3.20599 2.24419c0.197575,35.7922 15.4261,27.8187 14.1063,53.8606 2.77852,-13.0377 -2.77852,-18.0604 -5.12958,-25.6479l3.20599 0 -5.33594 -4.05865 2.45055 -1.39153 -3.52658 -1.92359 2.56479 -1.60299 -3.84718 -3.20599 1.28239 -1.60299 -1.8995 -1.93153 2.1617 -1.94003 -0.17348 -3.18841 -1.42158 -1.83799 0.470268 -2.62942 2.39669 0.887811 0.621071 -3.40384c-1.14605,-1.30337 -2.71956,-2.17928 -4.71997,-2.62772z"/>
  <path fill="#FFE6C8" d="M241.344 193.125l3.52658 0.320599c0.851528,8.1652 3.7046,12.1484 3.82507,21.9577 0.0637796,5.21122 -0.290835,15.169 -1.27673,18.4014 -0.23811,0.781229 -0.938552,4.45692 -1.36828,8.87188l1.11373 7.51748 -1.46296 -1.24101c-0.0127559,1.89014 0.664725,3.74117 0.772158,5.40624 8.33556,-12.1827 3.84718,-35.5864 10.5798,-42.319l-0.961796 -4.48838 2.56479 2.56479 1.28239 -1.92359 -2.88539 -4.16778 0.961796 -2.56479 2.88539 3.20599 0.320599 -2.56479 -1.28239 -3.20599 5.12958 0.641197 0 -1.28239 -3.20599 -2.24419 0.961796 -0.641197 3.20599 0.320599 0.961796 -1.28239 2.88539 0 0.961796 1.60299 1.92359 -1.92359 9.93856 3.20599 -0.641197 6.09137 -1.60299 0 -0.320599 2.24419 -2.24419 -2.24419 -1.92359 4.16778 -0.961796 -1.92359c-5.87849,4.22079 -10.154,8.17456 -10.9004,11.5415l-1.60299 0.320599 -0.320599 3.84718 -2.88539 0.961796c-0.85493,7.2669 -4.27465,11.969 -2.88539,21.1595 -0.367087,1.24895 -0.465449,9.84841 1.77364,14.9633 3.0668,7.00526 0.13011,12.9892 3.03534,23.5086 -4.59525,-7.5875 -0.534331,-19.0222 -6.09137,-27.5715l-2.56479 8.01496 1.60299 -12.1827c-14.1063,27.8921 10.5798,45.525 11.5415,63.4785 -3.84718,-16.4574 -20.8389,-29.0676 -19.2359,-55.143l-3.84718 -9.61796c-2.35106,-17.3123 3.63345,-40.0748 -1.28239,-55.7842z"/>
  <path fill="#4F2900" d="M185.239 327.455l7.69437 -9.93856c-0.85493,3.73975 -3.41972,7.0526 -7.69437,9.93856z"/>
  <path fill="#4F2900" d="M189.086 328.738l7.69437 -9.93856c-0.85493,3.73975 -3.41972,7.0526 -7.69437,9.93856z"/>
  <path fill="#4F2900" d="M194.216 328.097l6.70167 -6.73257c-0.744662,2.53332 -2.97865,4.77751 -6.70167,6.73257z"/>
  <path fill="#4F2900" d="M198.704 329.058l7.69437 -8.33556c-0.85493,3.13654 -3.41972,5.91506 -7.69437,8.33556z"/>
  <path fill="#4F2900" d="M206.078 327.776l5.62281 -6.09137c-0.624756,2.2921 -2.49902,4.32255 -5.62281,6.09137z"/>
  <path fill="#FFE6C8" d="M188.124 446.718c-0.85493,-5.02243 0.85493,-10.9001 5.12958,-17.6329l0.961796 -4.48838c-5.63726,3.14844 -8.22785,11.8803 -8.73497,24.4321l2.64359 -2.3108z"/>
  <path fill="#FFE6C8" d="M174.659 462.107c-3.58441,-4.48611 -1.66195,-22.2236 6.09137,-29.8157l-0.961796 -3.20599c-6.787,7.63711 -13.0638,19.5749 -6.81137,33.0883l1.6818 -0.0666142z"/>
  <path fill="#FFE6C8" d="M166.644 445.756l3.52658 -2.24419c-1.70986,9.40423 0.106866,12.7171 0.641197,17.6329 -2.99225,-4.16778 -4.06092,-9.29736 -4.16778,-15.3887z"/>
  <path fill="#FFE6C8" d="M165.041 449.924l-1.60299 2.24419c0.748063,3.74032 1.81673,9.72482 4.16778,11.221l0.320599 -2.56479c-2.24419,-3.31285 -1.92359,-7.2669 -2.88539,-10.9004z"/>
  <polygon fill="#FFE6C8" points="162.156,460.504 160.232,460.824 160.874,469.16 163.118,469.48 "/>
  <polygon fill="#FFE6C8" points="161.835,454.092 163.118,462.748 163.759,456.657 "/>
  <path fill="#FFE6C8" d="M255.45 415.62c-20.1977,4.80898 -19.5565,-6.73257 -41.3572,-5.77077 32.188,-2.60731 18.392,5.616 41.3572,5.77077z"/>
  <path fill="#FFE6C8" d="M200.628 384.201l2.88539 1.60299 -14.1063 11.8621c-2.77852,1.92359 -6.51884,-0.320599 -3.52658,-1.92359l6.41197 -6.41197 2.88539 -0.320599 5.45018 -4.80898z"/>
  <path fill="#4F2900" d="M142.279 495.128l-1.92359 0.641197c18.1673,20.0908 58.4558,0.106866 96.1796,5.77077l0.320599 -3.20599 -10.9004 0 -0.320599 -2.24419 -3.84718 1.92359 -1.92359 0 0 -2.24419 -6.09137 2.24419 -0.320599 -1.92359 -7.05317 3.52658 0.641197 -3.52658 -9.29736 4.48838 0.641197 -2.88539 -6.73257 3.20599 0.320315 -2.08318 -6.73229 2.40378 -0.961796 -2.24419 -6.09137 2.88539 0.320599 -2.88539 -7.37377 3.84718 -0.320599 -2.24419 -5.12958 1.92359 -0.641197 -1.92359 -5.45018 1.60299 0 -2.88539 -5.45018 2.24419 -2.56479 0 2.56479 -2.88539 -4.16778 0.961796 -1.60299 -0.961796 -6.09137 -3.52658z"/>
  <path fill="#FFE6C8" d="M244.55 341.882l5.12958 1.28239c6.03808,31.4453 8.60259,53.513 6.09137,61.8755l-1.92359 -1.28239 0.641197 -12.1827 -3.52658 -7.37377 0.641197 -1.92359 2.88539 3.52658 -3.84718 -8.33556 -1.60299 -7.69437 0.641197 6.09137 -5.45018 -6.09137 6.41197 12.1827 -0.961796 1.60299 -2.24419 -3.84718 -0.641197 1.92359 -2.88539 -5.12958 -0.961796 3.84718 -3.84718 -8.97676 1.28239 8.97676 -2.24419 -4.16778 0 4.48838 -1.28239 0.641197 -5.12958 -8.97676 1.28239 7.37377 -1.92359 0 -3.18274 -9.65481 1.51909 8.28936 -5.06892 -5.68772 6.41197 8.65616 -1.60299 0.961796c-7.10646,-9.40451 -14.0528,-12.7174 -24.6861,-11.8621l-2.24419 2.56479 0 -4.16778c11.3278,-5.55704 22.0144,-4.38151 33.9835,-6.09137l0.641197 4.80898 8.01496 -5.77077 -0.320599 -1.92359 1.60299 0c-0.534331,-5.98451 -2.35106,-11.0072 -1.60299,-17.9535z"/>
  <rect fill="#4F2900" x="247.115" y="344.126" width="0.961796" height="3.84718"/>
  <rect fill="#4F2900" x="252.565" y="344.768" width="0.961796" height="3.84718"/>
  <rect fill="#4F2900" x="254.488" y="344.768" width="0.961796" height="3.84718"/>
  <rect fill="#4F2900" x="258.336" y="345.088" width="0.961796" height="3.84718"/>
  <rect fill="#4F2900" x="261.542" y="346.05" width="0.961796" height="3.84718"/>
  <rect fill="#4F2900" x="268.274" y="344.447" width="0.961796" height="3.84718"/>
  <rect fill="#4F2900" x="271.48" y="344.447" width="0.961796" height="3.84718"/>
  <rect fill="#4F2900" x="279.495" y="335.47" width="0.961796" height="3.84718"/>
  <rect fill="#4F2900" x="278.213" y="340.6" width="0.961796" height="3.84718"/>
  <path fill="#BF9F4F" d="M223.894 436.003l-2.40236 3.84378c-10.3439,-0.965764 -5.75944,-2.97156 2.40236,-3.84378z"/>
  <polygon fill="#BF9F4F" points="228.379,435.202 224.535,438.245 224.535,440.808 227.738,437.765 "/>
  <polygon fill="#BF9F4F" points="235.105,435.362 232.703,438.886 229.019,439.206 231.742,436.003 "/>
  <path fill="#BF9F4F" d="M268.098 540.586l3.04299 -0.320315 22.7424 -18.8986 1.1211 0.320315 -19.8595 18.4181 1.76173 0c8.2749,-6.83348 17.6706,-13.5068 24.8244,-20.5002 -2.08205,-1.49499 -7.04693,-2.66939 -9.12898,-2.08205 -14.6809,6.56646 -12.7057,11.5313 -24.3439,19.6994l1.76173 -0.160158 17.1369 -12.8126 1.92189 -0.320315 -20.9806 16.6564z"/>
  <path fill="#BF9F4F" d="M357.306 493.179c-2.2955,6.99336 -10.3567,18.1511 -15.5353,27.2268l14.0939 -18.4181 -13.9337 22.9025 19.3791 -26.2658 -15.8556 26.7463 18.5783 -25.9455 -12.172 22.2619c7.1538,-10.8907 12.8659,-13.2931 15.6954,-22.5822 -1.49499,-3.41688 -6.19285,-5.39207 -10.2501,-5.92583z"/>
  <polygon fill="#BF9F4F" points="332.161,477.804 327.676,488.375 333.923,478.445 "/>
  <polygon fill="#BF9F4F" points="333.923,480.046 329.598,489.175 330.88,488.695 336.325,480.046 "/>
  <polygon fill="#BF9F4F" points="337.286,481.007 333.122,490.296 339.848,480.847 "/>
  <polygon fill="#BF9F4F" points="342.731,480.527 340.329,482.609 339.528,486.613 341.77,485.492 344.173,481.167 "/>
  <rect fill="#4F2900" x="278.213" y="287.06" width="0.961796" height="3.84718"/>
  <rect fill="#4F2900" x="284.625" y="279.686" width="0.961796" height="3.84718"/>
  <rect fill="#4F2900" x="268.595" y="300.204" width="0.961796" height="3.84718"/>
  <rect fill="#4F2900" x="281.419" y="282.251" width="0.961796" height="3.84718"/>
  <rect fill="#4F2900" x="265.389" y="297.319" width="0.961796" height="3.84718"/>
  <rect fill="#4F2900" x="308.349" y="350.859" width="0.961796" height="5.45018"/>
  <rect fill="#4F2900" x="306.425" y="360.798" width="0.961796" height="8.33556"/>
  <rect fill="#4F2900" x="305.143" y="371.377" width="0.961796" height="5.45018"/>
  <rect fill="#4F2900" x="306.425" y="375.545" width="0.961796" height="5.45018"/>
  <rect fill="#4F2900" x="305.784" y="380.995" width="0.792067" height="4.48838"/>
  <path fill="#4F2900" d="M319.249 240.252l0.961796 -18.5947c1.49613,6.83944 0.961796,13.4651 -0.961796,18.5947z"/>
  <path fill="#4F2900" d="M321.493 261.412l2.56479 -15.7093c1.49613,6.83944 -0.641197,10.5798 -2.56479,15.7093z"/>
  <path fill="#4F2900" d="M320.211 252.115l2.56479 -15.7093c1.49613,6.83944 -0.641197,10.5798 -2.56479,15.7093z"/>
  <path fill="#4F2900" d="M322.385 271.992l2.35531 -14.4269c1.37395,6.28101 -0.588756,9.71604 -2.35531,14.4269z"/>
  <path fill="#4F2900" d="M321.432 283.484l4.90933 -13.769c0.223087,6.42586 -2.32498,9.45213 -4.90933,13.769z"/>
  <path fill="#4F2900" d="M321.753 293.422l4.90933 -13.769c0.223087,6.42586 -2.32498,9.45213 -4.90933,13.769z"/>
  <path fill="#4F2900" d="M323.356 303.04l2.98573 -11.5245c1.05421,7.10901 -0.267591,7.43556 -2.98573,11.5245z"/>
  <path fill="#4F2900" d="M323.356 313.299l2.98573 -11.5245c1.05421,7.10901 -0.267591,7.43556 -2.98573,11.5245z"/>
  <path fill="#4F2900" d="M323.356 325.803l2.98573 -11.5245c1.05421,7.10901 -0.267591,7.43556 -2.98573,11.5245z"/>
  <path fill="#4F2900" d="M322.715 337.985l2.98573 -11.5245c1.05421,7.10901 -0.267591,7.43556 -2.98573,11.5245z"/>
  <path fill="#4F2900" d="M323.997 346.642l2.34425 -11.5245c0.413008,3.90303 0.0530079,8.07619 -2.34425,11.5245z"/>
  <path fill="#4F2900" d="M324.639 357.221l2.34425 -11.5245c0.413008,3.90303 0.0530079,8.07619 -2.34425,11.5245z"/>
  <path fill="#4F2900" d="M326.883 367.801l2.34425 -11.5245c0.413008,3.90303 0.0530079,8.07619 -2.34425,11.5245z"/>
  <path fill="#4F2900" d="M328.165 378.06l1.38274 -10.2421c0.413008,3.90303 1.01452,6.7938 -1.38274,10.2421z"/>
  <path fill="#4F2900" d="M328.806 386.396l1.38274 -10.2421c0.413008,3.90303 1.01452,6.7938 -1.38274,10.2421z"/>
  <path fill="#4F2900" d="M331.05 396.334l1.70334 -15.0508c0.412725,3.90274 0.693922,11.6025 -1.70334,15.0508z"/>
  <path fill="#4F2900" d="M297.769 85.724l-5.77077 -1.28239c2.35106,-0.85493 4.27465,-0.427465 5.77077,1.28239z"/>
  <path fill="#4F2900" d="M300.334 82.8386l-5.77077 -1.28239c2.35106,-0.85493 4.27465,-0.427465 5.77077,1.28239z"/>
  <path fill="#4F2900" d="M300.975 79.312l-3.84718 -1.28239c1.56728,-0.85493 2.84967,-0.427465 3.84718,1.28239z"/>
  <path fill="#4F2900" d="M303.219 75.7854l-3.84718 -1.28239c1.56728,-0.85493 2.84967,-0.427465 3.84718,1.28239z"/>
  <path fill="#4F2900" d="M305.143 71.9382l-3.84718 -1.28239c1.56728,-0.85493 2.84967,-0.427465 3.84718,1.28239z"/>
  <path fill="#4F2900" d="M306.425 69.0529l-3.84718 -1.28239c1.56728,-0.85493 2.84967,-0.427465 3.84718,1.28239z"/>
  <path fill="#4F2900" d="M296.968 154.332c-7.65015,-8.8356 -2.05852,-11.4333 -3.62126,-15.0542 -1.72375,-3.99373 -4.10514,-8.74971 -4.54394,-11.4806 -1.25887,-7.83695 5.44337,-11.9123 0.951874,-26.0436 7.55008,10.8062 2.33887,11.6059 2.07893,23.7263 -0.11452,5.34671 2.59484,10.4729 3.2828,15.4279 0.550488,3.96482 -3.27799,3.85654 1.85159,13.4243z"/>
  <path fill="#4F2900" d="M291.16 153.966c-3.95065,-8.91553 0.426898,-18.1514 -4.1641,-21.9416 2.6691,6.99336 -1.8686,12.3854 4.1641,21.9416z"/>
  <path fill="#4F2900" d="M269.84 122.023c-0.907087,-2.05937 -1.38699,-4.54621 -1.44,-7.45937 -2.13024,3.61814 -0.989575,5.34274 1.44,7.45937z"/>
  <path fill="#4F2900" d="M271.922 120.741l-0.639213 -6.6583c-1.06214,4.25877 0.0782363,4.38123 0.639213,6.6583z"/>
  <path fill="#4F2900" d="M286.996 124.817c-3.95065,-8.91553 6.03241,-13.1865 -1.1211,-24.1838 4.75115,13.0793 -4.91159,14.6276 1.1211,24.1838z"/>
  <path fill="#4F2900" d="M283.313 124.977c-3.95065,-8.91553 6.03241,-13.1865 -1.1211,-24.1838 4.75115,13.0793 -4.91159,14.6276 1.1211,24.1838z"/>
  <path fill="#4F2900" d="M281.551 125.938c-3.95065,-8.91553 4.11052,-11.2646 -1.92189,-20.6603 4.97821,12.3968 -3.4268,9.05386 1.92189,20.6603z"/>
  <path fill="#4F2900" d="M278.348 127.059c-2.82954,-7.63427 2.6691,-11.7451 -1.28126,-17.6173 1.93521,5.99046 -2.62602,10.6554 1.28126,17.6173z"/>
  <path fill="#4F2900" d="M275.785 124.497c-2.82954,-7.63427 2.6691,-11.7451 -1.28126,-17.6173 1.93521,5.99046 -2.62602,10.6554 1.28126,17.6173z"/>
  <path fill="#FFE6C8" d="M234.785 116.329l6.88678 -10.8907c-1.38756,5.21802 -3.78964,8.66126 -6.88678,10.8907z"/>
  <path fill="#4F2900" d="M221.011 115.848c-0.907654,4.69843 -3.09685,5.55222 -6.56646,2.56252 5.0709,8.69925 7.25981,1.17298 6.56646,-2.56252z"/>
  <path fill="#4F2900" d="M220.531 122.895l2.40236 -4.80473c-0.373606,3.09629 -1.17411,4.69786 -2.40236,4.80473z"/>
  <polygon fill="#4F2900" points="223.574,81.0939 227.578,83.9767 231.582,84.1369 "/>
  <polygon fill="#FFE6C8" points="229.019,85.258 232.383,89.9025 239.59,89.7424 239.75,87.0197 234.945,85.258 "/>
  <path fill="#4F2900" d="M204.515 420.948l-4.32425 7.52741c0.693638,-3.44325 1.92104,-6.21922 4.32425,-7.52741z"/>
  <path fill="#4F2900" d="M209.8 418.866l-3.68362 6.24614c0.693638,-3.44325 1.28041,-4.93796 3.68362,-6.24614z"/>
  <path fill="#4F2900" d="M214.166 419.27l-4.40759 5.7583c1.10239,-3.33496 1.86463,-4.74832 4.40759,-5.7583z"/>
  <path fill="#4F2900" d="M220.371 418.386l-2.88284 4.48441c-0.267307,-1.52136 0.63978,-3.81685 2.88284,-4.48441z"/>
  <path fill="#4F2900" d="M227.104 419.461l-4.17997 3.30888c0.239811,-1.52589 1.84167,-3.40384 4.17997,-3.30888z"/>
  <path fill="#4F2900" d="M231.589 420.421l-3.09345 2.44885c0.177449,-1.12932 1.3629,-2.51915 3.09345,-2.44885z"/>
  <path fill="#4F2900" d="M236.707 420.903l-3.37238 3.30888c0.193606,-1.52589 1.48592,-3.40384 3.37238,-3.30888z"/>
  <path fill="#4F2900" d="M241.839 422.184l-4.17997 3.30888c0.239811,-1.52589 1.84167,-3.40384 4.17997,-3.30888z"/>
  <path fill="#4F2900" d="M245.683 423.465l-3.29584 2.60873c0.189354,-1.20302 1.45219,-2.68356 3.29584,-2.60873z"/>
  <path fill="#4F2900" d="M253.05 423.784l-2.72948 1.80879c0.156756,-0.834237 1.20274,-1.86066 2.72948,-1.80879z"/>
  <path fill="#4F2900" d="M257.555 423.195l-2.37487 3.46791c-0.175748,-1.20501 0.591874,-2.99339 2.37487,-3.46791z"/>
  <path fill="#4F2900" d="M264.121 421.914l-2.37487 3.46791c-0.175748,-1.20501 0.591874,-2.99339 2.37487,-3.46791z"/>
  <path fill="#4F2900" d="M271.008 417.589l-2.53502 4.26898c-0.175748,-1.20529 0.752032,-3.79446 2.53502,-4.26898z"/>
  <path fill="#4F2900" d="M274.303 416.758l-1.75805 4.64344c-0.381543,-1.15654 0.0839056,-3.86731 1.75805,-4.64344z"/>
  <path fill="#4F2900" d="M278.627 411.313l-1.11742 6.7252c-0.381543,-1.15625 -0.556725,-5.94907 1.11742,-6.7252z"/>
  <path fill="#4F2900" d="M281.99 406.989l-1.59761 6.7252c-0.381543,-1.15625 -0.076252,-5.94907 1.59761,-6.7252z"/>
  <path fill="#4F2900" d="M287.101 402.975l-3.1748 6.14013c-0.0909922,-1.21436 1.3629,-5.79147 3.1748,-6.14013z"/>
  <path fill="#4F2900" d="M292.546 400.092l-3.1748 6.14013c-0.0909922,-1.21436 1.3629,-5.79147 3.1748,-6.14013z"/>
  <path fill="#4F2900" d="M297.671 395.127l-3.1748 6.14013c-0.0909922,-1.21436 1.3629,-5.79147 3.1748,-6.14013z"/>
  <path fill="#4F2900" d="M300.735 392.113l-1.61461 6.72123c-0.378709,-1.15739 -0.0612284,-5.94936 1.61461,-6.72123z"/>
  <path fill="#4F2900" d="M304.293 390.992l-2.2354 6.72123c-0.524126,-1.15739 -0.0847559,-5.94936 2.2354,-6.72123z"/>
  <polygon fill="#4F2900" points="254.324,458.585 252.883,461.148 249.68,463.23 245.676,463.71 249.039,460.667 "/>
  <polygon fill="#4F2900" points="244.394,485.972 240.871,489.175 236.867,489.656 239.59,487.093 "/>
  <polygon fill="#4F2900" points="245.516,459.386 242.473,461.468 243.273,463.87 245.355,460.667 "/>
  <polygon fill="#4F2900" points="226.137,461.628 225.976,463.23 227.578,463.39 227.738,461.788 "/>
  <path fill="#4F2900" d="M236.547 460.942l-3.37238 3.30888c0.193606,-1.52589 1.48592,-3.40384 3.37238,-3.30888z"/>
  <path fill="#4F2900" d="M235.764 485.962l-4.36961 1.07603c0.753449,-0.803339 2.65748,-1.55395 4.36961,-1.07603z"/>
  <polygon fill="#4F2900" points="244.715,504.871 242.152,507.754 238.789,508.234 241.512,505.511 "/>
  <polygon fill="#4F2900" points="237.828,504.871 235.612,507.754 232.703,508.234 235.058,505.511 "/>
  <polygon fill="#4F2900" points="231.742,505.351 229.734,508.234 227.097,508.715 229.231,505.992 "/>
  <polygon fill="#4F2900" points="225.168,505.832 223.925,507.616 222.293,507.914 223.614,506.228 "/>
  <polygon fill="#4F2900" points="217.328,506.633 216.358,508.417 215.086,508.715 216.116,507.029 "/>
  <path fill="#FFE6C8" d="M294.364 189.681c2.55884,3.54614 3.92939,5.51027 9.84558,5.34274 4.95298,-0.140315 6.37002,-1.45304 6.97096,-5.98337l-1.44142 -1.60158 -2.56252 1.1211 -3.84378 -4.96488 -1.28126 0.320315 4.00394 5.2852 -2.08205 1.1211 -4.96488 -3.20315 -0.480473 1.28126 4.80473 4.00394 -3.68362 -0.160158 -4.1641 -3.36331 -1.1211 0.800788z"/>
  <polygon fill="#FFE6C8" points="319.669,198.489 314.864,199.13 318.227,202.974 321.59,202.333 320.79,199.45 325.114,202.493 328.317,196.087 325.915,195.927 326.075,192.564 324.633,194.325 322.551,194.966 322.071,195.767 316.626,193.845 320.629,197.849 "/>
  <path fill="#4F2900" d="M329.278 187.599c2.80318,-1.41506 4.93881,-3.23008 5.60551,-5.92583 0.907654,3.04299 -0.960662,5.01789 -5.60551,5.92583z"/>
  <path fill="#4F2900" d="M331.04 189.36c3.02372,-0.754583 6.42728,-3.89084 6.88678,-7.20709 0.907654,3.68362 -2.24192,6.93978 -6.88678,7.20709z"/>
  <path fill="#4F2900" d="M332.321 192.083c3.02372,-0.754583 6.42728,-3.89084 6.88678,-7.20709 0.907654,3.68362 -2.24192,6.93978 -6.88678,7.20709z"/>
  <path fill="#4F2900" d="M315.665 173.985c-1.76173,-4.91159 -1.76173,-9.18256 -4.80473,-13.7736 1.76173,4.43084 1.76173,11.4245 4.80473,13.7736z"/>
  <path fill="#4F2900" d="M327.837 198.81c0.748347,6.72803 -3.78992,8.16889 -10.7306,7.20709 2.02876,3.89707 10.8371,2.13534 13.4532,-3.84378l-2.72268 -3.36331z"/>
  <path fill="#4F2900" d="M243.113 144.997l-9.28914 3.20315c3.096,-0.213165 6.19229,-1.28069 9.28914,-3.20315z"/>
  <path fill="#FFE6C8" d="M366.274 459.866c3.68362,6.09222 7.36696,11.3644 11.0509,16.1759l1.92189 -0.800788 -10.0899 -13.1329 -2.88284 -2.24221z"/>
  <path fill="#4F2900" d="M355.224 479.406l-2.72268 -9.92977c2.61581,2.66882 3.52318,5.97884 2.72268,9.92977z"/>
  <path fill="#4F2900" d="M358.427 477.964l-1.92189 -8.96882c2.40208,3.09572 2.50866,5.44451 1.92189,8.96882z"/>
  <path fill="#4F2900" d="M363.071 487.574l-1.28126 -10.7306c2.74394,2.98148 2.89247,6.8641 1.28126,10.7306z"/>
  <path fill="#4F2900" d="M370.278 494.14l-0.320315 -13.6134c2.39641,3.56797 1.42356,10.4403 0.320315,13.6134z"/>
  <path fill="#4F2900" d="M366.435 488.375l-1.1211 -11.6915c2.18296,3.3548 2.01118,8.30523 1.1211,11.6915z"/>
  <path fill="#4F2900" d="M374.923 493.82l-1.44142 -12.3321c2.18296,3.3548 2.3315,8.94586 1.44142,12.3321z"/>
  <path fill="#4F2900" d="M379.261 498.537l0.244063 -9.16923c-1.79348,3.48378 -1.4675,5.81244 -0.244063,9.16923z"/>
  <path fill="#4F2900" d="M391.9 503.91l-2.56252 -15.215c3.22526,3.70205 4.97566,12.3361 2.56252,15.215z"/>
  <path fill="#4F2900" d="M386.935 499.906l-1.44142 -12.3321c2.18296,3.3548 2.3315,8.94586 1.44142,12.3321z"/>
  <path fill="#4F2900" d="M390.458 500.867l-2.40236 -9.4493c2.18296,3.3548 2.81197,6.06303 2.40236,9.4493z"/>
  <path fill="#4F2900" d="M383.732 501.187c-1.76173,-4.32425 1.44142,-6.24614 -1.44142,-13.9337 4.00366,7.04693 1.28098,9.76933 1.44142,13.9337z"/>
  <path fill="#FFE6C8" d="M197.422 238.329c-3.20599,3.41972 -4.70211,8.12183 -4.48838,14.1063 -1.49613,-6.83944 0,-11.5415 4.48838,-14.1063z"/>
  <polygon fill="#FFE6C8" points="193.895,261.412 190.369,268.145 191.33,268.465 193.895,264.939 "/>
  <path fill="#4F2900" d="M188.766 235.444c2.03102,-2.77852 2.77852,-6.83944 2.24419,-12.1827 2.24447,6.19824 1.49613,10.2592 -2.24419,12.1827z"/>
  <polygon fill="#FFE6C8" points="165.683,187.033 166.965,193.445 168.568,192.483 "/>
  <polygon fill="#FFE6C8" points="188.124,221.337 186.201,224.223 182.995,224.543 186.201,221.978 "/>
  <polygon fill="#FFE6C8" points="175.301,210.757 174.018,211.399 175.621,216.528 "/>
  <path fill="#FFE6C8" d="M175.942 179.339l-2.88539 -3.84718c-0.214016,2.03046 1.06838,2.99225 2.88539,3.84718z"/>
  <path fill="#FFE6C8" d="M168.889 181.583l-2.88539 -3.84718c-0.214016,2.03046 1.06838,2.99225 2.88539,3.84718z"/>
  <path fill="#FFE6C8" d="M163.438 183.827l-4.16778 -4.80898c-0.214016,2.03046 2.35077,3.95405 4.16778,4.80898z"/>
  <path fill="#4F2900" d="M230.123 325.852l-4.80898 2.24419c1.17496,-2.02989 2.77795,-2.77795 4.80898,-2.24419z"/>
  <path fill="#4F2900" d="M227.238 322.967l-4.80898 2.24419c1.17496,-2.02989 2.77795,-2.77795 4.80898,-2.24419z"/>
  <path fill="#FFE6C8" d="M216.658 115.54l-0.961796 -3.52658c1.28239,0.213732 1.92359,2.35106 0.961796,3.52658z"/>
  <path fill="#4F2900" d="M257.694 65.8469c0.148819,-4.27408 -2.97865,-6.51827 -8.33556,-5.45018l0.961796 2.56479c2.56479,-1.28239 5.66391,0.748063 7.37377,2.88539z"/>
 </g>
</svg>
