<?xml version="1.0" encoding="UTF-8" standalone="no"?>
<svg
   xmlns:dc="http://purl.org/dc/elements/1.1/"
   xmlns:cc="http://creativecommons.org/ns#"
   xmlns:rdf="http://www.w3.org/1999/02/22-rdf-syntax-ns#"
   xmlns:svg="http://www.w3.org/2000/svg"
   xmlns="http://www.w3.org/2000/svg"
   width="500.00003"
   height="572"
   viewBox="0 0 132.29167 151.34167"
   version="1.1"
   id="svg847">
  <defs
     id="defs841" />
  <metadata
     id="metadata844">
    <rdf:RDF>
      <cc:Work
         rdf:about="">
        <dc:format>image/svg+xml</dc:format>
        <dc:type
           rdf:resource="http://purl.org/dc/dcmitype/StillImage" />
        <dc:title></dc:title>
      </cc:Work>
    </rdf:RDF>
  </metadata>
  <path
     id="path844"
     style="fill:#000000;fill-opacity:1;fill-rule:evenodd;stroke:none;stroke-width:0.264583;stroke-miterlimit:5;stroke-dasharray:none;stroke-opacity:1"
     d="m 0,0 v 85.195581 c 0,36.531409 29.61417,66.146079 66.145583,66.146079 36.531417,0 66.146087,-29.61467 66.146087,-66.146079 V 0 Z" />
  <path
     id="use5161"
     style="font-variation-settings:normal;opacity:1;vector-effect:none;fill:#bf9540;fill-opacity:1;stroke:none;stroke-width:0.132292;stroke-linecap:butt;stroke-linejoin:miter;stroke-miterlimit:5;stroke-dasharray:none;stroke-dashoffset:0;stroke-opacity:1;stop-color:#000000"
     d="m 30.46693,83.783 c -0.28348,0.212611 0.21261,2.339022 0.99219,5.669936 0.77957,3.330916 4.464914,18.072064 5.882327,23.245614 1.41741,5.17355 1.488355,7.15784 -0.566891,11.48095 -2.055246,4.3231 -3.17241,5.92375 -3.989938,7.88738 -0.767068,1.84242 0.01233,2.6135 0.0832,3.39307 0.07087,0.77958 -0.344016,1.00195 -0.765848,0.65991 -0.37048,-0.3004 -3.3793,-2.75842 -3.83232,-5.54127 -0.45302,-2.78285 0.21299,-4.48566 2.12649,-7.81657 1.9135,-3.33092 3.259671,-6.66184 2.834449,-9.92188 -0.425225,-3.26004 -5.010769,-22.586808 -5.790349,-26.484689 -0.77956,-3.897879 -0.91947,-4.74975 -0.92139,-5.360395 -0.002,-0.588325 0.12115,-3.69671 0.40463,-3.909322 0.27871,-0.209034 10.189223,0.85031 21.753711,2.832383 -0.459597,-0.615227 -0.876189,-1.29455 -1.248503,-2.040702 4.179166,-5.810006 8.665896,-11.46653 13.206945,-17.095596 -0.188106,-0.885561 -0.377783,-1.770809 -0.56999,-2.656168 -3.708434,4.119165 -7.413892,8.244411 -11.290784,12.026656 -0.677698,-0.487926 -1.225605,-1.213794 -1.679485,-2.061374 -3.633097,-0.70617 -20.664484,-3.641161 -21.090184,-3.8008 -0.26707,-0.10015 -0.67104,-1.27794 -0.99219,-2.590541 -2.64877,5.038513 -8.24367,18.814854 -9.05112,20.429762 -0.83676,1.673506 -2.83322,2.849967 -5.72575,4.365107 -2.89254,1.515139 -3.60337,2.098201 -3.95428,2.940388 -0.35092,0.84219 -0.2062,1.458754 -0.45424,1.529623 -0.24805,0.07087 -0.63116,-0.122767 -0.88005,-1.062983 -0.24888,-0.940218 -1.14485,-3.514542 -0.33073,-5.169712 0.82157,-1.67033 3.98847,-3.457535 6.02909,-4.522202 2.04061,-1.064671 3.19847,-2.405468 4.0504,-4.10931 0.82421,-1.648426 4.12038,-8.622697 9.78855,-17.930688 -0.0289,-1.294199 0.14678,-2.385649 0.30386,-2.448431 0.19386,-0.07754 14.127455,6.105232 21.080364,9.148279 -0.190968,-0.685954 -0.352835,-1.371111 -0.495578,-2.016932 l 13.909226,-8.263059 c -0.16184,-0.718685 -0.32417,-1.43731 -0.490408,-2.156458 L 42.750935,58.671354 C 42.28257,57.792313 41.970311,56.982902 41.820242,56.144377 35.669645,47.533192 25.64312,36.533555 26.00209,35.851042 26.25479,35.370571 26.82823,34.542558 27.74565,33.786569 23.01632,30.723993 17.31722,27.640203 14.66273,26.047506 11.82791,24.346613 11.34626,22.543179 10.02684,18.980754 8.70742,15.418329 8.00765,14.589755 7.28023,14.200167 6.55283,13.810579 5.55027,13.956563 5.50877,13.59762 c -0.0415,-0.358943 0.51811,-0.584077 1.06298,-0.602547 0.54487,-0.0185 2.38462,-0.297842 3.77548,-0.01344 1.39086,0.284405 3.36299,1.118527 4.29173,3.285588 0.92874,2.167061 1.89453,5.733614 3.54345,7.016109 1.60429,1.247783 11.51457,8.741465 12.0649,9.157581 1.34641,-0.395433 2.472234,-0.278342 2.700088,-0.274918 0.283583,0.0043 4.19804,9.575659 9.28574,19.911443 0.189724,-0.605933 0.431294,-1.259898 0.730705,-1.981274 L 58.06111,49.333938 c -0.239588,-0.993772 -0.484303,-1.988563 -0.735353,-2.984312 1.95816,-1.630206 4.056374,-3.213454 6.414595,-4.710308 h -8.719881 c 0.365961,-3.914709 2.199413,-7.820774 4.826577,-10.871687 -0.937093,-0.526968 -7.060049,-3.972639 -7.499284,-4.345988 -0.473093,-0.40213 -1.102482,-2.104919 -1.954403,-4.610571 C 49.54144,19.30542 47.086006,11.988828 46.83544,11.587924 46.584875,11.18702 35.334707,5.7246107 34.783463,5.3237064 34.23222,4.922802 34.440172,4.5119665 35.434587,4.6224571 c 0.994415,0.1104907 3.241133,0.8003857 5.970177,1.8515666 2.729042,1.0511808 5.570961,2.3930538 6.332948,2.8587403 0.761984,0.4656863 1.107458,0.753718 1.482595,1.541508 0.37514,0.787791 4.200909,11.429591 4.70204,12.632304 0.454205,1.09009 5.839783,3.734384 8.380365,4.857584 1.201118,-0.986367 2.495412,-1.802059 3.843176,-2.390035 1.347703,0.58795 2.641589,1.403729 3.84266,2.390035 2.540384,-1.123078 7.926652,-3.767426 8.380883,-4.857584 0.501132,-1.202713 4.326901,-11.844513 4.70204,-12.632304 0.375137,-0.78779 0.720612,-1.0758217 1.482596,-1.541508 0.761987,-0.4656865 3.603387,-1.8075595 6.332431,-2.8587403 2.729042,-1.0511809 4.975762,-1.7410759 5.970178,-1.8515666 0.124301,-0.013811 0.236109,-0.019538 0.335896,-0.018087 0.698513,0.010161 0.798081,0.3685448 0.315743,0.719336 -0.551243,0.4009043 -11.80193,5.8633139 -12.052493,6.2642179 -0.250565,0.400904 -2.706002,7.717496 -3.557923,10.223148 -0.851921,2.505652 -1.48131,4.208442 -1.954403,4.610571 -0.439232,0.373346 -6.56159,3.818976 -7.498765,4.345989 2.627164,3.050913 4.460099,6.956977 4.826061,10.871686 h -8.719365 c 2.35822,1.496854 4.455919,3.080102 6.414079,4.710308 -0.25105,0.995749 -0.495766,1.99054 -0.735356,2.984313 l 15.097786,0.762227 c 0.299413,0.721384 0.540978,1.375339 0.730705,1.981274 5.087699,-10.335784 9.002154,-19.907144 9.285737,-19.911443 0.227851,-0.0034 1.353232,-0.12047 2.699582,0.274918 0.5503,-0.416095 10.4606,-7.909797 12.06489,-9.157582 1.64893,-1.282495 2.61472,-4.849048 3.54346,-7.016109 0.92874,-2.167061 2.90087,-3.001182 4.29173,-3.285587 1.39085,-0.284406 3.23112,-0.0051 3.77599,0.01344 0.54487,0.01847 1.10446,0.243605 1.06299,0.602548 -0.0415,0.358943 -1.04458,0.212959 -1.77199,0.602547 -0.7274,0.389588 -1.42667,1.218162 -2.74608,4.780586 -1.31942,3.562425 -1.80108,5.36586 -4.6359,7.066753 -2.65449,1.592697 -8.3541,4.676485 -13.08343,7.739063 0.91743,0.755991 1.49137,1.583997 1.74407,2.064472 0.35897,0.682517 -9.668078,11.68214 -15.818672,20.293335 -0.150072,0.838507 -0.462336,1.647955 -0.93069,2.526978 L 73.499445,52.432981 c -0.166241,0.719148 -0.328568,1.437772 -0.490408,2.156457 l 13.909227,8.26306 c -0.142745,0.645821 -0.305125,1.330978 -0.496093,2.016932 6.952787,-3.042979 20.887119,-9.225784 21.080889,-9.148279 0.15687,0.06275 0.33218,1.154232 0.30334,2.448431 5.66816,9.307991 8.96433,16.282262 9.78855,17.930688 0.85192,1.703842 2.0103,3.044639 4.05091,4.10931 2.04062,1.064667 5.20751,2.851872 6.02909,4.522202 0.81412,1.65517 -0.0824,4.229494 -0.33124,5.169712 -0.24889,0.940216 -0.63149,1.133854 -0.87954,1.062983 -0.24804,-0.07087 -0.10384,-0.687433 -0.45475,-1.529623 -0.35091,-0.842187 -1.06174,-1.425249 -3.95428,-2.940388 -2.89254,-1.51514 -4.889,-2.691601 -5.72575,-4.365107 -0.80745,-1.614908 -6.40184,-15.391249 -9.05061,-20.429762 -0.32115,1.312606 -0.72564,2.490391 -0.9927,2.590541 -0.42571,0.159639 -17.457238,3.094654 -21.090192,3.8008 -0.453872,0.847545 -1.001808,1.573461 -1.679483,2.061374 -3.877011,-3.782359 -7.582238,-7.907885 -11.290784,-12.027172 -0.192243,0.88552 -0.381333,1.770962 -0.569473,2.656684 4.541049,5.629066 9.027779,11.28559 13.206944,17.095596 -0.372314,0.746152 -0.788905,1.425475 -1.248502,2.040702 11.564485,-1.982073 21.475,-3.041417 21.75371,-2.832383 0.28349,0.212612 0.40643,3.320997 0.40463,3.909322 -0.002,0.610645 -0.14181,1.462516 -0.92139,5.360395 -0.77958,3.897881 -5.365642,23.224654 -5.790864,26.484694 -0.425222,3.26004 0.921464,6.59096 2.834974,9.92188 1.9135,3.33091 2.57899,5.03372 2.12597,7.81656 -0.45303,2.78285 -3.46134,5.24087 -3.83181,5.54127 -0.421834,0.34204 -0.837235,0.11968 -0.766366,-0.65991 0.07087,-0.77957 0.850276,-1.55064 0.0832,-3.39306 -0.817528,-1.96363 -1.934173,-3.56428 -3.989419,-7.88738 -2.055247,-4.32311 -1.984301,-6.3074 -0.566891,-11.48095 1.417412,-5.17356 5.102756,-19.914703 5.882326,-23.245619 0.77958,-3.330914 1.27567,-5.457325 0.99219,-5.669936 -0.27739,-0.208047 -19.692258,-1.529562 -20.536732,-1.586984 -0.622884,0.433321 -1.29586,0.791668 -2.023647,1.067636 L 70.79005,64.913867 c -0.346794,1.670947 -0.691599,3.342306 -1.036113,5.018299 3.350106,1.075505 4.317624,6.83818 -0.501261,8.790678 4.710623,2.204971 11.839969,7.361097 11.525911,20.746537 C 80.464529,112.85482 70.261455,123.6563 66.145888,126.53078 62.030323,123.6563 51.826731,112.85482 51.512673,99.469381 51.198618,86.083941 58.327961,80.927815 63.038584,78.722844 58.219702,76.770346 59.187733,71.007671 62.537842,69.932166 62.193293,68.256009 61.848557,66.584462 61.501728,64.913351 L 53.027309,83.263652 C 52.299388,82.987631 51.626126,82.629448 51.003144,82.196016 50.158673,82.253436 30.74432,83.574953 30.46693,83.783 Z" />
</svg>
