<?xml version="1.0" encoding="UTF-8" standalone="no"?>
<!-- Creator: CorelDRAW -->

<svg
   xmlns:dc="http://purl.org/dc/elements/1.1/"
   xmlns:cc="http://creativecommons.org/ns#"
   xmlns:rdf="http://www.w3.org/1999/02/22-rdf-syntax-ns#"
   xmlns:svg="http://www.w3.org/2000/svg"
   xmlns="http://www.w3.org/2000/svg"
   xmlns:sodipodi="http://sodipodi.sourceforge.net/DTD/sodipodi-0.dtd"
   xmlns:inkscape="http://www.inkscape.org/namespaces/inkscape"
   xml:space="preserve"
   width="500"
   height="577"
   style="fill-rule:evenodd"
   viewBox="0 0 500 583.275"
   version="1.0"
   id="svg2"
   inkscape:version="0.48.0 r9654"
   sodipodi:docname="Pukkila.vaakuna.svg"><metadata
   id="metadata117"><rdf:RDF><cc:Work
       rdf:about=""><dc:format>image/svg+xml</dc:format><dc:type
         rdf:resource="http://purl.org/dc/dcmitype/StillImage" /></cc:Work></rdf:RDF></metadata><sodipodi:namedview
   pagecolor="#ffffff"
   bordercolor="#666666"
   borderopacity="1"
   objecttolerance="10"
   gridtolerance="10"
   guidetolerance="10"
   inkscape:pageopacity="0"
   inkscape:pageshadow="2"
   inkscape:window-width="640"
   inkscape:window-height="480"
   id="namedview115"
   showgrid="false"
   fit-margin-top="0"
   fit-margin-left="0"
   fit-margin-right="0"
   fit-margin-bottom="0"
   inkscape:zoom="0.45233969"
   inkscape:cx="249.92724"
   inkscape:cy="288.55138"
   inkscape:window-x="0"
   inkscape:window-y="0"
   inkscape:window-maximized="0"
   inkscape:current-layer="svg2" />
 <defs
   id="defs4">
  <style
   type="text/css"
   id="style6">
   
    .str0 {stroke:#006EC7;stroke-width:2.0041}
    .fil4 {fill:#605D5C}
    .fil3 {fill:white}
    .fil2 {fill:#D0CFCF}
    .fil1 {fill:#0033AB}
    .fil0 {fill:#006EC7}
   
  </style>
 
  
  
  
  
  
  
  
  
  
  
  
  
  
  
  
  
  
  
  
  
  
  
  
  
  
  
  
  
  
  
  
  
  
  
  
  
  
  
  
  
  
  
  
  
  
  
  
  
  
  
  
  
  
  
 </defs>
 <path
   style="fill:#0057f0;stroke:#0057f0;stroke-width:2.00410008000000020;fill-opacity:1;stroke-opacity:1"
   inkscape:connector-curvature="0"
   d="M -1.7438422,1.1135869 501.41215,1.2733419 476.49835,386.42534 c -45.6444,261.421 -409.922992,260.723 -452.720992,0.34872 L -1.7439422,1.1140549 z"
   class="fil0 str0"
   id="path1937" /><path
   style="fill:#0033ab"
   inkscape:connector-curvature="0"
   id="path11"
   d="m 299.96126,202.91407 c 37.7214,9.67205 46.4263,32.6917 69.6395,27.2755 l 3.48197,0.58033 c -5.99683,8.89847 -13.5414,14.7015 -22.6328,17.4099 32.4984,16.2492 30.7574,49.9083 69.6395,50.4886 l 0.58033,2.32132 c -4.0623,5.99654 -11.6066,11.9934 -20.8918,11.0262 8.34219,8.82546 20.3275,38.1726 34.3923,51.0154 7.22763,6.59977 21.8996,7.74268 26.5422,-1.68745 l 2.32132,3.48197 c -3.67379,22.1518 -17.989,27.761 -37.141,23.7935 l -2.90164,0 c 8.89818,10.2524 7.35074,40.2359 37.141,32.4984 -5.02999,26.3078 -35.5939,27.0816 -53.3902,2.32132 0.19325,27.4687 9.09172,46.2328 33.0787,38.882 -9.0253,18.6255 -43.92,25.8362 -54.7837,0.74867 l -2.08855,6.21527 c 4.25555,10.8327 5.02942,29.2097 31.9181,25.5345 -13.4426,21.8641 -48.6497,24.7643 -63.8362,-0.58033 l -5.22296,-4.64263 c -2.90164,20.118 -4.0623,57.0655 -53.9706,65.5772 l 0.88695,-4.70962 c 10.8507,-5.15511 14.9531,-21.7754 12.7151,-29.0225 -2.05105,-6.64215 -2.94545,-10.0557 -1.41518,-16.1762 l -1.74099,-3.48197 -3.48197,1.74099 c -1.58524,37.3704 -36.1181,59.2179 -62.6755,53.3902 32.4984,-19.9247 17.9902,-36.3675 26.6951,-54.5509 -8.1727,4.00161 -6.01114,9.80346 -18.2232,15.149 -22.2248,9.72845 -6.17462,32.1357 -49.0949,39.9823 l 0,-2.90164 c 15.4673,-5.86312 9.44587,-28.5532 13.8357,-46.0598 3.41412,-13.6161 16.0937,-20.1852 24.1001,-31.6066 7.42689,-10.5948 12.5368,-24.9364 7.65851,-41.6755 -3.94034,-13.5208 1.26602,-26.9245 -9.61393,-36.1862 l -1.16066,-1.16066 c -10.6452,11.5399 -3.59363,31.9487 -12.3836,41.4833 -10.8301,11.7477 -12.3346,15.5461 -11.9902,30.4774 -12.7097,-22.7325 7.99062,-33.1824 -1.58868,-49.3855 -4.8396,-8.18644 5.39732,-20.3902 3.90999,-28.9589 l -2.90164,-1.16066 c -1.52311,15.2878 -10.4694,13.5563 -6.89123,37.1588 3.47653,22.9329 -20.1666,23.0082 -14.0006,45.8282 l -1.74099,4.64263 c -16.825,-26.1826 7.13372,-36.2653 0.14945,-60.1853 -5.14136,-17.6086 0.2906,-19.0721 5.65384,-28.0247 l -1.16066,-2.90164 c -20.3115,17.2163 -0.58033,36.1736 -26.1148,60.9345 2.18217,-12.6341 6.92186,-16.8026 1.90446,-36.7313 -3.77514,-14.9952 7.62873,-28.7613 9.12178,-39.2917 -5.1866,-10.8055 -14.8836,0.65506 -22.3774,16.0771 -4.63719,9.54322 -11.9166,1.15436 -20.7653,13.2127 -4.9358,6.72632 -11.1204,1.13976 -16.0508,-0.27341 3.67551,-23.0199 32.3052,-33.8526 30.1771,-46.4263 -14.731,-25.7409 -38.75,5.40276 -61.514894,26.6951 -3.28843,4.44909 -10.0588,7.73753 -13.3476,6.38362 -8.51139,-9.28526 -11.413,-21.4722 -6.96395,-34.8197 l -2.32132,-2.32132 c -7.38967,-13.1311 -6.61695,-18.8583 -2.32046,-28.8169 7.15204,-16.5767 18.653,-39.2296 30.5207,-56.2026 7.99176,-11.4296 15.750994,-22.8361 13.837694,-35.3508 -1.636196,-10.7007 7.09965,-19.7489 11.9327,-27.0332 -23.893694,-2.60962 -27.568294,-20.7936 -22.052494,-38.3017 l 2.90164,-2.90164 c -1.41432,11.8605 6.624104,20.5566 14.126594,19.6358 5.82619,-0.71489 10.6584,-4.26901 14.8899,-1.64565 -7.93078,-11.7998 -7.73724,-25.1474 -1.16066,-33.0787 l 1.16066,2.32132 c -2.01125,9.74992 2.68291,15.2437 4.64263,15.6689 l 1.74099,-1.16066 c -0.96712,-12.9605 3.48226,-22.0522 13.3476,-27.2755 -1.54945,-13.1543 3.67322,-25.3412 23.7935,-35.4001 0.96741,-12.767206 11.9937,-23.213206 33.0787,-31.337806 3.48226,-10.6392 14.7023,-16.6357 33.6591,-17.9902 11.0265,-10.4937 27.0822,-14.0728 50.4886,-7.54427 10.0594,-7.93106 25.5342,-7.35045 46.4263,1.74099 8.1246,-0.967119 16.2492,1.93481 24.3738,8.70493 l 8.70493,3.48197 c 5.4165,0.773867 12.3802,5.4165 20.8918,13.9279 11.6066,-2.51457 23.2132,5.80357 34.8197,24.9541 11.6063,-2.12778 20.1174,7.351316 25.5345,28.436106 9.50256,2.05534 14.0968,13.227 12.7672,35.4001 8.51139,1.3542 10.8327,16.443 6.96395,36.5607 5.61118,6.38219 6.38533,17.7947 -3.48197,35.4001 2.70811,11.6063 -0.77387,21.6651 -10.4459,30.1771 -9.28526,15.2818 -18.5705,18.377 -27.8558,12.7672 -0.97857,-13.6027 11.1537,-33.9325 9.80633,-69.2183 -1.06246,-27.8251 -9.96236,-47.9251 -22.5736,-64.2573 l -3.48197,0.58033 -1.74099,3.48197 c 10.4456,9.4788 12.3799,22.0528 5.80329,37.7214 8.12747,17.0231 -7.92906,53.39 -19.1509,56.2919 -2.51485,2.70811 -5.02999,1.54745 -7.54427,-3.48197 8.51111,-32.6917 1.74041,-66.9311 -19.1509,-107.361 l -4.64263,-7.54427 c -2.89821,-4.45281 -7.15548,-7.54628 -11.6066,-10.4459 -53.471,-2.20393 -90.7068,15.7877 -113.744,69.6395 l 2.90164,3.48197 c 31.7248,-18.377 63.4494,-7.73753 72.5411,-16.8295 10.0588,-2.51457 9.09172,7.73781 2.32132,6.38362 -10.4459,24.1806 -22.6328,27.469 -12.1869,29.0164 z"
   class="fil1" /><path
   style="fill:#0033ab"
   inkscape:connector-curvature="0"
   id="path13"
   d="m 51.680464,383.92507 c -4.4448,15.3279 11.3979,24.1368 25.0827,15.585 16.6414,-10.3993 22.1653,-30.3036 54.383096,-43.427 l 0.87006,2.03015 c -20.8632,11.5101 -43.763992,62.218 -69.759092,61.8032 -27.8675,-0.44462 -26.4856,-29.2787 -10.5768,-35.9913 z"
   class="fil1" /><path
   style="fill:#d9d8d8;fill-opacity:1"
   inkscape:connector-curvature="0"
   id="path15"
   d="m 296.32526,199.27807 c 37.7214,9.67205 46.4263,32.6917 69.6395,27.2755 l 3.48197,0.58033 c -5.99683,8.89847 -13.5414,14.7015 -22.6328,17.4099 32.4984,16.2492 30.7574,49.9083 69.6395,50.4886 l 0.58033,2.32132 c -4.0623,5.99654 -11.6066,11.9934 -20.8918,11.0262 8.34219,8.82546 20.3275,38.1726 34.3923,51.0154 7.22763,6.59977 21.8996,7.74268 26.5422,-1.68745 l 2.32132,3.48197 c -3.67379,22.1518 -17.989,27.761 -37.141,23.7935 l -2.90164,0 c 8.89818,10.2524 7.35074,40.2359 37.141,32.4984 -5.02999,26.3078 -35.5939,27.0816 -53.3902,2.32132 0.19325,27.4687 9.09172,46.2328 33.0787,38.882 -9.0253,18.6255 -43.92,25.8362 -54.7837,0.74867 l -2.08855,6.21527 c 4.25555,10.8327 5.02942,29.2097 31.9181,25.5345 -13.4426,21.8641 -48.6497,24.7643 -63.8362,-0.58033 l -5.22296,-4.64263 c -2.90164,20.118 -4.0623,57.0655 -53.9706,65.5772 l 0.88695,-4.70962 c 10.8507,-5.15511 14.9531,-21.7754 12.7151,-29.0225 -2.05105,-6.64215 -2.94545,-10.0557 -1.41518,-16.1762 l -1.74099,-3.48197 -3.48197,1.74099 c -1.58524,37.3704 -36.1181,59.2179 -62.6755,53.3902 32.4984,-19.9247 17.9902,-36.3675 26.6951,-54.5509 -8.1727,4.00161 -6.01114,9.80346 -18.2232,15.149 -22.2248,9.72845 -6.17462,32.1357 -49.0949,39.9823 l 0,-2.90164 c 15.4673,-5.86312 9.44587,-28.5532 13.8357,-46.0598 3.41412,-13.6161 16.0937,-20.1852 24.1001,-31.6066 7.42689,-10.5948 12.5368,-24.9364 7.65851,-41.6755 -3.94034,-13.5208 1.26602,-26.9245 -9.61393,-36.1862 l -1.16066,-1.16066 c -10.6452,11.5399 -3.59363,31.9487 -12.3836,41.4833 -10.8301,11.7477 -12.3346,15.5461 -11.9902,30.4774 -12.7097,-22.7325 7.99062,-33.1824 -1.58868,-49.3855 -4.8396,-8.18644 5.39732,-20.3902 3.90999,-28.9589 l -2.90164,-1.16066 c -1.52311,15.2878 -10.4694,13.5563 -6.89123,37.1588 3.47653,22.9329 -20.1666,23.0082 -14.0006,45.8282 l -1.74099,4.64263 c -16.825,-26.1826 7.13372,-36.2653 0.14945,-60.1853 -5.14136,-17.6086 0.2906,-19.0721 5.65384,-28.0247 l -1.16066,-2.90164 c -20.3115,17.2163 -0.58033,36.1736 -26.1148,60.9345 2.18217,-12.6341 6.92186,-16.8026 1.90446,-36.7313 -3.77514,-14.9952 7.62873,-28.7613 9.12178,-39.2917 -5.1866,-10.8055 -14.8836,0.65506 -22.3774,16.0771 -4.63719,9.54322 -11.9166,1.15436 -20.7653,13.2127 -4.9358,6.72632 -11.1204,1.13976 -16.0508,-0.27341 3.67551,-23.0199 32.3052,-33.8526 30.1771,-46.4263 -14.731,-25.7409 -38.75,5.40276 -61.514894,26.6951 -3.28843,4.44909 -10.0588,7.73753 -13.3476,6.38362 -8.51139,-9.28526 -11.413,-21.4722 -6.96395,-34.8197 l -2.32132,-2.32132 c -7.38967,-13.1311 -6.61695,-18.8583 -2.32046,-28.8169 7.15204,-16.5767 18.653,-39.2296 30.5207,-56.2026 7.99176,-11.4296 15.750998,-22.8361 13.837698,-35.3508 -1.636198,-10.7007 7.099646,-19.7489 11.932696,-27.0332 -23.893694,-2.60962 -27.568294,-20.7936 -22.052494,-38.3017 l 2.90164,-2.90164 c -1.41432,11.8605 6.62411,20.5566 14.126594,19.6358 5.82619,-0.71489 10.6584,-4.26901 14.8899,-1.64565 -7.93078,-11.7998 -7.73724,-25.1474 -1.16066,-33.0787 l 1.16066,2.32132 c -2.01125,9.74992 2.68291,15.2437 4.64263,15.6689 l 1.74099,-1.16066 c -0.96712,-12.9605 3.48226,-22.0522 13.3476,-27.2755 -1.54945,-13.1543 3.67322,-25.3412 23.7935,-35.400106 0.96741,-12.7672 11.9937,-23.2132 33.0787,-31.3378 3.48226,-10.6392 14.7023,-16.6357 33.6591,-17.9902 11.0265,-10.4937 27.0822,-14.0728 50.4886,-7.54427 10.0594,-7.93106 25.5342,-7.35045 46.4263,1.74099 8.1246,-0.967119 16.2492,1.93481 24.3738,8.70493 l 8.70493,3.48197 c 5.4165,0.773867 12.3802,5.4165 20.8918,13.9279 11.6066,-2.51457 23.2132,5.80357 34.8197,24.9541 11.6063,-2.12778 20.1174,7.351316 25.5345,28.436106 9.50256,2.05534 14.0968,13.227 12.7672,35.4001 8.51139,1.3542 10.8327,16.443 6.96395,36.5607 5.61118,6.38219 6.38533,17.7947 -3.48197,35.4001 2.70811,11.6063 -0.77386,21.6651 -10.4459,30.1771 -9.28526,15.2818 -18.5705,18.377 -27.8558,12.7672 -0.97857,-13.6027 11.1537,-33.9325 9.80633,-69.2183 -1.06246,-27.8251 -9.96236,-47.9251 -22.5736,-64.2573 l -3.48197,0.58033 -1.74099,3.48197 c 10.4456,9.4788 12.3799,22.0528 5.80329,37.7214 8.12747,17.0231 -7.92906,53.39 -19.1509,56.2919 -2.51485,2.70811 -5.02999,1.54745 -7.54427,-3.48197 8.51111,-32.6917 1.74041,-66.9311 -19.1509,-107.361 l -4.64263,-7.54427 c -2.89821,-4.45281 -7.15548,-7.54628 -11.6066,-10.4459 -53.471,-2.20393 -90.7068,15.7877 -113.744,69.6395 l 2.90164,3.48197 c 31.7248,-18.377 63.4494,-7.73753 72.5411,-16.8295 10.0588,-2.51457 9.09172,7.73781 2.32132,6.38362 -10.4459,24.1806 -22.6328,27.469 -12.1869,29.0164 z"
   class="fil2" /><path
   style="fill:#ffffff"
   inkscape:connector-curvature="0"
   id="path17"
   d="m 302.26126,200.97707 c 32.7818,10.4053 41.7608,30.6959 63.7042,25.576 l 3.48197,0.58033 c -0.93677,1.39027 -1.91191,2.70496 -2.92455,3.94435 -26.4037,7.39397 -50.4869,-19.4346 -73.7,-28.2815 1.98606,-1.76647 6.29229,-1.21276 9.43843,-1.81915 z m 44.5533,43.5662 c 32.4984,16.2492 30.7574,49.9083 69.6395,50.4886 l 0.58033,2.32132 c -27.483,9.56727 -53.8057,-36.5495 -72.8778,-49.6037 -0.85432,-1.06876 0.61182,-3.00757 2.658,-3.20627 z m 112.584,116.646 -2.32132,-3.48197 c -4.64263,9.43013 -19.3146,8.28722 -26.5422,1.68745 l -9.23258,-7.23765 0,3.77028 c 14.6622,15.8922 30.4906,19.5311 38.0961,5.2619 z m -3.90512,60.343 c 0.39252,-1.26487 0.72892,-2.6142 1.00348,-4.05114 -19.0841,4.9567 -25.308,-5.5668 -29.6557,-16.4668 l -0.0283,4.50664 -1.45011,1.45011 c 6.56284,15.6809 16.6065,20.5342 30.1307,14.5612 z m -24.5298,38.385 c -11.584,1.8515 -19.0166,-3.34369 -23.2653,-12.9476 l -2.34708,-2.00581 1.45011,6.38047 c 2.22254,5.66214 5.50897,6.27625 9.28068,9.5707 0.23505,-0.32237 -6.41311,-0.94851 -11.6008,-11.3108 3.51833,12.1918 14.0759,17.4866 26.1019,11.8909 m -46.6573,17.3815 c 3.57216,7.96485 10.08,14.6605 27.3055,12.3063 -0.62986,1.02467 -1.3081,2.00782 -2.02958,2.9486 -12.2075,3.33195 -21.3219,0.0905 -27.3422,-9.72473 0.3865,-0.38679 0.19325,-0.77358 0.58004,-1.16008 1.16008,1.16008 2.32017,2.32017 3.48025,3.48025 -2.03015,-2.99698 -3.28729,-4.83416 -3.77028,-7.83057 l 1.7762,-0.0197 z m -33.2205,16.4436 c 5.13478,6.27311 11.7225,10.2163 18.7383,12.0572 l -0.92503,-2.08913 -4.64034,-2.90021 9.5707,2.61019 c -11.722,-6.0664 -17.474,-14.4286 -19.1414,-24.3618 -3.52091,-3.80606 -7.33184,-3.84185 -3.60222,14.6837 z m -50.3168,6.30861 c -1.53027,6.12051 -0.63587,9.53405 1.41518,16.1762 2.238,7.2471 -1.86438,23.8673 -12.7151,29.0225 l -0.88696,4.70962 c 1.94941,-0.33239 3.82467,-0.70859 5.62865,-1.12516 28.1458,-25.1568 4.10954,-38.8471 15.8364,-54.8066 14.5343,-19.7804 9.43127,-18.3718 7.51822,-22.7994 -2.11862,11.0577 -12.3578,17.1851 -16.7963,28.8229 z m -41.2033,-2.90164 c -8.70493,18.1834 5.80329,34.6262 -26.6951,54.5509 2.07453,0.45522 4.19829,0.74152 6.35098,0.86462 36.8456,-18.9917 14.8166,-42.6237 30.4903,-64.8056 l 0,-4.93036 c -4.05858,3.75797 -7.63417,8.24113 -10.1462,14.3204 m -59.9376,53.4959 c -2.24602,0.59751 -4.69817,1.1452 -7.38051,1.63534 l 0,-2.90164 c 15.4673,-5.86312 9.44587,-28.5532 13.8357,-46.0598 3.41412,-13.6161 16.0937,-20.1852 24.1001,-31.6066 7.42689,-10.5948 12.5368,-24.9364 7.65851,-41.6755 -3.94034,-13.5208 1.26602,-26.9245 -9.61393,-36.1862 l 1.75101,-4.69875 c 10.0225,5.73286 13.0401,13.2923 13.3954,27.678 0.56172,22.7416 14.5248,39.5368 -11.5379,63.6255 -12.8903,11.9141 -19.4005,16.8831 -21.522,30.8362 -3.02303,19.8826 2.28954,31.3773 -10.6864,39.3536 z m 3.51261,-97.3134 c -0.48156,3.07428 -0.55456,6.65331 -0.4472,11.3191 -12.7097,-22.7325 7.99062,-33.1824 -1.58868,-49.3855 -4.8396,-8.18644 5.39732,-20.3902 3.90999,-28.9589 l 1.18242,-1.79481 c 4.72709,14.8818 -5.54734,17.1668 -0.0301,33.9147 4.82329,14.6411 -5.1113,21.047 -3.02647,34.9053 z m -21.9194,14.8011 -1.74099,4.64263 c -16.825,-26.1826 7.13372,-36.2653 0.14945,-60.1853 -5.14136,-17.6086 0.29059,-19.0721 5.65384,-28.0247 l 0.0321,-1.21391 2.61019,-2.32017 2.03015,2.61019 c -16.4591,13.233 1.818,34.7353 -4.7414,50.8262 -6.26509,15.3691 -10.2406,18.9522 -3.9933,33.6651 z m -12.1869,-101.558 c -1.49305,10.5304 -12.8969,24.2965 -9.12178,39.2917 5.0174,19.9287 0.27771,24.0972 -1.90446,36.7313 1.59583,-1.54745 3.01473,-3.07256 4.27817,-4.57592 12.6456,-19.1672 -1.14176,-35.9864 3.03105,-48.9838 3.58132,-11.1551 5.14365,-12.0718 6.65732,-23.3783 l -2.94029,0.91502 z m -59.1935,29.0164 c 3.67551,-23.0199 32.3052,-33.8526 30.1771,-46.4263 l 3.53465,-1.48647 c 2.32017,15.9512 -23.2017,23.7817 -29.5822,46.1134 l -4.12958,1.79939 z m -31.337796,-19.7312 c -3.28843,4.44909 -10.0588,7.73753 -13.3476,6.38362 -8.51139,-9.28526 -11.413,-21.4722 -6.96395,-34.8197 3.68925,0.3324 11.1794,2.17215 11.3947,2.51972 1.40688,2.27121 -7.30378,2.91281 -6.65961,7.3055 0.48356,6.18693 3.57702,26.5852 14.5011,15.9512 l 1.07534,2.65972 z m 309.314996,-141.02 c -2.51485,2.70811 -5.02999,1.54745 -7.54427,-3.48197 8.51111,-32.6917 1.74041,-66.9311 -19.1509,-107.361 l -4.64263,-7.54427 4.58795,-0.79161 c 21.3193,29.774 33.6943,64.8666 26.3919,111.658 l 1.16008,0.58004 -0.80221,6.94047 z m 15.5933,-103.228 c -12.2173,-10.4751 -19.9648,-17.6564 -45.2433,-25.8119 l 3.19023,-0.58004 c 46.5886,13.5256 100.247,66.69 66.7049,156.321 l -2.03015,1.45011 0,2.90021 0.87006,0 0,0.87007 3.77028,-1.16008 -6.09045,4.35032 2.03015,0.29002 -2.23428,2.21166 c -1.74099,-0.41657 -3.48197,-1.16266 -5.22296,-2.21424 -0.97857,-13.6027 11.1537,-33.9325 9.80633,-69.2183 -1.06246,-27.8251 -9.96236,-47.9251 -22.5736,-64.2573 -12.9802,-12.1457 -25.9608,-20.7507 -38.9399,-27.4836 11.7185,5.32889 23.4611,11.5533 35.9626,22.3316 z m 60.3562,80.9569 c 2.60103,-9.52031 1.02953,-16.2861 -2.82807,-20.6737 l -1.84405,3.8115 c 2.70667,4.83359 1.93338,10.2472 2.90021,15.3711 l 1.74013,-5.22038 0.0318,6.71143 z m -9.79201,-57.2344 c 6.38333,1.0155 9.28469,9.7568 8.70465,22.5515 -3.8052,-6.04722 -1.22994,-15.2847 -9.6752,-18.1419 0.32352,-1.46986 -0.80307,-2.93972 0.97055,-4.40958 z M 359.58183,54.194461 c 5.4165,0.773867 12.3802,5.4165 20.8918,13.9279 11.6066,-2.51457 23.2132,5.80357 34.8197,24.9541 11.6063,-2.12778 20.1174,7.351309 25.5345,28.436099 6.68137,1.44495 10.9366,7.39712 12.4116,18.5118 -0.0117,7.09965 -0.79677,13.4257 -2.3551,18.9776 -1.37767,-13.9691 -1.32957,-26.633 -9.28068,-32.7724 -2.51371,5.80042 -0.67681,13.341 -4.93036,17.4013 0.48299,-30.2587 -5.801,-44.276199 -21.4616,-45.533299 l 1.16008,13.630999 c -9.2323,-29.295899 -21.1232,-38.382199 -34.2225,-38.282799 l 6.96051,18.5614 c -12.9785,-25.2078 -28.7851,-37.5333 -48.7236,-31.0323 9.4015,8.94256 15.3465,17.2567 16.2412,24.6518 -19.4924,-26.138 -36.1928,-33.5093 -55.9741,-26.1019 6.50615,4.93437 12.0446,10.3529 15.457,16.8344 l 0.78417,5.20721 c -22.6726,-28.524 -51.4803,-23.1092 -64.0947,-8.99066 12.1809,4.15707 20.8815,10.6346 26.1019,19.4314 l -2.61019,1.16008 c -26.1746,-25.2559 -53.8712,-17.3772 -66.1248,4.93036 12.5199,-0.532517 24.3145,2.560659 34.5125,13.630999 l -3.77028,1.74013 c -24.0268,-19.724899 -57.9599,-6.67478 -58.8743,17.4013 11.4076,-0.77415 22.8158,1.35305 34.2225,9.86072 l 0,2.61019 c -27.3548,-13.617 -48.4384,-5.72198 -58.0042,32.1924 14.0178,-9.37716 19.9153,-18.7543 17.6913,-28.1321 l 3.19023,-2.32017 c 4.35032,25.3286 -17.1113,30.9358 -25.2318,46.4034 l -4.35032,-1.16008 c -1.01694,-15.7571 4.00962,-32.9648 22.3316,-53.3639 -2.92398,-10.7543 12.9788,-33.5211 29.2921,-37.702799 6.77957,-17.0503 19.5167,-26.7418 39.4429,-27.552 9.37716,-13.8967 28.0359,-21.6789 54.234,-14.5011 3.42929,-7.07446 28.7568,-13.2393 41.183,1.16008 6.7246,-2.79113 14.5008,-4.47142 23.5458,-4.17024 z m -229.171,108.287999 c 0.32524,-15.8389 6.40996,-31.2622 33.0624,-31.0323 -3.67351,-1.64336 -8.89389,-2.51314 -15.6611,-2.61019 -1.0636,-14.5494 12.858,-29.436699 44.6633,-32.772399 -7.83029,-2.31988 -14.8876,-2.70639 -21.1716,-1.16008 1.38111,-12.3232 13.9233,-24.4271 48.4335,-25.5219 -3.62484,-2.46532 -8.84493,-3.33539 -14.7911,-3.48025 5.31715,-12.3741 20.3018,-15.8544 44.9533,-10.4408 -2.19878,-2.12663 -5.34063,-4.25326 -9.86072,-6.38047 12.2777,-9.86044 29.1959,-9.6669 50.7537,0.580042 0.29002,-1.25657 -1.35305,-3.28672 -4.93036,-6.09045 10.9719,-7.46783 25.2797,-5.87257 40.313,3.48025 7.50849,-0.59264 15.6457,0.385359 24.7016,3.65862 -8.1246,-6.77012 -16.2492,-9.67205 -24.3738,-8.70493 -20.8921,-9.09144 -36.3669,-9.67205 -46.4263,-1.74099 -23.4064,-6.52848 -39.4621,-2.94946 -50.4886,7.54427 -18.9567,1.35448 -30.1768,7.35102 -33.6591,17.9902 -21.0851,8.1246 -32.1113,18.5705 -33.0787,31.3378 -20.1203,10.058807 -25.3429,22.245707 -23.7935,35.400107 -9.8653,5.22325 -14.3147,14.315 -13.3476,27.2755 -0.17293,2.62966 4.00447,2.64884 4.70161,2.66802 m -11.0852,13.5812 c -7.93078,-11.7998 -7.73724,-25.1474 -1.16066,-33.0787 l 1.16066,2.32132 c -0.31407,1.5234 -0.46495,2.94287 -0.48757,4.25555 -4.6495,25.3819 22.023,32.4924 9.54264,46.5632 l -1.45011,-2.03015 c 0.94536,-11.8107 -5.06979,-12.0206 -7.60497,-18.0311 z m 2.67461,6.7203 c -3.21228,-4.40271 -6.42456,-4.74513 -9.63684,-7.11797 -1.50622,0.40368 -3.08688,0.95624 -4.75257,1.40144 1.12287,3.93576 8.04616,4.39126 12.0692,6.5866 l 2.32017,-0.87007 m -11.2433,10.1364 c -10.0528,-5.62721 -22.192796,-2.32847 -21.239096,-28.6978 l -3.03391,0.0392 c -4.05343,16.4336 0.576034,32.5686 22.976096,35.015 -4.83302,7.28431 -13.568896,16.3325 -11.932696,27.0332 1.91334,12.5147 -5.84595,23.9212 -13.8377,35.3508 -11.8677,16.973 -23.3686,39.6258 -30.5207,56.2026 -4.29649,9.95864 -5.06922,15.6858 2.32046,28.8169 5.83249,3.37203 22.9758,-10.0772 7.05642,-5.54476 -2.71183,-5.32918 -5.92554,-11.6023 -3.08831,-17.3893 5.14308,-10.49 8.4716,-25.9974 37.9673,-70.7383 18.251596,-27.6851 -4.58594,-24.8568 16.744796,-51.0827 6.53364,4.3612 7.16722,-3.0823 -3.41269,-9.00497 m 197.756,-22.66 c 6.77041,1.3542 7.73753,-8.89818 -2.32132,-6.38362 -9.09172,9.09201 -40.8163,-1.54745 -72.5411,16.8295 l -3.47224,13.9685 c 2.56696,1.85035 3.2203,-4.00447 9.4871,-7.16493 11.9642,-6.03433 14.0341,-10.9601 45.907,-13.1366 -13.5342,2.51371 -10.2472,9.95749 -28.4221,12.7609 l 1.74013,0.58004 4.64034,-0.58004 c -6.90611,7.73695 -15.1667,5.46116 -19.156,9.63855 -5.83077,6.10562 -4.5805,14.3184 -11.2962,14.4332 l -4.0603,3.48025 c 6.1311,0.91529 11.6593,0.98057 15.193,-8.74244 0.80336,-2.21023 3.96553,-8.01867 10.9538,-7.91818 2.16213,0.0309 4.42018,-2.68406 6.90067,-2.4888 1.75759,0.13828 5.50668,-2.40033 6.6911,-4.42905 1.57808,-2.70324 6.07814,-4.71363 8.8017,-7.71147 4.49633,-4.94897 8.74444,-0.89956 16.7144,-9.31303 l 14.24,-3.82296 z"
   class="fil3" /><path
   style="fill:#ffffff"
   inkscape:connector-curvature="0"
   id="path19"
   d="m 254.82926,271.24107 -5.22038,-1.16008 -0.29002,2.03015 c -19.4314,-10.924 -6.96051,-27.6485 -21.7516,-33.6425 l 1.74013,-3.19023 c 23.0084,3.57702 4.25384,24.2653 25.5219,35.9626 z"
   class="fil3" /><path
   style="fill:#ffffff"
   inkscape:connector-curvature="0"
   id="path21"
   d="m 245.25926,316.19507 -3.77028,-2.32017 c -6.42255,-3.99359 -2.798,-17.3661 -7.76702,-23.0062 -6.24762,-7.09135 -9.43471,-11.7603 -5.57396,-18.1769 l 2.03015,1.45011 -0.29002,2.90021 0.87006,-0.87006 c 0.39882,7.50419 7.46841,9.78829 10.1871,17.2928 2.11461,5.83621 -2.44099,9.35311 4.31396,22.7302 z"
   class="fil3" /><path
   style="fill:#ffffff"
   inkscape:connector-curvature="0"
   id="path23"
   d="m 224.66726,337.07607 c -15.3711,-14.8876 -2.32017,-26.2952 -13.051,-35.0926 l 2.90021,-1.74013 c 14.211,4.73711 -0.29002,26.8755 13.921,34.2225 l 1.16008,1.45011 -4.93036,1.16008 z"
   class="fil3" /><path
   style="fill:#ffffff"
   inkscape:connector-curvature="0"
   id="path25"
   d="m 213.35626,402.04107 c 4.41302,-18.0538 -15.4238,-21.9036 -10.0777,-41.11 2.99612,-10.764 -0.59006,-13.7764 -6.45347,-17.1843 l 1.16008,-3.19023 c 12.1674,3.50373 13.9247,13.8895 10.1109,23.1628 -7.34157,17.8511 17.7328,18.6988 5.26018,38.3217 z"
   class="fil3" /><path
   style="fill:#605d5c"
   inkscape:connector-curvature="0"
   id="path27"
   d="m 212.77626,403.20107 4.35032,-5.80042 c 7.43949,-12.0675 -7.40771,-21.7579 1.33702,-35.0868 10.8353,-16.5152 -12.7383,-24.5805 -3.36717,-44.089 1.35305,7.49274 4.15592,14.26 10.1507,19.4314 l 5.80042,-1.74013 c -11.7944,-14.7911 11.7941,-27.842 -4.0603,-49.5936 l 2.90021,1.74013 0,-1.45011 c 11.2141,8.60415 0.96655,22.7184 15.3711,30.1622 -1.84434,-10.3182 -0.29718,-19.7956 2.29727,-27.7647 3.81408,-11.7165 -12.1657,-20.5466 -13.0281,-32.2697 l 2.32017,0 c -0.96683,5.22038 3.09346,10.4408 12.1809,15.6611 l 0.58004,-2.03015 6.38047,0.87006 c -9.86072,-11.0208 -2.61019,-20.5915 -6.96051,-37.4127 l -2.32017,1.45011 0,-3.48025 c -5.70394,-7.25053 -10.8276,-1.45011 -13.631,-6.09045 7.54055,-0.96654 11.0208,-6.57372 22.6217,-2.90021 7.06014,-4.47715 20.1128,-10.3847 23.5006,-17.2017 1.03841,-2.0897 7.34157,-0.61668 12.172,-5.41993 3.31477,0.50876 1.11914,5.07781 -7.45695,7.61671 -3.70156,13.4123 -15.2337,10.5833 -20.6751,21.0954 l 9.5707,1.74013 -12.1809,0.29003 -1.74013,1.45011 11.6008,2.61019 -13.341,0.58004 c 3.96353,16.2412 -9.47422,32.4824 7.54055,35.6726 l -2.03015,4.0603 -3.19023,1.45011 -1.16008,-1.45011 -8.41062,0 c 13.631,26.1019 -6.67049,31.0323 4.35032,45.2433 l -3.19023,0.58004 1.74013,1.16008 -7.54055,-1.16008 c -3.77028,-1.35305 -6.76754,-4.63977 -8.99066,-9.86072 -3.19109,6.7183 -4.83531,14.6459 0.58004,25.2318 l 4.0603,2.32017 -2.03015,0.29002 0.87007,0.58004 0,2.90021 -4.64034,0.58004 -1.16008,-1.45011 -9.86072,-1.74013 c 7.44178,9.24461 6.04034,22.4298 1.42205,25.9937 -8.63937,6.66677 -1.25313,14.8621 -2.87645,20.5838 -2.62995,9.27009 0.3029,14.9614 -9.85643,16.6472 z"
   class="fil4" /><path
   style="fill:#605d5c"
   inkscape:connector-curvature="0"
   id="path29"
   d="m 133.31026,249.20007 c 18.6278,-1.01493 15.4576,-22.5289 30.3615,-25.9568 17.2435,-3.96582 21.3722,8.83806 31.9725,9.53234 14.6597,0.96025 9.9217,-11.6126 29.6028,-4.45711 l -3.48025,0 2.32017,1.74013 c -16.5312,-4.73682 -15.0811,3.287 -22.6217,4.93036 8.79712,-1.16008 15.2741,0 19.4314,3.48025 l -3.77028,-0.29002 0.87006,1.16008 -15.3711,-0.29002 c 0.29002,6.26022 -4.93065,12.9785 -13.921,20.0115 l 0,-0.58004 -2.61019,0.58004 c 3.67351,-5.80042 10.2472,-10.1507 11.0208,-20.0115 -4.93065,10.5378 -12.1812,16.8212 -21.7516,18.8514 13.4375,-9.08743 12.9542,-10.344 15.9512,-21.1716 l -3.77028,-0.87007 c -1.14348,10.8736 -6.34726,9.85643 -8.65082,16.0897 l 0.82025,-4.19887 c -4.77576,4.2106 -11.4838,6.89695 -17.174,5.6192 -9.91827,-2.2277 -5.86141,-8.11487 -12.4082,-8.22939 l -0.58004,-1.74013 c -4.31425,6.79159 -9.89737,9.35311 -16.5312,8.41062 l 0.29002,-2.61019 z m 38.5728,0.29002 c -14.0722,4.54014 -20.0799,-4.49433 -18.2115,-12.2762 1.64851,-6.8666 10.1061,-12.2121 18.7915,-10.3454 -4.83388,3.28729 -5.31687,9.18448 -0.87006,13.051 -4.73682,3.09375 -8.89389,7.05728 -12.4709,-1.16008 l -1.74013,2.32017 c 1.74041,5.89748 6.57429,8.70064 14.5011,8.41062 z"
   class="fil4" /><path
   style="fill:#ffffff"
   inkscape:connector-curvature="0"
   id="path31"
   d="m 163.18326,257.61007 c -6.38018,1.16008 -11.9871,-1.16008 -16.8212,-6.96051 l 0,2.61019 0.87006,0.87006 -2.90021,0.58005 c 6.86403,5.80071 13.7281,7.73352 20.5915,5.80042 l -1.74013,-2.90021 z"
   class="fil3" /><path
   style="fill:#ffffff"
   inkscape:connector-curvature="0"
   id="path33"
   d="m 149.55226,243.97907 c -2.12663,1.25657 -0.19325,4.83359 -0.29002,7.25053 l 4.0603,1.74013 c 9.08743,6.47695 17.7878,5.60689 26.1019,-2.61019 l -0.29002,-1.74013 c -8.74931,5.46173 -16.8702,6.52533 -24.0718,1.16008 -0.0968,-1.35362 -1.35362,-5.02713 -5.5104,-5.80042 z"
   class="fil3" /><path
   style="fill:#ffffff"
   inkscape:connector-curvature="0"
   id="path35"
   d="m 207.55626,222.80807 c -16.8919,10.888 -19.8526,-7.01262 -41.3614,-3.64488 -16.581,2.59616 -20.1435,15.2924 -27.9537,24.8164 -7.20215,-2.70696 -5.53073,0.43031 -4.82128,3.44389 0.73665,3.12925 7.52824,1.43808 5.98137,-2.28381 7.97401,-4.24296 4.63805,-14.2872 21.0224,-22.3001 5.87171,-2.8713 17.947,-2.1524 24.1817,2.03931 7.94452,5.3412 17.8991,5.4749 22.9509,-2.0708 z"
   class="fil3" /><path
   style="fill:#ffffff"
   inkscape:connector-curvature="0"
   id="path37"
   d="m 159.99226,241.07907 c -1.36393,-3.12066 -3.88795,-5.66128 1.12859,-11.1021 l 1.26917,1.33587 2.75076,-3.20111 c 0.41084,2.58242 -1.20876,5.74488 1.23195,7.74697 l 0.84372,3.54009 -2.0353,1.70606 -5.18889,-0.0258 z"
   class="fil3" /><path
   style="fill:#605d5c"
   inkscape:connector-curvature="0"
   id="path39"
   d="m 203.78626,218.45707 c -10.7308,-5.89691 -16.2412,-17.8845 -32.1924,-17.6913 l -0.29002,2.03015 c 15.7579,0.38679 15.2746,9.47422 22.9117,14.211 l 6.09045,3.48025 3.48025,-2.03015 z"
   class="fil4" /><path
   style="fill:#605d5c"
   inkscape:connector-curvature="0"
   id="path41"
   d="m 168.11326,212.65707 c 8.16841,-2.7562 17.7394,1.59326 27.262,12.1809 l 2.32017,-0.87006 0,2.32017 c -11.6008,0.67652 -15.6611,-14.0178 -29.5822,-13.631 z"
   class="fil4" /><path
   style="fill:#ffffff"
   inkscape:connector-curvature="0"
   id="path43"
   d="m 144.62126,214.10707 c 6.15515,-7.98747 19.9239,-4.43907 23.4917,-5.22038 l -5.5104,2.03015 c -11.5044,-1.25657 -15.1779,5.60717 -17.9813,3.19023 z"
   class="fil3" /><path
   style="fill:#605d5c"
   inkscape:connector-curvature="0"
   id="path45"
   d="m 191.89526,204.82607 -4.35032,-5.5104 5.22038,-11.8909 5.22038,-3.19023 c 2.45101,-21.8086 35.6915,-65.5405 72.649,-83.9919 30.5063,-15.230603 64.1362,-22.463603 86.5726,-12.005103 -54.4664,-15.8304 -124.187,26.561703 -154.001,100.927003 l -1.45011,0 -9.86072,15.6611 z"
   class="fil4" /><path
   style="fill:#ffffff"
   inkscape:connector-curvature="0"
   id="path47"
   d="m 176.52426,207.14707 c -14.9843,-4.06001 -24.458,-5.9931 -34.5125,-0.58004 l -1.74013,-1.74013 2.61019,-1.74013 0.58004,-1.16008 c 7.08333,-1.33186 12.6038,-3.40811 17.9853,-1.45497 5.69163,2.06594 7.51536,0.26712 15.0771,6.67536 z"
   class="fil3" /><path
   style="fill:#ffffff"
   inkscape:connector-curvature="0"
   id="path49"
   d="m 206.10626,173.50407 c -4.44709,17.3048 -32.0959,5.31715 -31.6123,24.9418 l -2.61019,-1.45011 -0.29002,-2.03015 c 11.6123,-23.3526 24.3283,-7.60755 31.3223,-20.5915 l 3.19023,-0.87006 z"
   class="fil3" /><path
   style="fill:#605d5c"
   inkscape:connector-curvature="0"
   id="path51"
   d="m 346.81426,244.54307 c 2.91195,-0.86749 5.66529,-2.05277 8.26002,-3.55527 -3.70758,-0.44376 -7.20472,-0.42859 -10.9667,-0.85833 -4.83674,-0.55255 -9.92342,-1.46184 -14.4581,-1.02724 -5.80443,0.55657 -11.5971,-2.54921 -17.3955,-3.24377 l -0.87006,1.45011 c 10.924,6.57343 21.8478,9.28011 32.7724,8.12059 l 2.658,-0.88609 z m -115.158,-66.2288 1.99379,2.3926 -3.47224,13.6785 c -4.64034,7.83057 -12.1809,7.83057 -15.6611,16.5312 l -6.38047,0 0.87006,-1.45011 1.74013,-2.32017 -1.74013,0.87006 -2.61019,-0.29002 0.58005,-2.90021 -1.16008,0.29002 -2.03015,3.19023 -1.45011,0 c 3.26897,-12.9502 12.448,-13.8191 20.8383,-16.3875 4.18369,-1.2809 6.91728,-8.57295 8.48219,-13.6047 z m 124.443,-60.2829 c -2.89821,-4.45281 -7.15548,-7.54628 -11.6066,-10.4459 24.7589,4.59596 45.6504,12.3346 58.0329,31.3378 l -4.6412,-1.15837 2.24573,3.8367 -3.77028,-2.32017 c 9.6208,18.1757 8.55692,33.4501 4.0603,46.6934 l -2.03015,-0.58004 -1.45011,1.16008 -1.45011,-6.96051 c 7.7819,-11.6246 5.75175,-25.594 -3.48025,-42.6331 l -1.16008,-2.03015 c -10.1507,-7.34673 -19.5285,-12.3739 -28.1321,-15.0811 l -2.32017,-2.61019 -4.29793,0.79162 z m -230.391,41.7837 -1.74099,1.16066 c 2.56123,3.62083 13.5909,8.26747 14.2508,12.9447 0.52364,3.7113 5.39646,5.6839 4.66267,13.7945 l 3.48025,4.64034 4.0603,-1.45011 c -4.68844,-12.0237 4.49547,-36.0225 21.7516,-54.524 -3.43387,-9.61966 13.0003,-35.2377 29.2921,-37.412703 5.89719,-16.4344 18.0784,-26.5849 39.4429,-27.552 9.27868,-13.7298 26.5832,-21.7539 54.234,-14.7911 8.26145,-8.63937 27.2076,-12.0761 41.183,1.45011 6.20497,-3.61338 13.9568,-4.9066 23.2558,-3.88022 l -8.70493,-3.48197 -11.9407,1.85178 c -16.4837,-9.28268 -34.1756,-12.3767 -46.6934,-0.290021 -22.0413,-5.80014 -39.8291,-0.772722 -53.3639,15.0811 -19.0446,-0.386218 -33.7387,10.2478 -39.7329,26.682 -19.2619,8.241704 -28.881,21.534304 -31.9023,38.282804 -15.4292,13.2683 -19.9694,27.1412 -21.4616,41.183 l -20.0727,-13.6888 z m -67.898496,189.187 -2.32132,-2.32132 c 7.37937,1.14835 13.2119,-1.95686 17.4972,-9.31504 1.45011,-7.54084 7.92763,-8.50796 12.4709,-2.32017 -7.52337,13.3046 -17.0291,16.1201 -27.6468,13.9565 z m 242.576996,152.626 -1.74099,-3.48197 -3.48197,1.74099 c 5.59944,-19.5648 23.3801,-17.9581 21.1492,-43.9031 l 0.87006,-0.87006 c 6.292,21.595 -11.1977,31.0094 -16.7963,46.5142 z m 47.0066,-11.0262 -5.22296,-4.64263 c 1.72495,-19.2725 12.7306,-17.3735 13.8755,-29.9753 l 2.03015,-3.19023 c -0.37076,19.5631 -13.7925,22.015 -10.6827,37.8081 z m 35.0445,-52.3092 c -5.68247,11.825 -6.7246,20.9434 -3.12639,27.355 l 2.08855,-6.21527 c 0.67882,1.56778 1.45182,3.00987 2.30614,4.33028 -0.23677,-4.73711 -3.36717,-11.0961 -2.28667,-13.8145 1.17583,-2.95776 1.4209,-5.9536 2.75849,-9.62538 l -1.74013,-2.03015 z m 58.7572,-1.67142 c -11.6595,3.87506 -27.2457,-1.73125 -38.0901,-16.8195 -2.82892,-5.34063 -5.36754,-10.3912 -6.74607,-16.0216 l -0.29002,-10.7308 1.45011,-0.58004 c 2.70639,31.612 32.0953,55.2967 55.104,33.6425 -3.8095,4.66324 -7.32869,7.29634 -11.4279,10.5095 z m -18.9393,-51.6392 c 1.4962,0.30978 2.9632,0.56143 4.39727,0.75096 l -0.71203,-2.25432 c 6.57343,-0.43489 13.1469,-2.07853 19.7214,-6.38047 -21.3436,9.24432 -30.3225,3.37032 -38.8591,-6.80018 -1.72324,-10.007 -1.36422,-17.8018 -3.00729,-27.0776 -2.05677,-11.6106 -6.76611,-18.8966 -17.2979,-25.2865 l -0.29002,2.03015 c 25.2318,21.5581 0.87007,39.9262 19.1414,61.1945 l -8.70064,-1.74013 7.25053,2.61019 0.58004,0.87007 -2.61019,0 0,1.45011 c -12.3744,0.58004 -14.3078,-8.99066 -17.9813,-16.5312 -3.30332,3.25637 -3.64574,18.2922 1.42863,28.4544 6.55482,13.1271 4.09981,35.003 -14.4796,42.3108 l 0.58005,1.16008 7.25053,-2.90021 -0.87007,1.45011 c 12.8451,-10.7692 21.0195,-20.7221 10.7308,-55.6841 9.76395,7.92706 13.7275,4.25355 20.5915,2.90021 l 2.03015,0.58004 4.35032,-1.16008 -0.87006,-1.45011 4.93036,0.29002 2.32017,-0.58004 0.37505,1.79338 z m -26.1148,-76.6034 -3.85359,-4.59052 c -9.66432,1.96086 -18.2645,-2.99154 -26.3808,-11.0861 l 0,2.32017 -1.16008,0 c 3.57702,7.34845 10.6334,11.8525 21.1716,15.3711 l -0.29002,-2.03015 6.38047,2.03015 4.13244,-2.01469 z"
   class="fil4" /><path
   style="fill:#605d5c"
   inkscape:connector-curvature="0"
   id="path53"
   d="m 223.67626,218.66307 c 1.9872,-3.98844 3.40267,-4.13674 4.77118,-4.89887 1.09452,-0.60953 1.01464,-0.46982 2.02041,-0.52708 l -1.49792,1.57121 c 16.6111,1.70778 12.3472,-8.38514 18.6974,-13.7973 4.21175,-3.58962 7.13401,-2.02328 11.0351,-4.27817 2.59044,-1.49763 5.86942,-0.98687 8.67258,-3.81837 2.74504,-2.77224 2.4135,-3.51175 6.91155,-6.62726 2.76937,-1.91849 5.11531,-4.94324 8.76763,-5.74946 5.11073,-1.12802 7.5898,-3.47739 10.0583,-5.00337 l -0.58004,2.03015 c 3.33367,-1.40859 2.6978,-0.19897 6.70714,-2.19907 -3.02561,4.51723 -12.3011,5.90951 -17.4379,9.15958 5.03915,-1.20876 11.0074,-4.10696 15.3711,-4.64034 -7.53025,3.28758 -16.007,8.43237 -23.2017,9.86072 -1.56491,0.77416 -1.32728,1.54716 -1.45011,2.32017 6.38047,-2.90021 12.6765,-6.13826 19.1414,-8.70064 -5.33118,2.32017 -9.19851,4.64034 -11.6008,6.96051 1.89358,0.46524 4.64979,-0.17807 8.12059,-1.74013 l -0.66364,1.26516 1.87154,-0.47955 c -9.13724,5.78783 -14.1051,5.49208 -20.6393,8.91737 1.54688,1.04642 10.7723,-0.87751 18.8514,-3.3225 l -10.1507,5.5104 c 2.94459,-0.282 6.59376,-1.97375 10.4408,-4.0603 -3.68152,4.0205 -9.10489,6.75266 -14.8134,6.7183 l 1.27317,0.39195 -1.98692,1.5443 0.44605,0.91615 c -4.0603,-0.29002 -8.96518,-2.6915 -12.1809,-0.87006 l 5.5104,2.03015 -1.45011,1.16008 c 2.58042,0.26454 8.37025,-1.16008 12.5554,-1.74013 -8.43266,2.55007 -11.7134,2.65085 -18.2032,3.34283 l 3.18708,0.0701 -4.20975,0.93735 c 1.85007,0.39795 5.22038,-0.38651 7.83057,-0.58004 l -16.5312,6.96051 2.90021,0 -5.80042,0.87006 c -2.4513,3.21027 -5.76836,3.67923 -9.5707,2.61019 -12.4987,1.23767 -10.2172,-0.73407 -13.1721,-2.11461 z"
   class="fil4" /><path
   style="fill:#605d5c"
   inkscape:connector-curvature="0"
   id="path55"
   d="m 168.69326,196.99607 -2.54692,0.52021 0.66364,-3.4751 -2.75706,-1.97547 c -0.38679,-16.0477 19.5279,-19.3347 16.2412,-44.6633 14.0476,22.4868 -8.40432,34.4696 -11.6008,49.5936 z"
   class="fil4" /><path
   style="fill:#ffffff"
   inkscape:connector-curvature="0"
   id="path57"
   d="m 198.56526,205.40607 c 7.15376,-26.2952 23.0082,-0.3865 31.9023,-24.0718 l -1.45011,0 c -10.5375,20.785 -21.0751,-7.7338 -33.3524,24.0718 l 2.90021,0 z"
   class="fil3" /><path
   style="fill:#605d5c"
   inkscape:connector-curvature="0"
   id="path59"
   d="m 342.41626,257.90007 c 38.2828,22.6217 2.03015,66.9949 25.2318,72.2153 l 1.16008,-2.32017 2.61019,1.45011 0.29002,2.03015 c -6.01315,7.56746 -19.1815,11.3312 -25.6556,8.99123 -9.37201,-3.38721 -17.3036,-14.7962 -16.1075,-29.0027 1.8369,20.6156 17.7878,29.0743 31.6123,22.0416 -27.262,-20.3015 6.96051,-39.7329 -18.2713,-73.0854 l -0.87006,-2.32017 z"
   class="fil4" /><path
   style="fill:#ffffff"
   inkscape:connector-curvature="0"
   id="path61"
   d="m 313.99426,268.92107 c -0.1964,18.1562 10.6208,16.1988 14.26,27.1598 2.63567,7.93765 1.75158,14.2944 4.63605,21.6789 4.21633,10.7932 13.1895,20.818 25.7672,16.7061 l -2.61019,-2.90021 c -11.3226,-1.54029 -18.9791,-6.52047 -20.1821,-28.6746 -1.14119,-21.0167 -18.9619,-16.8725 -18.6807,-33.68 l -3.19023,-0.29002 z"
   class="fil3" /><path
   style="fill:#605d5c"
   inkscape:connector-curvature="0"
   id="path63"
   d="m 297.17226,272.11107 c 23.2152,13.828 15.611,43.9218 12.6161,49.9804 -7.11082,14.386 -6.01114,31.7174 9.13553,37.896 1.25657,-0.38364 2.51314,-1.05845 3.77028,-3.77028 l 1.74013,0.87006 2.03015,-0.87006 2.32017,0 c -23.9761,29.8496 -54.0404,11.3168 -51.9138,-18.8514 4.4468,25.6301 17.3045,34.79 40.313,24.0718 -39.0564,-17.498 11.7941,-63.1281 -24.0718,-89.0365 l 4.0603,-0.29002 z"
   class="fil4" /><path
   style="fill:#ffffff"
   inkscape:connector-curvature="0"
   id="path65"
   d="m 274.26126,315.90507 c 13.341,10.8273 0.58004,45.1465 33.9325,46.6934 l 0.29002,1.45011 c -21.7779,3.22173 -28.2005,-12.365 -30.4104,-26.2319 -1.38082,-8.66399 -1.21649,-14.7564 -5.84222,-20.7515 l 2.03015,-1.16008 z"
   class="fil3" /><path
   style="fill:#605d5c"
   inkscape:connector-curvature="0"
   id="path67"
   d="m 271.36126,424.08207 -5.5104,8.41062 c 20.2774,-13.4979 25.8357,-34.3551 13.631,-64.0947 l 1.74013,7.83057 c -9.26951,-11.5642 -12.1932,-27.7811 -9.86072,-47.8535 -0.0965,-0.48327 -2.2234,-1.25657 -2.90021,-0.58004 -22.8149,37.6063 28.0356,47.6603 2.90021,96.2871 z"
   class="fil4" /><path
   style="fill:#ffffff"
   inkscape:connector-curvature="0"
   id="path69"
   d="m 242.64826,355.92707 c -14.211,33.2557 37.4127,28.5186 21.7516,74.5355 l 0,1.74013 c 15.8186,-16.8914 5.314,-38.9593 -5.38042,-47.3001 -10.506,-8.19389 -17.2933,-15.3854 -12.6009,-27.5254 0.48327,-0.77358 -2.51371,-2.70696 -3.77028,-1.45011 z"
   class="fil3" /><path
   style="fill:#ffffff"
   inkscape:connector-curvature="0"
   id="path71"
   d="m 269.62026,480.92707 c 13.0235,4.24152 24.1345,-18.5614 16.7436,-38.3492 -5.6066,-15.0115 7.51536,-18.0148 2.10774,-34.7361 l -3.48025,0 c 2.76508,15.1281 -11.4345,20.2302 -4.0079,37.5931 4.01649,9.39005 3.82868,31.3707 -11.3632,31.722 -2.03015,0.0968 -1.45011,3.09375 0,3.77028 z"
   class="fil3" /><path
   style="fill:#605d5c"
   inkscape:connector-curvature="0"
   id="path73"
   d="m 205.81626,545.02107 0.58004,3.19023 c 23.8902,-9.8968 15.0198,-31.7895 28.5921,-35.9692 21.313,-6.5637 19.7721,-22.0743 33.4724,-33.0558 l -1.74013,-4.0603 c -19.6127,11.6429 -14.7656,25.7091 -30.4162,31.4494 -26.7395,9.80747 -10.9484,26.7907 -30.4883,38.4457 z"
   class="fil4" /><path
   style="fill:#605d5c"
   inkscape:connector-curvature="0"
   id="path75"
   d="m 280.35126,479.18607 -5.5104,2.61019 c 15.4587,4.55531 24.8167,-7.22391 28.0536,-19.2433 2.4032,-8.92395 0.2654,-17.6149 11.5118,-28.2869 10.5023,-9.96579 9.66547,-24.9026 4.5178,-36.5759 l -2.03015,3.48025 c 3.63886,17.6103 -2.54348,22.1069 -10.1009,29.4396 -10.8473,10.5252 -5.55593,42.8212 -26.4417,48.5761 z"
   class="fil4" /><path
   style="fill:#ffffff"
   inkscape:connector-curvature="0"
   id="path77"
   d="m 323.56426,391.31007 c 0.84573,33.2917 8.16927,38.3192 13.0106,47.3362 3.54897,6.60979 2.39661,16.4685 -3.72991,26.3292 l 3.77028,-0.58004 c 9.57041,-7.68571 7.83,-19.9877 3.8785,-29.3652 -3.95122,-9.37688 -10.1141,-15.8301 -8.22882,-26.899 l 1.45011,0 c 1.83661,-4.44737 -0.58033,-10.0545 -7.25053,-16.8212 l -2.90021,0 z"
   class="fil3" /><path
   style="fill:#605d5c"
   inkscape:connector-curvature="0"
   id="path79"
   d="m 356.91726,389.86007 c -8.45184,9.995 -10.0955,17.4036 -5.23785,39.2871 4.09723,18.4577 -6.60693,36.4697 -22.6042,36.1184 l 0.58004,2.32017 c 17.7457,1.7218 33.8034,-16.1238 28.0419,-35.3617 -5.63294,-18.8096 -7.60125,-32.1712 1.83031,-42.364 l -2.61019,0 z"
   class="fil4" /><path
   style="fill:#ffffff"
   inkscape:connector-curvature="0"
   id="path81"
   d="m 365.03726,374.77907 c -5.31715,31.2255 27.9385,30.5487 11.0208,59.7444 l -6.09045,3.77028 c 10.3182,-16.1504 4.11698,-25.4721 -4.02594,-35.2214 -7.02378,-8.40947 -10.502,-18.8995 -2.35453,-28.8733 l 1.45011,0.58004 z"
   class="fil3" /><path
   style="fill:#ffffff"
   inkscape:connector-curvature="0"
   id="path83"
   d="m 371.99826,336.49607 c 5.92783,4.68558 9.24604,12.2894 9.8653,20.1655 0.81366,10.3512 6.54595,29.9607 19.4268,27.688 l 0,-1.45011 2.90021,-0.29002 c -27.0687,-8.31413 -4.54386,-39.8297 -32.1924,-48.7236 l 0,2.61019 z"
   class="fil3" /><path
   style="fill:#ffffff"
   inkscape:connector-curvature="0"
   id="path85"
   d="m 402.45026,388.41007 -3.77028,0 c -2.66087,7.43491 0.0346,17.9931 5.80042,26.3919 l -0.87006,-6.67049 4.64034,5.5104 c -4.25441,-8.4109 -6.18722,-16.8215 -5.80042,-25.2318 z"
   class="fil3" /><path
   style="fill:#ffffff"
   inkscape:connector-curvature="0"
   id="path87"
   d="m 405.64026,361.43807 1.16008,8.12059 c 5.02627,6.47695 10.0534,9.95692 15.0811,11.0208 l -1.16008,-2.32017 1.74013,-0.87006 c -6.41711,-2.48393 -11.9519,-8.05475 -16.8212,-15.9512 z"
   class="fil3" /><path
   style="fill:#ffffff"
   inkscape:connector-curvature="0"
   id="path89"
   d="m 385.04926,446.41407 c 2.68835,12.0598 6.59176,19.2619 11.6008,22.0416 -1.93338,-0.19354 -4.25384,-1.16066 -6.96051,-2.90021 l 4.35032,4.35032 c -6.62354,-2.02958 -11.5536,-7.44292 -12.7609,-20.3015 l 2.03015,-5.5104 1.74013,2.32017 z"
   class="fil3" /><path
   style="fill:#605d5c"
   inkscape:connector-curvature="0"
   id="path91"
   d="m 177.10426,295.60307 c 3.28643,1.1598 5.12333,4.25298 6.09045,9.28068 l -1.74013,-1.16008 0,8.70064 c -1.88757,-5.51642 -4.0205,-10.5556 -6.67049,-14.5011 l 2.32017,-2.32017 z"
   class="fil4" /><path
   style="fill:#605d5c"
   inkscape:connector-curvature="0"
   id="path93"
   d="m 169.85326,301.40307 c 4.30165,1.1598 6.71859,10.9232 6.38047,15.9512 l -2.61019,-5.22038 0.29002,9.28068 c -1.88757,-5.51642 -3.73048,-13.7458 -6.38047,-17.6913 l 2.32017,-2.32017 z"
   class="fil4" /><path
   style="fill:#605d5c"
   inkscape:connector-curvature="0"
   id="path95"
   d="m 160.57226,308.07407 -1.74013,3.19023 c 3.96353,5.51012 5.80014,11.0205 6.67049,16.5312 2.9967,-8.12088 0.19297,-17.5951 -4.93036,-19.7214 z"
   class="fil4" /><path
   style="fill:#605d5c"
   inkscape:connector-curvature="0"
   id="path97"
   d="m 154.19226,315.32407 -3.48025,4.35032 c 2.90021,4.83359 5.80042,9.66718 6.96051,15.3711 l 0.29002,-6.09045 2.61019,3.77028 c -0.58033,-8.12059 -2.70753,-13.921 -6.38047,-17.4013 z"
   class="fil4" /><path
   style="fill:#ffffff"
   inkscape:connector-curvature="0"
   id="path99"
   d="m 78.786764,344.32707 4.64034,-1.16008 c 15.7579,-10.344 2.80373,-30.5487 -14.7911,-11.0208 -1.35334,1.93367 2.80373,3.287 2.90021,3.19023 7.3473,-12.3741 23.6853,-7.92706 7.25053,8.99066 z"
   class="fil3" /><path
   style="fill:#605d5c"
   inkscape:connector-curvature="0"
   id="path101"
   d="m 75.306464,352.15707 c 5.51012,2.9e-4 11.0205,-1.5463 16.5312,-4.64034 13.050696,-13.8243 14.887596,-23.0079 3.77028,-27.552 13.679096,-7.6608 19.092696,-27.7206 18.851396,-56.2641 10.1519,-7.73266 13.9216,-19.7203 14.7911,-33.6425 l -2.03015,1.16008 c -9.08743,25.2318 -22.2352,19.7214 -20.3015,30.4522 -2.51342,22.2352 -7.734086,41.7636 -15.661096,58.5843 l -9.86072,3.19023 6.67049,1.45011 c 6.47695,0.77358 6.57372,14.8879 -12.7609,24.9418 l 0,2.32017 z"
   class="fil4" /><path
   style="fill:#605d5c"
   inkscape:connector-curvature="0"
   id="path103"
   d="m 393.75026,219.03707 c 6.30775,-10.61 8.48276,-21.6789 7.83057,-33.0624 l 1.74013,0.29002 c 1.00405,7.79192 0.29317,17.1001 -1.97776,24.9218 -1.07534,3.70471 -3.16704,12.0277 -8.17299,17.7113 l -0.58004,-1.45011 -3.77028,2.32017 -1.74013,-1.45011 0.87006,-4.93036 2.61019,-3.48025 3.19023,-0.87006 z"
   class="fil4" /><path
   style="fill:#ffffff"
   inkscape:connector-curvature="0"
   id="path105"
   d="m 143.46126,338.52607 c -1.93309,-2.02986 -3.47968,-2.89993 -4.64034,-2.61019 -13.272,-5.08296 -22.0196,-0.5371 -30.1622,4.0603 -2.03015,0.3865 -2.32017,-0.96655 0,-3.19023 12.3744,-6.57515 23.7826,-9.28183 33.0624,-3.48025 6.17548,8.28379 2.7605,5.14738 1.74013,5.22038 z"
   class="fil3" /><path
   style="fill:#605d5c"
   inkscape:connector-curvature="0"
   id="path107"
   d="m 144.62126,336.78607 c 26.8755,8.70064 -12.6642,45.5333 -15.0811,53.0739 l -4.93036,3.19023 c -4.41989,-11.1064 39.8835,-34.6837 18.9321,-55.0705 l 2.50054,1.11599 -1.42119,-2.30958 z"
   class="fil4" /><path
   style="fill:#605d5c"
   inkscape:connector-curvature="0"
   id="path109"
   d="m 435.80326,258.48007 c -3.3832,2.80688 -6.76669,4.25555 -10.1507,5.5104 l 0,3.19023 4.93036,-0.58004 -4.4113,4.79695 5.11731,-2.9171 c 2.56839,-5.65384 8.32644,-6.66705 11.1849,-11.7406 l 4.64034,-9.28068 -6.09045,7.54055 c 14.3802,-32.7664 18.1021,-66.4203 4.64034,-101.507 l 0,2.61019 -3.19023,-5.22038 c 13.0991,32.8211 7.68542,74.8742 -6.96051,104.698 l 0.29002,2.90021 z"
   class="fil4" /><path
   style="fill:#d0cfcf"
   inkscape:connector-curvature="0"
   id="path111"
   d="m 48.044464,380.28907 c -4.4448,15.3279 11.3979,24.1368 25.0827,15.585 16.6414,-10.3993 22.1653,-30.3036 54.383096,-43.427 l 0.87006,2.03015 c -20.8632,11.5101 -43.763992,62.218 -69.759092,61.8032 -27.8675,-0.44462 -26.4856,-29.2787 -10.5768,-35.9913 z"
   class="fil2" /><path
   style="fill:#d9d8d8;fill-opacity:1"
   inkscape:connector-curvature="0"
   id="path113"
   d="m 124.56726,353.69707 c -29.630596,13.1082 -35.318496,32.1036 -51.439696,42.1773 -8.55262,5.34464 -17.9493,3.90799 -22.7081,-1.66311 l -0.344418,2.31931 c 7.35932,10.6094 16.7814,8.38886 28.4395,-1.18299 12.4105,-10.1897 22.212494,-27.8987 47.835994,-40.5801 l -1.78336,-1.07047 z m -76.522396,26.5923 c -12.9258,5.45372 -16.2615,25.5116 -2.1106,33.0799 l 0.370471,-2.04761 c -8.31385,-8.4109 -7.7338,-18.7549 1.74013,-31.0323 z"
   class="fil3" />
</svg>