<?xml version="1.0" encoding="UTF-8" standalone="no"?>
<svg
   xmlns:dc="http://purl.org/dc/elements/1.1/"
   xmlns:cc="http://creativecommons.org/ns#"
   xmlns:rdf="http://www.w3.org/1999/02/22-rdf-syntax-ns#"
   xmlns:svg="http://www.w3.org/2000/svg"
   xmlns="http://www.w3.org/2000/svg"
   xmlns:sodipodi="http://sodipodi.sourceforge.net/DTD/sodipodi-0.dtd"
   xmlns:inkscape="http://www.inkscape.org/namespaces/inkscape"
   width="500"
   height="570"
   viewBox="0 0 132.29166 150.8125"
   version="1.1"
   id="svg847"
   sodipodi:docname="pöytyä.svg"
   inkscape:version="1.0.2 (e86c870879, 2021-01-15, custom)">
  <defs
     id="defs841" />
  <sodipodi:namedview
     id="base"
     pagecolor="#ffffff"
     bordercolor="#666666"
     borderopacity="1.0"
     inkscape:pageopacity="0.0"
     inkscape:pageshadow="2"
     inkscape:zoom="0.49497475"
     inkscape:cx="597.37409"
     inkscape:cy="13.466591"
     inkscape:document-units="px"
     inkscape:current-layer="layer1"
     inkscape:document-rotation="0"
     showgrid="false"
     inkscape:snap-smooth-nodes="true"
     inkscape:showpageshadow="false"
     borderlayer="true"
     units="px"
     inkscape:window-width="1920"
     inkscape:window-height="1017"
     inkscape:window-x="-8"
     inkscape:window-y="-4"
     inkscape:window-maximized="1"
     inkscape:snap-global="false" />
  <metadata
     id="metadata844">
    <rdf:RDF>
      <cc:Work
         rdf:about="">
        <dc:format>image/svg+xml</dc:format>
        <dc:type
           rdf:resource="http://purl.org/dc/dcmitype/StillImage" />
        <dc:title />
      </cc:Work>
    </rdf:RDF>
  </metadata>
  <g
     inkscape:label="Layer 1"
     inkscape:groupmode="layer"
     id="layer1"
     transform="translate(-25.891369,-65.087498)">
    <path
       style="font-variation-settings:normal;vector-effect:none;fill:#d40000;fill-opacity:1;stroke:none;stroke-width:0.264583;stroke-linecap:butt;stroke-linejoin:miter;stroke-miterlimit:4;stroke-dasharray:none;stroke-dashoffset:0;stroke-opacity:1;stop-color:#000000"
       d="m 25.891369,65.087498 v 87.888732 c 0,24.55219 21.276847,62.92377 66.145836,62.92377 44.868985,0 66.145835,-38.37158 66.145835,-62.92377 V 65.087498 Z"
       id="path859"
       sodipodi:nodetypes="cszscc" />
    <path
       id="path1078"
       style="color:#000000;font-style:normal;font-variant:normal;font-weight:normal;font-stretch:normal;font-size:medium;line-height:normal;font-family:sans-serif;font-variant-ligatures:normal;font-variant-position:normal;font-variant-caps:normal;font-variant-numeric:normal;font-variant-alternates:normal;font-variant-east-asian:normal;font-feature-settings:normal;font-variation-settings:normal;text-indent:0;text-align:start;text-decoration:none;text-decoration-line:none;text-decoration-style:solid;text-decoration-color:#000000;letter-spacing:normal;word-spacing:normal;text-transform:none;writing-mode:lr-tb;direction:ltr;text-orientation:mixed;dominant-baseline:auto;baseline-shift:baseline;text-anchor:start;white-space:normal;shape-padding:0;shape-margin:0;inline-size:0;clip-rule:nonzero;display:inline;overflow:visible;visibility:visible;isolation:auto;mix-blend-mode:normal;color-interpolation:sRGB;color-interpolation-filters:linearRGB;solid-color:#000000;solid-opacity:1;vector-effect:none;fill:#800000;fill-opacity:1;fill-rule:nonzero;stroke:none;stroke-width:0.999997;stroke-linecap:butt;stroke-linejoin:miter;stroke-miterlimit:4;stroke-dasharray:none;stroke-dashoffset:0;stroke-opacity:1;color-rendering:auto;image-rendering:auto;shape-rendering:auto;text-rendering:auto;enable-background:accumulate;stop-color:#000000"
       d="m 51.177995,123.30065 c -2.522691,0 -3.513867,3.62311 -3.513864,7.44246 2e-6,2.32197 0.756166,4.37499 1.915673,5.62919 l -12.613178,32.15065 c 0,1.51003 2.128522,11.37447 15.264655,11.37447 13.136137,1e-5 15.264656,-9.86444 15.264656,-11.37447 l -12.721536,-32.1466 c 1.033925,-1.26757 1.780426,-2.97058 1.780426,-5.49211 6e-6,-4.14702 -1.257392,-7.58359 -5.376832,-7.58359 z m -0.921557,20.71323 0.250585,24.50907 H 40.62611 Z m 3.951747,0.004 9.629811,24.50495 h -9.880399 z"
       sodipodi:nodetypes="ssccsccsscccccccc" />
    <path
       style="font-variation-settings:normal;vector-effect:none;fill:#800000;fill-opacity:1;stroke:none;stroke-width:0.264583;stroke-linecap:butt;stroke-linejoin:miter;stroke-miterlimit:4;stroke-dasharray:none;stroke-dashoffset:0;stroke-opacity:1;stop-color:#000000"
       d="m 73.545244,135.84789 c -6.486786,-0.59878 -15.776442,-1.1643 -17.328915,-1.1643 h -3.329002 c -2.694511,0 -6.537053,-1.21577 -7.405196,1.0414 -0.868144,2.25718 0.335678,3.63718 0.335678,3.63718 -1.514411,-0.19356 -2.760554,0.5314 -4.23674,-2.22737 -1.497478,-2.79856 -0.367541,-6.20453 0.628011,-6.69849 -0.798374,-0.39919 -3.821165,-2.70559 -2.993902,-7.18537 0.67423,-3.65107 3.575737,-4.869 4.806289,-4.71301 l 0.403808,0.70703 c -1.091828,0.23743 -2.315992,2.8916 -0.320058,5.5861 1.995935,2.6945 8.725008,3.00455 8.725008,3.00455 0,0 19.852824,-0.9503 40.787677,-0.9503 20.934868,0 40.787688,0.9503 40.787688,0.9503 0,0 6.23453,0.50229 8.42562,-2.45567 2.19108,-2.95795 0.56955,-6.74692 -1.12699,-6.84671 0.63962,-1.10914 5.44979,0.0248 6.31642,4.71771 0.82726,4.47978 -1.98383,6.43335 -2.78221,6.83254 0.85442,1.19962 1.9138,4.25276 0.41632,7.05132 -1.47619,2.75877 -4.4324,3.97474 -7.08765,3.14005 l -0.3105,-0.91268 c 0.63716,-0.54895 3.72483,-1.08585 2.98997,-2.99652 -0.99797,-2.59471 -4.20357,-1.68206 -6.89809,-1.68206 h -3.32899 c -1.55247,0 -10.84213,0.56552 -17.32892,1.1643 -6.48679,0.59878 -20.797338,2.0473 -20.797338,2.0473"
       id="path1065"
       sodipodi:nodetypes="cscscscscczczczcscsccscssc" />
    <path
       style="font-variation-settings:normal;vector-effect:none;fill:#c09544;fill-opacity:1;stroke:none;stroke-width:0.264583;stroke-linecap:butt;stroke-linejoin:miter;stroke-miterlimit:4;stroke-dasharray:none;stroke-dashoffset:0;stroke-opacity:1;stop-color:#000000"
       d="m 89.283988,77.032128 c -1.764173,-1.764173 -3.457779,-2.258141 -3.457779,-2.258141 -1.83474,6.351023 2.455095,9.949491 2.455095,9.949491 -1.197561,-0.598779 -2.744409,-0.798373 -2.744409,-0.798373 -1.097764,4.640546 2.245425,9.081499 2.245425,9.081499 -0.948068,-0.29939 -1.796341,-0.449084 -1.796341,-0.449084 -0.498983,0.548882 -0.698576,1.646645 -0.698576,1.646645 -0.199594,-0.399187 -0.498984,-0.698577 -0.498984,-0.698577 -0.399187,0.149695 -0.867518,0.488285 -0.867518,0.488285 0.87617,-4.281599 -0.305012,-6.984117 -1.552471,-9.058249 -1.340772,0.564535 -1.83474,1.411338 -1.83474,1.411338 0.282267,-5.50422 -2.822678,-8.820865 -2.822678,-8.820865 -1.905306,1.270204 -2.117007,3.740047 -2.117007,3.740047 -1.905307,-3.104945 -5.645354,-3.810614 -5.645354,-3.810614 -1.270204,3.528346 1.058504,6.915559 1.058504,6.915559 -2.540409,-1.270205 -5.063679,-0.379453 -5.063679,-0.379453 1.571527,4.009511 4.545972,6.070013 7.29372,6.823966 -2.104291,0.03278 -3.002462,0.461194 -3.002462,0.461194 0.722304,4.089047 3.879888,6.126299 6.237293,6.786175 -0.997966,-0.0499 -1.701303,0.350934 -1.701303,0.350934 -0.07057,1.340772 0.776236,3.246085 0.776236,3.246085 -0.423401,-0.56454 -0.704945,-0.73619 -0.704945,-0.73619 -0.498984,0.1497 -0.744184,0.43896 -0.744184,0.43896 -0.817573,-4.383715 -3.208287,-5.442219 -3.208287,-5.442219 -0.917371,1.058504 -0.987938,2.399275 -0.987938,2.399275 -0.242921,-4.419557 -1.958928,-7.493832 -4.208111,-9.866558 -1.097764,0.498984 -1.779218,1.426384 -1.779218,1.426384 -0.299391,-4.54075 -4.391056,-7.384956 -4.391056,-7.384956 -1.447052,1.49695 -1.247459,3.492885 -1.247459,3.492885 -2.494916,-2.644613 -6.669745,-2.877472 -6.669745,-2.877472 0,5.089632 2.465077,7.306222 2.465077,7.306222 -2.399276,-0.352835 -4.37515,0.493969 -4.37515,0.493969 2.963811,6.42159 8.538598,6.280455 8.538598,6.280455 -2.469842,-0.07057 -3.951748,0.91737 -3.951748,0.91737 1.746653,3.944085 6.329425,5.504225 8.397464,5.857055 -1.975874,0.14113 -2.931034,0.82613 -2.931034,0.82613 0.937197,2.84324 3.86761,4.01649 6.294724,4.16059 -0.469144,0.14982 -0.98993,0.27382 -1.268177,0.51907 0.05561,0.75898 0.307933,1.46883 0.307933,1.46883 -0.775404,-0.94021 -1.812753,-1.77383 -2.970409,-2.08191 0,0 -0.404811,0.63439 -0.568284,1.33142 -1.620368,-3.39792 -3.149965,-4.80939 -5.593962,-5.85721 0,0 -0.292417,0.76483 -0.448932,1.4343 -1.035955,-3.26444 -2.993893,-5.68359 -6.610659,-6.404245 0,0 -0.392215,0.665025 -0.548739,1.334515 -1.38879,-3.264446 -3.80939,-5.306544 -7.708424,-6.80344 0,0 -0.579515,2.246236 0.181955,4.993865 0,0 -2.937056,-2.100841 -7.47303,-1.605855 1.047866,4.44095 3.842174,6.0377 3.842174,6.0377 -2.844206,0.19959 -4.768062,1.49581 -4.768062,1.49581 1.886854,3.16862 4.66607,4.36722 8.089059,4.25382 -0.578801,0.37107 -0.919897,0.8021 -0.919897,0.8021 1.886854,3.16862 4.666069,4.36722 8.089059,4.25382 -0.578801,0.37105 -0.919897,0.80209 -0.919897,0.80209 1.963978,3.30317 4.856792,4.55267 8.419694,4.43445 -0.602459,0.38681 -0.957497,0.83615 -0.957497,0.83615 3.023716,4.2507 8.780855,4.34355 11.658113,3.19252 7.39391,9.40212 10.579429,26.11161 10.579429,37.92775 -0.681519,0 -3.303855,0.71365 -3.592682,3.87997 -0.294248,3.22575 1.96177,4.39213 2.794306,4.70255 -2.959284,8.09163 -7.046826,14.80275 -12.274992,21.85547 0,0 9.543187,7.58157 28.655175,7.58157 19.111988,0 28.655178,-7.58157 28.655178,-7.58157 -5.22817,-7.05272 -9.31571,-13.76384 -12.275,-21.85547 0.83254,-0.31042 3.08856,-1.4768 2.79431,-4.70255 -0.28883,-3.16632 -2.91116,-3.87997 -3.59268,-3.87997 0,-11.81614 3.18552,-28.52563 10.57943,-37.92775 2.87726,1.15103 8.6344,1.05818 11.65811,-3.19252 0,0 -0.35503,-0.44934 -0.9575,-0.83615 3.56291,0.11822 6.45572,-1.13128 8.41969,-4.43445 0,0 -0.34109,-0.43104 -0.91989,-0.80209 3.423,0.1134 6.20221,-1.0852 8.08906,-4.25382 0,0 -0.34109,-0.43103 -0.91989,-0.8021 3.42298,0.1134 6.2022,-1.0852 8.08905,-4.25382 0,0 -1.92385,-1.29622 -4.76806,-1.49581 0,0 2.79431,-1.59675 3.84218,-6.0377 -4.53598,-0.494986 -7.47304,1.605855 -7.47304,1.605855 0.76147,-2.747629 0.18196,-4.993865 0.18196,-4.993865 -3.89904,1.496896 -6.31963,3.538994 -7.70843,6.80344 -0.15651,-0.66949 -0.54874,-1.334515 -0.54874,-1.334515 -3.61676,0.720655 -5.5747,3.139805 -6.61065,6.404245 -0.15652,-0.66947 -0.44893,-1.4343 -0.44893,-1.4343 -2.444,1.04782 -3.9736,2.45929 -5.59396,5.85721 -0.16348,-0.69703 -0.56829,-1.33142 -0.56829,-1.33142 -1.15766,0.30808 -2.19501,1.1417 -2.97041,2.08191 0,0 0.25238,-0.70985 0.30794,-1.46883 -0.27826,-0.24525 -0.79904,-0.36925 -1.26819,-0.51907 2.42712,-0.1441 5.35753,-1.31735 6.29473,-4.16059 0,0 -0.95516,-0.685 -2.93103,-0.82613 2.06803,-0.35283 6.65081,-1.91297 8.39746,-5.857055 0,0 -1.4819,-0.987936 -3.95175,-0.91737 0,0 5.57479,0.141135 8.53861,-6.280455 0,0 -1.97588,-0.846804 -4.37516,-0.493969 0,0 2.46507,-2.21659 2.46507,-7.306222 0,0 -4.17482,0.232859 -6.66974,2.877472 0,0 0.19959,-1.995935 -1.24745,-3.492885 0,0 -4.09167,2.844206 -4.39106,7.384956 0,0 -0.68146,-0.9274 -1.77922,-1.426384 -2.24918,2.372726 -3.9652,5.447001 -4.20811,9.866558 0,0 -0.0706,-1.340771 -0.98794,-2.399275 0,0 -2.39071,1.058504 -3.20829,5.442219 0,0 -0.2452,-0.28926 -0.74418,-0.43896 0,0 -0.28154,0.17165 -0.70494,0.73619 0,0 0.84683,-1.905313 0.77623,-3.246085 0,0 -0.70333,-0.400829 -1.7013,-0.350934 2.35741,-0.659876 5.51499,-2.697128 6.23729,-6.786175 0,0 -0.89817,-0.428415 -3.00246,-0.461194 2.74775,-0.753953 5.72219,-2.814455 7.29372,-6.823966 0,0 -2.52327,-0.890752 -5.06368,0.379453 0,0 2.32871,-3.387213 1.0585,-6.915559 0,0 -3.74005,0.705669 -5.64535,3.810614 0,0 -0.2117,-2.469843 -2.11701,-3.740047 0,0 -3.10494,3.316645 -2.82268,8.820865 0,0 -0.49396,-0.846803 -1.83473,-1.411338 -1.24746,2.074132 -2.428646,4.77665 -1.55247,9.058249 0,0 -0.468337,-0.33859 -0.867524,-0.488285 0,0 -0.29939,0.29939 -0.498984,0.698577 0,0 -0.199593,-1.097763 -0.698576,-1.646645 0,0 -0.848273,0.149694 -1.796341,0.449084 0,0 3.343189,-4.440953 2.245426,-9.081499 0,0 -1.546849,0.199594 -2.74441,0.798373 0,0 4.289829,-3.598468 2.455095,-9.949491 0,0 -1.693606,0.493968 -3.457779,2.258141 0,0 0.248234,-5.092673 -2.753215,-7.974062 -3.001448,2.881389 -2.753214,7.974062 -2.753214,7.974062 z"
       id="path867"
       sodipodi:nodetypes="csccccccccccccccccccccccccccccccccccccccccccccccccccccccccccczcccccccccccccccccccccccccccccccccccccccccccccccccccccccccccsccc" />
    <path
       id="path1129"
       style="font-variation-settings:normal;vector-effect:none;fill:#784421;fill-opacity:1;stroke:none;stroke-width:0.264583;stroke-linecap:butt;stroke-linejoin:miter;stroke-miterlimit:4;stroke-dasharray:none;stroke-dashoffset:0;stroke-opacity:1;stop-color:#000000"
       d="m 93.340776,70.752185 c 0.515358,1.923479 1.169483,5.465775 -0.269625,7.550001 0,0 0.827475,0.07086 1.719113,-1.269913 0,0 0.166453,-3.452078 -1.449488,-6.280088 z m -5.122864,5.34721 c 0.50153,0.904362 1.345847,2.708962 1.39546,4.743124 1.085943,-0.447828 1.050706,-2.146149 -0.329312,-3.810246 -0.363498,-0.363498 -0.722838,-0.670443 -1.066148,-0.932878 z m 25.907618,1.356355 c 0,0 0.0199,5.221795 -4.37111,7.716712 0,0 0.49857,3.692474 -1.59716,5.888001 0,0 5.2e-4,-0.798224 -0.19914,-1.397003 0,0 -0.69886,1.496983 -1.09804,2.095762 0,0 0.0996,3.193204 -0.79859,4.789953 l -0.29895,-1.197361 c 0,0 -1.33387,2.314657 -1.93265,3.113031 0,0 0.32005,2.583565 -1.16186,4.559435 l -0.49397,-0.77646 c 0,0 -0.35261,1.76454 -1.19941,3.10531 0,0 0.98786,-0.42333 1.5524,-1.05843 v 0.77594 c 1.21575,-0.42743 2.99164,-2.70597 2.39934,-6.068605 0,0 0.82253,-0.0844 1.62598,-1.002859 0,0 0.57427,0.159796 1.0502,0.0638 2.35741,-0.659876 5.51457,-2.69736 6.23687,-6.786407 0,0 -1.80956,4.220537 -6.49208,5.282891 0.39136,-0.865167 0.60207,-1.797339 0.68383,-2.991083 0,0 1.23757,-0.806246 2.09525,-2.785777 0,0 0.22342,0.07937 0.7106,0.03293 2.74774,-0.753952 5.72222,-2.814456 7.29375,-6.823968 -2.5083,3.878085 -7.48774,5.214455 -7.48774,5.214455 0.19767,-0.84795 0.31153,-1.8357 0.28146,-2.976675 0,0 1.10981,-0.752492 2.14259,-1.85804 0,0 2.32863,-3.387215 1.05843,-6.915559 z m -36.41474,0.07049 c 0,1.952353 1.693827,3.692637 1.764394,5.950777 0.07057,2.258144 1.058431,2.870164 1.058431,2.870164 0.282268,-5.50422 -2.822825,-8.820941 -2.822825,-8.820941 z m 28.65274,0 c 0,0 1.39469,4.253108 0.39672,7.5464 0,0 1.44429,-0.727295 1.72015,-3.806645 0,0 -0.21155,-2.46955 -2.11687,-3.739755 z m -7.69407,1.147448 c -0.831856,1.702453 -2.14053,2.662799 -2.14053,2.662799 0.352836,-0.705669 0.281973,-1.975874 0.281973,-1.975874 -0.846801,1.693608 -2.116859,2.575841 -2.116859,2.575841 -0.529982,-1.239626 -2.046368,-1.587904 -2.046368,-1.587904 0,0 2.893465,3.95175 1.270427,6.915558 l -1.270427,-0.846435 c 0,0 0.91737,1.199271 1.481906,3.316277 0.564536,2.117009 -0.28249,4.516727 -0.28249,4.516727 1.387817,-0.164659 2.445144,-1.244185 2.445144,-1.244185 0,0 3.343263,-4.440755 2.245499,-9.0813 -0.414146,5.175849 -3.279228,7.855642 -3.279228,7.855642 0.196715,-2.154645 -0.705451,-3.528789 -0.705451,-3.528789 0.91737,-2.117007 1.240067,-3.528787 1.240067,-3.528787 l 0.258821,-0.246468 c 0.652789,-0.656851 2.358909,-2.654196 2.617516,-5.803102 z m -25.686359,0.78109 c 0,0 0.98801,1.270131 0.917443,3.034302 -0.07057,1.764173 0.846435,2.469842 0.846435,2.469842 0,0 1.058505,-0.776015 0.493969,-2.681321 -0.564534,-1.905307 -2.257847,-2.822823 -2.257847,-2.822823 z m 51.568249,3.039963 c 0.4595,3.742376 -0.55932,7.534563 -0.55932,7.534563 -1.09776,0.399187 -2.29541,1.796296 -2.29541,1.796296 0.29938,-0.898172 0.29947,-2.095765 0.29947,-2.095765 -1.19755,1.297356 -1.79629,3.492768 -1.79629,3.492768 0.39924,-1.596746 -0.0396,-3.343034 -0.0396,-3.343034 0,0 -0.68156,-0.927351 -1.77932,-1.426333 1.77398,5.808877 -0.67612,9.659655 -0.67612,9.659655 l -0.29947,-0.39929 c -1.29735,0.997966 -2.29541,2.994229 -2.29541,3.193809 -0.49898,-2.095727 -0.93699,-2.587669 -0.93699,-2.587669 l -0.0777,-0.507863 c -0.1044,-0.487034 -0.34677,-1.241304 -0.91024,-1.891485 0,0 1.10313,3.528642 0.67972,8.115487 0.14743,-0.13466 1.1455,-1.03293 1.54468,-1.9311 0,0 1.39728,-2.694481 4.39118,-3.792244 0.49898,-5.189427 5.28906,-7.983763 5.28906,-7.983763 0.49898,-1.596749 0.70905,-4.341264 0.70905,-4.341264 0,0 0.19977,-1.995817 -1.24727,-3.492768 z m 7.91687,0.615403 c 0,0 -1.42382,4.85698 -5.61529,7.351897 0,0 -0.10007,5.788159 -4.99011,7.684297 0,0 -0.6983,5.488482 -4.88977,6.586252 0,0 -0.69895,4.09173 -3.39346,6.18746 0,0 2.02731,-0.33952 3.37597,-2.00777 l 1.07489,0.0396 c 2.42712,-0.1441 5.3573,-1.31742 6.2945,-4.16066 0,0 -2.74483,3.17282 -6.95364,2.78218 0.47144,-1.04615 0.39981,-1.94243 0.39981,-1.94243 0,0 1.95596,-0.28102 3.62295,-1.6656 2.06803,-0.35283 6.65081,-1.91304 8.39746,-5.857131 0,0 -4.04781,4.280731 -8.07844,4.581051 1.06023,-2.1946 0.84849,-3.944551 0.84849,-3.944551 0,0 1.94853,-0.181303 3.2782,-1.553943 0,0 5.57464,0.140988 8.53845,-6.280602 0,0 -4.18904,4.351509 -7.93385,4.645361 1.13713,-2.093051 1.50609,-4.495113 1.50609,-4.495113 0,0 1.11198,-0.190701 2.05306,-0.644216 0,0 2.46469,-2.216472 2.46469,-7.306102 z M 78.628235,83.477018 C 77.287463,84.182689 77.7818,85.94686 77.7818,85.94686 c 1.693606,-0.493969 0.846435,-2.469842 0.846435,-2.469842 z m 10.985137,0.117833 c 0,0 0.140985,1.199563 0.140988,2.046367 -0.493969,-0.141135 -0.987937,-0.140987 -0.987937,-0.140987 0,0 1.482053,2.610977 1.340917,4.445716 0,0 0.733729,-0.493252 0.846952,-2.610828 0.09531,-1.78253 -0.523836,-2.923184 -1.34092,-3.740268 z m -18.606145,0.776458 c 0,0 1.270205,1.364219 1.975874,2.704989 0,0 0.423182,-0.353202 0.211481,-1.129438 -0.2117,-0.776234 -2.187355,-1.575551 -2.187355,-1.575551 z m 11.361274,0.564459 c 0,0 -0.211553,1.364296 0.352984,2.634499 0.564533,1.270205 1.269983,3.034009 0.705447,4.798183 0,0 -0.211774,-1.552252 -0.917443,-2.187353 0,0 -0.423403,1.693384 -0.493968,3.669258 0,0 -1.411338,-2.116711 -3.951748,-2.257847 0,0 3.034231,3.034231 4.092733,4.586704 0,0 1.129293,-1.265766 1.764395,-2.185295 0.876168,-4.2816 -0.304941,-6.984016 -1.5524,-9.058149 z m 19.337319,0 c 0,0 1.95051,3.057607 1.59768,6.868222 0,0 1.41134,-0.423256 1.48191,-2.61083 0,0 1.26998,-0.70589 1.19941,-2.258363 0,0 -0.91744,0.847025 -1.41141,1.270426 0,0 -0.3013,-0.752492 -1.0327,-1.858041 0,0 -0.49412,-0.846878 -1.83489,-1.411414 z m -26.535364,0.799613 c 0,0 1.552839,0.564314 3.105313,3.175289 l -0.846952,-0.140985 c 0,0 0.493894,1.834886 2.046367,1.834886 0,0 0.493821,-3.881253 -4.304728,-4.86919 z m -18.135331,1.411411 c 0,0 0.211405,1.340847 -0.211995,2.399348 0,0 1.905601,-0.635174 0.211995,-2.399348 z m 11.630383,1.032189 c 1.401266,1.370885 3.022573,2.211471 4.571782,2.636556 1.10097,-5.27e-4 1.721685,-0.210966 1.721685,-0.210966 -0.564537,-1.481905 -1.622891,-2.046367 -1.622891,-2.046367 -1.790879,0.532424 -3.659674,0.0062 -4.670576,-0.379223 z m -5.702761,0.590704 c -0.846805,0.987937 -0.705891,2.611197 -0.776458,2.752329 -0.635101,-0.282265 -1.693385,-0.211993 -1.693385,-0.211993 0,0 2.822236,1.905528 2.892801,5.222172 0,0 0.988158,0.07057 1.764394,0.493968 -1.975873,-1.975874 -1.622893,-5.998115 -1.622893,-5.998115 0.07057,-1.12907 -0.564459,-2.258361 -0.564459,-2.258361 z m -8.605344,0.70339 c -0.04796,1.37e-4 -0.07461,0.0026 -0.07461,0.0026 0,0 0.635027,1.622743 2.540336,1.763878 -0.740953,-1.667145 -2.129982,-1.767416 -2.465727,-1.766452 z M 90.10734,90.933884 C 89.401672,92.345221 89.613372,93.8272 89.613372,93.8272 l -0.917443,-0.07049 c 0,0 1.764395,2.046291 2.258363,4.092733 0,0 1.128922,-3.528344 -0.846952,-6.915559 z m -33.072215,1.223087 c -0.282268,1.199637 0.281973,3.104798 0.281973,3.104798 -2.103602,0.250428 -4.679744,-0.982879 -6.012523,-1.725288 1.884464,2.346129 4.121038,3.188056 5.533477,3.488136 l 1.396489,0.1662 1.10577,0.117317 c 0,0 1.058502,0.917664 2.469843,1.199932 l -0.07101,-1.128922 c -3.124122,-1.195021 -3.73344,-2.479142 -4.704019,-5.222173 z m 28.950666,0.400319 c -0.498981,0.548882 -0.698244,1.647076 -0.698244,1.647076 -0.199595,-0.399185 -0.499114,-0.698759 -0.499114,-0.698759 0,0 1.273071,3.826493 0.708535,6.014067 0,0 -1.623259,-2.187943 -4.728203,-2.117375 0,0 3.739974,2.540779 4.022239,5.575151 0,0 0.776458,-0.91745 2.258363,-2.89332 0,0 1.269984,4.93954 -0.776457,7.55052 0,0 1.152888,2.4228 1.858557,5.10434 0.705668,2.68154 1.905379,9.59688 1.905379,9.59688 0,0 0.141062,-3.59883 -0.423474,-7.97399 0,0 0.776089,3.52842 1.128925,4.86919 0,0 -0.705817,-7.55051 -0.352984,-11.50226 0.141136,3.03439 1.199933,7.12704 1.199933,7.12704 -0.352833,-3.52835 0.423474,-8.67944 0.423474,-8.67944 -4.022312,-0.98794 -3.740266,-5.71614 -3.740266,-5.71614 0.846802,-0.28226 1.340918,-0.705448 1.340918,-0.705448 -3.88118,-1.905306 -3.627581,-7.197532 -3.627581,-7.197532 z m 12.102741,0 c 0,0 -0.40723,5.809494 -2.665369,7.57367 0,0 2.18e-4,-3.598915 -2.187356,-5.433653 0,0 1.481979,5.081107 0.917443,7.621523 l 2.963811,-2.25836 c 0,0 0.494042,3.95175 -3.034302,5.92762 -0.388797,4.68525 -0.131404,10.45501 0.602022,16.0761 0,0 0.221182,-2.66817 0.29175,-2.95043 0,0 0.281902,2.61089 0.352467,3.0343 0,0 0.494411,-9.94986 1.058947,-12.91367 0,0 -0.56461,10.51403 -0.423477,12.77217 0,-0.14114 1.058209,-11.00837 1.763881,-13.90161 0,0 -0.799539,-0.9173 -1.034763,-2.54034 0.752144,-1.0115 0.735257,-1.79786 0.855185,-2.82951 0.02808,-0.24155 0.393921,-0.82657 0.401347,-1.0538 l 1.06615,2.19559 c 0.202733,-2.38744 -0.583457,-3.82122 -1.334745,-4.733867 1.199638,-1.270205 1.105254,-4.938657 1.105254,-4.938657 0,0 -0.19926,-1.098194 -0.698245,-1.647076 z m -21.930139,0.658111 c -0.776236,1.623038 -0.07049,3.104796 -0.07049,3.104796 -1.377387,0.13774 -2.714181,-0.229878 -3.487622,-0.505286 1.204108,1.18417 2.645376,1.904721 3.87199,2.24807 1.019156,-0.02163 1.732491,-0.401864 1.732491,-0.401864 -0.423398,-2.75211 -2.046365,-4.445716 -2.046365,-4.445716 z m 23.1275,0.290206 c 0,0 1.194787,3.379495 1.194787,5.425934 0,0 1.129,-0.564755 1.05843,-2.258361 -0.0706,-1.693605 -1.38569,-2.679263 -1.38569,-2.679263 0,0 -0.468342,-0.338615 -0.867527,-0.48831 z m -30.352817,0.04631 c 0.01437,1.850317 -0.325197,3.474245 -0.325197,3.474245 L 68.11391,96.391207 c -0.493968,1.270205 -0.282489,2.681322 -0.282489,2.681322 -0.776234,-0.564536 -1.693385,-0.564463 -1.693385,-0.564463 1.552473,1.552474 1.411412,4.657194 1.411412,4.657194 4.586851,0.56454 5.962096,6.29141 5.962096,6.29141 0.382817,-1.1592 -0.367446,-4.70568 -3.139271,-6.07941 -1.129072,-1.76417 -0.470814,-5.057518 -0.470814,-5.057518 -0.09886,-1.798688 -0.44489,-3.371397 -0.968383,-4.767826 z m 74.506904,0.341147 c 0,0 -1.31839,6.215656 -5.70945,9.708536 l 2.49505,0.39929 c 0,0 -1.19752,4.98962 -5.78817,5.08942 0,0 -2.09588,4.39118 -6.48694,4.39118 0,0 -2.39494,4.79019 -7.18518,5.68835 0,0 2.39512,0.79876 5.888,-0.4986 0,0 0.79945,0.38208 2.24601,0.69001 3.56291,0.11822 6.45562,-1.13174 8.41959,-4.43491 0,0 -4.37877,4.34327 -10.06718,2.14774 0,0 0.9983,-1.39676 1.2977,-2.39472 0,0 3.09345,-2.7e-4 4.98959,-1.39752 0,0 1.62796,0.68738 2.85987,0.84283 3.423,0.11341 6.2024,-1.08517 8.08925,-4.25379 0,0 -4.27718,3.58003 -8.69333,2.55578 0.51529,-0.0636 1.03042,-0.17094 1.54571,-0.60563 -1.03464,-0.24538 -2.03887,-0.46017 -2.70345,-0.33549 l 0.39878,-1.49682 c 0,0 3.09392,-0.29933 4.79046,-1.69648 0,0 1.99471,0.55492 3.74181,0.77646 3.42299,0.1134 6.20189,-1.08517 8.08874,-4.25379 0,0 -4.94447,4.67455 -11.43126,2.17964 0,0 0.89795,-1.59638 1.09754,-2.49454 0,0 3.14792,-0.1663 5.56589,-1.1809 0,0 2.79428,-1.59678 3.84215,-6.037731 0,0 -3.42031,5.023201 -7.71157,5.621981 l 0.59894,-0.79858 c 0,0 -1.49707,0.1 -2.39523,0.79858 0,0 1.37524,-2.54328 2.03505,-4.016067 0.76147,-2.747629 0.18163,-4.994229 0.18163,-4.994229 z m -70.398736,4.361844 c 0.02042,0.870749 0.02445,3.057142 -0.41164,4.365452 0,0 0.890157,0.0296 1.468013,-1.25757 -0.245698,-1.3174 -0.634105,-2.32958 -1.056373,-3.107882 z m -26.897096,0.0885 c 0,0 0.671476,0.983646 0.621579,2.281002 -0.0499,1.29736 0.64895,1.6466 1.048137,1.7963 0,0 0.602589,-1.76773 -1.669716,-4.077302 z m 63.159532,0.07049 c 0,0 -1.22552,3.716592 -3.83649,5.198502 0,0 1.12944,0.14103 1.6234,0.0705 0,0 -0.14128,1.34085 -0.35298,1.90538 0,0 1.32137,-2.42264 1.78961,-3.92808 0,0 0.84705,-1.905519 0.77646,-3.246292 z m -68.487186,0.473388 c 0,0 1.093494,2.749234 3.986737,3.243204 0,0 -0.282416,-1.12928 -1.834889,-1.76439 -1.55247,-0.635095 -2.151848,-1.478814 -2.151848,-1.478814 z m 94.366496,0.474929 c 0,0 -0.71243,4.472095 -3.80613,6.967005 0,0 1.74913,0.28743 3.1933,-1.397 1.42507,-1.66214 1.16134,-4.23578 1.16134,-4.23578 -0.15651,-0.66949 -0.54851,-1.334225 -0.54851,-1.334225 z m -72.878868,0.345264 c 0,0 -0.07079,1.622971 0.211479,2.540331 0,0 -2.367898,0.1072 -5.552514,-0.80527 1.99357,1.55612 4.379822,2.29467 5.71717,2.52284 0,0 1.034981,-0.16495 2.305186,0.11732 0,0 -2.116788,-2.04651 -2.681321,-4.375221 z m 27.591223,0.964781 c 0,0 1.552842,1.69338 2.117375,3.66926 0,0 0.493824,-0.84666 0.140988,-2.11687 -0.352833,-1.2702 -2.258363,-1.55239 -2.258363,-1.55239 z m 19.336805,0.25161 c 0,0 1.51983,4.70686 0.92105,9.6967 0,0 1.23774,-1.10327 1.26425,-3.82516 0.0266,-2.733 -1.44074,-5.43263 -1.44074,-5.43263 0,0 -0.24557,-0.28921 -0.74456,-0.43891 z m -69.200346,0.59688 c -0.274963,-0.0124 -0.635836,0.0275 -1.085701,0.18627 -1.199637,0.42341 -2.540336,-0.14099 -2.540336,-0.14099 0,0 0.705816,1.05829 2.328855,1.19942 1.623038,0.14113 1.975873,-1.05843 1.975873,-1.05843 0,0 -0.22042,-0.1656 -0.678691,-0.18627 z m 39.372887,0.23309 0.140987,0.91745 c 0,0 -1.623111,-8e-5 -3.387285,-0.42348 0,0 1.97624,2.04659 5.575155,1.34092 0,0 -0.564684,-1.27036 -2.328857,-1.83489 z m -30.931686,0.11783 c -0.423403,0.77623 -0.352983,1.7644 -0.352983,1.7644 -0.776236,-0.49396 -1.576068,-0.58814 -1.576068,-0.58814 0,0 1.469777,1.30793 1.258076,2.86039 2.493471,-0.26238 4.059641,0.52003 6.110287,2.46624 0.04517,-0.89411 -0.179327,-1.9513 -1.193243,-2.50123 -1.013916,-0.54992 -1.794926,-0.14618 -2.961751,-1.02704 -1.166824,-0.88086 -1.284318,-2.97462 -1.284318,-2.97462 z m 4.895947,1.41399 c 0,0 0.449219,0.74849 0.499114,1.99594 0.0499,1.24746 0.898406,1.44692 0.898406,1.44692 0.55903,-1.62325 -0.782267,-3.0327 -1.39752,-3.44286 z m 13.427709,0.49139 c -0.96938,1.43734 -0.391442,2.98176 0.07049,3.81077 -0.796904,-0.54386 -1.173661,-0.74729 -1.763878,-0.77646 0.07056,0.6351 0.634953,0.98793 0.634953,0.98793 -2.410803,0.15724 -4.466497,-1.08444 -5.367274,-1.73506 1.275532,1.9263 3.647368,2.7674 5.672918,2.88766 0,0 1.105401,-0.16466 1.952203,-0.16466 0,0 1.270574,1.83489 3.105312,1.83489 0,0 -4.093028,-2.39934 -4.304728,-6.84507 z m 61.326699,0.5552 c 0,0 -0.23941,5.39043 -2.73432,7.38637 0,0 1.59696,-0.0998 2.79452,-1.79629 1.19756,-1.69655 0.38849,-4.15602 0.38849,-4.15602 -0.15652,-0.66947 -0.44869,-1.43406 -0.44869,-1.43406 z m -86.142955,0.1271 c 0.07057,1.2702 0.987937,2.18735 0.987937,2.18735 -1.270205,0.91737 -3.316277,0.91744 -3.316277,0.91744 l 0.70545,0.63496 c -4.798552,0.35283 -7.940028,-3.3842 -7.940028,-3.3842 1.886854,3.16862 4.665744,4.36719 8.088732,4.25379 0,0 1.68596,-0.79873 3.873537,-1.15156 0,0 0.917296,0.35268 2.046365,0.14098 0,0 0.847247,2.04622 2.540853,3.1753 0,0 -1.905528,1.12935 -5.222174,0.21199 0,0 0.488257,1.03457 1.576068,1.40781 -0.573813,-0.16269 -2.815112,-0.8157 -4.741067,-1.59459 1.817464,2.13078 4.229666,2.96099 7.095649,2.86604 0,0 1.785418,-0.98602 5.313763,-0.84489 0,0 0.705742,1.83475 2.399351,2.96381 0,0 -1.905383,0.77665 -3.881257,0.071 0,0 0.564315,1.4109 2.681324,1.90487 0,0 -2.934149,0.115 -6.264139,-1.68516 1.726508,1.93758 3.951919,2.78479 6.566179,2.83158 0.107425,-7.9e-4 0.684867,-0.005 0.684867,-0.005 0,0 1.864142,-1.00164 4.305758,-0.7178 0,0 -0.564462,-1.05843 -0.811446,-2.78732 -1.799455,0.10584 -4.34016,0.10578 -5.398662,-4.62221 -5.08082,0.35283 -6.42159,-4.30421 -6.42159,-4.30421 -3.246078,0.49396 -4.869193,-2.46984 -4.869193,-2.46984 z m 35.448412,0.61128 c 0.917369,4.30458 -1.058431,7.48002 -1.058431,7.48002 0,0 3.598988,5.92777 5.363162,11.22029 0,0 -0.494116,-4.09281 -2.328857,-7.97399 0,0 1.481613,1.83459 2.257846,4.09274 0,0 -1.199197,-6.06869 -2.8928,-9.94987 0,0 0.423401,0.63533 0.987937,1.27043 0,0 -0.353131,-1.97602 -0.705964,-2.82282 0,0 1.62289,2.46998 2.610827,4.79869 l 0.28249,-0.42347 c 0,0 2.681469,5.99782 3.528273,8.74993 0,0 -0.141209,-2.61054 -0.917443,-5.36264 0,0 0.705669,1.12878 0.987937,1.76387 l 0.211993,-0.91744 c 0,0 0.423108,0.9176 0.775944,1.76439 -0.313029,-2.9214 -1.348597,-6.20075 -3.175293,-10.37333 -2.167325,-0.16672 -3.208152,-0.24754 -5.927621,-3.3168 z m -1.340918,0.42348 c 0,0 0.211701,2.18758 -0.987937,4.44571 0,0 0.987863,0.63519 1.5524,-1.05843 0.564533,-1.6936 -0.564463,-3.38728 -0.564463,-3.38728 z m 66.377011,0.65914 c -1.11143,-0.0298 -1.66714,0.44663 -1.66714,0.44663 0,0 1.2702,0.84651 2.96381,-0.212 -0.49397,-0.15877 -0.9262,-0.22471 -1.29667,-0.23463 z m -35.7273,0.21096 c -2.75211,3.24608 -5.50415,2.89332 -5.50415,2.89332 -2.681538,4.79856 -3.175799,14.88955 -3.175799,14.88955 0,0 1.058502,-3.95175 1.975869,-5.92762 0,0 -0.42318,3.52842 -0.211477,4.86919 0,0 0.705817,-5.85706 3.316797,-10.37334 0,0 -1.34092,4.09296 -1.34092,5.36316 0,0 1.27027,-2.89295 2.39935,-4.72769 0,0 -1.69368,5.08045 -1.90538,8.25596 0,0 1.19979,-3.24579 2.32885,-5.22166 0,0 -1.41134,5.33883 -1.4819,7.94981 0,0 2.67404,-6.94614 4.72048,-10.68619 0,0 -1.96853,-3.33274 -1.12172,-7.28449 z m -48.0091,0.65863 c 0,0 0.988155,1.0588 0.776457,2.68183 -0.211703,1.62304 1.340404,2.39935 1.340404,2.39935 0,0 0.494114,-3.52871 -2.116861,-5.08118 z m 77.90603,0.071 c -2.04644,0.28226 -2.39935,1.12892 -2.39935,1.12892 0,0 1.48198,0.49412 2.39935,-1.12892 z m -33.16741,0.0674 c -1.69654,0 -2.49506,1.09754 -2.49506,1.09754 0,0 1.3973,0.39941 2.49506,-1.09754 z m -41.353906,1.69648 c 0,0 2.920623,1.57107 4.024812,4.79869 1.10419,3.22764 -0.634956,5.43366 -0.634956,5.43366 0.211703,-1.27021 -1.481905,-2.39935 -1.481905,-2.39935 0.07057,0.14113 0.917003,2.11708 0.352467,3.88125 0,0 1.2705,0.28197 2.187869,-0.70596 0,0 2.611049,3.24645 3.881254,5.08118 -0.07056,-0.2117 -0.564608,-1.83473 -0.917443,-2.46984 0,0 1.058578,1.12914 1.905379,1.41141 0,0 -1.693605,-2.89362 -2.469842,-5.08118 0,0 1.693387,2.68169 2.681324,3.31679 0,0 -1.623038,-3.0343 -1.975874,-4.51621 0,0 2.469695,2.82253 3.598765,4.5867 0,0 -0.987642,-2.89324 -1.763879,-4.44571 0,0 2.822383,4.7282 4.233721,7.19804 0,0 -1.058431,-2.89339 -2.046365,-4.79869 -0.98794,-1.90532 -1.975874,-3.81076 -1.975874,-3.81076 0,0 2.258508,2.39964 3.599281,5.57515 0,0 -0.564905,-2.82268 -1.623407,-4.44572 0,0 0.988155,0.98757 1.764392,2.32835 0,0 -7.4e-5,-2.04615 -1.90538,-4.7277 0.776237,-0.70567 0.493969,-1.4819 0.493969,-1.4819 -5.786489,1.12907 -8.957809,-2.64633 -8.957809,-2.64633 -0.775404,-0.94022 -1.812846,-1.77379 -2.970499,-2.08187 z m 59.847876,0 c 0,0 0.0349,4.45755 -2.36024,8.44943 0,0 1.25776,-0.43525 2.29541,-2.39523 1.03763,-1.95999 0.6329,-4.72255 0.6329,-4.72255 -0.16348,-0.69703 -0.56807,-1.33165 -0.56807,-1.33165 z m -67.595978,0.11834 c -0.119393,-0.002 -0.241326,0.005 -0.364818,0.0226 0.141133,0.63511 0.07101,1.55292 0.07101,1.55292 0,0 1.622599,-0.49405 3.386769,0.56446 0,0 -1.302085,-2.109 -3.092961,-2.14002 z m 64.933698,0.495 c 0,0 -2.1173,4.70292 -8.11549,5.26745 0,0 -3.31694,5.64543 -3.66978,9.31491 0,0 1.5527,-3.24645 2.75233,-4.58722 0,0 -1.05865,2.39935 -1.34091,3.88126 0,0 1.48198,-2.8934 1.90538,-3.3168 0,0 -1.19942,3.17566 -1.19942,4.30473 0,0 2.68117,-6.28046 4.79818,-7.90349 0,0 -2.54041,3.45763 -2.96381,6.56257 0,0 1.83496,-3.6694 3.2463,-5.01017 0,0.14114 -0.28216,1.5524 -0.0705,2.54033 l 0.56446,-1.76388 c 0,0 0.35306,0.77624 0.77646,0.98794 0,0 0.0898,-5.69214 3.00857,-8.8091 0,0 0.25266,-0.70956 0.30822,-1.46853 z m 10.84364,1.99748 c -2.04645,0.49397 -2.35253,1.45875 -2.35253,1.45875 0,0 1.36459,0.44656 2.35253,-1.45875 z m -57.379588,0.0335 c 0,0 -1.197287,1.19773 -2.89383,0.64885 0,0 1.34684,0.94824 2.344806,0.64885 0.997967,-0.2994 0.549024,-1.2977 0.549024,-1.2977 z m -14.104856,0.46052 c 0,0 1.058504,0.98831 1.481905,2.61135 0.897982,-0.058 1.499425,0.0208 2.452863,0.49448 -0.188103,-0.75248 -0.838261,-0.96122 -1.323938,-1.05894 -0.635104,-2.11701 -2.61083,-2.04689 -2.61083,-2.04689 z m 54.699804,0.88091 c -1.37095,0.007 -2.12767,0.601 -2.12767,0.601 0,0 1.48213,0.56461 2.75233,-0.56446 -0.22052,-0.0265 -0.42881,-0.0375 -0.62466,-0.0365 z m -51.821923,6.89189 c 0.548882,0.44909 0.831514,1.36408 0.831514,1.36408 -1.297357,0.79837 -2.893831,0.29946 -2.893834,0.29946 3e-6,0 1.247175,1.34717 2.843923,1.59665 0,0 -3.070977,0.43691 -6.557433,-1.14539 3.159135,2.59593 7.674273,2.51637 10.116063,1.53954 -0.826608,-1.20455 -1.996457,-0.9123 -1.996457,-0.9123 -0.635101,-2.61096 -2.343776,-2.74204 -2.343776,-2.74204 z m 68.320473,0.46207 c 0,0 -5.86441,3.39703 -12.05181,1.3013 0,0 -1.99698,2.06456 -4.21365,5.63844 -6.07677,-0.14246 -12.93926,-0.25161 -19.972792,-0.25161 -9.145509,0 -17.975928,0.18268 -25.143508,0.38694 1.471175,2.56098 2.720733,5.43309 3.766511,8.46178 0.436012,0.038 0.888107,0.0753 1.303868,0.11372 0.386979,0.0357 0.758983,0.0762 1.139215,0.11423 0.349988,1.18958 2.415946,8.28995 4.178665,16.31793 -0.729616,-7.32691 -2.436052,-13.95039 -3.057459,-16.20525 0.999205,0.10835 1.969003,0.22646 2.905153,0.35453 0.224202,1.19085 2.395063,12.63134 3.964096,16.97965 -0.548371,-4.29202 -2.494888,-14.81539 -2.868105,-16.8222 0.1566,0.0236 0.314957,0.0467 0.46927,0.071 0.243731,1.33488 1.545263,8.37611 2.397805,10.96455 0.07782,-2.58781 -0.957893,-8.789 -1.303869,-10.78343 1.281628,0.2241 2.466979,0.47597 3.540108,0.75896 0.191954,2.32957 1.02855,12.02226 1.997484,15.38815 -0.0266,-3.18549 -0.695478,-12.11089 -0.924134,-15.08354 1.014866,0.31331 1.901976,0.66165 2.63244,1.05123 0.01992,0.0106 0.03797,0.0217 0.05763,0.0324 0.07932,1.64 0.46183,9.13045 1.057917,13.01195 0.295694,-3.37547 0.117812,-9.5559 0.01749,-12.29261 1.070397,0.86903 1.659302,1.87184 2.288721,2.67309 0.50879,0.64769 0.758448,1.0538 0.758448,1.0538 0,0 0.235825,-0.23833 0.619518,-0.601 -0.01196,2.39554 0.01378,6.23311 0.267568,8.46076 0.502804,-2.54186 0.706137,-7.23097 0.776455,-9.40598 0.687899,-0.60194 1.526225,-1.29093 2.443086,-1.94038 -0.355157,3.71269 -1.036659,11.3004 -0.961695,14.16918 0.797653,-3.16672 1.777194,-12.04755 2.081871,-14.91116 0.265078,-0.16272 0.531412,-0.31985 0.798068,-0.46206 0.141694,-0.0756 0.291726,-0.14809 0.444058,-0.21972 -0.466941,3.00495 -1.454275,9.7054 -1.489111,12.9111 0.932347,-3.44019 2.252798,-11.17741 2.621128,-13.37522 0.50809,-0.18277 1.05688,-0.35051 1.64399,-0.50632 -1.03086,3.87868 -3.504438,14.22917 -2.85422,22.35002 0.209688,-8.31244 3.09751,-19.3206 4.01556,-22.63251 0.14786,-0.0329 0.29852,-0.0645 0.45023,-0.0962 -0.56357,2.2186 -2.30287,9.3615 -2.3479,13.55429 1.02736,-4.42657 3.27678,-12.97663 3.48711,-13.77554 0.36598,-0.0661 0.73866,-0.13093 1.12275,-0.19193 -0.83234,3.41383 -3.63147,15.5775 -3.05797,22.71792 0.34913,-7.19199 3.52861,-20.25796 4.18175,-22.88103 0.35008,-0.0497 0.7011,-0.0995 1.06358,-0.14614 -0.89253,3.10904 -2.77748,10.37328 -2.70448,16.11161 0.79111,-6.03078 3.08737,-13.79916 3.83752,-16.25054 0.325,-0.0382 0.6703,-0.0726 1.00182,-0.10959 -2.7934,8.73684 -4.12793,19.25094 -4.19307,24.59294 -2.84405,-0.0507 -5.35132,1.69389 -5.35132,1.69389 2.04644,-0.77626 3.96558,-0.87216 5.34618,-0.87216 1.3806,0 3.35138,0.93645 3.59259,3.58076 0.24574,2.69395 -2.08919,3.7375 -3.32091,3.64868 -1.36841,0.006 -3.28901,0.41678 -3.28901,0.41678 2.25814,-1.41134 4.16323,-1.97587 4.16323,-1.97587 -2.61097,-0.63511 -6.63299,0.91751 -8.679439,1.83489 -2.046441,0.91737 -4.728203,0.21199 -4.728203,0.21199 3.387212,-0.0706 4.940046,-1.76431 8.045002,-2.32886 3.10494,-0.56453 3.81024,-1.6939 3.81024,-1.6939 -0.17201,-0.0176 -0.35186,-0.0254 -0.53873,-0.0252 -2.80312,0.003 -7.153138,1.91751 -9.270147,2.77755 -2.258139,0.91737 -7.268025,0.70544 -7.268025,0.70544 1.552473,-0.49397 1.693387,-1.26991 1.693387,-1.26991 -0.987937,0 -1.552252,0.14099 -3.669261,1.12893 -2.117006,0.98793 -5.645645,0.42347 -5.645645,0.42347 0.917369,-0.56454 1.058428,-1.19941 1.058428,-1.19941 -1.411338,0 -2.34723,1.04055 -4.727689,0.56446 -1.734399,-0.34688 -2.918708,-0.002 -3.438226,0.21096 0.633417,0.74267 1.412449,1.11632 1.831284,1.27249 0,0 0.568412,0.0859 1.560632,0.19913 -0.238111,0.99154 -1.71206,6.91016 -4.611402,13.27694 3.722949,-5.88554 5.359431,-11.92288 5.671377,-13.1658 0.350072,0.0347 0.714916,0.0695 1.13407,0.10548 -1.129665,5.06649 -4.264594,14.61426 -4.264594,14.61426 0,0 4.104127,-9.31523 5.317363,-14.53347 0.671315,0.0507 1.367605,0.10073 2.175005,0.14613 -0.862785,4.02963 -2.976675,15.93923 -2.976675,15.93923 0,0 3.138979,-12.2539 4.022755,-15.8852 0.203874,0.01 0.40051,0.0202 0.611802,0.0293 -0.159276,1.71767 -0.753664,8.40383 -0.541821,10.91567 0.714165,-2.45539 1.426127,-9.26983 1.587901,-10.87554 0.213561,0.008 0.422403,0.0157 0.642673,0.0226 -0.574492,5.16254 -1.524613,16.92203 -1.524613,16.92203 0,0 1.932599,-11.7791 2.569666,-16.89372 0.293757,0.007 0.5939,0.0134 0.898406,0.019 -0.22423,1.82326 -0.797405,6.99833 -0.363274,9.53617 0.480583,-2.59584 1.265,-8.41695 1.412956,-9.5197 0.170386,0.002 0.346752,0.003 0.52021,0.005 -0.502095,5.44241 -0.662226,15.86565 -0.662226,15.86565 0,0 1.13005,-10.56996 1.714482,-15.86 0.126854,2.7e-4 0.245706,0.002 0.374078,0.002 0.36311,0 0.704075,-0.006 1.059461,-0.008 0.01038,1.91861 0.09158,9.61142 0.803727,13.46527 0.217191,-3.83123 0.240253,-11.56735 0.242867,-13.47299 0.559419,-0.006 1.100171,-0.0162 1.637301,-0.0273 0.293246,6.88859 1.365616,14.77172 1.365616,14.77172 0,0 -0.03791,-7.93251 -0.312847,-14.79436 0.177376,-0.005 0.360065,-0.008 0.534619,-0.0134 0.137307,2.94441 0.697143,12.33904 2.460065,17.20657 -0.88076,-5.07087 -1.312035,-14.84956 -1.408323,-17.2431 0.128753,-0.005 0.259427,-0.009 0.386425,-0.0134 0.159232,1.18791 1.075879,7.61787 2.856792,11.04637 -0.770493,-3.43318 -1.618306,-9.70235 -1.801962,-11.08599 0.323095,-0.0138 0.626101,-0.0294 0.935966,-0.0443 1.056656,8.87254 3.762356,17.49309 4.252766,17.34035 0,0 -2.17981,-8.66882 -3.20102,-17.39129 0.067,-0.004 0.12513,-0.008 0.19141,-0.0113 0.24761,1.45493 1.89933,10.61891 5.12647,15.9912 -2.27706,-5.66193 -3.87916,-14.95156 -4.06495,-16.05295 0.33164,-0.0203 0.65148,-0.0406 0.96067,-0.0612 0.4732,2.11689 2.7045,11.3035 7.20216,18.19553 -3.51248,-7.02171 -5.62542,-15.95295 -6.1391,-18.26911 0.36254,-0.0266 0.68481,-0.0519 1.00646,-0.0777 0.0721,0.19621 3.11467,8.46408 6.11543,13.58413 -1.99499,-5.41148 -4.88314,-13.28408 -5.02664,-13.67521 0.22444,-0.0198 0.4678,-0.0407 0.66068,-0.0587 2.91795,7.60186 6.85095,14.46655 11.81459,21.16244 0,0 -8.577,6.48693 -27.337554,6.48693 -15.446359,0 -24.509958,-5.03634 -27.235671,-6.81882 -0.208968,0.28598 -0.416546,0.57179 -0.629295,0.85879 0,0 9.543329,7.58138 28.655316,7.58138 19.111994,0 28.654804,-7.58138 28.654804,-7.58138 -5.22816,-7.05273 -9.31532,-13.7639 -12.2746,-21.85554 0.83253,-0.31041 3.08826,-1.47672 2.79401,-4.70247 -0.28883,-3.16632 -2.91108,-3.88023 -3.59259,-3.88023 0,-7.60192 1.32149,-17.22546 4.23166,-25.6277 0.0729,-0.21066 0.14584,-0.42124 0.22074,-0.63032 0.0725,-0.20219 0.14688,-0.40296 0.22126,-0.60357 0.0552,-0.14892 0.11052,-0.29759 0.16671,-0.4456 0.075,-0.19742 0.15105,-0.39396 0.22795,-0.58968 0.0535,-0.13629 0.10769,-0.27157 0.16208,-0.407 0.33562,-0.8347 0.68709,-1.65411 1.0574,-2.45184 0.12269,-0.26458 0.24804,-0.52572 0.3746,-0.78571 0.12573,-0.25818 0.25281,-0.51476 0.38231,-0.76823 0.0225,-0.044 0.0453,-0.0874 0.0679,-0.13121 1.03317,-2.00533 2.18528,-3.85742 3.46653,-5.48665 2.87725,1.15104 8.63445,1.05843 11.65817,-3.19227 z m -9.82174,0.17752 c -1.0964,-0.0341 -1.68104,0.3751 -1.68104,0.3751 0,0 1.62724,1.04142 4.19101,0.34939 -1.01044,-0.52394 -1.85213,-0.70403 -2.50997,-0.72449 z m -40.324295,40.0912 c -1.861168,0.0189 -3.255047,0.85106 -3.255047,0.85106 0,0 3.302017,-0.24003 6.618663,0.0422 0,0 -0.282194,-0.56416 -2.540336,-0.84644 -0.282268,-0.0353 -0.557399,-0.0495 -0.82328,-0.0468 z m 17.85953,0.60974 c -1.310207,0.006 -2.381852,0.42502 -2.381852,0.42502 2.399274,-0.2117 4.586701,0.91744 4.586701,0.91744 0,0 0.423696,-0.98816 -1.26991,-1.27042 -0.317552,-0.0529 -0.632583,-0.0734 -0.934939,-0.072 z m -5.122864,0.28146 c -3.130029,0.10647 -6.383953,1.93389 -8.831744,3.38934 -2.610975,1.55247 -5.645646,2.04637 -5.645646,2.04637 2.187574,0.4234 4.657561,-0.0705 7.762507,-2.04637 3.104944,-1.97587 7.339033,-3.38728 7.339033,-3.38728 -0.20729,-0.009 -0.415481,-0.009 -0.62415,-0.002 z m 7.692019,1.48088 c -0.593344,-0.006 -3.124868,0.0561 -5.656458,1.4145 -2.893243,1.55247 -5.645645,2.46984 -5.645645,2.46984 0,0 3.246445,0.49396 5.081186,-0.98794 1.834738,-1.4819 6.350577,-2.89332 6.350577,-2.89332 0,0 -0.0449,-0.002 -0.12966,-0.003 z m -19.10269,0.91384 c -2.298679,0.062 -4.407123,1.48859 -4.407123,1.48859 0,0 3.527904,-0.28227 4.868674,-1.4819 -0.154363,-0.009 -0.308305,-0.0108 -0.461551,-0.007 z m 2.625826,-56.58784 c -1.693606,0 -2.540407,-1.0585 -2.540407,-1.0585 0,0 1.411335,-0.28227 2.540407,1.0585 z" />
    <path
       id="path855"
       style="font-variation-settings:normal;vector-effect:none;fill:#ffffff;fill-opacity:1;stroke:none;stroke-width:0.264583;stroke-linecap:butt;stroke-linejoin:miter;stroke-miterlimit:4;stroke-dasharray:none;stroke-dashoffset:0;stroke-opacity:1;stop-color:#000000"
       d="m 92.037419,69.058287 c -2.096376,2.012519 -2.606441,5.098397 -2.72403,6.779715 0.299248,0.870122 0.717535,1.711428 1.311591,2.346864 0,0 -0.917812,-2.610975 0.916926,-5.433653 0.825613,-1.270171 0.934813,-2.452154 0.807332,-3.370819 -0.100332,-0.109793 -0.20313,-0.217768 -0.311819,-0.322107 z m -6.211139,5.715626 c -1.046077,3.621044 -0.10099,6.343023 0.904582,8.017724 1.155986,0.920546 2.059229,0.897376 2.059229,0.897376 -2.681542,-2.75211 -2.399348,-7.409527 -2.399348,-7.409527 1.693606,0.564536 2.752331,1.834889 2.752331,1.834889 -0.107877,-0.625546 -0.35552,-1.237068 -0.667373,-1.810704 -1.439169,-1.173577 -2.649421,-1.529758 -2.649421,-1.529758 z m 12.421763,0 c 0,0 -1.693606,0.494187 -3.457779,2.25836 0,0 -1.131056,1.858262 -1.060488,3.622435 0,0 1.270057,-2.681837 3.104798,-3.669772 0.789536,-0.425137 1.289982,-0.968201 1.58327,-1.549828 -0.04994,-0.217164 -0.105074,-0.437142 -0.169801,-0.661195 z M 69.948796,77.45575 c -1.270202,3.528344 1.058431,6.915559 1.058431,6.915559 0,0 0.752568,0.564459 1.458237,0.564459 0,0 -1.622746,-2.681542 -1.763878,-4.939684 -0.141136,-2.258139 -0.75279,-2.540334 -0.75279,-2.540334 z m 44.176734,0 c 0,0 -3.27809,0.618791 -5.25974,3.245784 -0.15303,0.871724 -0.1723,1.768958 0.0566,2.608256 0,0 0.39935,-1.597041 2.59488,-3.093992 2.19552,-1.496951 2.60826,-2.760048 2.60826,-2.760048 z m -36.41474,0.07049 c -1.905306,1.270205 -2.116859,3.739755 -2.116859,3.739755 0,0 0.117685,2.281884 0.752787,3.410954 0,0 -0.07049,-3.528639 1.411411,-6.139617 z m 28.65274,0 c 0,0 -2.14429,2.293574 -2.70602,6.229151 0.0803,1.084109 0.33598,2.089081 0.87423,2.847521 0,0 -0.69891,-2.993662 0.69824,-4.989595 1.39716,-1.995935 1.13355,-4.087077 1.13355,-4.087077 z m -13.939169,2.14053 c 0,0 -2.928453,3.386919 -1.305413,6.703566 0,0 0.141133,-2.116788 0.987937,-3.669261 0.846802,-1.552473 0.317476,-3.034305 0.317476,-3.034305 z m -32.901387,2.827971 c -1.447048,1.496951 -1.247269,3.492768 -1.247269,3.492768 0.488144,1.545916 1.205591,2.9705 1.205591,2.9705 -0.564536,-2.893243 0.281973,-4.869191 0.281973,-4.869191 0.846805,0.635101 2.399351,2.540336 2.399351,2.540336 -0.162084,-0.856725 -0.552976,-1.787989 -1.003888,-2.654565 -0.882426,-0.954418 -1.635755,-1.479848 -1.635758,-1.479848 z m 65.028376,0 c 0,0 -3.25496,2.265226 -4.16992,5.978046 0.0948,0.620474 0.26769,1.207809 0.55006,1.722717 0,0 0.0996,-2.395057 1.397,-3.692416 1.29736,-1.297356 2.15011,-2.428233 2.22286,-4.008347 z m -72.945249,0.615403 c 0,2.111582 0.42554,3.721385 0.922074,4.890802 0.333257,0.429449 0.717888,0.847328 1.166488,1.239036 0,0 -1.270058,-2.399127 -1.128925,-5.08067 0,0 3.104725,0.352833 5.151166,2.469842 0,0 -0.226738,-0.747215 -0.820193,-1.779316 -2.406854,-1.574055 -5.29061,-1.739694 -5.29061,-1.739694 z m 80.862119,0 c 0,0 -2.89274,0.166753 -5.30193,1.747927 -0.88209,1.470893 -1.16391,2.829514 -1.16391,2.829514 0,0 1.05865,-2.046149 3.3168,-2.751818 2.25814,-0.705669 3.14904,-1.825623 3.14904,-1.825623 z m -64.575566,0.578868 c -1.150719,0.02055 -1.949117,0.302556 -1.949117,0.302556 0.694878,1.772873 1.664681,3.1633 2.76725,4.229606 0.684427,0.332998 1.435296,0.540125 2.237783,0.524839 0,0 -2.293647,-1.199637 -3.493284,-3.951747 0,0 1.458384,-0.164433 3.598767,0.493968 0,0 -0.318182,-0.751654 -1.446917,-1.420672 -0.615398,-0.14378 -1.200064,-0.187731 -1.714482,-0.17855 z m 48.289016,0 c -0.895,-0.01597 -2.00314,0.12658 -3.11457,0.682296 -1.35451,0.908496 -1.67229,2.681321 -1.67229,2.681321 0,0 2.79615,-2.793369 6.73598,-3.061061 0,0 -0.7984,-0.282015 -1.94912,-0.302556 z m -30.644565,0.23618 c -0.674769,2.852422 0.327708,5.625012 1.20096,7.341604 0.776505,0.560213 1.417073,0.749186 1.417073,0.749186 -2.046442,-3.034376 -1.693901,-6.492081 -1.693901,-6.492081 2.258142,0.776233 3.246297,2.32834 3.246297,2.32834 -0.399948,-2.093557 -1.426333,-3.128983 -1.426333,-3.128983 -1.197561,-0.598779 -2.744096,-0.798066 -2.744096,-0.798066 z m 13.00063,0 c -3.448524,0.447865 -3.538049,4.491509 -3.538049,4.491509 1.199639,-2.681543 3.538049,-4.491509 3.538049,-4.491509 z m -16.169234,1.010575 c -1.340772,0.564536 -1.834886,1.411414 -1.834886,1.411414 0,0 -1.081806,2.846125 0.117831,4.680864 0,0 0.140988,-3.740414 1.622893,-5.081186 z m 19.337319,0 c -1.00903,1.677699 -1.97349,3.767372 -1.842089,6.770456 0.197259,0.795194 0.501209,1.548771 0.975079,2.081872 0,0 -0.49886,-2.394803 0.49911,-4.690129 0.99797,-2.295325 0.3679,-4.162199 0.3679,-4.162199 z m 8.0486,0.236694 c -4.32208,0.730807 -4.42822,4.490998 -4.42822,4.490998 0,0 0.56468,-1.552326 1.83489,-2.116862 1.2702,-0.564536 2.08186,-1.290493 2.59333,-2.374136 z M 75.170456,85.73538 c 0,0 -1.858264,3.504749 0.823281,5.833459 0,0 -0.493602,-2.116788 -0.352467,-3.669261 0.141133,-1.55247 -0.470814,-2.164198 -0.470814,-2.164198 z m 17.47722,0.682293 c 0,0 -3.222702,2.492996 -1.670229,6.444744 0,0 0.141059,-2.398906 1.058428,-3.810246 0.917372,-1.411338 0.611801,-2.634498 0.611801,-2.634498 z m -26.954211,2.035563 c 0,0 -1.907659,1.351577 -1.695959,3.962552 0.211701,2.610975 1.5524,3.810762 1.5524,3.810762 0,0 -1.481979,-4.375369 0.07049,-6.21011 0,0 1.270349,0.988084 2.328854,3.316791 0,0 -0.63037,-3.126533 -2.255789,-4.879995 z m 52.687395,0 c -1.69198,1.784918 -3.08171,3.967391 -3.77011,6.820366 0.23725,1.329128 0.7322,2.20742 0.7322,2.20742 0,0 0.29922,-2.694628 1.29719,-4.391171 0.99797,-1.696546 1.6851,-3.185528 1.74072,-4.636615 z M 57.081948,90.22792 c 0,0 -0.493895,3.598988 2.399348,5.85713 0,0 -1.340843,-2.54041 -1.411411,-4.445716 0,0 2.117009,0.141059 4.445716,2.046365 0,0 -1.905306,-3.528344 -5.433653,-3.457779 z m -4.305758,0.102911 c -1.77606,0.02039 -3.0801,0.579384 -3.0801,0.579384 0.344105,0.745555 0.724155,1.399325 1.125837,1.978445 1.120657,0.671365 2.342754,1.287303 3.437198,1.573497 0,0 -2.540336,-1.199493 -3.528273,-3.104799 0,0 2.328781,-0.564828 5.363159,0.281976 0,0 -0.799538,-0.823207 -2.022697,-1.223087 -0.449864,-0.06616 -0.885265,-0.09012 -1.295124,-0.08542 z m 74.07674,0.131211 c -4.58303,0.233899 -5.29627,4.141102 -5.29627,4.141102 0,0 1.05859,-1.55218 2.89332,-2.257849 1.83475,-0.705669 2.40295,-1.883253 2.40295,-1.883253 z m 5.67601,0.171345 c -0.63504,-0.0062 -1.36635,0.0799 -2.08084,0.37099 -1.9053,0.776237 -2.75233,2.469843 -2.75233,2.469843 3.03437,-1.905309 6.68246,-2.564005 6.68246,-2.564005 0,0 -0.79089,-0.266514 -1.84929,-0.276828 z m -60.463796,0.2511 c -1.262807,0.129011 -1.830257,0.392087 -1.830257,0.392087 0.33819,1.914535 1.212836,3.374416 2.286663,4.45858 0.460734,0.199274 0.977707,0.349896 1.496313,0.349896 0,0 -2.046075,-1.481687 -2.822309,-4.16323 0,0 1.481758,-0.211774 3.598764,0.564463 0,0 -1.066974,-1.063452 -2.729174,-1.601796 z m 40.853246,0.327254 c -0.89053,-0.01404 -1.682,0.123656 -2.30004,0.407009 -1.86,0.852766 -2.55731,2.614432 -2.55731,2.614432 0,0 4.20056,-2.472711 5.7784,-2.956608 -0.3161,-0.03869 -0.6242,-0.06015 -0.92105,-0.06483 z m -35.795215,0.0041 c 0,0 -0.635546,4.587292 2.398832,5.998632 0,0 -0.37584,-1.011679 -0.916926,-3.316794 -0.541089,-2.305115 -0.635104,-2.117302 -1.481906,-2.681838 z m 29.736905,0.543366 c -4.04092,0.472576 -4.70917,4.53782 -4.70917,4.53782 0,0 0.63466,-1.270497 2.39883,-2.187866 1.76418,-0.917372 2.00947,-1.312845 2.31034,-2.349954 z m -20.874289,0.798068 c -0.263818,3.858099 1.886857,5.597796 1.886857,5.597796 -0.846801,-1.552473 -0.987937,-4.445717 -0.987937,-4.445717 1.552473,0.846805 3.17529,2.18787 3.17529,2.18787 -0.635101,-1.481906 -2.277914,-2.890746 -2.277914,-2.890746 -0.948069,-0.299389 -1.796296,-0.449203 -1.796296,-0.449203 z m 12.102741,0 c 0,0 -3.512026,1.222571 -3.300326,4.186384 0,0 2.860657,-3.151079 3.300326,-4.186384 z m -13.300099,0.948317 c -0.399187,0.149695 -0.867532,0.488309 -0.867532,0.488309 0,0 -1.223014,1.762043 -0.305644,4.020182 0.190105,-2.685977 1.313392,-2.397149 1.173176,-4.508491 z m 14.49746,0 c 0,0 -1.862967,3.355898 -0.592762,6.319708 0,0 0.409507,-4.594718 0.592762,-6.319708 z m -58.65155,0.387456 c 0,0 -0.579319,2.2466 0.182151,4.994229 0,0 -2.93736,-2.1009 -7.473331,-1.605914 1.047864,4.440947 3.842147,6.037737 3.842147,6.037737 0,0 -1.696841,-2.01197 -2.331942,-4.905211 0,0 4.022315,0.07078 6.42159,1.270426 l 1.693384,0.681775 c 0,0 -1.693237,-2.234322 -1.834372,-5.550968 2.082334,0.780876 2.991979,1.748954 4.487396,1.993883 C 44.323549,95.62136 42.6853,94.680451 40.634343,93.893058 Z M 37.18531,103.3191 c -2.844205,0.19959 -4.767823,1.4958 -4.767823,1.4958 2.433236,2.09641 5.682181,2.34943 5.682181,2.34943 -2.187577,-0.42338 -4.234237,-2.04636 -4.234237,-2.04636 2.258142,-1.34077 6.845064,-0.77645 6.845064,-0.77645 -1.411337,-0.91738 -3.525185,-1.02242 -3.525185,-1.02242 z m 106.25467,-9.426052 c -2.97549,1.142336 -5.08744,2.604615 -6.53942,4.682923 -0.43053,1.816809 -0.43428,3.362589 -0.43428,3.362589 0,0 0.49929,-2.594756 3.09399,-4.091705 2.59472,-1.496951 3.46839,-2.917496 3.87971,-3.953807 z m -50.698141,0.45126 c 0,0 -3.24615,3.316939 -0.917443,7.127552 0,0 -2.22e-4,-2.399568 0.705447,-4.163741 0.705669,-1.764171 0.211996,-2.963811 0.211996,-2.963811 z m -21.852443,1.57607 c -0.315478,0.364014 -0.525761,0.759524 -0.672519,1.124291 -0.226524,1.417853 0.06123,2.545481 0.06123,2.545481 0,0 0.352615,-1.905232 0.705451,-2.540333 0,0 1.199711,1.552252 1.411411,3.175293 0,0 0.48376,-1.656971 -0.242869,-3.26534 -0.684401,-0.78051 -1.262705,-1.039392 -1.262704,-1.039392 z m 42.295534,0 c 0,0 -2.06837,0.92022 -3.01475,4.579502 0.15348,1.02798 0.50822,2.22932 1.28072,3.36773 0,0 -0.59866,-2.09577 0.49911,-4.091706 0.77421,-1.407658 1.14626,-2.662857 1.3013,-3.772684 -0.0224,-0.02749 -0.0429,-0.0557 -0.0664,-0.08284 z M 62.369468,96.84349 c -0.113513,0.0016 -0.229488,0.0077 -0.347835,0.01802 0,0 -0.211479,3.17529 1.764394,5.64513 0,0 -1.011531,-2.634196 -0.705964,-4.30421 0,0 2.399201,0.35276 4.022242,2.54033 0,0 -1.213922,-3.951686 -4.732837,-3.899259 z m 86.738292,0.364818 c -2.17526,0.04259 -3.84964,0.644614 -4.84038,1.11606 -1.02265,1.141001 -1.4464,2.183242 -1.4464,2.183242 0,0 1.62282,-1.552698 4.16323,-1.764399 2.54041,-0.2117 3.74695,-1.461838 3.74695,-1.461838 -0.56699,-0.06187 -1.10899,-0.08314 -1.6234,-0.07306 z m -68.338995,0.193986 c 0,0 -0.724226,1.407004 -0.399806,3.434626 0.324418,2.02762 2.328855,2.54033 2.328855,2.54033 0,0 -1.811587,-2.35267 -1.929049,-5.974956 z m -23.619411,0.06895 c -0.812621,-0.0011 -1.766892,0.172446 -2.86656,0.637011 0,0 1.52917,2.563865 4.06958,3.198965 0,0 -1.834741,-1.62319 -2.469842,-2.822827 0,0 2.328267,-0.423477 4.868674,0.564462 0,0 -1.163984,-1.574308 -3.601852,-1.577611 z m 46.694936,0.307704 c 0,0 -4.092802,0.564238 -4.022237,5.221662 0,0 1.354957,-1.95596 2.681327,-3.245788 1.32636,-1.289832 1.34091,-1.975874 1.34091,-1.975874 z m 23.85817,0.08078 c -3.39908,-0.02719 -4.87589,1.965584 -4.87589,1.965584 0,0 2.04675,-0.987937 4.16375,-0.987937 2.11701,0 2.80121,-0.729119 2.80121,-0.729119 -0.76414,-0.169042 -1.45961,-0.243491 -2.08907,-0.248528 z M 76.472267,98.062977 C 75.474301,98.013087 74.77065,98.4139 74.77065,98.4139 c -0.07057,1.340773 0.776455,3.2463 0.776455,3.2463 1.599517,1.12908 2.704993,0.84644 2.704993,0.84644 0,0 -1.834739,-1.12908 -2.469843,-3.457784 0,0 1.905014,-0.140766 3.245784,0.141502 0,0 -0.666288,-0.772646 -2.555772,-1.127381 z m -0.925162,3.597223 c -0.423401,-0.56454 -0.704934,-0.73632 -0.704934,-0.73632 0,0 -2.753211,1.74756 -0.918473,5.55818 0,0 0.07072,-2.82282 0.846952,-4.30473 0,0 0.940819,1.05879 1.128922,2.18786 0,0 0.411662,-1.27584 -0.352467,-2.70499 z m 45.916945,-3.525702 c -4.01853,-0.02034 -4.92374,3.038942 -4.92374,3.038942 0,0 1.64346,-1.533824 3.29313,-1.796301 1.64966,-0.262478 2.02938,-1.230806 2.02938,-1.230804 -0.13618,-0.0073 -0.26914,-0.01117 -0.39877,-0.01183 z M 109.30368,98.4139 c 0,0 -3.27204,1.45e-4 -4.25997,3.3168 0,0 3.36832,-2.258298 4.25997,-3.3168 z m -60.412345,0.948317 c 0,0 -0.391987,0.664743 -0.548513,1.334233 l 0.130183,1.17523 c 0,0 -2.63e-4,3.31649 2.751816,3.59877 0,0 -1.975653,-2.04637 -1.693387,-5.01018 0,0 1.905087,0.2822 3.66926,2.04637 0,0 -0.210051,-0.61131 -0.587103,-1.40473 -0.986909,-0.83489 -2.207617,-1.437893 -3.722256,-1.739693 z m 86.291655,0 c -2.63918,0.525869 -4.39205,1.958873 -5.55097,3.962043 -0.2809,1.47219 -0.2511,2.70602 -0.2511,2.70602 0.1996,-0.0998 0.39922,-2.0961 2.09576,-3.39346 1.69654,-1.29736 3.02161,-2.15831 3.70631,-3.274603 z m -38.065929,0.698253 c 0,0 -3.458072,0.63488 -3.175804,4.16322 0,0 2.046879,-2.89302 3.175804,-4.16322 z m -10.067694,0.0237 c 0,0 -1.177973,0.0268 -1.670229,1.81122 -0.497665,1.80404 0,3.38729 0,3.38729 0,0 0.517634,-3.19911 1.670229,-5.19851 z m 1.451548,0.36894 c -0.07363,-2e-4 -0.14981,0.002 -0.228461,0.007 0,0 1.105623,1.10569 2.423017,2.49351 0,0 0.08809,-2.49457 -2.194556,-2.50072 z m 9.27477,1.7011 c 0,0 -2.352667,3.22204 -0.04734,5.95078 0,0 -0.234929,-3.62207 0.04734,-5.95078 z m -55.77727,0.0299 c -0.363211,0.009 -0.582469,0.0406 -0.582469,0.0406 0,0 0.07027,1.29402 0.564459,2.2347 0.494193,0.94067 1.764395,1.85782 2.258363,2.06952 0,0 -1.128851,-1.55233 -1.693384,-3.59877 0,0 1.15259,-0.11717 3.787091,0.54131 -1.337832,-1.02901 -2.924203,-1.25874 -3.925505,-1.28638 -0.150198,-0.004 -0.287484,-0.004 -0.408555,-0.001 z M 108.95584,102.87 c 0,0 -2.19562,1.69629 -2.29541,4.88977 -0.0998,3.1935 1.69647,4.99012 1.69647,4.99012 0,0 -1.49679,-5.08965 0.59894,-9.87989 z m -42.135511,0.17803 c 0,0 -0.329457,3.15193 1.975874,5.36317 0,0 -0.705887,-1.55278 -0.776455,-3.66978 0,0 1.693458,0.21193 4.092733,2.25836 0,0 -1.552105,-3.88118 -5.292152,-3.95175 z m 11.594881,0.49809 c -0.394595,0.008 -0.82453,0.0426 -1.292035,0.1132 0,0 0.635102,4.51658 5.927622,4.65771 0,0 -3.105239,-0.8471 -4.657712,-3.66977 0,0 1.834886,-0.35246 3.81076,0.1415 0,0 -1.026464,-1.29667 -3.788635,-1.24264 z m 59.99813,0.25367 c -3.03278,0.0721 -4.27231,2.35304 -4.27231,2.35304 0,0 1.34091,-1.05835 3.31679,-1.12892 1.97587,-0.0706 2.76776,-1.02293 2.76776,-1.02293 -0.54491,-0.12784 -1.04891,-0.19011 -1.51329,-0.20119 -0.10158,-0.002 -0.20112,-0.002 -0.29895,0 z m 7.80573,0.0808 c -3.10551,-0.006 -4.52753,1.70779 -4.52753,1.70779 0,0 1.83503,-0.988 4.65771,-0.42347 2.82269,0.56453 4.30421,-0.28249 4.30421,-0.28249 -1.74653,-0.73434 -3.21919,-0.9996 -4.43439,-1.00183 z m -29.57893,0.087 c -4.75395,0.002 -5.08942,4.29135 -5.08942,4.29135 0,0 0.79802,-1.59678 2.59436,-2.09577 1.79634,-0.49898 2.49506,-2.19558 2.49506,-2.19558 z m -54.330873,0.0319 c -1.724358,0.19308 -2.559889,0.79189 -2.559889,0.79189 0.192049,0.58264 0.470906,1.09164 0.808872,1.53954 0.97388,0.58506 2.176981,1.07663 3.015782,1.18604 0,0 -1.905088,-0.98772 -2.681324,-2.18736 0,0 2.117083,-0.49374 4.375225,-0.21148 0,0 -1.083132,-0.8475 -2.958666,-1.11863 z m -6.358301,0.33291 c 0,0 -0.292174,0.76459 -0.448687,1.43406 0,0 -0.74904,3.32679 1.579669,4.10302 0,0 -1.411193,-2.18787 -0.634956,-4.65771 0,0 0.964266,0.4467 2.281518,1.81122 0,0 -0.143433,-0.58349 -0.441484,-1.33526 -0.691361,-0.54956 -1.453585,-0.97698 -2.33606,-1.35533 z m 72.172394,0 c -2.03011,0.87038 -3.42912,1.99577 -4.77349,4.29804 -0.38048,1.61177 0.0432,2.68905 0.0432,2.68905 0,0 0.29938,-2.79433 1.89612,-3.99189 1.59676,-1.19757 2.27517,-1.49968 2.83415,-2.9952 z m -22.41176,0.0195 c -2.69676,0.0453 -3.91367,2.24807 -3.91367,2.24807 0,0 1.12907,-0.77624 2.46984,-0.98793 1.34077,-0.2117 2.11716,-0.84709 2.32886,-1.19994 -0.31094,-0.0463 -0.60606,-0.0649 -0.88503,-0.0602 z m 16.43011,0.0484 c -2.33483,0.0187 -3.68984,1.49374 -3.68984,1.49374 0,0 1.97572,-0.84658 3.59876,-0.70545 1.62304,0.14113 2.27432,-0.39723 2.27432,-0.39723 -0.7991,-0.28753 -1.52949,-0.39629 -2.18324,-0.39106 z m -29.941179,1.51741 c 0,0 -0.281899,0.91737 -0.352467,2.46984 -0.07057,1.55247 0.140767,10.30247 0.352467,11.64325 0,0 0.282268,-1.69324 0.493968,-3.81025 0.211701,-2.11701 0.141502,-8.045 0.141502,-9.03293 0,-0.98794 -0.63547,-1.26991 -0.63547,-1.26991 z m -43.812428,0.16209 c -0.498304,0.002 -1.035642,0.0723 -1.608998,0.23772 0,0 0.423622,3.03453 3.246297,4.30473 0,0 -1.16428,-1.77872 -1.693898,-3.2463 0,0 1.482053,-0.28198 4.304728,0.70596 0,0 -1.557278,-2.00996 -4.248129,-2.00211 z m 84.780937,2.29386 c -3.80154,-0.0127 -5.30862,3.00138 -5.30862,3.00138 0,0 1.97588,-1.4822 3.95175,-1.6939 1.97588,-0.2117 2.61135,-1.19942 2.61135,-1.19942 -0.44325,-0.0728 -0.86122,-0.10674 -1.25448,-0.10806 z m -89.959373,0.25213 c -2.276941,0.0289 -3.622949,1.24521 -3.622949,1.24521 0.2889,0.48516 0.600974,0.9185 0.930821,1.31365 1.034673,0.79737 2.450803,0.84901 2.450803,0.84901 -0.917369,-0.42341 -2.257847,-1.76439 -2.257847,-1.76439 1.834741,-1.05854 5.574641,-0.98794 5.574641,-0.98794 -1.151123,-0.49617 -2.184492,-0.66684 -3.075469,-0.65554 z m 18.903557,0.23207 c 0,0 -0.404591,0.63462 -0.568064,1.33165 0,0 -0.780502,2.97433 1.047624,4.87897 0,0 -0.641832,-2.89397 -0.0067,-4.72872 0,0 1.340918,0.56476 2.328855,2.25836 0,0 -0.804829,-2.82296 -2.801726,-3.74026 z m 59.847876,0 c -1.15766,0.30808 -2.19509,1.14165 -2.9705,2.08187 -2.19739,2.66638 -2.18426,6.36756 -2.18426,6.36756 0,0 0.90339,-2.7745 3.09399,-5.18924 1.93036,-2.12788 2.06077,-3.26019 2.06077,-3.26019 z m -22.915502,0.0236 c 0,0 -0.705376,1.55262 -1.269913,4.30473 -0.564536,2.75211 -1.058428,8.89136 -1.058428,9.94986 0,0 0.564536,-2.32892 0.987937,-4.23423 0.423404,-1.90531 1.269981,-6.49194 1.693385,-8.11498 0.4234,-1.62303 -0.352981,-1.90538 -0.352981,-1.90538 z m -33.001724,0.0705 c -0.469143,0.14981 -0.989607,0.27393 -1.267852,0.51918 0.05561,0.75897 0.307701,1.46853 0.307701,1.46853 0,0 1.313058,1.63458 3.359499,1.77571 0,0 -1.905527,-0.98786 -2.752331,-2.54034 0,0 2.61127,-0.35268 4.163743,0.35299 0,0 -1.083282,-1.39164 -3.81076,-1.57607 z m 18.629813,0.13687 c -0.07773,7.9e-4 -0.155762,0.004 -0.23515,0.004 0,0 1.19949,3.03474 2.116862,6.06912 0.917369,3.03438 1.90538,7.6915 1.90538,7.6915 0,0 0.282418,-1.27006 -0.140985,-3.59877 -0.423401,-2.32871 -1.129146,-5.29259 -1.905383,-7.833 -0.679205,-2.22286 -1.196586,-2.33876 -1.740724,-2.33297 z m 54.676653,0.0695 c -2.64071,-0.0182 -3.51593,1.44023 -3.51593,1.44023 0,0 1.12907,-0.70552 3.95175,-0.14099 2.82268,0.56453 3.52879,-0.42347 3.52879,-0.42347 -1.62745,-0.63511 -2.9313,-0.86863 -3.96461,-0.87577 z m -21.20051,0.18627 c -2.5319,0.0116 -4.00269,1.98308 -4.00269,1.98308 0,0 1.48191,-0.77631 2.96381,-0.91745 1.4819,-0.14113 2.18787,-0.93905 2.18787,-0.93905 -0.40382,-0.0898 -0.78729,-0.12824 -1.14899,-0.12658 z m -63.322641,1.00749 c -0.514004,0.002 -1.040008,0.11398 -1.556001,0.38746 -0.0715,0.98731 0.610769,3.85312 3.105313,4.77503 0,0 -1.834742,-1.76382 -1.975874,-3.81025 0,0 2.469621,-0.49419 4.657195,0.70545 0,0 -2.003286,-2.06546 -4.230633,-2.05769 z m 25.377114,1.63421 c 0,0 1.058649,2.89339 1.834886,4.7987 0.776237,1.90531 1.693387,5.36316 1.693387,5.36316 0,0 0.07049,-1.12936 -0.423477,-3.17581 -0.493969,-2.04644 -1.693456,-6.28038 -3.104796,-6.98605 z m 46.161347,0.79653 c -4.26156,-0.0616 -5.42078,3.53187 -5.42078,3.53187 0,0 1.62311,-1.9056 3.88125,-2.18787 2.25814,-0.28226 2.96381,-1.19942 2.96381,-1.19942 -0.50941,-0.0926 -0.98342,-0.13821 -1.42428,-0.14458 z m -75.957935,1.00286 c -2.447791,-0.0364 -3.652281,1.14075 -3.652281,1.14075 0.358945,0.60371 0.749643,1.13728 1.169058,1.60797 L 47.55556,115.091 c 0,0 2.046151,-0.98764 5.715628,-0.77594 -1.093788,-0.37048 -2.047545,-0.51734 -2.863473,-0.52947 z m 24.433429,0.17649 c 0,0 -0.423182,0.91766 0.776455,2.68183 1.199637,1.76417 3.175216,6.63322 3.739752,7.97399 0,0 0.212146,-1.55269 -0.422958,-3.2463 -0.635101,-1.6936 -1.55247,-4.37522 -2.469842,-5.85712 -0.917369,-1.48191 -1.623407,-1.5524 -1.623407,-1.5524 z m 57.689336,0.072 c -2.65893,0.0729 -3.75261,1.78652 -3.75261,1.78652 0,0 1.76402,-1.05851 4.09273,-0.49397 2.32871,0.56454 3.52879,-0.42347 3.52879,-0.42347 -1.54806,-0.67479 -2.82845,-0.89761 -3.86891,-0.86908 z m -23.60551,0.42193 c 0,0 -1.83482,2.75233 -2.89332,5.22218 -1.05851,2.46984 -2.04637,5.92762 -2.04637,5.92762 0,0 2.39928,-5.50415 3.45778,-7.48002 1.05851,-1.97587 1.62319,-2.39928 1.83489,-2.96381 0.2117,-0.56454 -0.35298,-0.70597 -0.35298,-0.70597 z m -48.700147,0.14305 c -0.52084,0.007 -1.057166,0.10992 -1.590476,0.32725 0,0 0.06233,2.10679 1.481906,3.45778 0,0 -0.493969,-2.04614 -0.493969,-2.75181 0,0 2.493585,-0.21178 4.398891,1.05843 -0.807964,-1.25985 -2.233831,-2.11143 -3.796352,-2.09165 z m -2.383913,4.049 c -2.294996,0.0568 -3.622949,1.54931 -3.622949,1.54931 0,0 1.17016,1.03337 2.581498,1.3862 l -1.410895,-1.41142 c 0,0 2.203818,-1.22639 6.147333,-0.43685 -1.408766,-0.84214 -2.651807,-1.11307 -3.694987,-1.08724 z m 12.393977,0.22228 c 0,0 1.546616,4.04218 3.043567,5.48923 0,0 -1.097532,-3.1939 -3.043567,-5.48923 z m 53.963993,0.2794 c -1.89941,0.0123 -2.68955,1.04557 -2.68955,1.04557 0,0 1.48228,-0.35255 3.59928,0.21199 2.11701,0.56454 3.0343,-0.14098 3.0343,-0.14098 -1.6495,-0.84902 -2.9491,-1.12304 -3.94403,-1.11658 z m -8.35835,1.1634 c 0,0 -2.61083,2.89302 -3.1048,5.15117 0,0 1.34091,-1.76374 2.32885,-2.8928 0.98794,-1.12908 0.98765,-1.41156 0.77595,-2.25837 z m -50.125968,1.95221 c 0,0 1.834667,2.89331 2.540336,3.88125 0,0 -0.05888,-0.83497 -0.588133,-1.96404 -0.529253,-1.12907 -1.952203,-1.91721 -1.952203,-1.91721 z m 6.526559,13.46887 c 2.89785,8.39252 4.214167,17.99537 4.214167,25.58293 1.230827,-1.79635 0.764979,-5.88769 0.1662,-10.57813 -0.598782,-4.69044 -1.69614,-9.38098 -2.39472,-12.17529 -0.698568,-2.7943 -1.985647,-2.82951 -1.985647,-2.82951 z m 4.693727,0.87988 c 0,0 0.987863,4.93946 1.5524,7.62101 0.564536,2.68154 1.270426,5.78663 1.270426,5.78663 0,0 0.423253,-0.28211 0.140985,-3.1048 -0.282268,-2.82267 -0.988011,-6.13938 -1.411411,-7.833 -0.423401,-1.6936 -1.5524,-2.46984 -1.5524,-2.46984 z m 5.857128,1.19942 c 0,0 0.63503,4.86918 1.058431,6.84506 0.4234,1.97587 0.775941,2.54034 0.775941,2.54034 0,0 0.282268,-0.70553 0,-3.59877 -0.282268,-2.89324 -0.564241,-4.02231 -0.775941,-4.93968 -0.211701,-0.91738 -1.058431,-0.84695 -1.058431,-0.84695 z m 4.304214,1.27042 c 0,0 -0.14069,1.76403 0.07101,3.1048 0.2117,1.34077 0.493968,3.10531 0.987937,4.09325 0.07057,-0.14113 0.564093,-1.41134 0.422958,-2.96381 -0.141133,-1.55248 -0.564534,-3.66971 -1.481905,-4.23424 z m 3.740269,3.03431 c 0,0 -2.19e-4,1.76402 0.211479,4.5867 0.211703,2.82267 0.564979,4.93968 0.564979,4.93968 0,0 0.281973,-1.55225 0.281973,-5.15116 0,-3.59891 -1.058431,-4.37522 -1.058431,-4.37522 z m 4.480705,0.47081 c 0,0 -0.698733,4.39099 -0.598935,7.58447 0,0 1.197717,-5.18934 0.598935,-7.58447 z m 7.883946,1.69647 c 0,0 -0.89843,4.59036 -0.99823,6.78589 0,0 1.49721,-3.6922 0.99823,-6.78589 z m -14.904987,17.49729 c 0,0 -4.092807,0.14114 -6.986053,1.48191 0,0 1.552474,-0.21148 2.469843,-0.21148 0,0 -1.905601,1.69361 -4.163741,1.97587 -2.258144,0.28227 -4.233723,1.12893 -4.233723,1.12893 0,0 -0.352907,-1.6229 2.046368,-2.11687 2.399274,-0.49396 3.951892,-1.41123 4.798699,-2.04636 0,0 -2.046881,0.0704 -4.516726,1.12892 0,0 0.705742,-0.91722 1.411414,-1.12892 0,0 -3.31672,0.70538 -4.375225,2.25785 -1.058502,1.55247 -0.2117,2.5404 0.987937,2.46984 1.19964,-0.0706 1.764173,-0.84666 4.445716,-1.12893 2.681543,-0.28226 5.786781,-3.17565 8.115491,-3.81076 z m 4.646391,0.5871 c -1.241813,-0.0138 -2.476458,0.42767 -4.152423,1.53028 -2.681542,1.76417 -5.15168,2.32834 -5.15168,2.32834 1.623041,0.42341 3.669849,-0.0703 6.069123,-1.76388 2.399277,-1.6936 4.586704,-1.12944 4.586704,-1.12944 0,0 -3.387138,0.77631 -5.504147,2.39935 -2.117006,1.62305 -5.998115,1.90538 -5.998115,1.90538 2.963811,0.0706 8.891066,-1.55255 10.231836,-2.89332 1.340772,-1.34077 5.081186,-1.97587 5.081186,-1.97587 -1.623038,-0.49394 -2.822823,0.0705 -2.822823,0.0705 -0.846804,-0.29108 -1.594572,-0.46306 -2.339661,-0.47133 z m 12.665146,0.26037 c -0.76121,-5.3e-4 -1.62789,0.13187 -2.63347,0.42296 -2.68154,0.77624 -4.939683,1.90538 -4.939683,1.90538 0,0 2.893163,7e-5 5.010173,-1.05843 2.11701,-1.05851 3.81039,-2.2e-4 5.64514,-0.28249 -0.83799,-0.61746 -1.81347,-0.98673 -3.08216,-0.98742 z m -3.40993,2.18684 c 0,0 -2.11693,0.14142 -4.516207,1.19993 -2.399274,1.05849 -6.77457,0.98793 -6.77457,0.98793 0,0 1.552691,1.12897 4.728203,0.0705 3.175511,-1.0585 4.939544,-0.91759 6.562574,-2.25836 z m -25.566982,2.28769 c -1.091836,0 -1.883769,0.60563 -1.883769,0.60563 0,0 0.846952,-0.2819 2.822826,0.1415 1.975873,0.42339 2.25836,-0.70597 2.25836,-0.70597 0,0 -0.917443,0.4939 -2.399348,0.0705 -0.277858,-0.0794 -0.546105,-0.11166 -0.798069,-0.11166 z m -0.973529,2.79504 c -2.838827,7.76227 -6.719006,14.25503 -11.645305,20.99674 1.660367,-0.0275 3.014096,-1.77253 6.181295,-6.91041 3.179782,-5.1583 4.198821,-7.89915 5.031273,-10.72632 0.821824,-2.79107 0.432737,-3.36001 0.432737,-3.36001 z m 5.275686,2.70396 c -1.216148,3.88091 -2.763125,9.29362 -4.135957,13.71328 -1.372829,4.41968 -2.073637,8.0203 -2.073637,8.0203 0,0 1.698387,-3.24367 3.077526,-7.67966 1.379141,-4.436 2.936876,-9.8902 3.132068,-14.05392 z m 5.787664,4.23372 c -0.597046,4.82335 -1.194118,9.84298 -1.773655,13.65463 -0.579537,3.81163 -0.626207,6.52707 -0.626207,6.52707 0,0 1.083076,-2.50592 1.668172,-6.35058 0.585096,-3.84467 1.187603,-8.91625 0.73169,-13.83112 z m 6.632555,3.81076 c 0,0 -0.349353,3.06759 -0.155393,6.57853 0.193959,3.51094 0.405183,7.49536 1.002345,9.36945 0.456026,-1.93654 0.244141,-5.92646 0.04991,-9.43686 -0.194228,-3.51039 -0.896862,-6.51112 -0.896862,-6.51112 z m -10.725288,0.84592 c -1.010467,2.99888 -1.783887,6.51405 -2.434853,9.25882 -0.650967,2.74477 -0.670976,4.8553 -0.670976,4.8553 0,0 1.039479,-1.84182 1.694418,-4.60162 0.654933,-2.7598 1.433939,-6.30148 1.411411,-9.5125 z m -8.129899,1.11606 c -3.039215,5.26221 -4.617575,8.41307 -4.961295,9.81042 1.352823,-0.99778 2.867061,-4.08366 4.204907,-6.90938 1.337843,-2.82574 0.756388,-2.90104 0.756388,-2.90104 z m 15.468418,1.14282 c -0.527029,2.30742 -0.667879,5.54431 -0.808875,8.20451 -0.140993,2.66019 0.243896,4.77965 0.243896,4.77965 0,0 0.667909,-2.0442 0.809389,-4.71173 0.141481,-2.66755 0.282619,-5.92243 -0.24441,-8.27243 z m 7.338517,2.11583 c -0.45174,1.36683 -0.06104,3.92675 0.310275,6.19004 0.371322,2.26329 1.24161,4.11435 1.24161,4.11435 0,0 0.166379,-2.03218 -0.203246,-4.28518 -0.369633,-2.25299 -0.755761,-4.84562 -1.348639,-6.01921 z m 4.092738,0.001 c 0,0 -0.2706,1.37773 0.21045,3.16089 0.48105,1.78316 1.19645,4.0719 2.61237,5.87153 -0.41882,-2.1521 -1.11417,-4.37958 -1.58584,-6.12469 -0.47167,-1.74512 -1.23698,-2.90773 -1.23698,-2.90773 z" />
    <path
       id="path1105"
       style="color:#000000;font-style:normal;font-variant:normal;font-weight:normal;font-stretch:normal;font-size:medium;line-height:normal;font-family:sans-serif;font-variant-ligatures:normal;font-variant-position:normal;font-variant-caps:normal;font-variant-numeric:normal;font-variant-alternates:normal;font-variant-east-asian:normal;font-feature-settings:normal;font-variation-settings:normal;text-indent:0;text-align:start;text-decoration:none;text-decoration-line:none;text-decoration-style:solid;text-decoration-color:#000000;letter-spacing:normal;word-spacing:normal;text-transform:none;writing-mode:lr-tb;direction:ltr;text-orientation:mixed;dominant-baseline:auto;baseline-shift:baseline;text-anchor:start;white-space:normal;shape-padding:0;shape-margin:0;inline-size:0;clip-rule:nonzero;display:inline;overflow:visible;visibility:visible;isolation:auto;mix-blend-mode:normal;color-interpolation:sRGB;color-interpolation-filters:linearRGB;solid-color:#000000;solid-opacity:1;vector-effect:none;fill:#800000;fill-opacity:1;fill-rule:nonzero;stroke:none;stroke-width:0.999997;stroke-linecap:butt;stroke-linejoin:miter;stroke-miterlimit:4;stroke-dasharray:none;stroke-dashoffset:0;stroke-opacity:1;color-rendering:auto;image-rendering:auto;shape-rendering:auto;text-rendering:auto;enable-background:accumulate;stop-color:#000000"
       d="m 132.8973,123.3005 c -2.5227,0 -3.51387,3.62311 -3.51386,7.44246 0,2.32197 0.75616,4.37499 1.91566,5.62919 l -12.61318,32.15065 c 0,1.51003 2.12852,11.37447 15.26467,11.37447 13.13613,1e-5 15.26465,-9.86444 15.26465,-11.37447 L 136.4937,136.3762 c 1.03393,-1.26757 1.78042,-2.97058 1.78042,-5.49211 1e-5,-4.14702 -1.25739,-7.58359 -5.37682,-7.58359 z m -0.92156,20.71323 0.25058,24.50907 h -9.88091 z m 3.95175,0.004 9.62981,24.50495 h -9.8804 z"
       sodipodi:nodetypes="ssccsccsscccccccc" />
    <path
       style="font-variation-settings:normal;vector-effect:none;fill:#cccccc;fill-opacity:1;stroke:none;stroke-width:0.264583;stroke-linecap:butt;stroke-linejoin:miter;stroke-miterlimit:4;stroke-dasharray:none;stroke-dashoffset:0;stroke-opacity:1;stop-color:#000000"
       d="m 132.82488,126.7818 c 0,0 6.23454,0.50229 8.42562,-2.45566 2.19108,-2.95796 0.49898,-5.68842 -1.19756,-5.78821 0.63963,-1.10914 5.52036,-1.0337 6.38699,3.65921 0.82726,4.47977 -2.19553,6.78618 -2.99391,7.18536 0.99556,0.49397 2.1255,3.89993 0.62802,6.69849 -1.47619,2.75877 -3.58559,3.76304 -5.81744,3.28118 0,0 2.40722,-1.45561 1.40926,-4.05033 -0.99797,-2.59471 -4.20357,-2.73585 -6.89808,-2.73585 h -3.329 c -1.55247,0 -10.84213,0.56552 -17.32891,1.1643 -6.4868,0.59878 -11.87582,1.29735 -14.869717,2.8941 -2.993901,1.59675 -5.202951,4.69045 -5.202951,4.69045 0,0 -2.209048,-3.0937 -5.20295,-4.69045 -2.993902,-1.59675 -8.382924,-2.29532 -14.869708,-2.8941 -6.486786,-0.59878 -15.776442,-1.1643 -17.328915,-1.1643 h -3.329002 c -2.694511,0 -5.900114,0.14114 -6.89808,2.73585 -0.997967,2.59472 1.409262,4.05033 1.409262,4.05033 -2.231851,0.48186 -4.341254,-0.52241 -5.81744,-3.28118 -1.497478,-2.79856 -0.367541,-6.20452 0.628011,-6.69849 -0.798374,-0.39918 -3.821165,-2.70559 -2.993902,-7.18536 0.866623,-4.69291 5.74736,-4.76835 6.386989,-3.65921 -1.696543,0.0998 -3.388643,2.83025 -1.19756,5.78821 2.191083,2.95795 8.425618,2.45566 8.425618,2.45566 0,0 19.852824,-0.9503 40.787677,-0.9503 20.934858,0 40.787678,0.9503 40.787678,0.9503 z"
       id="path926"
       sodipodi:nodetypes="czcscscscsszczsscscscsczczc" />
    <path
       id="path1059"
       style="font-variation-settings:normal;vector-effect:none;fill:#ffffff;fill-opacity:1;stroke:none;stroke-width:0.264583;stroke-linecap:butt;stroke-linejoin:miter;stroke-miterlimit:4;stroke-dasharray:none;stroke-dashoffset:0;stroke-opacity:1;stop-color:#000000"
       d="m 42.431152,117.94984 c -1.70785,-0.023 -4.200837,1.02073 -4.796639,4.2471 -0.452847,2.45224 0.249213,4.249 1.107314,5.4424 1.235798,0.65865 2.133324,0.74198 2.133324,0.74198 -2.117006,-1.76417 -3.034228,-5.22174 -1.62289,-7.621 0.95598,-1.62517 2.557041,-1.72841 3.492252,-1.62598 0.377499,-0.35317 0.826131,-0.56984 1.277115,-0.59637 -0.199885,-0.3466 -0.814179,-0.57765 -1.590476,-0.58813 z m 98.901228,0.018 c -0.62609,0.0598 -1.10745,0.27146 -1.27968,0.57012 1.69654,0.0998 3.38895,2.83023 1.19787,5.78818 -2.19108,2.95796 -8.42576,2.45544 -8.42576,2.45544 0,0 -19.85254,-0.94986 -40.787391,-0.94986 -20.934852,0 -40.7879,0.94986 -40.7879,0.94986 0,0 -6.234683,0.50252 -8.425763,-2.45544 0,0 0.30939,3.20822 5.107942,3.20822 4.798549,0 35.778822,-0.63495 44.105721,-0.63495 8.326901,0 38.239441,0.63495 44.404681,0.63495 3.34239,0 6.41162,-2.10774 6.76891,-4.97261 0.28976,-2.32337 -0.56918,-3.91085 -1.87863,-4.59391 z m -99.662248,11.22491 c -0.625098,-0.0161 -1.041965,0.18987 -1.041965,0.18987 -0.995553,0.49396 -2.125229,3.89986 -0.627751,6.69842 0.467057,0.87286 0.997898,1.56876 1.575554,2.09885 1.229829,0.58417 2.192498,0.64524 2.192498,0.64524 -2.399274,-1.62304 -3.387432,-4.65711 -3.246297,-6.70356 0.141133,-2.04643 1.834886,-2.82282 1.834886,-2.82282 -0.246984,-0.0706 -0.478559,-0.10063 -0.686925,-0.106 z m 95.874128,4.0243 c 0.94786,0.39957 1.7173,1.04382 2.12149,2.09473 0.99797,2.59472 -1.40935,4.05054 -1.40935,4.05054 0.31004,0.0669 0.61762,0.10177 0.92156,0.11063 0.75643,-0.46666 1.83298,-1.4302 1.87862,-3.16448 0.0537,-2.03967 -1.85144,-2.93437 -3.51232,-3.09142 z m -56.283586,1.46955 c -0.394295,-0.006 -0.805419,1.7e-4 -1.225145,0.0134 2.833361,0.46535 5.1718,1.06648 6.798755,1.93419 2.993902,1.59675 5.203135,4.69064 5.203135,4.69064 0,0 0.284921,-0.3932 0.768225,-0.95758 -1.331212,-2.30196 -4.349481,-5.564 -11.54497,-5.68063 z" />
    <g
       id="g1022"
       transform="matrix(0.99571594,0,0,0.99571594,81.830363,0.27883881)"
       style="stroke-width:1.0043">
      <path
         id="path1010"
         style="color:#000000;font-style:normal;font-variant:normal;font-weight:normal;font-stretch:normal;font-size:medium;line-height:normal;font-family:sans-serif;font-variant-ligatures:normal;font-variant-position:normal;font-variant-caps:normal;font-variant-numeric:normal;font-variant-alternates:normal;font-variant-east-asian:normal;font-feature-settings:normal;font-variation-settings:normal;text-indent:0;text-align:start;text-decoration:none;text-decoration-line:none;text-decoration-style:solid;text-decoration-color:#000000;letter-spacing:normal;word-spacing:normal;text-transform:none;writing-mode:lr-tb;direction:ltr;text-orientation:mixed;dominant-baseline:auto;baseline-shift:baseline;text-anchor:start;white-space:normal;shape-padding:0;shape-margin:0;inline-size:0;clip-rule:nonzero;display:inline;overflow:visible;visibility:visible;isolation:auto;mix-blend-mode:normal;color-interpolation:sRGB;color-interpolation-filters:linearRGB;solid-color:#000000;solid-opacity:1;vector-effect:none;fill:#cccccc;fill-opacity:1;fill-rule:nonzero;stroke:none;stroke-width:1.0043;stroke-linecap:butt;stroke-linejoin:miter;stroke-miterlimit:4;stroke-dasharray:none;stroke-dashoffset:0;stroke-opacity:1;color-rendering:auto;image-rendering:auto;shape-rendering:auto;text-rendering:auto;enable-background:accumulate;stop-color:#000000"
         d="m 49.449177,134.04505 -13.493234,34.39396 2.879929,2.02397 10.467062,-26.63869 0.264583,25.88679 h 3.439584 l 0.264583,-25.88265 10.466543,26.63455 2.878379,-2.02397 -13.49375,-34.39396 z"
         sodipodi:nodetypes="ccccccccccc" />
      <path
         id="path1012"
         style="color:#000000;font-style:normal;font-variant:normal;font-weight:normal;font-stretch:normal;font-size:medium;line-height:normal;font-family:sans-serif;font-variant-ligatures:normal;font-variant-position:normal;font-variant-caps:normal;font-variant-numeric:normal;font-variant-alternates:normal;font-variant-east-asian:normal;font-feature-settings:normal;font-variation-settings:normal;text-indent:0;text-align:start;text-decoration:none;text-decoration-line:none;text-decoration-style:solid;text-decoration-color:#000000;letter-spacing:normal;word-spacing:normal;text-transform:none;writing-mode:lr-tb;direction:ltr;text-orientation:mixed;dominant-baseline:auto;baseline-shift:baseline;text-anchor:start;white-space:normal;shape-padding:0;shape-margin:0;inline-size:0;clip-rule:nonzero;display:inline;overflow:visible;visibility:visible;isolation:auto;mix-blend-mode:normal;color-interpolation:sRGB;color-interpolation-filters:linearRGB;solid-color:#000000;solid-opacity:1;vector-effect:none;fill:#ffffff;fill-opacity:1;fill-rule:nonzero;stroke:none;stroke-width:0.265721;stroke-linecap:butt;stroke-linejoin:miter;stroke-miterlimit:4;stroke-dasharray:none;stroke-dashoffset:0;stroke-opacity:1;color-rendering:auto;image-rendering:auto;shape-rendering:auto;text-rendering:auto;enable-background:accumulate;stop-color:#000000"
         d="m 49.449177,134.04505 -13.493234,34.39376 h 1.058334 l 13.34699,-34.02066 z m -0.146243,9.77924 0.264583,25.88679 h 1.058334 L 50.361267,141.4851 Z m 3.96875,0.004 10.466543,26.63455 0.829408,-0.58291 -10.237618,-26.05164 -1.058333,-2.40543 z"
         sodipodi:nodetypes="cccccccccccccccc" />
      <path
         style="font-variation-settings:normal;opacity:1;vector-effect:none;fill:#cccccc;fill-opacity:1;stroke:none;stroke-width:0.265721;stroke-linecap:butt;stroke-linejoin:miter;stroke-miterlimit:4;stroke-dasharray:none;stroke-dashoffset:0;stroke-opacity:1;stop-color:#000000;stop-opacity:1"
         d="m 66.616606,168.43901 c 0,1.51653 -2.666845,10.72171 -15.330332,10.7217 -12.663486,0 -15.330331,-9.20518 -15.330331,-10.72171 z"
         id="path1014"
         sodipodi:nodetypes="czcc" />
      <path
         id="path1016"
         style="fill:#cccccc;fill-opacity:1;stroke:none;stroke-width:0.265722;stroke-miterlimit:4;stroke-dasharray:none;stroke-dashoffset:0"
         d="m 55.874033,130.49628 c -10e-7,3.83579 -2.053843,6.94531 -4.587385,6.94531 -2.533543,0 -4.587385,-3.10952 -4.587386,-6.94531 -3e-6,-3.83579 2.053841,-6.94532 4.587386,-6.94532 2.533545,0 4.587388,3.10953 4.587385,6.94532 z"
         sodipodi:nodetypes="sssss" />
      <path
         id="path1018"
         style="fill:#ffffff;fill-opacity:1;stroke:none;stroke-width:0.265721;stroke-miterlimit:4;stroke-dasharray:none;stroke-dashoffset:0"
         d="m 51.28679,123.55111 c -2.533544,0 -4.587319,3.10953 -4.587316,6.94531 2e-6,3.8358 2.053775,6.94532 4.587316,6.94532 0.764577,0 1.484797,-0.2846 2.118736,-0.78548 -0.384609,0.17288 -0.793321,0.26613 -1.21698,0.26613 -2.272771,0 -4.114993,-2.67921 -4.114996,-5.98413 -2e-6,-3.30493 1.842222,-5.98413 4.114996,-5.98413 1.180944,0 2.242624,0.72756 2.993099,1.88619 -0.809289,-1.9721 -2.248522,-3.28921 -3.894855,-3.28921 z" />
      <path
         id="path1020"
         style="font-variation-settings:normal;opacity:1;vector-effect:none;fill:#ffffff;fill-opacity:1;stroke:none;stroke-width:1.0043;stroke-linecap:butt;stroke-linejoin:miter;stroke-miterlimit:4;stroke-dasharray:none;stroke-dashoffset:0;stroke-opacity:1;stop-color:#000000;stop-opacity:1"
         d="m 135.89648,636.61914 c 0,4.69313 6.77394,28.85749 35.4961,37.46484 -2.10442,-1.08403 -4.08212,-2.2364 -5.94922,-3.43359 8.81331,-0.13261 21.80859,-0.34961 21.80859,-0.34961 -11.51949,-2.40671 -23.83203,-0.74873 -30.70532,-7.1582 8.56654,-0.12806 28.11939,-1.36524 28.11939,-1.36524 -12.70335,-3.18989 -30.61104,2.60515 -36.57838,-6.14257 6.18203,-0.0623 33.99048,-2.38086 33.99048,-2.38086 -9.10933,-2.66993 -36.30668,-0.64701 -38.39863,-6.26338 3.52417,-0.0149 35.8127,-2.26006 35.8127,-2.26006 -9.81091,-2.42021 -34.15535,-0.67097 -37.59571,-4.11133 h 109.19141 c 0.47967,-1.78773 0.69141,-3.19086 0.69141,-4 z"
         transform="scale(0.26458333)"
         sodipodi:nodetypes="cccccccccccccc" />
    </g>
    <g
       id="g1008"
       style="stroke-width:1.0043"
       transform="matrix(0.99571594,0,0,0.99571594,0.1109202,0.27883881)">
      <path
         id="path903"
         style="color:#000000;font-style:normal;font-variant:normal;font-weight:normal;font-stretch:normal;font-size:medium;line-height:normal;font-family:sans-serif;font-variant-ligatures:normal;font-variant-position:normal;font-variant-caps:normal;font-variant-numeric:normal;font-variant-alternates:normal;font-variant-east-asian:normal;font-feature-settings:normal;font-variation-settings:normal;text-indent:0;text-align:start;text-decoration:none;text-decoration-line:none;text-decoration-style:solid;text-decoration-color:#000000;letter-spacing:normal;word-spacing:normal;text-transform:none;writing-mode:lr-tb;direction:ltr;text-orientation:mixed;dominant-baseline:auto;baseline-shift:baseline;text-anchor:start;white-space:normal;shape-padding:0;shape-margin:0;inline-size:0;clip-rule:nonzero;display:inline;overflow:visible;visibility:visible;isolation:auto;mix-blend-mode:normal;color-interpolation:sRGB;color-interpolation-filters:linearRGB;solid-color:#000000;solid-opacity:1;vector-effect:none;fill:#cccccc;fill-opacity:1;fill-rule:nonzero;stroke:none;stroke-width:1.0043;stroke-linecap:butt;stroke-linejoin:miter;stroke-miterlimit:4;stroke-dasharray:none;stroke-dashoffset:0;stroke-opacity:1;color-rendering:auto;image-rendering:auto;shape-rendering:auto;text-rendering:auto;enable-background:accumulate;stop-color:#000000"
         d="m 49.449177,134.04505 -13.493234,34.39396 2.879929,2.02397 10.467062,-26.63869 0.264583,25.88679 h 3.439584 l 0.264583,-25.88265 10.466543,26.63455 2.878379,-2.02397 -13.49375,-34.39396 z"
         sodipodi:nodetypes="ccccccccccc" />
      <path
         id="path979"
         style="color:#000000;font-style:normal;font-variant:normal;font-weight:normal;font-stretch:normal;font-size:medium;line-height:normal;font-family:sans-serif;font-variant-ligatures:normal;font-variant-position:normal;font-variant-caps:normal;font-variant-numeric:normal;font-variant-alternates:normal;font-variant-east-asian:normal;font-feature-settings:normal;font-variation-settings:normal;text-indent:0;text-align:start;text-decoration:none;text-decoration-line:none;text-decoration-style:solid;text-decoration-color:#000000;letter-spacing:normal;word-spacing:normal;text-transform:none;writing-mode:lr-tb;direction:ltr;text-orientation:mixed;dominant-baseline:auto;baseline-shift:baseline;text-anchor:start;white-space:normal;shape-padding:0;shape-margin:0;inline-size:0;clip-rule:nonzero;display:inline;overflow:visible;visibility:visible;isolation:auto;mix-blend-mode:normal;color-interpolation:sRGB;color-interpolation-filters:linearRGB;solid-color:#000000;solid-opacity:1;vector-effect:none;fill:#ffffff;fill-opacity:1;fill-rule:nonzero;stroke:none;stroke-width:0.265721;stroke-linecap:butt;stroke-linejoin:miter;stroke-miterlimit:4;stroke-dasharray:none;stroke-dashoffset:0;stroke-opacity:1;color-rendering:auto;image-rendering:auto;shape-rendering:auto;text-rendering:auto;enable-background:accumulate;stop-color:#000000"
         d="m 49.449177,134.04505 -13.493234,34.39376 h 1.058334 l 13.34699,-34.02066 z m -0.146243,9.77924 0.264583,25.88679 h 1.058334 L 50.361267,141.4851 Z m 3.96875,0.004 10.466543,26.63455 0.829408,-0.58291 -10.237618,-26.05164 -1.058333,-2.40543 z"
         sodipodi:nodetypes="cccccccccccccccc" />
      <path
         style="font-variation-settings:normal;opacity:1;vector-effect:none;fill:#cccccc;fill-opacity:1;stroke:none;stroke-width:0.265721;stroke-linecap:butt;stroke-linejoin:miter;stroke-miterlimit:4;stroke-dasharray:none;stroke-dashoffset:0;stroke-opacity:1;stop-color:#000000;stop-opacity:1"
         d="m 66.616606,168.43901 c 0,1.51653 -2.666845,10.72171 -15.330332,10.7217 -12.663486,0 -15.330331,-9.20518 -15.330331,-10.72171 z"
         id="path924"
         sodipodi:nodetypes="czcc" />
      <path
         id="path900"
         style="fill:#cccccc;fill-opacity:1;stroke:none;stroke-width:0.265722;stroke-miterlimit:4;stroke-dasharray:none;stroke-dashoffset:0"
         d="m 55.874033,130.49628 c -10e-7,3.83579 -2.053843,6.94531 -4.587385,6.94531 -2.533543,0 -4.587385,-3.10952 -4.587386,-6.94531 -3e-6,-3.83579 2.053841,-6.94532 4.587386,-6.94532 2.533545,0 4.587388,3.10953 4.587385,6.94532 z"
         sodipodi:nodetypes="sssss" />
      <path
         id="path934"
         style="fill:#ffffff;fill-opacity:1;stroke:none;stroke-width:0.265721;stroke-miterlimit:4;stroke-dasharray:none;stroke-dashoffset:0"
         d="m 51.28679,123.55111 c -2.533544,0 -4.587319,3.10953 -4.587316,6.94531 2e-6,3.8358 2.053775,6.94532 4.587316,6.94532 0.764577,0 1.484797,-0.2846 2.118736,-0.78548 -0.384609,0.17288 -0.793321,0.26613 -1.21698,0.26613 -2.272771,0 -4.114993,-2.67921 -4.114996,-5.98413 -2e-6,-3.30493 1.842222,-5.98413 4.114996,-5.98413 1.180944,0 2.242624,0.72756 2.993099,1.88619 -0.809289,-1.9721 -2.248522,-3.28921 -3.894855,-3.28921 z" />
      <path
         id="path984"
         style="font-variation-settings:normal;opacity:1;vector-effect:none;fill:#ffffff;fill-opacity:1;stroke:none;stroke-width:1.0043;stroke-linecap:butt;stroke-linejoin:miter;stroke-miterlimit:4;stroke-dasharray:none;stroke-dashoffset:0;stroke-opacity:1;stop-color:#000000;stop-opacity:1"
         d="m 135.89648,636.61914 c 0,4.69313 6.77394,28.85749 35.4961,37.46484 -2.10442,-1.08403 -4.08212,-2.2364 -5.94922,-3.43359 8.81331,-0.13261 21.80859,-0.34961 21.80859,-0.34961 -11.51949,-2.40671 -23.83203,-0.74873 -30.70532,-7.1582 8.56654,-0.12806 28.11939,-1.36524 28.11939,-1.36524 -12.70335,-3.18989 -30.61104,2.60515 -36.57838,-6.14257 6.18203,-0.0623 33.99048,-2.38086 33.99048,-2.38086 -9.10933,-2.66993 -36.30668,-0.64701 -38.39863,-6.26338 3.52417,-0.0149 35.8127,-2.26006 35.8127,-2.26006 -9.81091,-2.42021 -34.15535,-0.67097 -37.59571,-4.11133 h 109.19141 c 0.47967,-1.78773 0.69141,-3.19086 0.69141,-4 z"
         transform="scale(0.26458333)"
         sodipodi:nodetypes="cccccccccccccc" />
    </g>
  </g>
</svg>
