<?xml version="1.0" encoding="UTF-8"?>
<!DOCTYPE svg PUBLIC "-//W3C//DTD SVG 1.1//EN" "http://www.w3.org/Graphics/SVG/1.1/DTD/svg11.dtd">
<!-- Creator: CorelDRAW -->
<svg xmlns="http://www.w3.org/2000/svg" xml:space="preserve" width="500px" height="576px" shape-rendering="geometricPrecision" text-rendering="geometricPrecision" image-rendering="optimizeQuality" fill-rule="evenodd" clip-rule="evenodd"
viewBox="0 0 500 576"
 xmlns:xlink="http://www.w3.org/1999/xlink"
 xmlns:svg="http://www.w3.org/2000/svg"
 version="1.0">
 <g id="Layer_x0020_1">
  <metadata id="CorelCorpID_0Corel-Layer"/>
  <path id="path1937" fill="#F00000" stroke="black" stroke-width="0.992126" d="M0.482173 1.15087l498.64 0.0297638 -0.407339 332.782c-18.1313,320.84 -478.242,321.126 -497.432,0.0788032l-0.800221 -332.89z"/>
  <path fill="#BF9F4F" d="M319.821 123.561c-9.8796,-5.83512 -21.6148,-11.1694 -36.5227,-7.60961 -12.9291,3.08721 -15.8329,-7.83723 -16.3327,-14.5766 -3.74514,-2.06617 -10.4584,5.44281 -15.6861,3.93506 -7.34939,-2.11975 -10.3099,-14.8989 -7.15267,-14.3756 5.66873,-0.693071 6.73626,3.16885 12.0033,3.31257 8.45433,0.231024 13.9737,-7.92029 27.1494,2.88567 3.36955,-8.3727 -9.5709,-5.00173 -14.3564,-10.766 -2.17502,0.217701 -5.00259,1.74019 -6.85163,0 -0.761103,-5.32885 1.74019,-7.39531 4.89402,-10.4406 4.45918,-17.509 15.3346,-10.984 29.3641,-13.0507 9.13578,-3.86079 18.271,-6.36237 27.4065,-5.87282 10.6583,-5.87282 15.8233,-4.76731 23.2472,-1.83487 6.98741,2.7601 16.3403,0.149386 23.0828,2.4874 6.30794,-10.2229 37.7382,1.74019 39.4784,-28.7116 3.15496,-4.25537 5.87452,-7.30999 8.1567,-1.95761l2.61014 10.4406c8.4824,-6.08967 15.2255,-13.0504 20.2286,-20.8811 4.78488,-2.39244 6.95991,-0.435118 6.52536,5.87282 -7.14841,14.7657 -20.689,25.6952 -36.542,35.2369 20.3502,-2.35106 36.4193,-13.7435 48.9402,-32.6268 7.39531,-2.82699 10.0055,-1.30479 7.83043,4.56775 -4.78602,10.3323 -13.4858,19.9029 -23.4913,29.3641 3.26268,1.1965 8.1567,2.71899 13.0507,2.61014 1.95761,4.13292 1.30507,6.74278 -1.95761,9.1355 -9.5709,1.2515 -19.1412,0.707811 -28.7116,-0.652536 -9.56467,4.13547 -22.4002,10.4417 -30.3429,14.0295 13.993,-0.724536 28.2937,-0.0924095 42.0449,9.46489 10.031,6.9721 21.2295,3.22696 21.5773,7.82731 -1.80907,4.95836 -6.22829,7.63285 -12.2788,8.02347 -0.605481,6.38504 -13.1735,9.07229 -19.1072,6.10385 -3.45827,3.72047 -11.7026,3.25276 -22.1219,0.881008 0.380126,21.4526 -6.47122,40.3214 -18.271,57.4231l-4.56775 0c-3.04469,6.30851 -6.52507,11.7459 -10.4406,16.3134l-5.87282 0c-2.36495,6.19937 -5.24722,10.3323 -8.48296,13.0507l-3.91521 -1.95761c-3.04498,6.30794 -5.76397,11.9633 -11.4194,16.6397l-3.91521 -4.24148 -5.54655 9.78804 -5.22029 0.652536c-7.44974,37.7663 23.2739,38.0115 51.0611,87.8494l-1.16334 4.4915c5.5474,8.12608 9.19049,15.4361 8.64511,20.9509l2.79553 6.77481c-24.7964,11.0931 -52.6896,32.4547 -74.3891,33.2793l-22.1862 -25.7752 0 -4.24148 7.17789 -4.56775c-5.76737,-11.0747 -23.292,-23.2563 -36.9352,-28.1067 -0.532914,0.938552 -0.0320315,1.56699 -0.0708662,2.50923 -4.25962,-2.16624 -7.13707,-4.68142 -10.0996,-7.15238 -0.305008,1.59109 1.04513,2.85109 -0.825733,2.12684 -5.57717,-2.02706 -11.0214,-4.26728 -16.0172,-7.2241l-0.652536 5.22029c-8.26526,-8.48296 -14.8995,-14.0295 -20.2286,-16.9659l-1.30507 7.17789c-3.91521,-2.28388 -5.54655,-11.0931 -9.78804,-11.7456 0.217701,2.61071 -0.435118,4.78545 -1.95761,6.52536 -3.04498,-4.24148 -3.80636,-10.1143 -7.17789,-15.6609 -1.73991,1.95761 -2.82756,4.89402 -5.22029,5.87282 -3.26268,-8.26526 -9.46177,-15.8783 -9.78804,-24.7964l-3.26268 1.30507c-2.82756,-5.0023 -6.09024,-9.13522 -9.78804,-12.3982l-0.652536 5.54655c-9.67919,-5.76397 -5.98139,-12.5067 -11.7456,-13.377 -0.217417,2.82784 0.543969,6.63421 -0.652536,8.48296 -3.15751,-2.71474 -5.66136,-5.4309 -6.19909,-10.7668 -1.63134,-0.217417 -2.28388,2.82784 -4.24148,2.93641 -5.11739,-10.5321 -6.65887,-11.4415 -11.2295,-12.7925 -2.45254,-6.01966 -26.7208,-13.8138 -38.3633,-18.203l-2.61014 2.93641c2.43836,15.88 4.50227,40.1746 8.33585,50.383 4.00791,10.6724 8.83758,3.77745 11.8928,12.2604l-4.24148 0c2.71928,0.87052 4.56775,3.04554 5.54655,6.52536l-5.22029 0c2.17559,2.17559 4.24177,6.19937 -0.326268,4.89402 2.06674,1.84932 2.39273,3.6978 0.978804,5.54655 14.3291,-0.24463 24.4979,8.18391 30.9954,35.8895l-6.85163 -1.95761c0.957827,2.61014 -0.406205,5.22029 -1.30507,7.83043 -6.09024,-8.9178 -23.2736,-8.04785 -30.0166,-16.9659 -1.15228,-14.3042 -15.0795,-1.71638 -19.4366,-26.8217 -8.95607,-51.605 -20.0333,-79.1774 -21.2596,-92.7363 -0.45326,-5.01081 2.66173,-8.43959 6.03014,-12.7602 6.07777,-7.79556 12.805,-8.53144 23.1353,-4.58816 5.77616,2.20507 43.9231,4.17147 76.1318,17.4923l0 -11.0931 -4.56775 1.30507c-0.761103,-4.78517 -0.217417,-10.2229 -2.28388,-14.3558l-3.58895 1.30507c-5.84107,-67.9618 -23.3989,-42.9483 -25.0642,-61.1348 -12.2074,-10.0854 -37.4261,-27.5417 -48.6723,-29.5676 -8.1567,0.435118 -9.46177,2.50158 -15.6609,3.26268l1.95761 -7.17789c-1.19537,2.55628 -5.54599,2.66514 -7.83043,3.26268l1.30507 -6.52536 -3.91521 2.61014 -0.652536 -6.52536c-8.16548,3.34715 -15.4596,-2.74989 -21.7483,-10.2742 -6.69459,-8.00986 -12.0764,-17.7248 -10.226,-22.3526l5.22029 2.28388c0.326268,-2.93641 -1.30507,-7.50416 0.326268,-9.1355 17.6185,10.5494 30.0166,7.39559 34.2581,15.9871 27.0462,-0.436252 23.9009,8.60797 52.8985,27.5805 25.2238,16.503 41.8969,13.7903 50.2413,36.5522 6.22659,16.9852 18.3005,24.7176 30.3038,50.3873l2.93584 -5.54655 5.22085 3.91521 1.63049 -8.64652c9.62533,3.8075 17.2389,6.14608 27.7336,4.73131l-0.653386 -4.24148c4.02407,-0.108567 7.39644,0.435118 11.094,-0.326268l0.161858 -4.40533c3.58895,0.543969 7.83043,0.598961 10.7668,0.816378l-0.162709 -3.58923c4.45918,0.326268 7.94013,1.30535 11.7465,0.326551l1.14066 -3.26296c4.24545,0.873071 7.34882,1.52731 8.97364,0.652819l0.814961 -3.91521c18.2724,-0.10715 32.4663,-4.5652 40.2948,-18.5973z"/>
  <path id="path1937_0" fill="white" d="M497.983 344.132c-5.46123,62.4232 -28.0191,112.177 -60.7349,149.254 -19.1384,0.244914 -40.6041,-35.5263 -61.0501,-35.2653 -20.4457,0.261354 -43.634,36.5584 -65.3018,36.8337 -21.668,0.275528 -43.8268,-35.4424 -64.7649,-35.1783 -20.9381,0.264189 -40.4929,36.5111 -60.8848,36.7662 -20.3919,0.255402 -40.5669,-35.6145 -61.5172,-35.2335 -20.9506,0.380977 -36.3368,24.5055 -56.3054,36.7583 -35.0841,-37.5262 -59.497,-88.8367 -65.3851,-153.938 19.9834,0 35.0348,35.9997 56.3505,35.9997 21.3154,0 46.2878,-35.9992 67.9434,-35.9992 21.6559,0 41.3277,35.9995 61.9909,35.9995 20.6632,0 42.2385,-35.9992 61.9906,-35.9992 19.7524,0 34.9923,35.9997 56.526,35.9997 21.5334,0 50.3932,-35.9992 72.6761,-35.9992 22.2829,0 41.8782,35.9995 61.0226,35.9995 19.1441,0 39.4963,-35.9986 57.4441,-35.9986z"/>
  <path id="path1937_1" fill="#CCCCCC" d="M497.983 344.132c-5.46123,62.4232 -28.0191,112.177 -60.7349,149.254 -19.1384,0.244914 -37.0038,-35.5263 -57.4498,-35.2653 -20.446,0.261354 -43.634,36.5584 -65.302,36.8337 -21.6678,0.275528 -43.8265,-35.4424 -64.7646,-35.1783 -20.9381,0.264189 -40.4929,36.5111 -60.8848,36.7662 -20.3919,0.255402 -40.5672,-35.6145 -61.5175,-35.2335 -19.6407,0.356882 -37.5557,21.5827 -56.1717,34.3304 -54.9811,-56.0325 -60.2535,-122.78 -65.3865,-151.106 18.593,3.9549 36.2353,35.5955 56.2181,35.5955 21.3154,0 46.2881,-35.9992 67.9437,-35.9992 21.6556,0 41.3275,35.9995 61.9906,35.9995 20.6632,0 42.2385,-35.9992 61.9909,-35.9992 19.7521,0 34.9923,35.9997 56.5257,35.9997 21.5334,0 50.3935,-35.9992 72.6764,-35.9992 22.2829,0 41.8782,35.9995 61.0223,35.9995 19.1444,0 35.8963,-35.9986 53.8441,-35.9986z"/>
  <path fill="#8C0000" d="M330.914 83.4302c8.62867,-1.84904 13.263,-11.3114 17.6185,-11.0931l6.52536 -1.95761c2.39216,1.41364 4.78488,1.95732 7.17789,1.63134 1.03266,2.8817 2.664,3.96936 4.56775,4.24148l-0.326268 3.91521c-4.45918,1.63134 -9.57062,2.28388 -13.377,4.89402 -3.80665,0.435118 -18.9238,0.108567 -22.1862,-1.63134z"/>
  <path fill="#8C0000" d="M347.554 71.3583l5.54655 -2.28388c-1.74019,-2.06617 -4.02407,-3.2624 -7.50416,-3.58895 1.52277,1.52249 2.17502,3.48038 1.95761,5.87282z"/>
  <path fill="#8C0000" d="M331.241 80.82c3.41745,2.41115 7.6544,-2.05399 13.7033,-7.50416 -4.13292,-3.15383 -8.26555,-4.35005 -12.3982,-6.52536 -4.56775,0.979087 -6.19909,2.93669 -5.54655,6.52536l4.24148 7.50416z"/>
  <ellipse fill="#BF9F4F" cx="331.567" cy="71.8475" rx="2.60997" ry="3.42567"/>
  <ellipse fill="white" cx="332.056" cy="71.8475" rx="2.1206" ry="3.42567"/>
  <ellipse fill="white" transform="matrix(0.911931 -0.410343 0.410343 0.911931 344.128 78.8624)" rx="2.77314" ry="1.30507"/>
  <path fill="#8C0000" d="M322.105 66.7905c3.4801,0 6.30766,1.63134 10.4406,-0.326268 -0.435118,-1.52249 0.761103,-3.69751 2.61014,-4.56775l-5.54655 -0.652536c-3.48038,0.870237 -5.00287,3.6978 -7.50416,5.54655z"/>
  <path fill="white" d="M325.694 70.0532l-1.95761 0.326268c-0.108567,2.50129 1.08765,3.04498 1.63134,4.56775l0.326268 -4.89402z"/>
  <path fill="white" d="M339.675 64.6631c2.23767,0.953008 3.70885,1.88022 3.28536,2.87462 -0.423496,0.994394 -2.5818,1.35439 -4.81947,0.401386 -2.23767,-0.953008 -3.05603,-1.88022 -2.63254,-2.87462 0.423496,-0.994394 1.92898,-1.35439 4.16665,-0.401386z"/>
  <path fill="#8C0000" d="M283.606 75.926c21.7534,2.39471 33.0642,5.65739 37.8471,-8.1567l-4.56775 -0.978804c-3.26268,4.56775 -8.1567,7.17789 -28.3853,4.89402 -3.3721,1.41421 -5.00344,2.82841 -4.89402,4.24148z"/>
  <path fill="#8C0000" d="M276.428 75.2735c-2.06617,0.000283465 -3.69751,-0.434551 -4.89402,-1.30507 3.48066,-3.58895 7.50388,-5.76369 12.7244,-5.87282l-0.652536 2.93641c-2.39301,0.10885 -4.78573,1.52306 -7.17789,4.24148z"/>
  <path fill="#8C0000" d="M134.827 119.32c4.56775,3.26268 8.80923,5.87282 13.7033,6.85163l4.24148 4.24148 1.63134 -1.30507c18.9235,12.7244 9.1355,42.4148 28.3853,57.7494l-1.30507 -9.78804c-13.7033,-15.3346 -4.56775,-34.9107 -25.4489,-50.8978l5.22029 -12.0719 -2.93641 0.326268c0.881008,0.429166 -2.05965,3.15071 -5.54655,6.19909 -4.02378,-2.82756 -7.72158,-4.35005 -12.0719,-8.48296l-2.61014 0.326268 1.95761 3.91521c-12.1805,-11.2017 -30.2341,-20.7723 -44.3724,-31.648 -10.0055,-4.13263 -24.5787,-5.98139 -30.0166,-15.3346l-2.93641 -0.326268 -2.61014 -13.0507 -1.95761 0.326268c-1.84876,2.82813 -2.82728,5.65569 -2.93641,8.48296 -1.08992,-1.08482 -1.09077,-3.69269 1.30507,-9.1355l-3.91521 0 0 4.89402 -4.56775 -0.652536 -4.56775 1.30507 6.85163 7.17789 -7.17789 -5.87282 -8.04501 1.79773c6.28866,7.52429 13.5828,13.6213 21.7483,10.2742l0.652536 6.52536 3.91521 -2.61014 -1.30507 6.52536c2.28444,-0.597544 6.63506,-0.706394 7.83043,-3.26268l-1.95761 7.17789c6.19909,-0.761103 7.50416,-2.82756 15.6609,-3.26268 11.2462,2.02592 36.4649,19.4822 48.6723,29.5676 0.728504,7.95657 4.49915,7.64419 8.99944,10.4667 -2.14866,-1.81701 -4.46032,-4.44898 -4.49008,-6.4287zm184.994 4.24148c0.00226772,-6.80514 -7.77487,-12.5022 -16.6859,-16.4823 -2.01005,-4.72677 -5.97629,-5.54174 -4.56378,-8.3126l5.05276 4.07481 0.325984 -4.2378 7.33465 7.00866c1.33115,-4.99833 2.54013,-3.06964 3.32107,-5.50063 0.780945,-2.43128 0.645166,-6.45222 1.73169,-7.86473 -2.71644,-1.84706 -5.75887,-1.73849 -8.63859,-2.60788l-1.30394 1.62992c-0.814961,-0.108567 -1.79291,-2.49902 -2.44488,-2.77087l-1.95591 2.1189c-0.760252,-1.24951 -1.95534,-1.84677 -3.58583,-1.79291l-2.1189 1.95591c-1.84734,-2.17332 -4.12895,-4.12895 -6.84567,-5.86772l-2.44488 1.62992c-1.5205,-0.924945 -3.09543,-1.73991 -5.05276,-1.79291 -1.5755,0.488977 -1.68406,2.44488 -4.72677,1.46693 -4.2378,-1.84706 -7.17166,-3.20542 -10.7575,-0.651969l-4.3903 0.802772c1.84904,1.74019 4.6766,0.217701 6.85163,0 4.78545,5.76425 17.7259,2.39329 14.3564,10.766l-0.518457 3.10054c-10.0307,-4.32057 -16.8832,-4.57937 -19.0911,1.09701 1.23732,-0.389764 2.35928,-0.471685 3.29556,0.0447874 6.29745,0.651685 7.70514,-1.14151 18.8924,1.95506l-0.488977 -3.25984 3.42284 0.325984 0.488977 5.54174c-9.70782,1.56019 -10.3533,8.31289 -13.9187,9.98646 2.09792,0.695055 4.7041,0.798804 7.93616,0.0272126 14.908,-3.55975 26.6431,1.77449 36.5227,7.60961z"/>
  <path fill="#8C0000" d="M198.123 168.912l0.326268 3.26268 -2.93641 0.326268c-23.0732,-45.1778 -27.8858,-41.0531 -29.0072,-44.8237 -4.7024,-15.8117 -7.56199,-19.7943 -10.7975,-20.4299l0 -1.63134 1.95761 -0.652536c7.59912,7.04863 8.8441,15.9959 13.2693,20.7496 9.37106,10.0667 18.8141,32.3575 27.188,43.1989z"/>
  <path fill="#8C0000" d="M201.712 241.996l-1.95761 -11.4194c0.870237,-0.761103 2.71871,-1.19622 3.58895,-0.326268l-1.63134 11.7456z"/>
  <path fill="#8C0000" d="M203.67 235.145l-1.95761 -11.4194c0.870237,-0.761103 2.71871,-1.19622 3.58895,-0.326268l-1.63134 11.7456z"/>
  <path fill="#8C0000" d="M205.301 229.272l-1.95761 -11.4194c0.870237,-0.761103 2.71871,-1.19622 3.58895,-0.326268l-1.63134 11.7456z"/>
  <path fill="#8C0000" d="M208.238 225.03l-1.12847 -1.35695 0.149669 -8.75736c0.870237,-0.761103 1.73991,-1.52249 2.61014,-0.652536l-1.63134 10.7668z"/>
  <path fill="#8C0000" d="M211.174 222.42l-1.12847 -1.35695 0.149669 -8.75736c0.870237,-0.761103 1.73991,-1.52249 2.61014,-0.652536l-1.63134 10.7668z"/>
  <path fill="#8C0000" d="M215.742 218.179l-1.45474 -2.00948 0.149669 -7.45229c0.870237,-0.761103 1.73991,-1.52249 2.61014,-0.652536l-1.30507 10.1143z"/>
  <path fill="#8C0000" d="M220.962 211.327l-3.08608 -0.051874 0.802205 -5.16841c0.870237,-0.761103 1.73991,-1.52249 2.61014,-0.652536l-0.326268 5.87282z"/>
  <path fill="#8C0000" d="M224.225 208.554l-1.45531 0.763937 0.149669 -3.86334c0.870237,-0.761103 1.08737,-0.543118 1.95761,0.326835l-0.651969 2.77257z"/>
  <path fill="#8C0000" d="M228.3 206.272l-1.45531 0.763937 0.149669 -3.86334c0.870237,-0.761103 1.08737,-0.543118 1.95761,0.326835l-0.651969 2.77257z"/>
  <path fill="#8C0000" d="M98.5802 196.236c23.9599,23.4709 65.5229,6.3567 88.5048,40.0961l1.62992 -0.162992c-0.86967,-4.29222 -2.39102,-7.93276 -4.56378,-10.9205l0 3.25984c-34.3372,-32.4899 -56.6127,-11.3553 -83.941,-32.9244l-1.62992 0.651969z"/>
  <path fill="#8C0000" d="M167.2 187.434l4.88977 -8.96457 -0.651969 -3.42284 -1.14095 1.46693 -0.488977 -4.72677c-0.325984,-0.0541418 -2.28189,1.03238 -2.93386,3.25984l0.488977 3.25984 0.814961 -0.488977c0.162992,4.50964 -1.30394,6.08514 -0.977953,9.61654z"/>
  <path fill="#8C0000" d="M167.852 165.756c-0.217134,2.93386 -2.06447,4.40079 -3.58583,5.37874 0.488977,-3.04271 0.651969,-4.7812 0.977953,-7.17166l2.60788 -2.77087 0 4.56378z"/>
  <polygon fill="#8C0000" points="280.643,168.69 277.872,167.223 279.339,165.593 280.969,167.549 "/>
  <polygon fill="#8C0000" points="285.858,167.549 283.087,166.082 284.554,164.452 286.184,166.408 "/>
  <polygon fill="#8C0000" points="290.585,166.897 286.999,164.126 288.466,162.496 290.096,164.452 "/>
  <polygon fill="#8C0000" points="292.867,163.148 296.779,164.941 300.039,163.474 294.008,162.007 "/>
  <polygon fill="#8C0000" points="296.29,160.54 300.202,162.333 303.461,160.866 297.431,159.399 "/>
  <polygon fill="#8C0000" points="302.158,156.628 302.32,159.725 304.765,161.355 306.558,158.421 304.602,157.443 "/>
  <polygon fill="#8C0000" points="305.743,156.954 308.025,158.258 312.263,154.836 306.884,152.717 306.558,154.021 307.699,155.487 "/>
  <polygon fill="#8C0000" points="316.012,154.51 311.285,154.51 310.959,150.924 314.708,151.413 "/>
  <polygon fill="#8C0000" points="311.122,147.501 314.056,151.087 318.946,152.88 317.968,148.805 314.056,147.664 "/>
  <path fill="#8C0000" d="M405.821 114.25l-6.03071 -5.86772 -0.651969 2.28189 -1.14095 -2.60788 -8.47559 -10.7575 -1.62992 0.814961 0.651969 2.60788 -2.98177 -1.52646c0.178866,1.16079 0.357732,2.32158 0.536882,3.48236 -4.78177,2.88 -7.17194,5.75915 -7.17166,8.63859l-4.56378 -0.977953 -0.325984 2.28189c-1.62992,1.84734 -2.93386,3.04271 -4.72677,4.2378l-4.2378 -0.162992 0 2.28189 -3.09685 0.488977 -0.488977 2.28189 -5.21575 -0.651969 3.09685 3.42284 -1.30394 1.30394 -3.58583 -1.30394 2.1189 2.77087 -3.58583 0.325984 -1.95591 -3.91181 -2.44488 0.977953 0.488977 4.2378 -4.72677 -2.77087 0.162992 2.28189 -4.2378 -4.56378 0.325984 2.77087c-1.84734,-1.35808 -4.12923,-2.28161 -6.84567,-2.77087 -0.163276,-3.31399 -1.19537,-5.54145 -3.09685,-6.68268 0.217134,1.79291 1.08652,3.58583 0.651969,5.37874l-0.814961 0.977953c-2.556,-2.82473 -2.55515,-8.09519 -6.03071,-8.47559 0.217134,2.82529 3.20542,5.16161 4.07481,9.94252l0.325984 2.44488 -3.09685 1.14095 0.651969 3.42284 -1.79291 -1.79291 -0.325984 5.21575 -2.44488 0.488977 -0.488977 2.93386 -1.30394 0 -2.60788 3.42284 1.30394 2.44488 -4.07481 0.488977 3.91181 4.88977 3.58583 0.162992 -0.488977 -2.93386 1.79291 -0.162992 0 -3.09685 2.93386 0.162992c0.449292,-2.45934 1.12932,-5.1497 0.651969,-6.68268l1.79291 0.162992 0.162992 -2.93386c1.19509,1.30394 2.71644,-1.95591 4.07481,-2.93386l3.74882 -0.977953c7.51777,5.08054 16.4412,5.78722 27.8717,-1.30394l1.95591 4.07481 -0.162992 -5.54174 2.28189 2.44488 0.325984 1.95591c1.52107,1.46693 3.04243,1.14095 4.56378,4.40079 -0.407906,-3.61276 0.0810709,-6.3292 0.977953,-8.63859l1.30394 1.62992 0.977953 -5.37874 1.62992 5.70473 1.30394 0.325984c-0.325984,-1.90148 0,-3.80268 0.977953,-5.70473l2.28189 -6.3567 0.814961 3.25984 2.44488 -5.70473 1.46693 4.72677 0.651969 -3.58583 1.14095 0.325984c2.15887,5.75915 2.51235,11.5186 1.62992,17.2772 -1.73877,6.46555 -4.12923,8.69301 -5.21575,19.3961l-0.814961 -2.28189 -1.62992 0.162992c-1.95591,4.61792 -4.07481,7.60621 -5.86772,13.8543l-1.30394 -0.325984c0.0507402,-2.93386 1.24724,-5.868 2.60788,-8.80158 -2.06476,2.22747 -3.15128,4.78092 -4.72677,7.17166l-0.814961 8.96457 -1.95591 0.325984 -0.325984 -6.68268 -1.30394 1.62992 -0.325984 5.37874 -2.60788 4.56378 -0.651969 -2.77087c-2.17361,3.69411 -4.83591,6.08457 -7.00866,7.17166 -0.434835,-2.93386 0.0541418,-5.86772 0.488977,-8.80158 -2.30967,3.61191 -3.12463,9.31692 -3.25984,15.9732l-1.14095 -0.488977 -1.46693 5.05276 -1.30394 0c-0.325984,-3.04271 2.44488,-8.856 3.42284,-15.4843l-3.09685 3.42284c-0.651969,3.42284 -0.977953,6.51969 -1.95591,10.2685l-1.30394 -1.62992c-1.62992,8.63859 -3.58583,8.47559 -5.37874,12.7134 0.306142,-5.03688 3.59887,-11.9183 3.49682,-13.6023 -0.0566929,-0.939119 0.589607,-3.83868 1.22995,-6.6087 -2.3641,2.5526 -3.23348,6.30142 -3.42284,10.5945 -3.2057,2.49902 -3.15128,6.79125 -4.88977,10.2685l-1.62992 6.3567 4.07481 -1.30394c3.77547,-3.28762 7.1983,-6.92759 10.1055,-11.0835l1.95591 -0.977953 0.977953 1.62992 3.09685 -6.51969 1.95591 1.79291 1.14095 -2.77087c3.25984,0.706111 7.66063,-8.04104 13.2024,-12.0614l0.162992 2.44488 5.54174 -11.8984 0.814961 2.60788 3.42284 -5.54174 0.977953 2.93386c1.03181,-3.04243 2.06391,-6.35698 3.09685,-10.2685l1.14095 2.44488c8.15018,-15.4301 11.5183,-29.0668 12.7134,-41.889l0.325984 1.62992 -0.162992 -4.88977c1.52107,-1.95591 15.1039,3.58583 23.1449,-0.488977 -9.61682,0.597827 -16.6255,-0.108284 -21.026,-2.1189z"/>
  <path fill="#8C0000" d="M409.732 113.761l-0.162992 -2.28189 -5.21575 -5.54174c1.2498,-1.14095 2.71673,-2.06419 4.40079,-2.77087l0.651969 1.95591 0.651969 -4.2378c16.4078,0.38041 10.3227,-2.82501 15.4843,-4.2378l1.30394 4.72677 4.72677 -0.488977 0.651969 2.93386 0.814961 -3.58583c0.921544,0.383528 2.00665,2.45112 3.74882,3.58583l0.977953 -0.977953 2.77087 2.60788 0.488977 -3.91181c-5.70473,-5.16133 -30.6425,-17.9833 -44.4969,-3.25984 -1.0321,6.03071 2.01033,9.61654 6.68268,10.7575l6.51969 4.72677z"/>
  <polygon fill="#8C0000" points="409.406,109.687 413.644,115.554 416.089,115.554 412.503,109.85 "/>
  <polygon fill="#8C0000" points="415.763,111.969 417.556,115.717 420.001,115.717 416.415,109.198 "/>
  <polygon fill="#8C0000" points="420.49,111.48 422.283,115.228 424.728,115.228 422.12,110.013 "/>
  <polygon fill="#8C0000" points="426.032,110.339 428.802,114.902 431.736,115.554 427.662,108.872 "/>
  <polygon fill="#8C0000" points="431.736,111.154 434.507,114.413 435.974,113.598 433.366,109.687 "/>
  <polygon fill="#8C0000" points="436.789,109.687 439.56,112.947 441.19,112.458 438.582,109.524 "/>
  <polygon fill="#8C0000" points="439.234,108.22 442.005,111.48 443.635,110.991 441.027,108.057 "/>
  <polygon fill="#8C0000" points="441.516,103.004 446.08,110.176 446.569,108.057 444.776,102.189 "/>
  <polygon fill="#8C0000" points="445.754,103.33 447.71,105.938 448.85,104.634 447.547,103.167 "/>
  <polygon fill="#8C0000" points="449.502,103.493 451.458,106.101 452.599,104.797 451.295,103.33 "/>
  <polygon fill="#8C0000" points="452.436,103.493 454.392,106.101 455.533,104.797 454.229,103.33 "/>
  <polygon fill="#8C0000" points="455.533,101.7 456.348,103.493 457.652,102.841 457.326,101.537 "/>
  <path fill="#8C0000" d="M365.724 135.113c-0.0813544,-1.80624 4.59071,-2.26743 4.88977,-0.325984l-0.488977 5.70473c-2.1189,3.36841 -2.60788,1.84706 -2.60788,-0.488977 -0.760819,-0.651969 -1.84734,-2.1189 -1.79291,-4.88977z"/>
  <path fill="#8C0000" d="M365.724 152.228c0.123024,-7.4863 -0.228756,-13.9255 -2.28189,-16.6252 -0.869103,1.90176 0.706394,4.61821 -0.651969,5.70473 0.814961,1.35836 1.95591,7.28051 2.93386,10.9205z"/>
  <polygon fill="#8C0000" points="362.628,154.347 362.628,143.426 361.161,146.849 "/>
  <polygon fill="#8C0000" points="355.456,162.007 355.293,151.25 356.108,153.858 "/>
  <polygon fill="#8C0000" points="358.227,158.258 358.064,145.708 359.856,149.294 "/>
  <path fill="white" d="M333.615 137.069c-5.96211,13.9964 -12.9438,21.8724 -20.211,28.0347 8.94728,-5.20158 16.5875,-14.1392 22.4929,-28.0347l-2.28189 0z"/>
  <path fill="#8C0000" d="M342.091 188.249c-1.27587,12.8222 -3.66577,24.2858 -11.2465,32.5984 -0.486425,-1.3595 -1.73679,-2.33717 -3.09685,-3.25984 -4.02095,9.9686 -3.74882,17.0858 -2.77087,28.1977 3.20655,2.00948 4.02123,5.21518 3.74882,8.96457 3.2332,0.868819 5.78693,3.096 6.84567,8.3126 3.36869,1.35808 5.86829,4.45493 7.49764,9.29056 2.20025,2.8868 4.12895,2.53502 5.62309,3.25928 1.85414,0.898867 1.0868,3.21931 3.0155,5.5423 2.03726,0.189354 5.0794,1.60158 5.05276,6.68268 1.90148,-1.52164 3.36813,-0.000566929 4.40079,4.56378 3.25956,0.977953 6.3017,4.56378 9.12756,10.7575l1.14095 -1.95591c2.70312,8.24485 4.90309,7.67424 7.33465,23.9599 2.13222,2.10501 3.73465,4.7401 4.56378,8.14961l3.09685 2.28189 0.325984 8.3126 -3.42284 -0.162992c-2.44488,-2.60816 -4.4555,-5.65087 -6.03071,-9.12756l-1.46693 8.3126 -0.814961 -3.25984c0.543118,-7.38907 5.16133,-7.60649 -0.814961,-19.5591 1.08624,3.5314 1.52079,6.84539 1.30394,9.94252 -2.14668,-3.61361 -3.99402,-7.52514 -5.70473,-11.5724 0.923528,-2.98828 1.1948,-6.4114 0.814961,-10.2685 -1.57578,0.380126 -1.52136,3.04243 -2.44488,4.40079 -0.733323,-3.17821 -2.81197,-4.88977 -2.91373,-8.02744 -1.24271,-2.15915 -2.79099,-3.78964 -3.44296,-6.15288 -2.52936,0.848977 -3.75477,-4.49575 -5.63216,-6.74363 -4.6423,-2.26176 -6.89443,-4.95808 -6.75525,-8.08867 -2.53843,-0.845575 -3.5555,-1.90828 -3.05121,-3.18813 -2.78646,1.61603 -4.59411,-5.71323 -6.89131,-8.22133 -3.81969,1.54233 -2.09764,-2.45679 -4.12441,-3.35906 -3.74542,-0.282614 -3.25332,-2.52085 -4.88013,-3.78114 -3.38429,-1.49131 -2.53106,-4.44955 -3.79673,-6.75553 -1.98085,-0.801355 -2.33178,-4.86227 -3.49795,-7.29326 -3.20542,0.434551 -2.82501,-4.67263 -4.2378,-7.00866 -3.09685,-1.19537 -1.62992,-9.5624 -2.44488,-14.3433l-1.30394 2.44488 -1.79291 -4.40079c2.28189,-3.91181 2.60788,-11.2465 4.88977,-15.1583 0.977953,1.95591 -1.30394,8.80158 -1.95591,13.2024 1.68435,0.434551 2.22775,-8.91043 9.45355,-19.2331 0.760819,0.923528 -1.4125,4.29194 -0.651969,6.68268 4.34665,-2.39074 3.80325,-5.75915 7.17166,-7.66063 0.271843,-5.70473 0.706394,-9.29056 1.79291,-13.2024 0.162992,3.6944 0,7.55178 0.162992,11.2465l2.77087 -0.325984c1.68435,-4.99862 2.39074,-10.8119 5.05276,-14.9953z"/>
  <path fill="#BF9F4F" d="M323.509 214.654c-2.36296,7.74199 -4.04731,15.6195 -4.2378,23.7969l1.62992 -0.814961c-0.164126,-7.91915 1.03181,-15.4981 2.60788,-22.9819z"/>
  <polygon fill="#8C0000" points="329.377,199.169 327.747,202.103 327.747,205.2 329.54,202.755 "/>
  <path fill="#8C0000" d="M83.259 206.83c3.85767,-1.2498 11.3009,-1.84734 8.63859,-15.4843l-2.28189 0.162992c0.734741,9.67097 -2.47068,12.9308 -6.3567,15.3213z"/>
  <path fill="#8C0000" d="M103.796 309.352l5.70473 -4.2378 -0.651969 -11.4095 -3.58583 1.14095 -1.46693 -6.68268 0 -1.79291 -2.28189 -0.162992 -0.162992 -1.14095 2.1189 -0.977953 0 -1.14095 -1.95591 -0.488977 0 -0.977953 2.1189 -0.488977 0 -1.46693 -2.44488 -1.46693 -0.162992 -1.79291 2.44488 -1.30394c-11.2465,-7.66063 -10.4315,-32.4354 -14.1803,-63.078l4.72677 -4.2378 1.14095 1.79291c-1.19537,3.04271 15.2124,7.22608 31.6205,11.0835l0.977953 1.62992 3.09685 -0.814961 -0.814961 -3.25984 -9.77953 -1.95591 -3.58583 -2.77087 -5.37874 0 -2.28189 -3.58583 -4.07481 0.325984 -3.25984 -3.91181 -2.28189 0.977953 -2.77087 -9.77953 -2.77087 -1.95591c0.972284,11.8043 -9.39147,17.1017 -19.7221,10.7575l-0.119622 2.66032 2.11776 0.713481 0.283748 1.84195c13.8543,3.69468 11.4095,56.7757 21.678,62.752l-2.28189 0.977953 -0.325984 0.977953 2.44488 1.46693 -0.162992 1.95591 -1.95591 0.651969 0.162992 1.62992 2.77087 0.977953 -0.162992 1.46693 -1.62992 0.488977 -0.162992 1.46693 2.1189 0.488977 -0.977953 4.72677 2.77087 0.325984 1.14095 3.09685c-2.39017,0.38041 -4.12866,1.84762 -5.21575,4.40079l4.72677 2.60788 0.325984 -1.46693 -0.814961 -2.28189c1.4125,-0.108284 2.39074,0.435118 2.93386,1.62992 1.39068,2.16284 0.463465,6.06359 0,9.61654z"/>
  <path fill="#8C0000" d="M136.068 324.51c-2.7771,-16.666 -11.0217,-26.2006 -23.7969,-29.8276l-2.93386 0.651969 0 2.44488 3.74882 -0.162992 2.60788 11.2465 1.30394 -7.17166c0.488977,3.96624 0.162992,9.88838 1.46693,11.8984l1.30394 -6.1937c0.543402,2.60788 0.760819,4.88977 1.95591,7.82363l0.488977 -6.03071 2.1189 4.56378 1.62992 1.95591 0.488977 -3.91181 1.46693 1.79291c0.434835,2.87972 1.68435,4.45521 2.77087,6.1937l0.325984 -5.21575c1.19707,1.57266 2.01147,4.29052 2.77087,7.17166l2.28189 2.77087z"/>
  <path fill="#8C0000" d="M127.593 328.096c-3.6944,-3.09685 -10.1597,-5.86772 -14.9953,-7.82363l0.325984 -1.79291c7.45711,1.49414 13.5695,4.75427 18.4181,7.98662 -0.815245,1.41307 -2.06476,1.95619 -3.74882,1.62992z"/>
  <path fill="#8C0000" d="M131.016 220.521l-0.162992 1.95591c1.4108,0.267024 3.04129,2.55062 4.88977,4.56378l-0.162992 -3.09685c-1.52164,-1.7932 -3.04299,-2.93414 -4.56378,-3.42284z"/>
  <path fill="#8C0000" d="M137.535 222.477c5.31071,5.55534 7.07613,12.1017 8.96457,14.8323l1.46693 -3.74882c-1.12706,-4.07452 -3.81685,-8.14989 -9.29056,-12.2244l-1.14095 1.14095z"/>
  <path fill="#8C0000" d="M149.597 226.878c1.52107,3.69411 2.4446,8.58359 3.09685,14.0173l3.09685 -1.30394c-0.814961,-5.43345 -2.55402,-9.2367 -4.56378,-13.8543l-1.62992 1.14095z"/>
  <path fill="#8C0000" d="M166.222 250.023l2.93386 -0.651969c-1.80652,-7.34797 -4.3869,-12.3735 -7.49764,-15.8102l-1.62992 1.79291c2.71701,4.45521 4.78148,9.34498 6.1937,14.6693z"/>
  <path fill="#8C0000" d="M170.949 242.036c3.5314,2.77087 5.75859,6.62797 6.68268,11.5724l2.60788 4.56378c0.543402,-9.019 -1.73877,-15.2127 -6.84567,-18.5811 -1.6852,0.163276 -2.49959,0.978237 -2.44488,2.44488z"/>
  <path fill="#8C0000" d="M183.499 245.785c0.217134,15.3213 8.42117,15.3213 8.96457,28.3606l2.1189 3.74882c3.57903,-13.087 -8.3058,-17.0666 -11.0835,-32.1095z"/>
  <path fill="#8C0000" d="M195.235 270.56l1.62992 -0.325984c-1.2498,-4.34636 -3.31399,-6.57383 -3.74882,-13.0394 -0.814678,-1.24951 -1.62964,-1.1948 -2.44488,0.162992 0.543402,6.51969 3.04271,8.80158 4.56378,13.2024z"/>
  <path fill="#8C0000" d="M195.887 258.499l-0.651969 7.66063c1.62964,1.4125 3.04186,3.6944 4.2378,6.84567l-1.14095 -8.47559c-0.814961,-2.01033 -1.79291,-1.0868 -2.44488,-6.03071z"/>
  <path fill="#8C0000" d="M199.635 261.432l-0.162992 7.66063c3.63969,5.25629 5.16076,10.336 3.58583,15.1583l1.95591 2.44488c2.28161,-8.62555 1.0321,-17.0739 -5.37874,-25.2638z"/>
  <path fill="#8C0000" d="M204.036 261.269c1.18176,4.72677 2.18636,9.45298 2.93386,14.1803l-1.79291 -0.162992 -2.60788 -10.9205 1.46693 -3.09685z"/>
  <path fill="#8C0000" d="M206.155 261.595l4.2378 18.7441 -1.30394 2.28189c2.01005,2.17332 3.80296,5.43288 5.37874,9.77953l1.62992 -0.488977 0.162992 -5.54174c-4.88977,-7.76948 -5.86772,-16.8426 -8.80158,-25.2638l-1.30394 0.488977z"/>
  <polygon fill="#8C0000" points="210.556,264.04 216.913,280.34 214.631,278.71 211.697,274.961 208.763,265.833 "/>
  <polygon fill="#8C0000" points="210.882,263.551 212.838,261.595 217.891,275.776 214.305,274.309 "/>
  <polygon fill="#8C0000" points="215.772,260.128 214.142,262.736 217.728,275.776 219.194,275.776 "/>
  <polygon fill="#8C0000" points="217.239,275.776 219.031,282.621 220.824,285.718 219.846,276.265 "/>
  <path fill="#8C0000" d="M218.217 271.212l2.44488 0 7.00866 14.0173 -0.325984 2.44488c-2.71673,-5.97657 -4.61821,-5.92214 -6.3567,-8.47559 -0.977953,-2.60788 -0.651969,-4.88977 -2.77087,-7.98662z"/>
  <path fill="#8C0000" d="M220.498 256.869l-2.44488 6.84567 6.3567 15.3213 0.325984 -3.74882c-1.73877,-3.85767 -3.80325,-12.1158 -4.2378,-18.4181z"/>
  <path fill="#8C0000" d="M223.595 252.794l-2.77087 7.49764c3.20542,1.4125 4.29194,17.4943 9.61654,27.7087l3.09685 1.30394c-6.73711,-12.6593 -6.79153,-24.6662 -9.94252,-36.5103z"/>
  <path fill="#8C0000" d="M225.062 251.327l0.977953 4.88977c1.19509,1.35808 1.24951,6.46526 2.1189,9.45355 0.733607,-3.53169 0.570331,-7.06337 0,-10.5945l-1.30394 -5.86772 -1.79291 2.1189z"/>
  <path fill="#8C0000" d="M230.441 247.904l-1.79291 3.25984c0.814961,0.760536 1.30394,7.06281 2.44488,10.5945 0.543118,-3.31427 1.24951,-6.30255 1.62992,-9.94252l-2.28189 -3.91181z"/>
  <polygon fill="#8C0000" points="233.375,248.556 235.494,253.935 236.961,253.12 235.331,244.807 "/>
  <polygon fill="#8C0000" points="241.687,242.688 240.22,250.675 239.243,249.697 239.894,242.851 "/>
  <polygon fill="#8C0000" points="236.798,245.948 237.45,249.208 238.754,248.719 238.591,246.111 "/>
  <polygon fill="#8C0000" points="243.643,241.384 243.317,246.437 244.947,245.459 245.762,241.384 "/>
  <polygon fill="#8C0000" points="247.555,237.473 247.066,242.199 249.022,242.199 249.348,238.125 "/>
  <polygon fill="#8C0000" points="252.282,237.636 251.956,240.569 250.978,240.243 250.815,237.473 "/>
  <path fill="#8C0000" d="M254.401 235.843l1.46693 2.60788c1.05931,-1.76627 2.47153,-3.17821 4.40079,-4.07481l-0.325984 -4.40079c-2.71673,1.52136 -4.56435,3.47726 -5.54174,5.86772z"/>
  <polygon fill="#8C0000" points="261.083,231.768 262.387,233.887 264.017,233.235 262.55,230.301 "/>
  <path fill="#8C0000" d="M238.581 292.242c-4.35005,-5.22029 -7.39531,-15.0083 -11.0931,-22.5125 1.63134,0.222803 3.26296,0.00907087 4.89402,-3.26268 2.06646,8.59182 1.1965,12.6159 6.19909,25.7752z"/>
  <path fill="#8C0000" d="M242.822 292.894c-2.71899,-7.83043 -4.13292,-14.3558 -6.19909,-21.5337l-2.28388 0.978804c2.44658,7.23204 5.16501,14.1925 8.48296,20.5549z"/>
  <path fill="#8C0000" d="M247.39 293.22c-2.71899,-7.83043 -3.80665,-12.7244 -5.87282,-19.9023l-3.26268 -0.326268c2.44658,7.23204 5.81755,13.8662 9.1355,20.2286z"/>
  <path fill="#8C0000" d="M251.631 293.547c-2.71899,-7.83043 -3.80665,-12.7244 -5.87282,-19.9023l-3.26268 -0.326268c2.44658,7.23204 5.81755,13.8662 9.1355,20.2286z"/>
  <path fill="#8C0000" d="M256.199 292.894c-2.28699,-5.32772 -4.5703,-10.44 -5.87282,-18.5973l-2.93641 0.326268c2.4463,7.66687 4.83846,12.3435 8.80923,18.271z"/>
  <path fill="#8C0000" d="M261.093 293.22c-2.28699,-5.32772 -4.89657,-9.4612 -6.19909,-17.6185l-2.93641 0.326268c2.4463,7.66687 5.16473,11.3647 9.1355,17.2922z"/>
  <path fill="#8C0000" d="M256.199 277.56c2.61043,5.32942 5.22057,9.46234 7.83043,13.0507l-5.22029 -14.0295 -2.61014 0.978804z"/>
  <path fill="#8C0000" d="M261.419 278.538c2.61043,5.32942 4.24177,9.13607 6.85163,12.7244l-4.89402 -13.0507 -1.95761 0.326268z"/>
  <polygon fill="#8C0000" points="270.555,288 268.924,285.064 268.597,291.263 264.682,276.907 268.924,280.822 "/>
  <polygon fill="#8C0000" points="271.86,279.517 269.576,279.191 272.186,286.695 273.818,285.39 "/>
  <polygon fill="#8C0000" points="283.279,281.475 289.152,299.746 286.216,283.759 "/>
  <path fill="#8C0000" d="M273.165 279.517l3.91521 0 0.978804 6.19909 -0.978804 -0.326268 0.326268 5.22029c-1.41421,-2.60617 -2.82813,-6.74079 -4.24148,-11.0931z"/>
  <polygon fill="#8C0000" points="277.733,280.822 284.911,295.831 280.669,279.843 "/>
  <polygon fill="#8C0000" points="290.457,284.737 288.5,284.737 291.436,295.178 "/>
  <polygon fill="#8C0000" points="296.983,284.737 299.919,285.716 301.224,296.483 299.919,301.377 "/>
  <polygon fill="#8C0000" points="295.351,284.411 292.415,284.085 297.309,302.356 "/>
  <polygon fill="#8C0000" points="304.16,288.326 301.55,287.348 304.487,300.725 "/>
  <path fill="#8C0000" d="M311.012 291.589c1.63276,5.75972 2.50214,13.0479 3.26268,20.5549l0.652536 -17.2922 -3.91521 -3.26268z"/>
  <polygon fill="#8C0000" points="305.466,289.631 306.118,297.788 308.076,295.831 309.054,297.788 308.728,287.348 "/>
  <polygon fill="#8C0000" points="315.58,296.157 317.211,303.661 317.864,296.157 "/>
  <polygon fill="#8C0000" points="322.105,303.335 323.737,322.258 325.042,305.945 "/>
  <polygon fill="#8C0000" points="318.843,298.114 319.821,310.839 321.126,302.356 "/>
  <polygon fill="#8C0000" points="325.694,305.292 325.368,317.691 326.999,313.449 326.673,329.11 328.957,326.826 329.609,311.818 "/>
  <polygon fill="#8C0000" points="331.567,313.775 331.567,330.741 333.198,324.216 334.83,324.868 331.893,346.402 336.135,332.699 337.766,335.635 335.482,345.097 335.808,351.949 340.05,335.962 340.376,340.856 337.44,356.843 342.66,341.508 342.008,332.373 339.724,325.195 336.787,327.479 337.114,320.627 334.503,319.322 333.851,314.754 "/>
  <path fill="#8C0000" d="M343.313 338.898c0.108567,6.74249 -1.08709,13.0501 -3.58895,18.9235l-0.326268 3.91521c2.61014,-4.6766 4.89402,-10.6583 5.87282,-15.9871l-1.95761 -6.85163z"/>
  <path fill="#8C0000" d="M345.923 343.466c0.108567,6.74249 -1.41336,10.7663 -3.91521,16.6397l0 2.93641c2.61014,-4.6766 4.89402,-7.39559 5.87282,-12.7244l-1.95761 -6.85163z"/>
  <polygon fill="#8C0000" points="348.859,351.296 346.249,357.169 348.859,357.169 350.164,352.601 "/>
  <polygon fill="#8C0000" points="227.161,291.589 229.445,295.831 231.076,294.199 229.119,289.631 "/>
  <path fill="#8C0000" d="M230.75 290.937l1.95619 1.46693c-0.270425,1.57748 0.763087,3.64422 2.61156,5.71096l-1.95761 0c-1.6852,-1.57776 -2.39216,-4.13348 -2.61014,-7.17789z"/>
  <polygon fill="#8C0000" points="246.088,301.691 249.185,305.114 247.555,302.017 "/>
  <path fill="#8C0000" d="M293.845 330.541c-8.96457,-7.66063 -16.9512,-11.0835 -25.4268,-16.6252l0.814961 -7.82363c2.65068,2.28217 2.21584,4.40107 3.42284,6.84567 0.327118,-1.57323 0.54567,-3.3103 0,-6.1937 1.12535,1.66139 2.47606,3.08891 3.09685,5.05276l1.14095 -1.62992c1.35836,2.44488 0.760819,5.54174 2.60788,8.3126 0.38041,-2.87943 0.109134,-5.54145 -0.814961,-7.98662 1.90176,0.814961 3.36869,3.15156 4.40079,7.00866l0.977953 -1.79291c2.71673,1.19565 4.56435,3.91238 5.54174,8.14961l1.62992 1.30394 0 -4.72677 -1.62992 -3.74882 2.60788 3.25984 -0.977953 -5.37874c3.04441,4.2361 5.16218,7.93163 6.84567,13.8543 -1.41279,-2.1189 -2.82529,-4.88977 -4.2378,-6.3567 0,2.82529 0.814961,5.65059 0,8.47559z"/>
  <path fill="#8C0000" d="M268.418 310.819c-0.760252,-2.39017 -2.17276,-4.78063 -4.2378,-7.17166 1.68435,2.82558 2.49959,5.65087 2.44488,8.47559l1.79291 -1.30394z"/>
  <polygon fill="#8C0000" points="260.432,301.366 266.788,311.96 264.017,311.471 260.432,303.973 "/>
  <polygon fill="#8C0000" points="256.846,299.736 261.083,308.863 259.454,308.863 256.194,302.506 "/>
  <polygon fill="#8C0000" points="256.357,303.484 254.564,303.158 256.846,308.537 258.965,308.048 "/>
  <path fill="#8C0000" d="M248.533 299.573l2.93386 6.03071 4.07481 1.46693 -1.30394 -3.25984c-2.11918,-0.543685 -4.02066,-1.95647 -5.70473,-4.2378z"/>
  <polygon fill="#8C0000" points="188.389,204.711 191.16,205.2 188.878,203.081 "/>
  <polygon fill="#8C0000" points="196.213,197.865 193.442,196.725 191.16,199.169 194.909,200.799 "/>
  <polygon fill="#8C0000" points="195.561,193.628 199.309,194.28 198.331,196.562 195.724,195.747 "/>
  <polygon fill="#8C0000" points="189.693,201.125 191.975,203.081 191.975,201.288 190.182,199.495 "/>
  <polygon fill="#8C0000" points="200.287,189.227 202.895,191.183 200.939,193.791 198.331,191.672 "/>
  <polygon fill="#8C0000" points="201.917,187.923 204.688,190.042 206.807,188.412 206.318,185.641 203.873,185.641 "/>
  <polygon fill="#8C0000" points="207.948,183.196 211.371,184.174 216.261,180.751 213.001,178.958 "/>
  <polygon fill="#8C0000" points="220.498,176.187 222.291,178.795 219.52,180.588 216.913,178.632 "/>
  <polygon fill="#8C0000" points="222.78,175.047 223.269,178.469 227.833,178.306 227.507,176.35 "/>
  <polygon fill="#8C0000" points="230.93,174.558 230.93,177.328 235.005,179.121 235.168,177.328 233.212,174.558 232.234,175.536 "/>
  <polygon fill="#8C0000" points="236.961,174.558 237.939,177.165 241.198,178.632 242.176,176.676 239.894,175.047 "/>
  <polygon fill="#8C0000" points="40.718,57.0402 39.7401,61.93 42.1849,61.604 42.3479,57.3662 "/>
  <polygon fill="#8C0000" points="81.4661,73.9914 84.3999,77.7402 87.1708,77.0882 83.096,72.6874 "/>
  <polygon fill="#8C0000" points="74.9464,74.1544 79.0212,77.0882 85.3779,78.2292 77.0653,71.2205 76.9023,73.8284 "/>
  <polygon fill="#8C0000" points="83.585,70.0796 88.3117,75.2953 88.3117,72.5244 86.1928,70.7315 "/>
  <polygon fill="#8C0000" points="85.7039,67.6347 88.6377,72.5244 89.6157,69.5906 87.9857,67.9607 "/>
  <polygon fill="#8C0000" points="88.6377,66.0048 90.9196,69.4276 91.7346,66.4937 "/>
  <polygon fill="#8C0000" points="47.0747,54.7583 50.0086,58.8331 52.4534,56.5512 "/>
  <polygon fill="#8C0000" points="43.6519,55.8992 43.9778,58.8331 45.4448,58.6701 45.4448,56.2252 "/>
  <path fill="#BF9F4F" d="M60.6031 77.7402c-1.92331,0.659339 -3.54161,0.130961 -2.77087,-2.28189 0.10885,-1.08652 0.869386,-3.15099 3.25984,-4.2378 2.55345,-0.217417 3.58555,0.434835 3.09685,1.95591 -2.28217,1.30422 -3.47783,2.82586 -3.58583,4.56378z"/>
  <path fill="#BF9F4F" d="M66.1448 83.1189c-1.92331,0.659339 -3.54161,0.130961 -2.77087,-2.28189 0.10885,-1.08652 0.869386,-3.15099 3.25984,-4.2378 2.55345,-0.217417 3.58555,0.434835 3.09685,1.95591 -2.28217,1.30422 -3.47783,2.82586 -3.58583,4.56378z"/>
  <path fill="#BF9F4F" d="M72.0125 86.7048c-1.92331,0.659339 -4.03058,0.456945 -3.25984,-1.95591 0.10885,-1.08652 1.03238,-3.63997 3.42284,-4.72677 2.55345,-0.217417 3.58555,0.434835 3.09685,1.95591 -2.28217,1.30422 -3.15184,2.98885 -3.25984,4.72677z"/>
  <polygon fill="#8C0000" points="374.852,62.2559 378.438,67.3087 380.72,63.2339 378.275,63.2339 375.993,60.789 "/>
  <path fill="#8C0000" d="M437.415 31.8303c-0.644599,0.767056 -1.33002,1.52929 -2.052,2.28473l0.632126 2.64728c0.618237,-0.65537 1.22854,-1.31981 1.83033,-1.99276l-0.410457 -2.93925zm1.01197 -1.25065c1.93266,-0.56041 2.86101,-2.22775 3.08438,-4.98983 0.981922,0.205228 1.96838,0.268725 1.79745,-3.9189l2.77087 1.14095c-1.63616,3.92429 -4.25225,7.34854 -7.04608,10.5832l-0.606614 -2.81537zm-3.84832 4.33871c-0.608032,0.610016 -1.24044,1.21578 -1.89496,1.81644l0.663307 2.73288c0.625323,-0.615118 1.24299,-1.23902 1.85244,-1.87115l-0.620788 -2.67817zm-3.72869 6.92164c-11.4874,10.5355 -25.53,18.3396 -42.7955,22.6979 -1.35836,-1.2498 -2.28217,-2.71673 -2.77087,-4.40079 16.4296,-3.59405 34.0897,-11.9517 45.7297,-21.922l-0.163276 3.62495z"/>
  <path fill="#8C0000" d="M415.763 41.5559l1.79291 -0.162992c0.651118,-5.32659 -0.109417,-8.96457 -1.62992,-11.2465 1.14095,5.48759 0,7.55207 -0.162992,11.4095z"/>
  <path fill="#8C0000" d="M382.35 80.5111c3.36813,3.09685 6.73654,4.67207 10.1055,4.72677l15.3213 -9.12756 -3.42284 -4.07481 -2.60788 2.60788 -1.14095 -1.95591 -2.93386 3.25984 -0.651969 -2.28189 -3.09685 3.09685 -1.79291 -1.46693 -1.95591 3.25984 -2.1189 -2.44488 -2.28189 3.09685 -1.76995 -0.101764 -1.65288 1.4057z"/>
  <polygon fill="#8C0000" points="406.636,72.0355 409.569,75.9473 411.851,73.8284 408.754,70.8945 "/>
  <polygon fill="#8C0000" points="409.406,69.7536 412.829,73.1764 416.904,70.5685 411.199,68.7756 "/>
  <polygon fill="#8C0000" points="419.512,71.2205 416.578,68.7756 418.534,66.6567 421.305,69.2646 "/>
  <path fill="#8C0000" d="M420.327 66.4937l3.91181 3.25984 2.28189 -1.46693c1.19509,3.63997 18.3637,2.71644 28.5236,2.60788l-2.44488 -5.05276 -1.14095 2.60788 -2.77087 -1.79291 -0.977953 0.325984 -1.14095 -1.62992 -2.44488 1.30394c-7.89194,-1.22258 -13.1352,-2.7978 -14.5063,-4.88977 -2.6623,2.22775 -5.75944,3.80353 -9.29056,4.72677z"/>
  <polygon fill="#8C0000" points="438.582,60.952 435.811,59.4851 436.952,56.3882 441.516,55.4103 441.027,59.3221 "/>
  <polygon fill="#8C0000" points="444.124,57.5292 440.701,55.2473 443.472,53.9433 446.569,55.0843 "/>
  <polygon fill="#8C0000" points="444.45,54.1063 444.776,52.1504 447.221,51.9874 447.384,54.4323 "/>
  <polygon fill="#8C0000" points="450.317,45.6307 452.762,48.2386 454.718,46.4457 452.436,45.4677 "/>
  <polygon fill="#8C0000" points="445.917,50.6835 449.502,53.2914 451.295,50.6835 450.643,49.2166 "/>
  <polygon fill="#8C0000" points="452.273,45.1418 456.185,45.4677 456.348,43.5118 452.925,43.5118 "/>
  <polygon fill="#8C0000" points="455.696,40.741 456.022,43.6748 458.793,41.3929 458.793,38.2961 "/>
  <polygon fill="#8C0000" points="461.89,32.9173 461.727,34.8732 463.52,34.8732 463.683,32.5914 "/>
  <polygon fill="#8C0000" points="458.793,36.6662 458.793,39.437 460.423,39.437 460.423,36.5032 "/>
  <polygon fill="#8C0000" points="307.047,340.81 307.21,343.092 309.166,345.047 309.003,340.973 "/>
  <polygon fill="#8C0000" points="310.796,344.721 310.47,348.796 312.752,352.382 312.589,346.84 "/>
  <polygon fill="#8C0000" points="314.708,347.981 314.545,352.708 315.849,355.968 317.968,355.968 318.294,350.752 "/>
  <polygon fill="#8C0000" points="320.902,353.36 320.902,357.761 319.109,359.717 319.272,354.664 "/>
  <polygon fill="#8C0000" points="323.835,356.62 323.672,363.466 320.739,363.955 321.065,359.228 322.369,356.783 "/>
  <polygon fill="#8C0000" points="327.584,358.087 326.932,361.51 324.487,374.223 322.532,374.875 324.976,366.725 324.976,359.228 "/>
  <polygon fill="#8C0000" points="329.051,360.206 326.117,373.408 328.725,371.615 330.844,361.673 "/>
  <polygon fill="#8C0000" points="333.941,365.095 333.289,368.518 330.681,370.311 331.822,365.095 "/>
  <polygon fill="#8C0000" points="323.021,369.17 321.228,367.866 319.924,369.659 320.25,372.756 "/>
  <polygon fill="#8C0000" points="321.065,367.54 319.272,369.333 318.783,365.258 "/>
  <polygon fill="#8C0000" points="310.959,358.902 311.448,360.858 313.893,361.51 313.078,358.902 "/>
  <polygon fill="#8C0000" points="316.338,362.651 315.849,367.703 317.316,366.562 317.805,363.792 "/>
  <polygon fill="#8C0000" points="316.175,360.206 315.686,365.095 313.404,363.14 314.382,361.021 "/>
  <polygon fill="#8C0000" points="317.968,364.28 317.805,367.377 318.946,367.051 318.946,365.421 "/>
  <path fill="#BF9F4F" d="M292.541 103.819c-0.47537,-2.18665 -0.136063,-4.69984 -0.611433,-6.88678 -0.610866,-2.81112 -4.80813,-6.60104 -2.64841,-8.10851 6.95396,4.5635 8.04048,9.56155 3.25984,14.9953z"/>
  <path fill="#BF9F4F" d="M288.466 98.1142l-2.44488 -5.70473c1.68406,0.597544 2.49902,2.49874 2.44488,5.70473z"/>
  <ellipse fill="#BF9F4F" transform="matrix(0.903951 0.427636 -0.427636 0.903951 297.92 105.367)" rx="2.28189" ry="1.38529"/>
  <path fill="#8C0000" d="M262.224 101.7c-6.19399,-0.217701 -12.1706,-1.3045 -17.9291,-3.25984 4.50907,8.04076 8.52945,8.964 17.9291,3.25984z"/>
  <path fill="white" d="M321.512 376.649l9.31408 -5.65002 -0.289701 -4.20066 -2.02791 5.64917 -2.75216 1.01395 0.579402 -4.20066 -1.88306 5.35947 -1.88306 0.579402 1.1588 -5.64917c-1.93153,1.40032 -2.70369,3.09033 -4.05581,4.63521l-3.76611 0.579402 -21.4379 -23.7555 -0.289701 -3.04186 -1.11203 -0.587339 0 4.24148 22.8388 27.0802c2.03414,-0.0771024 3.47074,-1.64013 5.60637,-2.05313zm-54.5465 -275.275c0.155906,2.10586 0.547087,4.62104 1.40542,6.98911l0.604063 -6.64158 -2.00948 -0.347528zm16.314 -4.24233c-13.1757,-10.806 -18.6951,-2.65465 -27.1494,-2.88567 -5.26706,-0.143717 -6.33459,-4.00564 -12.0033,-3.31257 -1.38104,-0.228756 -1.59137,2.08857 -0.775559,4.94533 4.15361,-5.04284 6.16252,0.214299 13.3588,0.382961 9.55163,0.223654 11.7933,-6.66822 26.5694,0.869953zm126.265 -68.1891c-1.74019,30.4518 -33.1705,18.4887 -39.4784,28.7116 -6.74249,-2.33802 -16.0954,0.272693 -23.0828,-2.4874 -7.42394,-2.93244 -12.589,-4.03795 -23.2472,1.83487 -9.1355,-0.489544 -18.2707,2.01203 -27.4065,5.87282 -14.0295,2.06674 -24.9049,-4.45833 -29.3641,13.0507 -2.56224,2.47408 -4.69446,4.30214 -4.99522,7.75928 3.63855,-3.06482 4.81465,-5.11569 11.7848,-7.45654 -1.59336,-3.42794 -3.18671,-0.193039 -4.34551,-1.1588 -0.803056,-6.33714 6.30652,-10.1755 27.5216,-9.56013 11.4917,-6.05963 23.6109,-4.85235 29.6943,-6.22857 9.22224,-7.67707 33.2192,5.35947 44.6139,0.434551 3.07134,-1.02728 20.0489,-4.84299 29.4069,-9.97796 9.35859,-5.13525 11.2431,-11.3009 8.89824,-20.7944zm30.9954 -12.3982c-5.00315,7.83071 -11.7462,14.7915 -20.2286,20.8811 7.15295,-5.19676 14.0564,-8.7738 22.0496,-19.4275l-1.82098 -1.45361zm-23.0377 39.9132c17.0887,-3.92769 30.9079,-14.76 41.9613,-31.4303 0.962363,0.312662 1.53808,1.0114 1.728,2.09622 -18.8314,28.6245 -49.5213,38.0656 -81.5508,45.3382 -0.82063,-0.965197 -0.868819,-1.93096 -0.14485,-2.89701 20.4951,-2.75754 22.9161,-7.26123 38.0064,-13.1071zm40.4521 9.18766c0,-1.19027 -0.367087,-2.52624 -1.10098,-4.07594 -4.89402,0.10885 -9.78804,-1.41364 -13.0507,-2.61014l2.61411 3.21817 11.5376 3.46791zm-157.71 277.167l-2.51206 1.59846c4.94759,2.00636 9.3155,7.48914 13.9731,11.2337l-0.434551 -1.73821c-3.79871,-3.45147 -5.73846,-6.56391 -11.0265,-11.094zm-80.5828 -46.8958c4.50142,3.19606 9.78293,7.90696 15.9817,14.269l0.652536 -5.22029 -14.2529 -8.8543 -2.38139 -0.194457zm-23.3238 -14.3084c2.44602,4.89742 3.36189,9.85805 6.02618,13.5692 1.1418,-1.30479 1.7949,-2.85421 1.95789,-4.64882l-6.46895 -8.03339 -1.51512 -0.886961zm-16.16 -21.0152c0.326268,8.91808 6.52536,16.5311 9.78804,24.7964 0.897166,-0.366803 1.61121,-1.00913 2.24447,-1.77194 -7.19745,-9.70271 -6.13843,-19.84 -12.0325,-23.0244zm-10.1149 -8.22133c2.0812,2.24901 4.00507,4.81295 5.77162,7.69153l0.870237 -2.1926 -6.37342 -7.24252 -0.268441 1.74359zm-21.9782 -11.5237c0.604347,3.25446 2.03443,5.44649 3.89622,7.36186l0.244063 -2.65153 -2.17276 -3.91096 -1.96753 -0.79937zm-46.8638 77.8207c3.05518,4.04079 8.25449,6.07238 13.5938,7.91519 -1.39351,-4.37868 -7.13282,-3.97729 -7.94722,-6.76262 -0.814394,-2.78532 3.87553,-4.8464 3.06114,-9.94933 -1.35128,4.41865 -4.29647,6.44655 -7.96678,7.38737l-0.740977 1.40939zm64.601 -125.691l0 6.27704c-32.2087,-13.3209 -70.3557,-15.2873 -76.1318,-17.4923 -10.3303,-3.94328 -17.0575,-3.2074 -23.1353,4.58816 -3.36841,4.32057 -6.4834,7.74936 -6.03014,12.7602 1.22627,13.559 12.3038,41.1313 21.2596,92.7363 3.47188,20.0055 13.0212,16.0761 17.3407,20.8928 -1.30167,-15.8766 -11.3638,-3.73918 -14.7257,-24.2113 -2.74422,-16.7105 -14.2591,-61.9997 -21.6919,-84.1077 -0.0192756,-6.40885 0.748063,-9.42265 5.85581,-14.4422 6.91087,-6.79153 9.63156,-7.83837 13.9887,-7.43018 12.9263,1.88192 20.6133,6.6189 33.2365,9.42945 15.6441,3.48321 22.9717,-0.189638 46.5256,12.426 13.2613,7.10278 20.5733,2.36523 26.7029,14.3572 5.77219,-12.5385 15.5679,-24.6875 33.3156,-36.0678 -10.2359,4.15247 -20.8579,12.5538 -31.8671,25.204 -2.31761,2.17276 -5.79402,0.869103 -8.69103,1.30365l-1.30365 -2.17276 -1.4485 1.01395c-7.46448,-3.31852 -9.64942,-13.3484 -11.8777,-16.6578l-1.32265 1.59336zm-5.42155 -12.7698c0.412158,3.0223 0.378142,6.26826 0.853796,9.25881l3.12208 -0.89178 -1.72205 -8.77862 -2.25383 0.411591zm-6.17528 -14.9253c0.422646,3.40356 0.810142,7.10504 1.15625,11.1334l2.73288 -0.993544 0.194457 -9.24208 -1.30365 -2.75216 -2.77994 1.85443zm-2.25128 -14.0335c0.344977,1.67641 0.678331,3.46451 0.998363,5.37194l2.7292 -0.869953 -0.579402 -4.34551 -3.14816 -0.156473zm-127.468 -107.02c0.0155906,1.38841 0.382961,3.00416 1.02529,4.75909 7.46703,3.72076 19.859,2.08176 29.3539,3.77433l-0.724252 -2.17276c-11.8389,-0.444756 -19.1463,-4.11222 -29.6549,-6.36066zm25.7953 -0.978237c-5.46407,-1.50066 -12.1728,-3.49342 -19.8808,-8.10879 -0.917575,0.917575 -0.802489,2.76435 -0.584788,4.72734 6.80485,0.917859 13.7546,3.71877 20.8488,4.49178l-0.383244 -1.11033zm97.9359 50.9936c-8.23068,-4.05581 -18.4425,-7.5413 -30.6601,-15.5347 -28.3178,-18.5278 -25.9818,-27.5876 -51.0455,-27.5956 0.0771024,1.94967 -2.30825,4.04419 0.231307,5.84901 16.7114,-6.77424 24.8199,4.72536 43.0336,18.5528 10.728,8.14451 30.7364,20.1892 38.4406,18.7285zm171.583 29.3162c-7.82844,14.0321 -22.1854,18.1641 -40.4578,18.2713 -1.19509,1.25093 -0.434551,2.82756 -0.651969,4.2412 -1.62482,0.874489 -5.38016,-0.105732 -9.62561,-0.978804 -0.97767,1.03351 -0.325701,2.39273 -0.488693,3.58895 -3.80636,0.978804 -7.77629,-0.163276 -12.2355,-0.489544 -1.73849,0.924945 0.271559,2.33858 -0.000283465,3.58923 -2.93641,-0.217417 -7.0149,-0.27241 -10.6038,-0.816378 -1.03181,1.68576 0.218268,3.04554 0.327118,4.56832 -3.69751,0.761386 -7.06989,-0.108284 -11.094,0.000283465 -1.41194,0.707528 0.435685,3.04498 0.653386,4.56747 -10.4947,1.41477 -17.7823,-0.760819 -27.4076,-4.56832 -1.95591,0.76337 -1.46721,5.60155 -1.95647,8.48353l-5.05786 -4.07821c-2.66287,1.41421 -2.55487,3.96936 -3.09884,5.70955l3.35169 6.75978 -2.02791 1.4485c-2.75216,-0.14485 -5.21462,-1.4485 -8.25648,-0.434551 0.0484725,2.70397 3.13852,2.94548 3.18671,5.06977l-0.579402 1.73821c-2.89701,-0.193039 -5.79402,-1.11033 -8.69103,-0.579402 0.579402,2.41427 3.47641,2.94548 3.47641,5.50432l0 2.46246c-1.44822,2.17276 -3.86221,3.57336 -7.24252,4.20066l3.18671 4.63521c1.49698,-1.25518 3.86277,-1.35184 5.79402,-2.02791l-1.01395 -3.76611 1.88306 -2.75216 3.33156 -0.289701 -0.14485 -3.33156 3.33156 -3.33156 5.64917 0 0.14485 -4.34551 1.4485 -2.46246 3.62126 1.4485c0.640347,-2.29323 1.9681,-4.12781 3.76611,-5.64917l25.9282 -2.89701 0.434551 -2.89701 10.5741 -1.4485 1.1588 -3.33156 10.1395 -0.869103 0.579402 -3.04186 6.08372 -0.434551 2.31761 -2.75216 2.02791 1.73821 3.18671 0.14485 2.02791 -3.47641 8.98073 -0.434551c2.65691,-8.0263 31.5315,-6.78218 34.0433,-26.6862zm139.643 -22.1862c-0.347811,-4.60035 -11.5464,-0.855213 -21.5773,-7.82731 -10.743,-7.46646 -21.8217,-9.48558 -32.8269,-9.66615 -5.33764,1.78243 -7.759,3.11981 -10.7887,5.23899 -1.4485,1.01395 -0.579402,3.04186 0.869103,1.30365 30.5345,-13.9034 36.5528,12.6354 64.3238,10.9508zm-249.877 189.522l-1.3354 1.15654c1.85754,2.94066 3.41235,6.91739 5.85922,8.34463l0.642331 -3.5314c-1.1778,0.774426 -4.78914,-5.16529 -5.16614,-5.96977z"/>
  <path fill="white" d="M181.631 206.015c1.20699,-0.772441 1.83458,-1.83458 3.62126,-2.31761 -0.579402,-2.22095 -1.73821,-3.42794 -1.73821,-6.66312 -4.20038,-0.772441 -7.24224,-0.193039 -9.12558,1.73821 5.02158,2.55912 4.82854,4.82854 7.24252,7.24252z"/>
  <path id="path1937_2" fill="none" stroke="black" stroke-width="0.992126" d="M0.482173 1.15087l498.64 0.0297638 -0.407339 332.782c-18.1313,320.84 -478.242,321.126 -497.432,0.0788032l-0.800221 -332.89z"/>
 </g>
</svg>
